<svg xmlns="http://www.w3.org/2000/svg" viewBox="0 0 504 504">
    <path d="M236 362c0 19.4-15.8 124.6-35.3 124.6-19.5 0-35.3-105.2-35.3-124.7a35.3 35.3 0 0 1 70.7 0zm118.4 0c0 19.4-15.8 124.6-35.3 124.6-19.5 0-35.3-105.2-35.3-124.7a35.3 35.3 0 1 1 70.6 0z" fill="#057f73"/>
    <g fill="#15b78d">
        <path d="M359.6 315.2c0 126.4-44.6 84.3-99.7 84.3-55 0-99.6 42-99.6-84.3 0-72.2 44.6-130.7 99.6-130.7 55 0 99.7 58.5 99.7 130.7z"/>
        <path d="M294.3 214.3c11.2-10 33.3-3.6 49.2 14.2 15.9 18 85 114 73.8 124-11.3 10.1-98.8-69.8-114.7-87.7-15.8-17.8-19.6-40.5-8.3-50.5z"/>
    </g>
    <path fill="#089b78" d="M260 348.3c-49.6 0-90.7 34-98.4-51.4-.9 5.1-1.3 11.2-1.3 18.4 0 126.3 44.6 84.2 99.6 84.2 55 0 99.7 42 99.7-84.2 0-7.2-.5-13.3-1.4-18.4-7.6 85.4-48.7 51.4-98.3 51.4z"/>
    <path fill="#15b78d" d="M240.5 487.2c0 15-17.8 17-39.7 17-22 0-39.8-2-39.8-17s17.8-35.5 39.8-35.5c21.9 0 39.7 20.6 39.7 35.5z"/>
    <path fill="#089b78" d="M240.5 487.2c0 15-17.8 17-39.7 17-22 0-39.8-2-39.8-17"/>
    <path fill="#15b78d" d="M358.8 487.2c0 15-17.8 17-39.7 17s-39.7-2-39.7-17 17.8-35.5 39.7-35.5 39.7 20.6 39.7 35.5z"/>
    <path fill="#089b78" d="M358.8 487.2c0 15-17.8 17-39.7 17s-39.7-2-39.7-17"/>
    <path fill="#15b78d" d="M270.4 231.2c-1-15-21-26.1-44.9-24.7C201.6 207.9 84.8 227 85.6 242c1 15 119.3 20.4 143.1 19 23.9-1.4 42.5-14.7 41.7-29.8z"/>
    <path fill="#21cc9b" d="M388.9 124.3c0 63-57.8 94.6-129 94.6s-129-31.6-129-94.6C131 61.3 188.8 0 260 0s129 61.2 129 124.3z"/>
    <path fill="#15b78d" d="M388.9 124.3c0 63-57.8 94.6-129 94.6s-129-31.6-129-94.6c0-63 57.8-111.8 129-111.8s129 48.7 129 111.8z"/>
    <path fill="#089b78" d="M388.9 124.3c0 63-57.8 94.6-129 94.6s-129-31.6-129-94.6"/>
    <path fill="#038462" d="M223.4 54.6C239.3 69 251.5 104 237 119.9c-14.6 16-54.2 17.6-70 3-16-14.5-13.3-50 1.3-65.9a39 39 0 0 1 55.1-2.4z"/>
    <path fill="#243b3d" d="M223.4 54.6C239.3 69 251.5 104 237 119.9c-14.6 16-50.4 6.8-66.3-7.8a39 39 0 1 1 52.7-57.5z"/>
    <path fill="#1c292b" d="M168.3 57a39 39 0 0 1 55.1-2.4C239.3 69 251.5 104 237 119.9"/>
    <path fill="#038462" d="M296.4 54.6c-15.9 14.5-28.1 49.5-13.6 65.3 14.6 16 54.2 17.6 70 3 16-14.5 13.3-50-1.2-65.9a39 39 0 0 0-55.2-2.4z"/>
    <path fill="#243b3d" d="M296.4 54.6c-15.9 14.5-28.1 49.5-13.6 65.3 14.6 16 50.4 6.8 66.3-7.8a39 39 0 1 0-52.7-57.5z"/>
    <path fill="#1c292b" d="M351.6 57a39 39 0 0 0-55.2-2.4c-15.9 14.5-28.1 49.4-13.6 65.3"/>
    <g fill="#057f73">
        <circle cx="260" cy="306" r="14"/>
        <path d="M267.5 247.1v-11.7h-15.2v11.7a58.8 58.8 0 0 0 0 116.7v11.7h15.2v-11.7a58.8 58.8 0 0 0 0-116.7zm0 99.6v-19a23.3 23.3 0 0 1-15.2 0v19a41.9 41.9 0 0 1 0-82.4v19a23.4 23.4 0 0 1 15.2 0v-19a41.9 41.9 0 0 1 0 82.4z"/>
    </g>
</svg>
