<svg xmlns="http://www.w3.org/2000/svg" viewBox="0 0 504 504">
    <path d="M241 203.8c10.2 11.2 3.8 33.2-14 49.2-18 15.9-114 85-124.1 73.8-10-11.3 69.9-98.8 87.8-114.7 17.8-15.8 40.4-19.6 50.5-8.3zm22 0c-10 11.2-3.6 33.3 14.3 49.2 17.8 15.9 114 85 124 73.8 10-11.3-69.9-98.8-87.7-114.7-18-15.8-40.5-19.6-50.6-8.3z" fill="#d62b2b"/>
    <path d="M228.2 362c0 19.4-15.8 124.6-35.3 124.6-19.5 0-35.3-105.2-35.3-124.7a35.3 35.3 0 0 1 70.6 0zm118.4 0c0 19.4-15.8 124.6-35.4 124.6-19.5 0-35.3-105.2-35.3-124.7a35.3 35.3 0 0 1 70.7 0z" fill="#97a0a0"/>
    <path fill="#aeb7b7" d="M351.7 315.2c0 126.4-44.6 84.3-99.6 84.3-55 0-99.7 42-99.7-84.3 0-72.2 44.6-130.7 99.7-130.7 55 0 99.6 58.5 99.6 130.7z"/>
    <path fill="#d62b2b" d="M252 184.5c-26.1 0-50 13.4-67.7 35a49.5 49.5 0 0 0-2.1 14.2c0 32.2 31.3 74.2 69.9 74.2 38.6 0 69.9-42 69.9-74.2 0-4.9-.8-9.6-2.2-14.1-17.8-21.8-41.5-35.1-67.7-35.1z"/>
    <path fill="#aeb7b7" d="M232.6 487.2c0 15-17.8 17-39.7 17s-39.7-2-39.7-17 17.8-35.5 39.7-35.5 39.7 20.6 39.7 35.5z"/>
    <path fill="#97a0a0" d="M232.6 487.2c0 15-17.8 17-39.7 17s-39.7-2-39.7-17"/>
    <path fill="#aeb7b7" d="M351 487.2c0 15-17.8 17-39.8 17s-39.7-2-39.7-17 17.8-35.5 39.7-35.5 39.8 20.6 39.8 35.5z"/>
    <path fill="#97a0a0" d="M351 487.2c0 15-17.8 17-39.8 17s-39.7-2-39.7-17"/>
    <path fill="#aeb7b7" d="M381 124.3c0 63-57.7 94.6-129 94.6-71.1 0-128.9-31.6-128.9-94.6C123.1 61.3 181 0 252.1 0s129 61.2 129 124.3z"/>
    <path fill="#97a0a0" d="M381 124.3c0 63-57.7 94.6-129 94.6-71.1 0-128.9-31.6-128.9-94.6"/>
    <path fill="#a11" d="M280.5 168.6c0 10.3-12.7 18.6-28.4 18.6s-28.5-8.3-28.5-18.6c0-10.2 12.8-4.1 28.5-4.1s28.4-6.1 28.4 4.1z"/>
    <path fill="#d62b2b" d="M228.7 179.2c5.2 4.9 13.7 8 23.4 8s18.2-3.1 23.3-8c-5.1-4.8-13.7-8-23.3-8s-18.2 3.2-23.4 8z"/>
    <path fill="#808e8d" d="M215.6 71.6c15.8 14.6 28.1 49.5 13.5 65.4-14.5 16-54.1 17.6-70 3-16-14.6-13.3-50 1.3-66a39 39 0 0 1 55.2-2.4z"/>
    <path fill="#ffc200" d="M215.6 71.6c15.8 14.6 28.1 49.5 13.5 65.4-14.5 16-50.4 6.8-66.3-7.8a39 39 0 1 1 52.8-57.6z"/>
    <path fill="#ff9d00" d="M160.4 74a39 39 0 0 1 55.2-2.4c15.8 14.6 28.1 49.5 13.5 65.4"/>
    <path fill="#808e8d" d="M288.6 71.6c-16 14.6-28.2 49.5-13.6 65.4 14.5 16 54.1 17.6 70 3 16-14.6 13.3-50-1.3-66a39 39 0 0 0-55.1-2.4z"/>
    <path fill="#ffc200" d="M288.6 71.6c-16 14.6-28.2 49.5-13.6 65.4 14.5 16 50.4 6.8 66.3-7.8a39 39 0 1 0-52.7-57.6z"/>
    <path fill="#ff9d00" d="M343.7 74a39 39 0 0 0-55.1-2.4c-16 14.6-28.2 49.5-13.6 65.4"/>
    <path fill="#ffc200" d="M271.4 257.7a19.4 19.4 0 1 1-38.7 0 19.4 19.4 0 0 1 38.7 0z"/>
    <path fill="#ff9d00" d="M252 238.3a19.4 19.4 0 1 1 0 38.7"/>
    <path fill="#4a5151" d="M252 281a23.3 23.3 0 1 1 .1-46.7 23.3 23.3 0 0 1 0 46.6zm0-38.8a15.4 15.4 0 1 0 .1 30.9 15.4 15.4 0 0 0 0-30.9z"/>
    <path d="M272.4 325a4 4 0 0 1-4 3.9h-32.8a4 4 0 0 1 0-7.9h32.9a4 4 0 0 1 4 4zm0 13.7a4 4 0 0 1-4 4h-32.8a4 4 0 0 1 0-7.9h32.9a4 4 0 0 1 4 4zm0 13.8a4 4 0 0 1-4 4h-32.8a4 4 0 0 1 0-7.9h32.9a4 4 0 0 1 4 3.9z" fill="#d62b2b"/>
    <path fill="#b21b1b" d="M267.8 38.6V1a123.5 123.5 0 0 0-31.5 0v37.5a15.8 15.8 0 0 0 31.5 0z"/>
    <path fill="#d62b2b" d="M236.3 1.1v24.3a15.8 15.8 0 0 0 31.5 0V1.1a123.5 123.5 0 0 0-31.5 0z"/>
    <path d="M170 440.3h45.8c1.4-5.8 2.8-11.8 4-17.8H166c1.2 6 2.5 12 4 17.8zm118.3 0h45.8c1.5-5.8 2.8-11.8 4-17.8h-53.7c1.2 6 2.5 12 4 17.8z" fill="#b21b1b"/>
</svg>
