<svg xmlns="http://www.w3.org/2000/svg" viewBox="0 0 504 504">
    <path d="M365.4 64.7l34-8.4-5.5 30-27.5-9.8-8.4-7zm-8.4-9.1l16.5-30.9 18.7 24.1-25.8 14-10.7 1.6z" fill="#0a9b0a"/>
    <path d="M263 280.6c-10-11.2-3.6-33.3 14.3-49.2 17.8-15.9 114-85 124-73.8 10 11.3-69.9 98.8-87.7 114.6-18 16-40.5 19.7-50.6 8.4zm-22 0c10.1-11.2 3.7-33.3-14.1-49.2-18-15.9-114-85-124.1-73.8-10 11.3 69.9 98.8 87.8 114.6 17.8 16 40.4 19.7 50.5 8.4z" fill="#d39b5e"/>
    <path d="M228.2 362c0 19.4-15.8 124.6-35.3 124.6-19.5 0-35.3-105.2-35.3-124.7a35.3 35.3 0 0 1 70.6 0zm118.4 0c0 19.4-15.8 124.6-35.4 124.6-19.5 0-35.3-105.2-35.3-124.7a35.3 35.3 0 0 1 70.7 0z" fill="#70797a"/>
    <path fill="#0a9b0a" d="M351.7 315.2c0 126.4-44.6 84.3-99.6 84.3-55 0-99.7 42-99.7-84.3 0-72.2 44.6-130.7 99.7-130.7 55 0 99.6 58.5 99.6 130.7z"/>
    <path fill="#13bf13" d="M252 184.5c-52.7 0-95.8 53.9-99.2 122 4 105.4 46.9 67.4 99.3 67.4s95.3 38 99.3-67.4c-3.5-68.1-46.6-122-99.3-122z"/>
    <path fill="#ffce00" d="M232.6 487.2c0 15-17.8 17-39.7 17s-39.7-2-39.7-17 17.8-35.5 39.7-35.5 39.7 20.6 39.7 35.5z"/>
    <path fill="#eaa10f" d="M232.6 487.2c0 15-17.8 17-39.7 17s-39.7-2-39.7-17"/>
    <path fill="#ffce00" d="M351 487.2c0 15-17.8 17-39.8 17s-39.7-2-39.7-17 17.8-35.5 39.7-35.5 39.8 20.6 39.8 35.5z"/>
    <path fill="#eaa10f" d="M351 487.2c0 15-17.8 17-39.8 17s-39.7-2-39.7-17"/>
    <path fill="#efc286" d="M381 124.3c0 63-57.7 94.6-129 94.6-71.1 0-128.9-31.6-128.9-94.6C123.1 61.3 181 0 252.1 0s129 61.2 129 124.3z"/>
    <path fill="#232728" d="M141.7 62.7h220.7A131.8 131.8 0 0 0 252.1 0c-46.9 0-87.8 26.6-110.4 62.7z"/>
    <path fill="#e8b374" d="M381 124.3c0 63-57.7 94.6-129 94.6-71.1 0-128.9-31.6-128.9-94.6"/>
    <path d="M213.5 107.9c-.6 0-1.2-.2-1.7-.7a29.5 29.5 0 0 0-42 0c-1 1-2.6 1-3.5 0-1-1-1-2.5 0-3.4a34.4 34.4 0 0 1 49 0c.9.9.9 2.5 0 3.4-.5.5-1.2.7-1.8.7zm77.1 0c.6 0 1.3-.2 1.8-.7a29.5 29.5 0 0 1 42 0c1 1 2.5 1 3.5 0s1-2.5 0-3.4a34.4 34.4 0 0 0-49 0c-1 .9-1 2.5 0 3.4.5.5 1.1.7 1.7.7z" fill="#232728"/>
    <path fill="#13bf13" d="M131.7 67.5h240.7l-3.7-6.3H135.5c-1.4 2-2.6 4.1-3.8 6.3z"/>
    <path fill="#232728" d="M276.1 128.6c-9-9-18.2-5.4-24-1.3-5.8-4-15-7.7-24 1.3-24.2 23.8-55.5 24.3-56.8 10.6 0 0 3.4 32.9 52.8 5.9 0 0 20-12.3 24.3-6.4 1 1.5 2.2 2.7 3.7 2.6 1.4 0 2.6-1 3.5-2.6 4.5-6 24.5 6.4 24.5 6.4 49.3 27 52.7-6 52.7-6-1.3 13.8-32.6 13.3-56.7-10.5z"/>
    <g fill="#ffce00">
        <path d="M252 286.6a18 18 0 1 0 0 36 18 18 0 0 0 0-36zm0 30.8c-7 0-12.8-5.7-12.8-12.8a12.9 12.9 0 0 1 25.7 0c0 7-5.8 12.8-12.8 12.8z"/>
        <path d="M252 273.2a31.4 31.4 0 1 0 0 62.8 31.4 31.4 0 0 0 0-62.8zm0 57.6a26.3 26.3 0 1 1 .1-52.5 26.3 26.3 0 0 1 0 52.5z"/>
        <path d="M252 260.8a43.7 43.7 0 1 0 0 87.5 43.7 43.7 0 0 0 0-87.5zm0 82.3a38.6 38.6 0 1 1 .1-77.2 38.6 38.6 0 0 1 0 77.2z"/>
        <path d="M252 249.4a55.2 55.2 0 1 0 0 110.4 55.2 55.2 0 0 0 0-110.4zm0 105.1a50 50 0 1 1 .2-100 50 50 0 0 1-.1 100z"/>
    </g>
</svg>
