<svg xmlns="http://www.w3.org/2000/svg" viewBox="0 0 504 504">
    <path d="M263 280.6c-10-11.2-3.6-33.3 14.3-49.2 17.8-15.9 114-85 124-73.8 10 11.3-69.9 98.8-87.8 114.6-17.8 16-40.4 19.7-50.5 8.4zm-22 0c10.1-11.2 3.7-33.3-14.1-49.2-18-15.9-114-85-124.1-73.8-10 11.3 69.9 98.8 87.8 114.6S231 292 241 280.6z" fill="#ce1111"/>
    <path d="M228.2 362c0 19.4-15.8 124.6-35.3 124.6-19.5 0-35.3-105.2-35.3-124.7a35.3 35.3 0 0 1 70.6 0zm118.4 0c0 19.4-15.8 124.6-35.4 124.6-19.5 0-35.3-105.2-35.3-124.7a35.3 35.3 0 0 1 70.7 0z" fill="#960808"/>
    <path fill="#ce1111" d="M351.7 315.2c0 126.4-44.6 84.3-99.6 84.3-55 0-99.7 42-99.7-84.3 0-72.2 44.6-130.7 99.7-130.7 55 0 99.6 58.5 99.6 130.7z"/>
    <path fill="#eaa10f" d="M260.4 333c0 4.6-3.7 8.3-8.3 8.3a8.4 8.4 0 0 1-8.4-8.3V210.9c0-4.7 3.7-8.4 8.4-8.4 4.6 0 8.3 3.8 8.3 8.4v122z"/>
    <path fill="#ffce00" d="M232.6 487.2c0 15-17.8 17-39.7 17s-39.8-2-39.8-17 17.9-35.5 39.8-35.5 39.7 20.6 39.7 35.5z"/>
    <path fill="#eaa10f" d="M232.6 487.2c0 15-17.8 17-39.7 17s-39.8-2-39.8-17"/>
    <path fill="#ffce00" d="M351 487.2c0 15-17.8 17-39.8 17s-39.7-2-39.7-17 17.8-35.5 39.7-35.5 39.8 20.6 39.8 35.5z"/>
    <path fill="#eaa10f" d="M351 487.2c0 15-17.8 17-39.8 17s-39.7-2-39.7-17"/>
    <path fill="#efc286" d="M381 124.3c0 63-57.7 94.6-129 94.6-71.1 0-128.9-31.6-128.9-94.6C123.1 61.3 181 0 252.1 0s129 61.2 129 124.3z"/>
    <path fill="#e8b374" d="M381 124.3c0 63-57.7 94.6-129 94.6-71.1 0-128.9-31.6-128.9-94.6"/>
    <path d="M213.5 141.9c-.6 0-1.3-.2-1.7-.7a29.6 29.6 0 0 0-21-8.8h-.1c-8 0-15.4 3.1-21 8.7-1 1-2.5 1-3.4 0-1-.9-1-2.4 0-3.4a34.4 34.4 0 0 1 49 0c.8 1 .8 2.5 0 3.5-.6.4-1.2.7-1.8.7zm77.1 0c.6 0 1.3-.2 1.8-.7a29.5 29.5 0 0 1 42 0c1 .9 2.5 1 3.5 0s1-2.5 0-3.5a34.5 34.5 0 0 0-49 0c-1 1-1 2.5 0 3.5.5.4 1.1.7 1.7.7z" fill="#232728"/>
    <path fill="#870e0e" d="M280.5 161.9c0 19.8-12.8 35.9-28.4 35.9-15.7 0-28.5-16.1-28.5-36 0-19.8 12.8-8 28.5-8 15.6 0 28.4-11.8 28.4 8z"/>
    <path fill="#a11" d="M252 168.8c-9.3 0-17.5 5.7-22.6 14.4 5.1 8.8 13.3 14.6 22.7 14.6s17.5-5.8 22.7-14.5c-5.2-8.8-13.4-14.5-22.7-14.5z"/>
    <path fill="#eaa10f" d="M134.1 76.5H370C350 33.5 304.7 0 252 0c-52.6 0-97.8 33.5-117.9 76.5z"/>
    <path fill="#ce1111" d="M252 0c-44.5 0-83.7 24-106.8 57.4h213.7A131.4 131.4 0 0 0 252.1 0z"/>
    <path fill="#e80c0c" d="M252 0c-44.5 0-83.7 24-106.8 57.4"/>
    <g fill="#ffce00">
        <path d="M139 67h226s-3.1-6-6-9.6H145.1c-2.3 3.3-6.1 9.6-6.1 9.6zm147.1 182.3c0 1.9-1.5 3.4-3.4 3.4h-59.1c-2 0-3.5-1.5-3.5-3.4 0-2 1.6-3.5 3.5-3.5h59c2 0 3.5 1.6 3.5 3.5z"/>
        <circle cx="203" cy="249" r="6"/>
        <circle cx="303" cy="249" r="6"/>
        <path d="M286.1 273.6c0 1.9-1.5 3.4-3.4 3.4h-59.1c-2 0-3.5-1.5-3.5-3.4 0-2 1.6-3.5 3.5-3.5h59c2 0 3.5 1.6 3.5 3.5z"/>
        <circle cx="203" cy="274" r="6"/>
        <circle cx="303" cy="274" r="6"/>
        <path d="M286.1 297.9c0 1.9-1.5 3.4-3.4 3.4h-59.1c-2 0-3.5-1.5-3.5-3.5 0-1.9 1.6-3.4 3.5-3.4h59c2 0 3.5 1.5 3.5 3.5z"/>
        <circle cx="203" cy="298" r="6"/>
        <circle cx="303" cy="298" r="6"/>
        <path d="M286.1 322.1c0 2-1.5 3.5-3.4 3.5h-59.1c-2 0-3.5-1.5-3.5-3.5 0-1.9 1.6-3.4 3.5-3.4h59c2 0 3.5 1.5 3.5 3.4z"/>
        <circle cx="203" cy="322" r="6"/>
        <circle cx="303" cy="322" r="6"/>
    </g>
</svg>
