<svg xmlns="http://www.w3.org/2000/svg" viewBox="0 0 504 504">
    <path fill="#87915a" d="M263 280.6c-10-11.2-3.6-33.3 14.3-49.2 17.8-15.9 114-85 124-73.8 10 11.3-69.9 98.8-87.7 114.6-18 16-40.5 19.7-50.6 8.4z"/>
    <path fill="#656b43" d="M241 280.6c10.1-11.2 3.7-33.3-14.1-49.2-18-15.9-114-85-124.1-73.8-10 11.3 69.9 98.8 87.8 114.6 17.8 16 40.4 19.7 50.5 8.4z"/>
    <path d="M228.2 362c0 19.4-15.8 124.6-35.3 124.6-19.5 0-35.3-105.2-35.3-124.7a35.3 35.3 0 0 1 70.6 0zm118.4 0c0 19.4-15.8 124.6-35.4 124.6-19.5 0-35.3-105.2-35.3-124.7a35.3 35.3 0 0 1 70.7 0z" fill="#3d7034"/>
    <path fill="#87915a" d="M351.7 315.2c0 126.4-44.6 84.3-99.6 84.3-55 0-99.7 42-99.7-84.3 0-72.2 44.6-130.7 99.7-130.7 55 0 99.6 58.5 99.6 130.7z"/>
    <path fill="#363b7f" d="M263.1 224.7l-34.3 47.7-18.6-47.7 26.5-26.5z"/>
    <path fill="#3d3c39" d="M232.6 487.2c0 15-17.8 17-39.7 17s-39.7-2-39.7-17 17.8-35.5 39.7-35.5 39.7 20.6 39.7 35.5z"/>
    <path fill="#1c1b1a" d="M232.6 487.2c0 15-17.8 17-39.7 17s-39.7-2-39.7-17"/>
    <path fill="#3d3c39" d="M351 487.2c0 15-17.8 17-39.8 17s-39.7-2-39.7-17 17.8-35.5 39.7-35.5 39.8 20.6 39.8 35.5z"/>
    <path fill="#1c1b1a" d="M351 487.2c0 15-17.8 17-39.8 17s-39.7-2-39.7-17"/>
    <path fill="#efc286" d="M381 124.3c0 63-57.7 94.6-129 94.6-71.1 0-128.9-31.6-128.9-94.6C123.1 61.3 181 0 252.1 0s129 61.2 129 124.3z"/>
    <path fill="#e8b374" d="M381 124.3c0 63-57.7 94.6-129 94.6-71.1 0-128.9-31.6-128.9-94.6"/>
    <path d="M197 140c-.7 0-1.3-.2-1.8-.7a29.5 29.5 0 0 0-42 0c-1 1-2.6 1-3.5 0-1-.9-1-2.4 0-3.4a34.4 34.4 0 0 1 49 0c.9 1 .9 2.5 0 3.4-.5.5-1.1.8-1.8.8zm77 0c.7 0 1.3-.2 1.8-.7a29.5 29.5 0 0 1 42 0c1 1 2.5 1 3.5 0 1-.9 1-2.4 0-3.4a34.5 34.5 0 0 0-49 0c-.9 1-.9 2.5 0 3.4.5.5 1.1.8 1.8.8z" fill="#232728"/>
    <path fill="#59472e" d="M233 232.4c79.7 2.3 148-45.1 148-108.1A121 121 0 0 0 351 47l-26.7 3.9s11.8 76.8 35.4 81.7c0 0 3.5 43.3-25 59-28.6 15.8-42 24.2-90.2 22.2l-10.3-16.2-11.8 15.7S205 217 166 199c6.6 2 5.2 12.8 13.6 15.4a117.2 117.2 0 0 0 53.2 18z"/>
    <path fill="#a50c59" d="M146.8 55.1h210.6A131.4 131.4 0 0 0 252 0c-43.6 0-82 23-105.3 55.1z"/>
    <path fill="#c11162" d="M252 0c-36 0-68.4 15.7-91.8 39.4H344A129.6 129.6 0 0 0 252 0z"/>
    <g fill="#59472e">
        <path d="M232 164.6s-18.8.6-26.8 2.5c-8 2-7.6 17.3-7.6 20.1 0 0 3.5-13.4 13.7-11.8 10.2 1.6 17.2 3.9 20.4-1.6 3.2-5.4.3-9.2.3-9.2z"/>
        <path d="M232 164.6s18.8.6 26.7 2.5c8 2 7.7 17.3 7.7 20.1 0 0-3.5-13.4-13.7-11.8-10.2 1.6-17.3 3.9-20.5-1.6-3.1-5.4-.3-9.2-.3-9.2z"/>
    </g>
</svg>
