<svg xmlns="http://www.w3.org/2000/svg" viewBox="0 0 504 504">
    <path fill="#093c84" d="M373.5 66.6c0 5.5-4.4 9.9-9.8 9.9h-66.3a9.8 9.8 0 0 1 0-19.7h66.3c5.4 0 9.8 4.4 9.8 9.8z"/>
    <path d="M308.6 362c0 19.4-15.8 124.6-35.3 124.6-19.5 0-35.3-105.2-35.3-124.7a35.3 35.3 0 0 1 70.6 0zm-118.3 0c0 19.4-15.8 124.6-35.4 124.6-19.5 0-35.3-105.2-35.3-124.7a35.3 35.3 0 0 1 70.7 0z" fill="#232728"/>
    <path d="M130.2 432.6c6.4 28.3 15.1 54 24.7 54 9.7 0 18.4-25.7 24.8-54h-49.5zm118.4 0c6.3 28.3 15 54 24.7 54 9.6 0 18.4-25.7 24.8-54h-49.5z" fill="#bc8158"/>
    <g fill="#dd3a14">
        <path d="M313.8 315.2c0 126.4-44.6 84.3-99.7 84.3-55 0-99.6 42-99.6-84.3 0-72.2 44.6-130.7 99.6-130.7 55 0 99.7 58.5 99.7 130.7z"/>
        <path d="M248.5 214.3c11.3-10 33.3-3.6 49.2 14.2 15.9 18 85 114 73.8 124-11.3 10.1-98.7-69.8-114.6-87.7-16-17.8-19.7-40.5-8.4-50.5z"/>
    </g>
    <path fill="#bc2a0d" d="M214.1 348.3c-49.5 0-90.6 34-98.3-51.4-.9 5.1-1.3 11.2-1.3 18.4 0 126.3 44.6 84.2 99.6 84.2 55 0 99.7 42 99.7-84.2 0-7.2-.5-13.3-1.3-18.4-7.7 85.4-48.8 51.4-98.4 51.4z"/>
    <path fill="#efa30c" d="M194.7 487.2c0 15-17.8 17-39.7 17s-39.8-2-39.8-17 17.8-35.5 39.8-35.5 39.7 20.6 39.7 35.5z"/>
    <path fill="#d68a05" d="M194.7 487.2c0 15-17.8 17-39.7 17s-39.8-2-39.8-17"/>
    <path fill="#efa30c" d="M313 487.2c0 15-17.8 17-39.7 17s-39.7-2-39.7-17 17.8-35.5 39.7-35.5 39.8 20.6 39.8 35.5z"/>
    <path fill="#d68a05" d="M313 487.2c0 15-17.8 17-39.7 17s-39.7-2-39.7-17"/>
    <path fill="#dd3a14" d="M224.6 231.2c-.9-15-21-26.1-44.9-24.7C156 207.9 39 227 39.8 242c1 15 119.3 20.4 143.1 19 24-1.4 42.6-14.7 41.7-29.8z"/>
    <circle cx="214" cy="211" r="27" fill="#a56b44"/>
    <path fill="#c48960" d="M343 124.3c0 63-57.7 94.6-128.9 94.6s-129-31.6-129-94.6C85.2 61.3 143 0 214.2 0s129 61.2 129 124.3z"/>
    <path fill="#bc8158" d="M343 124.3c0 63-57.7 94.6-128.9 94.6s-129-31.6-129-94.6"/>
    <circle cx="167" cy="145" r="12" fill="#113e49"/>
    <path d="M178.8 145a11.5 11.5 0 1 1-23 0"/>
    <path fill="#e5a376" d="M190 169c-.6 0-1.2-.2-1.7-.7a29.5 29.5 0 0 0-42 0c-1 1-2.6 1-3.5 0-1-1-1-2.5 0-3.4a34.4 34.4 0 0 1 49 0c.9.9.9 2.5 0 3.4-.5.5-1.2.7-1.8.7z"/>
    <circle cx="290" cy="145" r="12" fill="#113e49"/>
    <path d="M278.4 145a11.5 11.5 0 1 0 23 0"/>
    <path fill="#e5a376" d="M267.2 169c.6 0 1.2-.2 1.7-.7a29.5 29.5 0 0 1 42 0c1 1 2.5 1 3.5 0s1-2.5 0-3.4a34.5 34.5 0 0 0-49 0c-1 .9-1 2.5 0 3.4.5.5 1.1.7 1.8.7z"/>
    <path fill="#7a0b0b" d="M262.6 175c0 13-14.4 23.6-32.2 23.6-17.8 0-32.2-10.6-32.2-23.6 0-13 14.4-6.7 32.2-6.7 17.8 0 32.2-6.3 32.2 6.7z"/>
    <path fill="#a11" d="M205.5 189.7c5.9 5.4 14.8 8.9 25 8.9 10 0 19-3.5 24.9-8.9-6-5.3-14.8-8.8-25-8.8-10.1 0-19 3.5-25 8.8z"/>
    <path fill="#1679db" d="M107.3 57.1H321A131.6 131.6 0 0 0 214 0c-44.4 0-83.6 23.9-106.8 57.1z"/>
    <path fill="#2b9bf7" d="M214.1 0c-44.4 0-83.6 23.9-106.8 57.1"/>
    <path d="M204.8 40.7c0 3.6-3 6.6-6.5 6.6H172c-3.6 0-6.6-3-6.6-6.6 0-3.6 3-6.6 6.6-6.6h26.3c3.6 0 6.5 3 6.5 6.6z"/>
    <circle cx="393" cy="395" r="72" fill="#ef8a11"/>
    <path fill="#cc6d05" d="M443.3 344.8a71.5 71.5 0 1 1-101.2 101.1"/>
    <g fill="#994c00">
        <path d="M336.6 351.1a66 66 0 0 1 0 88.5 71 71 0 0 0 7 7.6 76.4 76.4 0 0 0 0-103.7c-2.6 2.4-4.9 5-7 7.6zm95.4 44.2a66 66 0 0 1 16.9-44.2 71.8 71.8 0 0 0-7-7.6 76.4 76.4 0 0 0 0 103.7c2.6-2.4 4.9-5 7-7.6a65.9 65.9 0 0 1-17-44.3z"/>
        <path d="M321.2 395.3l.2 5.1H464c.2-1.6.3-3.3.3-5 0-1.8-.2-3.5-.3-5.2H321.4l-.2 5.1z"/>
        <path d="M387.6 324v142.6l5.1.3 5.1-.3V324.1l-5-.3c-1.7 0-3.5.1-5.2.3z"/>
    </g>
    <path fill="#fc7459" d="M271 305l-.2-3.5h-22c.7-10.3 5-19.7 11.5-27a51 51 0 0 0-4.8-5.3 53 53 0 0 0-13.9 32.3H225v-45.8l-3.6-.2-3.5.2v45.8h-16.7a52.8 52.8 0 0 0-13.9-32.3 48.6 48.6 0 0 0-4.8 5.3 45.9 45.9 0 0 1 11.6 27h-22l-.3 3.6.2 3.5h22.1a46 46 0 0 1-11.6 27.1c1.5 1.9 3 3.6 4.8 5.3 8-8.7 13-20 13.9-32.4h16.7v45.9l3.5.1 3.5-.1v-45.9h16.7a52.7 52.7 0 0 0 13.9 32.4c1.7-1.7 3.3-3.4 4.8-5.3a45.6 45.6 0 0 1-11.6-27h22l.3-3.6z"/>
</svg>
