<svg xmlns="http://www.w3.org/2000/svg" viewBox="0 0 504 504">
    <path d="M289.5 214.3c11.3-10 33.4-3.6 49.3 14.2 15.9 18 85 114 73.7 124-11.3 10.1-98.7-69.8-114.6-87.7-15.9-17.8-19.6-40.5-8.4-50.5zm-23.8 16.9c-1-15-21-26.1-44.9-24.7C197 207.9 80.1 227 81 242c1 15 119.2 20.4 143.1 19 23.9-1.4 42.5-14.7 41.7-29.8z" fill="#af764f"/>
    <path d="M231.3 362c0 19.4-15.8 124.6-35.3 124.6-19.5 0-35.3-105.2-35.3-124.7a35.3 35.3 0 0 1 70.6 0zm118.4 0c0 19.4-15.8 124.6-35.3 124.6-19.5 0-35.3-105.2-35.3-124.7a35.3 35.3 0 0 1 70.6 0z" fill="#232728"/>
    <path fill="#c48960" d="M355.8 310.3c0 126.3-44.6 84.3-99.6 84.3-55 0-99.7 42-99.7-84.3 0-72.2 44.7-130.8 99.7-130.8s99.6 58.6 99.6 130.8z"/>
    <path fill="#efa30c" d="M235.8 487.2c0 15-17.8 17-39.8 17s-39.7-2-39.7-17 17.8-35.5 39.7-35.5 39.8 20.6 39.8 35.5z"/>
    <path fill="#d68a05" d="M235.8 487.2c0 15-17.8 17-39.8 17s-39.7-2-39.7-17"/>
    <path fill="#efa30c" d="M354.1 487.2c0 15-17.8 17-39.7 17s-39.8-2-39.8-17 17.8-35.5 39.8-35.5 39.7 20.6 39.7 35.5z"/>
    <path fill="#d68a05" d="M354.1 487.2c0 15-17.8 17-39.7 17s-39.8-2-39.8-17"/>
    <path fill="#d8a17c" d="M384.1 124.3c0 63-57.7 94.6-128.9 94.6s-129-31.6-129-94.6C126.2 61.3 184 0 255.2 0s129 61.2 129 124.3z"/>
    <path fill="#c48960" d="M384.1 124.3c0 63-57.7 94.6-128.9 94.6s-129-31.6-129-94.6c0-63 57.8-111.8 129-111.8s129 48.7 129 111.8z"/>
    <path fill="#bc8158" d="M384.1 124.3c0 63-57.7 94.6-128.9 94.6s-129-31.6-129-94.6"/>
    <circle cx="213" cy="138" r="12" fill="#113e49"/>
    <path d="M224.4 137.7a11.5 11.5 0 1 1-23 0"/>
    <path fill="#e5a376" d="M235.6 161.8c-.6 0-1.2-.2-1.7-.7a29.5 29.5 0 0 0-42 0c-1 1-2.5 1-3.5 0s-1-2.5 0-3.4a34.4 34.4 0 0 1 49 0c1 .9 1 2.5 0 3.4-.5.5-1.1.7-1.8.7z"/>
    <circle cx="336" cy="138" r="12" fill="#113e49"/>
    <path d="M324 137.7a11.5 11.5 0 1 0 23 0"/>
    <path fill="#e5a376" d="M312.8 161.8c.6 0 1.2-.2 1.7-.7a29.5 29.5 0 0 1 42 0c1 1 2.6 1 3.5 0 1-1 1-2.5 0-3.4a34.4 34.4 0 0 0-49 0c-.9.9-.9 2.5 0 3.4.5.5 1.2.7 1.8.7z"/>
    <path fill="#870808" d="M299.7 176c0 6.4-11.2-2.7-25-2.7-13.7 0-24.9 9.1-24.9 2.6s11.2-11.8 25-11.8c13.7 0 25 5.3 25 11.8z"/>
    <path fill="#232728" d="M160 360c11.6 63.8 50.2 41 96.2 41s84.6 22.8 96-41H160z"/>
    <path fill="#d1b869" d="M115.3 254.4c0 4.3-3.6 7.8-8 7.8a7.9 7.9 0 0 1-7.8-7.8v-29a7.9 7.9 0 0 1 15.8 0v29z"/>
    <path fill="#870808" d="M107.4 256.7c0 8.7-7 15.7-15.8 15.7H65c-8.7 0-15.7-7-15.7-15.7v-33.5c0-8.7 7-15.8 15.7-15.8h26.6c8.7 0 15.8 7 15.8 15.8v33.5z"/>
    <path fill="#b70f0f" d="M87.7 256.7v-33.5c0-8.7-7-15.8-15.8-15.8H65c-8.7 0-15.7 7-15.7 15.8v33.5c0 8.7 7 15.7 15.7 15.7h7c8.6 0 15.7-7 15.7-15.7z"/>
    <path fill="#d1b869" d="M402 317.6c3-3 8-3 11 0 3.2 3.1 3.2 8 0 11.2l-20.3 20.4c-3.1 3-8.1 3-11.2 0-3-3-3-8 0-11.1l20.5-20.5z"/>
    <path fill="#870808" d="M409.2 321.6a15.8 15.8 0 0 1 22.2 0l18.8 18.8a15.8 15.8 0 0 1 0 22.3l-23.6 23.6a15.8 15.8 0 0 1-22.3 0l-18.8-18.8a15.8 15.8 0 0 1 0-22.2l23.7-23.7z"/>
    <path fill="#b70f0f" d="M423 335.5l-23.6 23.7a15.8 15.8 0 0 0 0 22.3l4.9 4.8a15.8 15.8 0 0 0 22.3 0l23.6-23.6a15.8 15.8 0 0 0 0-22.3l-4.8-4.9a15.7 15.7 0 0 0-22.3 0z"/>
    <ellipse cx="256" cy="355" fill="#efa30c" rx="70" ry="29"/>
    <path fill="#d68a05" d="M256 325.6c38.7 0 70 13 70 29s-31.3 29-70 29"/>
</svg>
