<svg xmlns="http://www.w3.org/2000/svg" viewBox="0 0 504 504">
    <ellipse cx="142" cy="126" fill="#0cbc64" rx="38" ry="34"/>
    <path fill="#089b78" d="M179.5 126.4c0 18.6-16.9 33.8-37.7 33.8-20.9 0-37.8-15.2-37.8-33.8"/>
    <ellipse cx="378" cy="126" fill="#0cbc64" rx="38" ry="34"/>
    <path fill="#089b78" d="M415.8 126.4c0 18.6-16.9 33.8-37.7 33.8-20.9 0-37.8-15.2-37.8-33.8"/>
    <path d="M236 362c0 19.4-15.7 124.6-35.3 124.6-19.5 0-35.3-105.2-35.3-124.7a35.3 35.3 0 0 1 70.7 0zm118.4 0c0 19.4-15.8 124.6-35.3 124.6-19.5 0-35.3-105.2-35.3-124.7a35.3 35.3 0 0 1 70.6 0z" fill="#232728"/>
    <g fill="#0cbc64">
        <path d="M359.6 315.2c0 126.4-44.6 84.3-99.7 84.3-55 0-99.6 42-99.6-84.3 0-72.2 44.6-130.7 99.6-130.7 55 0 99.7 58.5 99.7 130.7z"/>
        <path d="M294.3 214.3c11.2-10 33.3-3.6 49.2 14.2 15.9 18 85 114 73.8 124-11.3 10.1-98.8-69.8-114.6-87.7-16-17.8-19.7-40.5-8.4-50.5z"/>
    </g>
    <path fill="#778785" d="M300.7 347.5a4 4 0 0 1 0-7.9c12.3 0 22.3-10 22.3-22.3V221a4 4 0 0 1 7.8 0v96.3a30.2 30.2 0 0 1-30.1 30.2z"/>
    <path fill="#089b78" d="M260 348.3c-49.6 0-90.7 34-98.4-51.4-.9 5.1-1.3 11.2-1.3 18.4 0 126.3 44.6 84.2 99.6 84.2 55 0 99.7 42 99.7-84.2 0-7.2-.5-13.3-1.4-18.4-7.6 85.4-48.7 51.4-98.3 51.4z"/>
    <path fill="#efa30c" d="M240.5 487.2c0 15-17.8 17-39.8 17s-39.7-2-39.7-17 17.8-35.5 39.7-35.5 39.8 20.6 39.8 35.5z"/>
    <path fill="#d68a05" d="M240.5 487.2c0 15-17.8 17-39.8 17s-39.7-2-39.7-17"/>
    <path fill="#efa30c" d="M358.8 487.2c0 15-17.8 17-39.7 17-22 0-39.7-2-39.7-17s17.8-35.5 39.7-35.5c22 0 39.7 20.6 39.7 35.5z"/>
    <path fill="#d68a05" d="M358.8 487.2c0 15-17.8 17-39.7 17-22 0-39.7-2-39.7-17"/>
    <path fill="#0cbc64" d="M270.4 231.2c-1-15-21-26.1-44.9-24.7C201.6 207.9 84.8 227 85.6 242c1 15 119.3 20.4 143.1 19 23.9-1.4 42.6-14.7 41.7-29.8z"/>
    <circle cx="260" cy="211" r="27" fill="#a56b44"/>
    <path fill="#d8a17c" d="M388.9 124.3c0 63-57.8 94.6-129 94.6s-129-31.6-129-94.6C131 61.3 188.8 0 260 0s129 61.2 129 124.3z"/>
    <path fill="#c48960" d="M388.9 124.3c0 63-57.8 94.6-129 94.6s-129-31.6-129-94.6c0-63 57.8-111.8 129-111.8s129 48.7 129 111.8z"/>
    <path fill="#bc8158" d="M388.9 124.3c0 63-57.8 94.6-129 94.6s-129-31.6-129-94.6"/>
    <circle cx="199" cy="95" r="12" fill="#113e49"/>
    <path d="M210.1 95a11.5 11.5 0 1 1-23 0"/>
    <path fill="#e5a376" d="M221.4 119.1c-.7 0-1.3-.2-1.8-.7a29.5 29.5 0 0 0-42 0c-1 1-2.5 1-3.5 0s-1-2.4 0-3.4a34.4 34.4 0 0 1 49 0c1 1 1 2.5 0 3.4-.5.5-1.1.7-1.7.7z"/>
    <circle cx="321" cy="95" r="12" fill="#113e49"/>
    <path d="M309.7 95a11.5 11.5 0 1 0 23 0"/>
    <path fill="#e5a376" d="M298.5 119.1c.6 0 1.2-.2 1.7-.7a29.5 29.5 0 0 1 42 0c1 1 2.6 1 3.5 0 1-1 1-2.4 0-3.4a34.4 34.4 0 0 0-49 0c-.9 1-.9 2.5 0 3.4.5.5 1.2.7 1.8.7z"/>
    <ellipse cx="260" cy="125" fill="#a11" rx="6" ry="15"/>
    <path fill="#870e0e" d="M253.7 124.6c0-8.6 2.8-15.5 6.2-15.5 3.5 0 6.2 7 6.2 15.5"/>
    <path fill="#8da3a1" d="M329.3 221.2H190.5c-35.6 0-64.5-29-64.5-64.5a4 4 0 0 1 7.9 0 56.7 56.7 0 0 0 56.6 56.6h138.8a56.7 56.7 0 0 0 56.7-56.6 4 4 0 0 1 7.8 0c0 35.6-29 64.5-64.5 64.5z"/>
    <path d="M229 299.5c0 2.4-2 4.4-4.5 4.4s-4.4-2-4.4-4.4v-29.6c0-2.4 2-4.4 4.4-4.4 2.4 0 4.4 2 4.4 4.4v29.6zm17.6 0c0 2.4-2 4.4-4.4 4.4-2.4 0-4.4-2-4.4-4.4v-29.6c0-2.4 2-4.4 4.4-4.4 2.5 0 4.4 2 4.4 4.4v29.6zm17.8 0c0 2.4-2 4.4-4.5 4.4-2.4 0-4.4-2-4.4-4.4v-29.6c0-2.4 2-4.4 4.4-4.4 2.5 0 4.5 2 4.5 4.4v29.6zm17.6 0c0 2.4-2 4.4-4.4 4.4-2.4 0-4.4-2-4.4-4.4v-29.6c0-2.4 2-4.4 4.4-4.4 2.5 0 4.5 2 4.5 4.4v29.6zm17.8 0c0 2.4-2 4.4-4.4 4.4-2.5 0-4.5-2-4.5-4.4v-29.6c0-2.4 2-4.4 4.5-4.4 2.4 0 4.4 2 4.4 4.4v29.6z" fill="#efa30c"/>
    <path fill="#089b78" d="M317.3 356a4 4 0 0 1-5.6 5.6L287 337a4 4 0 0 1 0-5.5 4 4 0 0 1 5.5 0l24.8 24.7z"/>
    <path fill="#efa30c" d="M310.4 276.6c0 .3-.2.7-.6.7l-94.6 15.1a.7.7 0 0 1-.7-.5c-.1-.4.1-.7.5-.8l94.6-15c.4-.1.7 0 .8.5z"/>
</svg>
