<svg xmlns="http://www.w3.org/2000/svg" viewBox="0 0 504 504">
    <path d="M263 280.6c-10-11.2-3.6-33.3 14.3-49.2 17.8-15.9 114-85 124-73.8 10 11.3-69.9 98.8-87.7 114.6-18 16-40.5 19.7-50.6 8.4zm-22 0c10.1-11.2 3.7-33.3-14.1-49.2-18-15.9-114-85-124.1-73.8-10 11.3 69.9 98.8 87.8 114.6S231 292 241 280.6z" fill="#af5145"/>
    <path d="M228.2 362c0 19.4-15.8 124.6-35.3 124.6-19.5 0-35.3-105.2-35.3-124.7a35.3 35.3 0 0 1 70.6 0zm118.4 0c0 19.4-15.8 124.6-35.4 124.6-19.5 0-35.3-105.2-35.3-124.7a35.3 35.3 0 0 1 70.7 0z" fill="#1267cc"/>
    <path fill="#9b3f38" d="M351.7 315.2c0 126.4-44.6 84.3-99.6 84.3-55 0-99.7 42-99.7-84.3 0-72.2 44.6-130.7 99.7-130.7 55 0 99.6 58.5 99.6 130.7z"/>
    <path fill="#af5145" d="M252 184.5c-51.6 0-94 51.6-99 117.7 5 99.9 47.4 62.8 99 62.8 51.7 0 94.2 37 99.2-62.8-5-66.1-47.5-117.7-99.1-117.7z"/>
    <path fill="#3d3c39" d="M257.5 365.5a5.4 5.4 0 0 1-10.8 0v-127c0-3 2.4-5.5 5.4-5.5 3 0 5.4 2.4 5.4 5.4v127z"/>
    <ellipse cx="252" cy="203" fill="#990707" rx="70" ry="45"/>
    <path fill="#3d3c39" d="M232.6 487.2c0 15-17.8 17-39.7 17s-39.8-2-39.8-17 17.9-35.5 39.8-35.5 39.7 20.6 39.7 35.5z"/>
    <path fill="#1c1b1a" d="M232.6 487.2c0 15-17.8 17-39.7 17s-39.8-2-39.8-17"/>
    <path fill="#3d3c39" d="M351 487.2c0 15-17.8 17-39.8 17s-39.7-2-39.7-17 17.8-35.5 39.7-35.5 39.8 20.6 39.8 35.5z"/>
    <path fill="#1c1b1a" d="M351 487.2c0 15-17.8 17-39.8 17s-39.7-2-39.7-17"/>
    <path fill="#efc286" d="M381 124.3c0 63-57.7 94.6-129 94.6-71.1 0-128.9-31.6-128.9-94.6C123.1 61.3 181 0 252.1 0s129 61.2 129 124.3z"/>
    <path fill="#e8b374" d="M381 124.3c0 63-57.7 94.6-129 94.6-71.1 0-128.9-31.6-128.9-94.6"/>
    <path d="M213.5 109.7c-.6 0-1.2-.2-1.7-.7a29.5 29.5 0 0 0-42 0c-1 1-2.6 1-3.5 0-1-1-1-2.5 0-3.4a34.4 34.4 0 0 1 49 0c.9.9.9 2.5 0 3.4-.5.5-1.2.7-1.8.7zm77.1 0c.6 0 1.3-.2 1.8-.7a29.5 29.5 0 0 1 42 0c1 1 2.5 1 3.5 0s1-2.5 0-3.4a34.5 34.5 0 0 0-49 0c-1 .9-1 2.5 0 3.4.5.5 1.1.7 1.7.7z" fill="#232728"/>
    <path fill="#870e0e" d="M280.5 127c0 19.9-12.8 36-28.4 36-15.7 0-28.5-16.1-28.5-36 0-19.7 12.8-7.9 28.5-7.9 15.6 0 28.4-11.8 28.4 8z"/>
    <path fill="#a11" d="M252 134c-9.3 0-17.4 5.7-22.6 14.5 5.2 8.7 13.3 14.5 22.7 14.5 9.3 0 17.5-5.8 22.7-14.5-5.2-8.8-13.4-14.5-22.8-14.5z"/>
    <path fill="#ce1111" d="M134.1 76.5H370C350 33.5 304.7 0 252 0c-52.6 0-97.8 33.5-117.9 76.5z"/>
    <path fill="#1267cc" d="M252 0c-44.5 0-83.7 24-106.8 57.4h213.7A131.5 131.5 0 0 0 252.1 0z"/>
    <path fill="#2186ea" d="M252 0c-44.5 0-83.7 24-106.8 57.4"/>
    <g fill="#ce1111">
        <path d="M247.5 0h9.1v31.2h-9.1z"/>
        <path d="M244.3 29.8l-6.5-6.4 22.1-22 6.4 6.4z"/>
        <path d="M236.5 11h31.2v9.1h-31.2z"/>
        <path d="M237.8 7.7l6.5-6.4 22 22.1-6.5 6.4z"/>
        <circle cx="110" cy="157" r="16"/>
        <circle cx="394" cy="157" r="16"/>
    </g>
    <g fill="#3d3c39">
        <circle cx="227" cy="268" r="5"/>
        <circle cx="227" cy="305" r="5"/>
        <circle cx="227" cy="341" r="5"/>
    </g>
</svg>
