<svg xmlns="http://www.w3.org/2000/svg" viewBox="0 0 504 504">
    <g fill="#f2860f">
        <path d="M256.6 239.2c-.8 15-20.9 26-44.8 24.7-23.9-1.4-140.8-20.5-139.9-35.5 1-15.1 119.2-20.4 143.1-19 23.9 1.4 42.5 14.7 41.6 29.8z"/>
        <path d="M247.5 233c.8-15.1 21-26.2 44.8-24.8 23.9 1.4 140.8 20.5 140 35.6-1 15-119.3 20.4-143.2 19-23.9-1.4-42.5-14.8-41.6-29.8z"/>
    </g>
    <path d="M229.4 362c0 19.4-15.8 124.6-35.3 124.6-19.5 0-35.3-105.2-35.3-124.7a35.3 35.3 0 0 1 70.6 0zm118.4 0c0 19.4-15.9 124.6-35.4 124.6s-35.3-105.2-35.3-124.7a35.3 35.3 0 0 1 70.7 0z" fill="#104956"/>
    <path fill="#f2860f" d="M353 315.2c0 126.4-44.7 84.3-99.7 84.3s-99.7 42-99.7-84.3c0-72.2 44.7-130.7 99.7-130.7s99.6 58.5 99.6 130.7z"/>
    <path fill="#d36c05" d="M179 228.2c21 9.5 46.6 14.4 74.3 14.4 27.6 0 53.2-4.9 74.2-14.4-18.3-26.8-44.7-43.7-74.2-43.7s-56 17-74.3 43.7z"/>
    <path fill="#f45188" d="M233.8 487.2c0 15-17.8 17-39.7 17s-39.7-2-39.7-17 17.8-35.5 39.7-35.5 39.7 20.6 39.7 35.5z"/>
    <path fill="#d83573" d="M233.8 487.2c0 15-17.8 17-39.7 17s-39.7-2-39.7-17"/>
    <path fill="#f45188" d="M352.2 487.2c0 15-17.8 17-39.8 17s-39.7-2-39.7-17 17.8-35.5 39.7-35.5 39.8 20.6 39.8 35.5z"/>
    <path fill="#d83573" d="M352.2 487.2c0 15-17.8 17-39.8 17s-39.7-2-39.7-17"/>
    <path fill="#ce5715" d="M382.2 124.3c0 63-57.7 94.6-129 94.6-71.1 0-128.9-31.6-128.9-94.6 0-63 57.8-124.3 129-124.3s129 61.2 129 124.3z"/>
    <path fill="#f9a9a0" d="M382.2 124.3c0 63-57.7 94.6-129 94.6-71.1 0-128.9-31.6-128.9-94.6 0-63 39.5-85 110.7-85s147.2 22 147.2 85z"/>
    <path fill="#ff9997" d="M382.2 124.3c0 63-57.7 94.6-129 94.6-71.1 0-128.9-31.6-128.9-94.6"/>
    <circle cx="173" cy="84" r="12" fill="#113e49"/>
    <path d="M184.8 84a11.5 11.5 0 1 1-23 0"/>
    <path fill="#ffd3c5" d="M196 108c-.6 0-1.3-.2-1.7-.7a29.6 29.6 0 0 0-21-8.8h-.1c-8 0-15.4 3.1-21 8.8-1 1-2.5 1-3.4 0-1-1-1-2.5 0-3.5a34.4 34.4 0 0 1 49 0c.8 1 .8 2.5 0 3.5-.6.5-1.2.7-1.8.7z"/>
    <circle cx="296" cy="84" r="12" fill="#113e49"/>
    <path d="M284.4 84a11.5 11.5 0 1 0 23 0"/>
    <path fill="#ffd3c5" d="M273.1 108c.6 0 1.3-.2 1.7-.7a29.5 29.5 0 0 1 42 0c1 1 2.6 1 3.6 0s1-2.5 0-3.5a34.4 34.4 0 0 0-49 0c-1 1-1 2.5 0 3.5.5.5 1 .7 1.7.7z"/>
    <path fill="#3e7a09" d="M305.3 324.5s-5.7-7.6-18.6-12.4c11.9-18.2 9.4-33.2 9.4-33.2s-13.4-2.2-30.2 7.6c-3.3-33-22.1-46.5-22.2-46.6-.1 0-18.9 13.6-22.2 46.6-16.8-9.8-30.2-7.6-30.2-7.6 0 .2-2.5 15.1 9.3 33.2-12.9 4.8-18.5 12.4-18.5 12.4s11.2 15.7 39 16.2c12.6.2 19.2-4.5 22.6-8.9 3.4 4.4 10 9 22.6 8.9 27.8-.5 39-16.1 39-16.2z"/>
</svg>
