<svg xmlns="http://www.w3.org/2000/svg" viewBox="0 0 504 504">
    <path d="M230.3 280.6c-10-11.2-3.7-33.3 14.2-49.2 17.9-15.9 114-85 124-73.8 10 11.3-69.8 98.8-87.7 114.6-17.9 16-40.5 19.7-50.5 8.4zm-22 0c10-11.2 3.7-33.3-14.2-49.2-17.9-15.9-114-85-124-73.8-10 11.3 69.8 98.8 87.7 114.6 17.9 16 40.5 19.7 50.5 8.4z" fill="#d3a16a"/>
    <path d="M313.8 362c0 19.4-15.8 124.6-35.3 124.6-19.5 0-35.3-105.2-35.3-124.7a35.3 35.3 0 0 1 70.6 0zm-118.4 0c0 19.4-15.8 124.6-35.3 124.6-19.5 0-35.3-105.2-35.3-124.7a35.3 35.3 0 0 1 70.6 0z" fill="#0aa0a0"/>
    <path d="M135.4 432.6c6.4 28.3 15 54 24.7 54s18.4-25.7 24.8-54h-49.5zm118.3 0c6.4 28.3 15.1 54 24.8 54 9.6 0 18.3-25.7 24.7-54h-49.5z" fill="#bc8158"/>
    <path fill="#cc7309" d="M319 315.2c0 126.4-44.7 84.3-99.7 84.3s-99.7 42-99.7-84.3c0-72.2 44.7-130.7 99.7-130.7s99.6 58.5 99.6 130.7z"/>
    <path fill="#ea8c06" d="M219.3 184.5c-51.7 0-94.2 51.7-99.2 117.9 5 100 47.5 63 99.2 63s94.2 37 99.1-63c-4.9-66.2-47.4-118-99.1-118z"/>
    <ellipse cx="219" cy="229" fill="#d3a16a" rx="43" ry="38"/>
    <path fill="#e8b374" d="M199.9 487.2c0 15-17.8 17-39.8 17s-39.7-2-39.7-17 17.8-35.5 39.7-35.5 39.8 20.6 39.8 35.5z"/>
    <path fill="#13b784" d="M199.9 487.2c0 15-17.8 17-39.8 17s-39.7-2-39.7-17"/>
    <path fill="#e8b374" d="M318.2 487.2c0 15-17.8 17-39.7 17-22 0-39.8-2-39.8-17s17.8-35.5 39.8-35.5c22 0 39.7 20.6 39.7 35.5z"/>
    <path fill="#13b784" d="M318.2 487.2c0 15-17.8 17-39.7 17-22 0-39.8-2-39.8-17"/>
    <path fill="#efc286" d="M348.2 124.3c0 63-57.7 94.6-128.9 94.6s-129-31.6-129-94.6c0-63 57.8-124.3 129-124.3s129 61.2 129 124.3z"/>
    <path fill="#e8b374" d="M348.2 124.3c0 63-57.7 94.6-128.9 94.6s-129-31.6-129-94.6"/>
    <path d="M158.4 118.9c-.6 0-1.2-.2-1.7-.7a29.5 29.5 0 0 0-42 0c-1 1-2.6 1-3.5 0-1-1-1-2.5 0-3.4a34.4 34.4 0 0 1 49 0c.9.9.9 2.4 0 3.4-.5.5-1.1.7-1.8.7zm77.2 0c.6 0 1.2-.2 1.7-.7a29.5 29.5 0 0 1 42 0c1 1 2.5 1 3.5 0s1-2.5 0-3.4a34.4 34.4 0 0 0-49 0c-.9.9-.9 2.4 0 3.4.5.5 1.1.7 1.8.7z" fill="#232728"/>
    <path fill="#870e0e" d="M226.7 133c0 19.8-12.7 35.9-28.4 35.9s-28.4-16.1-28.4-36c0-19.7 12.7-7.9 28.4-7.9s28.4-11.8 28.4 8z"/>
    <path fill="#a11" d="M198.3 139.9c-9.3 0-17.5 5.7-22.7 14.5 5.2 8.7 13.4 14.5 22.7 14.5s17.5-5.8 22.7-14.5c-5.2-8.8-13.4-14.5-22.7-14.5z"/>
    <g fill="#0aa0a0">
        <path d="M197.9 344a31.9 31.9 0 0 0 30.3 7.3 44 44 0 0 1-9-2.4 73.4 73.4 0 0 0-21.3-4.8zm53.5-26c-4.4 5-14.2 11.9-32.3 5.3-16.2-6-26.1-5.4-31.6-4v1.2c0 3.3.5 6.4 1.4 9.4a31.3 31.3 0 0 1 26.8-1.3c19.9 7.7 27.7 6.5 34.2 2a32.3 32.3 0 0 0 1.5-12.5z"/>
        <path d="M219.1 336a56.9 56.9 0 0 0-29.6-4.3c1.2 3.2 2.9 6.1 5 8.7a31.6 31.6 0 0 1 21.2 1 69.4 69.4 0 0 0 21.7 5.6c5-3.4 9-8 11.4-13.6-5.3 4.3-14.6 8.2-29.7 2.7zm-3.4-20.3c21.3 8.3 28.8 6.4 35.6 1a32 32 0 0 0-63.7 1 31.2 31.2 0 0 1 28.1-2z"/>
    </g>
    <path fill="#dd300e" d="M341.4 504.1a93.6 93.6 0 0 1 0-187 93.6 93.6 0 0 1 0 187zm0-141.9a48.5 48.5 0 1 0 .1 96.9 48.5 48.5 0 0 0 0-96.9z"/>
    <path fill="#bc1d08" d="M341.4 343.7a66.9 66.9 0 1 0 0 133.7 66.9 66.9 0 0 0 0-133.7zm0 115.3a48.4 48.4 0 1 1 .1-97 48.4 48.4 0 0 1 0 97z"/>
    <path fill="#17aacc" d="M293 410.6h-45c0-51.6 42-93.6 93.5-93.6v45.2a48.5 48.5 0 0 0-48.4 48.4z"/>
    <path fill="#2dcee8" d="M247.9 410.6c0-51.6 42-93.6 93.5-93.6"/>
    <path fill="#17aacc" d="M341.4 504.1V459a48.4 48.4 0 0 0 48.4-48.4H435c0 51.6-42 93.5-93.6 93.5z"/>
    <g fill="#0896bc">
        <path d="M435 410.6c0 51.6-42 93.5-93.6 93.5m0-141.9v-18.5c-36.9 0-66.8 30-66.8 66.9H293a48.4 48.4 0 0 1 48.4-48.4z"/>
        <path d="M389.8 410.6a48.4 48.4 0 0 1-48.4 48.4v18.5c37 0 66.9-30 66.9-67h-18.5z"/>
    </g>
    <circle cx="399" cy="367" r="11" fill="#fcd21d"/>
    <path fill="#f9a51e" d="M409.3 367.3a10.6 10.6 0 0 1-21.1 0"/>
    <path fill="#d3a16a" d="M219.3 0A129 129 0 0 0 134 33.1h160.7v64s18.4-43 41.9-21.9A132.4 132.4 0 0 0 219.3 0z"/>
</svg>
