<svg xmlns="http://www.w3.org/2000/svg" viewBox="0 0 504 504">
    <path d="M95.5 188.7c-29.7-19.7-60.3-37.1-65.7-31-5.3 5.9 14.5 33.1 37 59.8l28.7-28.8zm198.4 25.7c21.4-25.7 39.5-51 34.4-56.8-5.2-5.8-33.7 10-62.4 28.9l28 28z" fill="#d39959"/>
    <path d="M155.2 362c0 19.4-15.8 124.6-35.4 124.6-19.4 0-35.3-105.2-35.3-124.7a35.3 35.3 0 0 1 70.7 0zm118.3 0c0 19.4-15.8 124.6-35.3 124.6-19.5 0-35.3-105.2-35.3-124.7a35.3 35.3 0 0 1 70.6 0z" fill="#960808"/>
    <g fill="#f28e0a">
        <path d="M264.4 248c29.5-32 71.3-82 63.9-90.4-7.1-8-57.8 24.6-92.9 49.9a124 124 0 0 1 29 40.5zm-141.8-40.5c-35-25.3-85.7-57.9-92.8-49.9-7.4 8.4 34.4 58.5 63.9 90.4 7.4-16 17.2-30 29-40.5z"/>
        <path d="M240.5 272.2c-17.8 16-40.5 19.7-50.5 8.4-10-11.3-3.6-33.3 14.2-49.2 5.2-4.6 17-13.7 31.2-24-16-14.4-35.4-23-56.4-23s-40.3 8.6-56.4 23c14.3 10.3 26 19.4 31.2 24 18 16 24.3 38 14.3 49.2-10 11.3-32.7 7.5-50.6-8.4A421 421 0 0 1 93.7 248c-9 19.6-14.3 42.6-14.3 67.2 0 126.4 44.6 84.3 99.6 84.3 55 0 99.7 42 99.7-84.3 0-24.6-5.3-47.6-14.3-67.2a424 424 0 0 1-23.9 24.2z"/>
        <path d="M190 280.6c10 11.3 32.7 7.5 50.5-8.4a421 421 0 0 0 23.8-24.2 124 124 0 0 0-28.9-40.5 476 476 0 0 0-31.2 23.9c-17.8 16-24.2 38-14.2 49.2zm-72.5-8.4c17.9 16 40.5 19.7 50.5 8.4 10-11.3 3.7-33.3-14.2-49.2a473.6 473.6 0 0 0-31.2-24A124.3 124.3 0 0 0 93.7 248a422.2 422.2 0 0 0 23.8 24.3z"/>
    </g>
    <path fill="#ff7300" d="M159.6 487.2c0 15-17.8 17-39.7 17s-39.8-2-39.8-17S98 451.7 120 451.7s39.7 20.6 39.7 35.5z"/>
    <path fill="#ff4800" d="M159.6 487.2c0 15-17.8 17-39.7 17s-39.8-2-39.8-17"/>
    <path fill="#ff7300" d="M278 487.2c0 15-17.9 17-39.8 17-22 0-39.7-2-39.7-17s17.8-35.5 39.7-35.5 39.8 20.6 39.8 35.5z"/>
    <path fill="#ff4800" d="M278 487.2c0 15-17.9 17-39.8 17-22 0-39.7-2-39.7-17"/>
    <path fill="#efc286" d="M308 124.3c0 63-57.8 94.6-129 94.6S50 187.3 50 124.3C50 61.3 107.9 0 179 0s129 61.2 129 124.3z"/>
    <path fill="#e8b374" d="M308 124.3c0 63-57.8 94.6-129 94.6S50 187.3 50 124.3"/>
    <path d="M157.8 178.4c-.6 0-1.3-.2-1.8-.7a29.5 29.5 0 0 0-42 0c-1 1-2.5 1-3.5 0s-1-2.5 0-3.4a34.4 34.4 0 0 1 49 0c1 .9 1 2.4 0 3.4-.5.5-1 .7-1.7.7zm77.2 0c.5 0 1.1-.2 1.6-.7a29.5 29.5 0 0 1 42 0c1 1 2.6 1 3.5 0 1-1 1-2.5 0-3.4a34.4 34.4 0 0 0-49 0c-.8.9-.8 2.4 0 3.4.6.5 1.2.7 1.8.7z" fill="#232728"/>
    <path fill="#e09b00" d="M475.2 431.3c0 37-37.4 49-83.5 49s-83.5-12-83.5-49 37.4-67 83.5-67 83.5 30 83.5 67z"/>
    <path fill="#efb600" d="M308.2 431.3c0-37 37.4-67 83.5-67"/>
    <path fill="#db8c00" d="M391.7 364.4c46.1 0 83.5 30 83.5 67 0 36.9-37.4 48.8-83.5 48.8"/>
    <path fill="#e09b00" d="M391.7 364.4c46.1 0 83.5 30 83.5 67"/>
    <path fill="#f4c237" d="M453.7 346.5c0 27.4-27.7 36.3-62 36.3s-62-8.9-62-36.3 27.7-49.8 62-49.8 62 22.3 62 49.8z"/>
    <path fill="#efb600" d="M453.7 346.5c0 27.4-27.7 36.3-62 36.3s-62-8.9-62-36.3 27.7-44.8 62-44.8 62 17.3 62 44.8z"/>
    <path fill="#eda900" d="M453.7 346.5c0 27.4-27.7 36.3-62 36.3s-62-8.9-62-36.3"/>
    <circle cx="364" cy="331" r="7" fill="#2d2612"/>
    <path fill="#443b23" d="M357.3 331c0 .6.2 1.3.4 2a6.8 6.8 0 0 0 8.4-8.4c-.6-.3-1.3-.4-2-.4-3.7 0-6.8 3-6.8 6.7z"/>
    <circle cx="419" cy="331" r="7" fill="#2d2612"/>
    <path fill="#443b23" d="M412.5 331l.3 2a6.8 6.8 0 0 0 8.4-8.4c-.6-.3-1.2-.4-2-.4-3.7 0-6.7 3-6.7 6.7z"/>
    <path fill="#d15400" d="M406.2 341.8l-13.4-9.5c-.7-.5-1.5-.5-2.2 0l-13.4 9.5a1.9 1.9 0 0 0 .2 3.1l13.3 8c.3.3.7.3 1 .3a2 2 0 0 0 1-.2l13.3-8c.6-.4 1-1 1-1.6 0-.7-.3-1.3-.8-1.6z"/>
    <path fill="#ff6d00" d="M406.2 341.8l-13.4-9.5c-.7-.5-1.5-.5-2.2 0l-13.4 9.5a1.9 1.9 0 0 0 .2 3.1l13.3 2.6 1 .2a2 2 0 0 0 1-.2l13.3-2.6c.6-.3 1-.9 1-1.5 0-.7-.3-1.3-.8-1.6z"/>
    <ellipse cx="374" cy="470" fill="#db8c00" rx="11" ry="3"/>
    <g fill="#d15400">
        <path d="M380.1 489.4c0 3-2.5 5.6-5.6 5.6a5.7 5.7 0 0 1-5.7-5.6v-17.7c0-3.1 2.5-1.9 5.7-1.9 3.1 0 5.6-1.2 5.6 1.9v17.7z"/>
        <path d="M354.4 504.1a3.8 3.8 0 0 1-3.7-3.8c0-6 4.9-11 11-11h13.9a3.8 3.8 0 1 1 0 7.6h-14a3.4 3.4 0 0 0-3.4 3.4c0 2.1-1.7 3.8-3.8 3.8z"/>
        <path d="M365.3 504.1a3.8 3.8 0 0 1-3.8-3.8c0-6 5-11 11-11h10.1a3.8 3.8 0 0 1 0 7.6h-10a3.4 3.4 0 0 0-3.5 3.4c0 2.1-1.7 3.8-3.8 3.8z"/>
    </g>
    <ellipse cx="409" cy="470" fill="#e09b00" rx="11" ry="3"/>
    <g fill="#d15400">
        <path d="M403.3 489.4c0 3 2.5 5.6 5.6 5.6 3.2 0 5.7-2.5 5.7-5.6v-17.7c0-3.1-2.5-1.9-5.7-1.9-3 0-5.6-1.2-5.6 1.9v17.7z"/>
        <path d="M429 504.1c2 0 3.7-1.7 3.7-3.8 0-6-4.9-11-11-11h-13.9a3.8 3.8 0 1 0 0 7.6h14c1.8 0 3.4 1.5 3.4 3.4 0 2.1 1.7 3.8 3.8 3.8z"/>
        <path d="M418 504.1c2.2 0 3.9-1.7 3.9-3.8 0-6-5-11-11-11h-10.1a3.8 3.8 0 1 0 0 7.6h10c2 0 3.5 1.5 3.5 3.4 0 2.1 1.7 3.8 3.8 3.8zM220.4 322c0-11.2-7.4-21-18.6-26.6 5.2-2.7 8.5-7 8.5-13.3 0-13-13.1-23.5-29.3-23.5-16.2 0-29.3 10.5-29.3 23.5 0 6.4 3.3 10.6 8.4 13.3-11 5.6-18.5 15.4-18.5 26.7 0 14.4 12.1 20.7 28.6 22.4v5h-3.4a5.2 5.2 0 0 0-5.2 5.1 1.8 1.8 0 1 0 3.6 0c0-.8.7-1.6 1.6-1.6h.3c-.2.5-.3 1-.3 1.6a1.8 1.8 0 0 0 3.5 0c0-.8.8-1.6 1.7-1.6h4.7a1.8 1.8 0 0 0 0-3.5h-1.2V345l5.5.2 5.4-.2v4.5h-1.1a1.8 1.8 0 1 0 0 3.5h4.8c.8 0 1.6.8 1.6 1.6a1.8 1.8 0 0 0 3.5 0l-.3-1.6h.3c.9 0 1.6.8 1.6 1.6a1.8 1.8 0 1 0 3.6 0c0-2.8-2.3-5.1-5.2-5.1h-3.4v-5c16.5-1.7 28.6-8 28.6-22.4z"/>
    </g>
    <path fill="#26bc30" d="M179 0C107.8 0 50 61.2 50 124.3c0 5.2.6 10.2 1.4 15l.5 1.2 32.5-54.2 49.2 16.7V90.2l31.5 17.8 5-15.8 82.6 39.4 1-48.2 21.7 22.6 1-25.6L295 99.1l3-12.8 6.5 11.7A132.2 132.2 0 0 0 179 0z"/>
</svg>
