<svg xmlns="http://www.w3.org/2000/svg" viewBox="0 0 504 504">
    <g fill="#e88f00">
        <path d="M258.5 239.2c-.8 15-21 26-44.8 24.7-23.9-1.4-140.8-20.5-140-35.5 1-15.1 119.3-20.4 143.2-19 23.9 1.4 42.5 14.7 41.6 29.8z"/>
        <path d="M249.3 233c1-15.1 21-26.2 44.9-24.8 23.9 1.4 140.7 20.5 139.9 35.6-1 15-119.2 20.4-143.1 19-23.9-1.4-42.5-14.8-41.7-29.8z"/>
    </g>
    <path d="M231.3 362c0 19.4-15.8 124.6-35.3 124.6-19.5 0-35.3-105.2-35.3-124.7a35.3 35.3 0 0 1 70.6 0zm118.3 0c0 19.4-15.8 124.6-35.3 124.6-19.5 0-35.3-105.2-35.3-124.7a35.3 35.3 0 0 1 70.6 0z" fill="#e57200"/>
    <path fill="#e88f00" d="M354.8 315.2c0 126.4-44.6 84.3-99.7 84.3-55 0-99.6 42-99.6-84.3 0-72.2 44.6-130.7 99.6-130.7 55 0 99.7 58.5 99.7 130.7z"/>
    <path d="M259.7 352.5a4.6 4.6 0 0 1-9.2 0V206.8a4.6 4.6 0 1 1 9.2 0v145.7zm-24 134.7c0 15-17.8 17-39.7 17s-39.8-2-39.8-17 17.8-35.5 39.8-35.5 39.7 20.6 39.7 35.5z" fill="#3d3c39"/>
    <path fill="#1c1b1a" d="M235.7 487.2c0 15-17.8 17-39.7 17s-39.8-2-39.8-17"/>
    <path fill="#3d3c39" d="M354 487.2c0 15-17.7 17-39.7 17s-39.7-2-39.7-17 17.8-35.5 39.7-35.5 39.8 20.6 39.8 35.5z"/>
    <path fill="#1c1b1a" d="M354 487.2c0 15-17.7 17-39.7 17s-39.7-2-39.7-17"/>
    <path fill="#e88f00" d="M384.1 124.3c0 63-57.7 94.6-129 94.6-71.2 0-129-31.6-129-94.6C126.2 61.3 184 0 255.2 0c71.3 0 129 61.2 129 124.3z"/>
    <path fill="#e57200" d="M384.1 124.3c0 63-57.7 94.6-129 94.6-71.2 0-129-31.6-129-94.6"/>
    <path fill="#efc286" d="M360.5 124.3c0 63-34.1 51.6-105.3 51.6-71.3 0-105.4 11.4-105.4-51.6S184 51.9 255.2 51.9s105.3 9.3 105.3 72.4z"/>
    <path fill="#e5ae73" d="M255.2 176c71.2 0 105.3 11.3 105.3-51.7H149.8c0 63 34.1 51.6 105.4 51.6z"/>
    <circle cx="194" cy="129" r="12" fill="#113e49"/>
    <path d="M205.4 129.1a11.5 11.5 0 1 1-23.1 0"/>
    <path fill="#ffd3c5" d="M216.6 153.2c-.6 0-1.3-.2-1.8-.7a29.5 29.5 0 0 0-42 0c-1 .9-2.5 1-3.5 0s-1-2.5 0-3.5a34.4 34.4 0 0 1 49 0c1 1 1 2.5 0 3.5-.5.5-1 .7-1.7.7z"/>
    <circle cx="317" cy="129" r="12" fill="#113e49"/>
    <path d="M305 129.1a11.5 11.5 0 1 0 23 0"/>
    <path fill="#ffd3c5" d="M293.7 153.2c.6 0 1.3-.2 1.7-.7a29.6 29.6 0 0 1 21-8.8h.1c8 0 15.4 3.1 21 8.8 1 .9 2.5 1 3.4 0 1-1 1-2.5 0-3.5a34.4 34.4 0 0 0-49 0c-.8 1-.8 2.5 0 3.5.6.5 1.2.7 1.8.7z"/>
    <path fill="#592d08" d="M151.8 101.5C171 98.3 194 91.8 218 82.1a335 335 0 0 0 58.3-29.8c-6.7-.3-13.7-.4-21.2-.4-61.6 0-95.4 7-103.4 49.6z"/>
    <path fill="#723b0a" d="M233.9 52.3A334.5 334.5 0 0 0 292 82a327.8 327.8 0 0 0 66.4 19.4c-8-42.6-41.8-49.6-103.4-49.6-7.5 0-14.5.1-21.2.4z"/>
    <path d="M97.5 231c0 8.8-7 15.8-15.8 15.8H69c-8.7 0-15.7-7-15.7-15.7v-12.8c0-8.7 7-15.8 15.7-15.8h12.8c8.7 0 15.8 7 15.8 15.8V231zM451 249.8c0 8.7-7.1 15.7-15.8 15.7h-12.8c-8.7 0-15.8-7-15.8-15.7V237c0-8.7 7.1-15.8 15.8-15.8h12.8c8.7 0 15.8 7 15.8 15.8v12.8z" fill="#592d08"/>
    <path d="M252 220.6c.6.7.6 1.7 0 2.3l-21.8 21.9c-.7.6-1.7.6-2.4 0-.6-.7-.6-1.7 0-2.4l21.9-21.8c.6-.6 1.6-.6 2.3 0zm2 9.9c-.7.6-.7 1.7 0 2.3l21.8 21.8c.6.7 1.7.7 2.3 0 .6-.6.6-1.7 0-2.3l-21.8-21.8c-.7-.7-1.7-.7-2.3 0z" fill="#3d3c39"/>
</svg>
