<svg xmlns="http://www.w3.org/2000/svg" viewBox="0 0 504 504">
    <path fill="#f24603" d="M275.6 258.1c11.3 10 33.3 3.7 49.3-14.2 15.9-17.9 85-114 73.7-124-11.3-10.1-98.7 69.8-114.6 87.7-15.9 17.8-19.6 40.5-8.4 50.5z"/>
    <path fill="#32a01c" d="M420.8 122c0 8.8-7.1 15.8-15.8 15.8h-7.9c-8.7 0-15.7-7-15.7-15.7v-7.9c0-8.7 7-15.7 15.7-15.7h7.9c8.7 0 15.8 7 15.8 15.7v7.9z"/>
    <path fill="#ff6d00" d="M234.5 203.8c10 11.2 3.6 33.3-14.3 49.2-17.8 15.9-114 85-124 73.8-10-11.3 69.9-98.8 87.7-114.7 18-15.8 40.5-19.6 50.6-8.3z"/>
    <path d="M221.6 362c0 19.4-15.8 124.6-35.3 124.6-19.5 0-35.3-105.2-35.3-124.7a35.3 35.3 0 0 1 70.6 0zm118.4 0c0 19.4-15.9 124.6-35.4 124.6s-35.3-105.2-35.3-124.7a35.3 35.3 0 0 1 70.7 0z" fill="#087c66"/>
    <path fill="#ff6d00" d="M345.1 315.2c0 126.4-44.6 84.3-99.6 84.3s-99.7 42-99.7-84.3c0-72.2 44.6-130.7 99.6-130.7 55 0 99.7 58.5 99.7 130.7z"/>
    <path fill="#3d3c39" d="M249.9 364.5c0 2.4-2 4.4-4.4 4.4-2.5 0-4.5-2-4.5-4.4v-130c0-2.4 2-4.4 4.5-4.4 2.4 0 4.4 2 4.4 4.4v130z"/>
    <ellipse cx="245" cy="214" fill="#32a01c" rx="55" ry="34"/>
    <path fill="#f24603" d="M245.4 366c-51.6 0-94 37-99-62.6-.4 3.4-.6 7.4-.6 11.9 0 126.3 44.6 84.2 99.6 84.2s99.7 42 99.7-84.2c0-4.5-.2-8.5-.5-12-5 99.7-47.5 62.7-99.2 62.7z"/>
    <path fill="#3d3c39" d="M226 487.2c0 15-17.8 17-39.7 17-22 0-39.8-2-39.8-17s17.8-35.5 39.8-35.5c22 0 39.7 20.6 39.7 35.5z"/>
    <path fill="#1c1b1a" d="M226 487.2c0 15-17.8 17-39.7 17-22 0-39.8-2-39.8-17"/>
    <path fill="#3d3c39" d="M344.4 487.2c0 15-17.8 17-39.8 17-22 0-39.7-2-39.7-17s17.8-35.5 39.7-35.5c22 0 39.8 20.6 39.8 35.5z"/>
    <path fill="#1c1b1a" d="M344.4 487.2c0 15-17.8 17-39.8 17-22 0-39.7-2-39.7-17"/>
    <path fill="#e8b085" d="M374.4 124.3c0 63-57.8 94.6-129 94.6s-129-31.6-129-94.6c0-63 57.8-124.3 129-124.3s129 61.2 129 124.3z"/>
    <path fill="#dd9f76" d="M374.4 124.3c0 63-57.8 94.6-129 94.6s-129-31.6-129-94.6"/>
    <circle cx="184" cy="136" r="12" fill="#113e49"/>
    <path d="M195.7 136.4a11.5 11.5 0 0 1-23.1 0"/>
    <path fill="#f4c3a2" d="M206.9 160.5c-.6 0-1.3-.2-1.7-.7a29.6 29.6 0 0 0-21-8.8h-.1c-8 0-15.4 3.2-21 8.8-1 1-2.5 1-3.5 0s-1-2.5 0-3.5a34.4 34.4 0 0 1 49 0c1 1 1 2.5 0 3.5-.5.5-1 .7-1.7.7z"/>
    <path fill="#113e49" d="M295.2 136.4a11.5 11.5 0 1 0 23.1 0 11.5 11.5 0 1 0-23 0z"/>
    <path d="M295.2 136.4a11.5 11.5 0 1 0 23.1 0"/>
    <path fill="#f4c3a2" d="M284 160.5c.6 0 1.3-.2 1.7-.7a29.6 29.6 0 0 1 21-8.8c8 0 15.5 3.2 21.1 8.8 1 1 2.5 1 3.4 0 1-1 1-2.5 0-3.5a34.5 34.5 0 0 0-49 0c-.8 1-.8 2.5 0 3.5.6.5 1.2.7 1.8.7z"/>
    <path fill="#54c911" d="M120.7 95.2h249.5A132.2 132.2 0 0 0 245.5 0a132.3 132.3 0 0 0-124.8 95.2z"/>
    <path fill="#32a01c" d="M120.7 95.2h249.5c-14.3-51.5-64.6-72.9-124.7-72.9-60.2 0-110.5 21.4-124.8 72.9z"/>
    <path fill="#54c911" d="M131.5 160a24.1 24.1 0 0 1-46.8-11.8c3.3-12.9 25.8-58 38.8-54.7 12.9 3.3 11.3 53.7 8 66.6z"/>
    <path fill="#32a01c" d="M123.5 93.5c12.9 3.3 11.3 53.7 8 66.6a24.1 24.1 0 0 1-29.3 17.4"/>
    <path fill="#54c911" d="M359.4 160a24.1 24.1 0 1 0 46.7-11.8c-3.2-12.9-25.8-58-38.7-54.7-13 3.3-11.3 53.7-8 66.6z"/>
    <g fill="#32a01c">
        <path d="M367.4 93.5c-13 3.3-11.3 53.7-8 66.6a24.1 24.1 0 0 0 29.3 17.4"/>
        <path d="M375.4 95.2c0 5.4-4.4 9.8-9.8 9.8H125.3a9.8 9.8 0 1 1 0-19.7h240.3c5.4 0 9.8 4.4 9.8 9.9zM122.8 329.5c0 8.7-7.1 15.8-15.8 15.8h-7.9c-8.7 0-15.7-7-15.7-15.8v-7.8c0-8.7 7-15.8 15.7-15.8h7.9c8.7 0 15.8 7 15.8 15.8v7.8z"/>
    </g>
    <g fill="#3d3c39">
        <path d="M220.8 305.9h-43.3v-43.3h43.3v43.3zm-35.4-7.9H213v-27.6h-27.6V298z"/>
        <path d="M199.2 286.8l-15-15 5.5-5.6 9.5 9.5 9.4-9.5 5.6 5.5zm114.2 19.1H270v-43.3h43.3v43.3zm-35.5-7.9h27.6v-27.6H278V298z"/>
        <path d="M291.7 286.8l-15-15 5.5-5.6 9.5 9.5 9.5-9.5 5.6 5.5z"/>
    </g>
</svg>
