<svg xmlns="http://www.w3.org/2000/svg" viewBox="0 0 504 504">
    <path d="M263.4 362c0 19.4-15.8 124.6-35.3 124.6-19.5 0-35.4-105.2-35.4-124.7a35.3 35.3 0 0 1 70.7 0zm118.3 0c0 19.4-15.8 124.6-35.3 124.6-19.5 0-35.3-105.2-35.3-124.7a35.3 35.3 0 0 1 70.6 0z" fill="#4297a0"/>
    <g fill="#232728">
        <path d="M386.9 315.2c0 126.4-44.6 84.3-99.7 84.3-55 0-99.6 42-99.6-84.3 0-72.2 44.6-130.7 99.6-130.7 55 0 99.7 58.5 99.7 130.7z"/>
        <path d="M321.6 214.3c11.3-10 33.3-3.6 49.2 14.2 16 18 85 114 73.8 124-11.3 10.1-98.7-69.8-114.6-87.7-16-17.8-19.7-40.5-8.4-50.5z"/>
    </g>
    <path fill="#d1300b" d="M267.8 487.2c0 15-17.8 17-39.7 17s-39.8-2-39.8-17 17.8-35.5 39.8-35.5 39.7 20.6 39.7 35.5z"/>
    <path fill="#af220b" d="M267.8 487.2c0 15-17.8 17-39.7 17s-39.8-2-39.8-17"/>
    <path fill="#d1300b" d="M386.1 487.2c0 15-17.8 17-39.7 17s-39.7-2-39.7-17 17.8-35.5 39.7-35.5 39.8 20.6 39.8 35.5z"/>
    <path fill="#af220b" d="M386.1 487.2c0 15-17.8 17-39.7 17s-39.7-2-39.7-17"/>
    <path fill="#232728" d="M297.7 231.2c-.9-15-21-26.1-44.9-24.7C229 207.9 112.1 227 113 242c1 15 119.3 20.4 143.2 19 23.8-1.4 42.5-14.7 41.6-29.8z"/>
    <circle cx="287" cy="211" r="27" fill="#a56b44"/>
    <path fill="#d8a17c" d="M416.2 124.3c0 63-57.8 94.6-129 94.6s-129-31.6-129-94.6C158.3 61.3 216 0 287.3 0s129 61.2 129 124.3z"/>
    <path fill="#c48960" d="M416.2 124.3c0 63-57.8 94.6-129 94.6s-129-31.6-129-94.6c0-63 57.8-111.8 129-111.8s129 48.7 129 111.8z"/>
    <path fill="#c48960" d="M416.2 124.3c0 63-57.8 94.6-129 94.6s-129-31.6-129-94.6c0-63 57.8-111.8 129-111.8s129 48.7 129 111.8z"/>
    <path fill="#bc8158" d="M416.2 124.3c0 63-57.8 94.6-129 94.6s-129-31.6-129-94.6"/>
    <circle cx="206" cy="82" r="12" fill="#113e49"/>
    <path d="M217.5 82.4a11.5 11.5 0 1 1-23 0"/>
    <path fill="#e5a376" d="M228.7 106.4c-.6 0-1.2-.2-1.7-.7a29.5 29.5 0 0 0-42 0c-1 1-2.5 1-3.5 0s-1-2.4 0-3.4a34.4 34.4 0 0 1 49 0c1 1 1 2.5 0 3.4-.5.5-1.1.7-1.8.7z"/>
    <circle cx="329" cy="82" r="12" fill="#113e49"/>
    <path d="M317.1 82.4a11.5 11.5 0 1 0 23 0"/>
    <path fill="#e5a376" d="M305.9 106.4c.6 0 1.2-.2 1.7-.7a29.5 29.5 0 0 1 42 0c1 1 2.6 1 3.5 0 1-1 1-2.4 0-3.4a34.4 34.4 0 0 0-49 0c-.9 1-.9 2.5 0 3.4.5.5 1.2.7 1.8.7z"/>
    <ellipse cx="264" cy="118" fill="#a11" rx="13" ry="6"/>
    <path fill="#ebf0f2" d="M318.8 339.3a50 50 0 0 0 4-6.8l.4-.9c1-2.4 2-4.8 2.7-7.4l.2-1c.7-2.6 1.2-5.2 1.4-8v-.3c.2-1.4.2-2.7.2-4.1a50.3 50.3 0 1 0-100.2 4v.4c.3 2.8.8 5.4 1.4 8l.3 1c.7 2.6 1.6 5 2.7 7.4l.4.8a49 49 0 0 0 4 7l.2.3a50.8 50.8 0 0 0 11.3 11.5l.8.6c2.1 1.5 4.3 2.8 6.6 3.9l1 .5c2.4 1.1 4.8 2 7.3 2.8l1 .2a49 49 0 0 0 8 1.6h.9a48.4 48.4 0 0 0 8.3 0h.8c2.8-.3 5.4-.8 8-1.5l1-.3a50.2 50.2 0 0 0 14.9-7.2l.8-.6c2.2-1.6 4.2-3.3 6-5.1l.1-.2c2-1.9 3.7-4 5.2-6.2l.3-.4zm-37.1-70.2c1.7.2 3.4.6 5 1l3.5.8c1.3.4 2.6 1 3.8 1.5l3.1 1.4 3.5 2.2 2.8 1.9 3 2.8 2.4 2.3c1 1 1.7 2.2 2.5 3.3l2 2.6 2 4c.4 1 1 1.8 1.3 2.8.6 1.5 1 3.1 1.4 4.7l.7 2.6a42 42 0 0 1-10.4 36.2l-26.6-26.6v-43.5zm-8.3 0v43.5l-26.6 26.7a41.8 41.8 0 0 1-10.4-36.3c.1-.9.4-1.7.7-2.5.4-1.6.8-3.3 1.4-4.8.3-1 .9-1.9 1.3-2.8.6-1.3 1.2-2.7 2-4l2-2.6 2.4-3.3 2.4-2.3 3-2.8c1-.7 2-1.2 2.8-1.9 1.2-.7 2.3-1.5 3.5-2.1 1-.6 2-1 3.1-1.4 1.3-.6 2.5-1.1 3.8-1.5l3.5-.9c1.7-.4 3.3-.8 5-1zM258 348a41 41 0 0 1-5-3.1l20.4-20.4v28.1A41.1 41.1 0 0 1 258 348zm23.7-15.2v-8.3l20.4 20.4a43.4 43.4 0 0 1-20.4 7.7v-19.8z"/>
    <path d="M187.6 216.3c-37.1 7.2-75.1 17.1-74.7 25.7.6 8.5 37.8 13.8 74.7 16.7v-42.4zm192.3 95.1c28.1 24.2 58.4 46.8 64.7 41.2 6.4-5.8-13.5-39.8-34.7-71.2l-30 30z" fill="#bc8158"/>
    <path fill="#af220b" d="M132.2 263.5c0 8.7-7.1 15.8-15.8 15.8H74.1c-8.7 0-15.8-7-15.8-15.8V168c0-8.7 7-15.7 15.8-15.7h42.3c8.7 0 15.8 7 15.8 15.7v95.5z"/>
    <path fill="#4297a0" d="M120.7 240.9c0 6-4.9 10.8-10.9 10.8H80.6c-6 0-10.8-4.8-10.8-10.8v-66c0-6 4.8-10.8 10.8-10.8h29.2c6 0 11 4.9 11 10.9v65.9z"/>
</svg>
