<svg xmlns="http://www.w3.org/2000/svg" viewBox="0 0 504 504">
    <path d="M263 280.6c-10-11.2-3.6-33.3 14.3-49.2 17.8-15.9 114-85 124-73.8 10 11.3-69.9 98.8-87.7 114.6-18 16-40.5 19.7-50.6 8.4zm-22 0c10.1-11.2 3.7-33.3-14.1-49.2-18-15.9-114-85-124.1-73.8-10 11.3 69.9 98.8 87.8 114.6 17.8 16 40.4 19.7 50.5 8.4z" fill="#232728"/>
    <path d="M168.6 188.7c-29.8-19.7-60.4-37.1-65.8-31-5.3 5.9 14.5 33.1 37 59.8l28.8-28.8zm198.3 25.7c21.4-25.7 39.5-51 34.4-56.8-5.2-5.8-33.7 10-62.4 28.9l28 28z" fill="#d39959"/>
    <path d="M228.2 362c0 19.4-15.8 124.6-35.3 124.6-19.5 0-35.3-105.2-35.3-124.7a35.3 35.3 0 0 1 70.6 0zm118.4 0c0 19.4-15.8 124.6-35.4 124.6-19.5 0-35.3-105.2-35.3-124.7a35.3 35.3 0 0 1 70.7 0z" fill="#960808"/>
    <path fill="#232728" d="M351.7 315.2c0 126.4-44.6 84.3-99.6 84.3-55 0-99.7 42-99.7-84.3 0-72.2 44.6-130.7 99.7-130.7 55 0 99.6 58.5 99.6 130.7z"/>
    <path fill="#ff7300" d="M232.6 487.2c0 15-17.8 17-39.7 17s-39.7-2-39.7-17 17.8-35.5 39.7-35.5 39.7 20.6 39.7 35.5z"/>
    <path fill="#ff4800" d="M232.6 487.2c0 15-17.8 17-39.7 17s-39.7-2-39.7-17"/>
    <path fill="#ff7300" d="M351 487.2c0 15-17.8 17-39.8 17s-39.7-2-39.7-17 17.8-35.5 39.7-35.5 39.8 20.6 39.8 35.5z"/>
    <path fill="#ff4800" d="M351 487.2c0 15-17.8 17-39.8 17s-39.7-2-39.7-17"/>
    <path fill="#efc286" d="M381 124.3c0 63-57.7 94.6-129 94.6-71.1 0-128.9-31.6-128.9-94.6C123.1 61.3 181 0 252.1 0s129 61.2 129 124.3z"/>
    <path fill="#e8b374" d="M381 124.3c0 63-57.7 94.6-129 94.6-71.1 0-128.9-31.6-128.9-94.6"/>
    <path d="M190.5 148.4c-.6 0-1.2-.2-1.7-.7a29.5 29.5 0 0 0-42 0c-1 1-2.6 1-3.5 0-1-1-1-2.4 0-3.4a34.4 34.4 0 0 1 49 0 2.4 2.4 0 0 1-1.8 4.1zm77.2 0c.6 0 1.2-.2 1.7-.7a29.5 29.5 0 0 1 42 0c1 1 2.5 1 3.5 0s1-2.4 0-3.4a34.4 34.4 0 0 0-49 0c-.9 1-.9 2.5 0 3.4.5.5 1.1.7 1.8.7z" fill="#232728"/>
    <path fill="#870e0e" d="M207.3 186.2c0-15.4 10-28 22.2-28s22.1 12.6 22.1 28-10 6.2-22.1 6.2c-12.2 0-22.2 9.2-22.2-6.2z"/>
    <path fill="#a11" d="M229.5 180.8c7.2 0 13.6-4.5 17.6-11.3-4-6.8-10.4-11.3-17.6-11.3-7.3 0-13.6 4.5-17.7 11.3 4 6.8 10.4 11.3 17.7 11.3z"/>
    <path fill="#232728" d="M143 60.8c22.7 17.1 62 28.5 106.8 28.5 36.2 0 68.8-7.5 92-19.4 8.9 4.6 19 8.4 30.3 11.5A132.4 132.4 0 0 0 252.1 0c-46 0-86.4 25.7-109.2 60.8z"/>
    <g fill="#ff7300">
        <path d="M250.6 250.9c-33 0-59.6 26.7-59.6 59.6h20.8a38.8 38.8 0 1 1 77.7 0h20.8c0-33-26.7-59.6-59.7-59.6z"/>
        <path d="M269 310.5a18.3 18.3 0 1 0-36.7 0H269zm-70.3 30.7c1 1.8 2.2 3.7 3.4 5.4h97c1.3-1.7 2.4-3.6 3.5-5.4h-104zM286 360c2.2-1.7 4.3-3.5 6.3-5.5H209c2 2 4.2 3.8 6.4 5.5H286zm-56 7.9a59.5 59.5 0 0 0 41.2 0H230zm-36.8-40.1c.5 1.9 1 3.7 1.7 5.4h111.4c.7-1.7 1.3-3.5 1.8-5.4h-115z"/>
    </g>
</svg>
