<svg xmlns="http://www.w3.org/2000/svg" viewBox="0 0 504 504">
    <path d="M236 362c0 19.4-15.7 124.6-35.3 124.6-19.5 0-35.3-105.2-35.3-124.7a35.3 35.3 0 0 1 70.7 0zm118.4 0c0 19.4-15.8 124.6-35.3 124.6-19.5 0-35.3-105.2-35.3-124.7a35.3 35.3 0 0 1 70.6 0z" fill="#232728"/>
    <g fill="#6e9681">
        <path d="M359.6 315.2c0 126.4-44.6 84.3-99.7 84.3-55 0-99.6 42-99.6-84.3 0-72.2 44.6-130.7 99.6-130.7 55 0 99.7 58.5 99.7 130.7z"/>
        <path d="M294.3 214.3c11.3-10 33.3-3.6 49.2 14.2 15.9 18 85 114 73.8 124-11.3 10.1-98.8-69.8-114.6-87.7-16-17.8-19.7-40.5-8.4-50.5z"/>
    </g>
    <path fill="#587a67" d="M260 348.3c-49.6 0-90.7 34-98.4-51.4-.9 5.1-1.3 11.2-1.3 18.4 0 126.3 44.6 84.2 99.6 84.2 55 0 99.7 42 99.7-84.2 0-7.2-.5-13.3-1.3-18.4-7.7 85.4-48.8 51.4-98.4 51.4z"/>
    <path fill="#0dceae" d="M240.5 487.2c0 15-17.8 17-39.8 17s-39.7-2-39.7-17 17.8-35.5 39.7-35.5 39.8 20.6 39.8 35.5z"/>
    <path fill="#08b5b0" d="M240.5 487.2c0 15-17.8 17-39.8 17s-39.7-2-39.7-17"/>
    <path fill="#0dceae" d="M358.8 487.2c0 15-17.8 17-39.7 17s-39.7-2-39.7-17 17.8-35.5 39.7-35.5 39.7 20.6 39.7 35.5z"/>
    <path fill="#08b5b0" d="M358.8 487.2c0 15-17.8 17-39.7 17s-39.7-2-39.7-17"/>
    <path fill="#6e9681" d="M270.4 231.2c-.9-15-21-26.1-44.9-24.7C201.6 207.9 84.8 227 85.6 242c1 15 119.3 20.4 143.1 19 23.9-1.4 42.6-14.7 41.7-29.8z"/>
    <circle cx="260" cy="211" r="27" fill="#a56b44"/>
    <path fill="#d8a17c" d="M388.9 124.3c0 63-57.8 94.6-129 94.6s-129-31.6-129-94.6C131 61.3 188.8 0 260 0s129 61.2 129 124.3z"/>
    <path fill="#c48960" d="M388.9 124.3c0 63-57.8 94.6-129 94.6s-129-31.6-129-94.6c0-63 57.8-111.8 129-111.8s129 48.7 129 111.8z"/>
    <path fill="#c48960" d="M388.9 124.3c0 63-57.8 94.6-129 94.6s-129-31.6-129-94.6c0-63 57.8-111.8 129-111.8s129 48.7 129 111.8z"/>
    <path fill="#bc8158" d="M388.9 124.3c0 63-57.8 94.6-129 94.6s-129-31.6-129-94.6"/>
    <path fill="#63391c" d="M384.7 95.4A132.2 132.2 0 0 0 260 0c-71.2 0-129 61.2-129 124.3 0 16.1 4 30.2 10.8 42.3a22 22 0 0 0 10.4-18.8l-.3-2.7a22 22 0 0 0 8.7-17.4c0-1-.2-1.9-.3-2.8a22 22 0 0 0 8.6-17.4 22 22 0 0 0-8.5-17.4c.8-.8 1.6-1.5 2.3-2.4a24.8 24.8 0 0 0 38.8 0 24.8 24.8 0 0 0 38.7 0 24.8 24.8 0 0 0 38.7 0 24.8 24.8 0 0 0 38.7 0 24.8 24.8 0 0 0 38.8 0 24.8 24.8 0 0 0 28.4 7.7z"/>
    <circle cx="212" cy="146" r="12" fill="#113e49"/>
    <path d="M223.3 145.6a11.5 11.5 0 1 1-23.1 0"/>
    <path fill="#e5a376" d="M234.5 169.7c-.6 0-1.3-.2-1.7-.7a29.5 29.5 0 0 0-42 0c-1 .9-2.6 1-3.5 0-1-1-1-2.5 0-3.5a34.4 34.4 0 0 1 49 0c.8 1 .8 2.5-.1 3.5-.5.5-1 .7-1.7.7z"/>
    <circle cx="334" cy="146" r="12" fill="#113e49"/>
    <path d="M322.8 145.6a11.5 11.5 0 1 0 23.1 0"/>
    <path fill="#e5a376" d="M311.6 169.7c.6 0 1.3-.2 1.7-.7a29.6 29.6 0 0 1 21-8.8h.1c8 0 15.4 3.1 21 8.8 1 .9 2.5 1 3.5 0s1-2.5 0-3.5a34.4 34.4 0 0 0-49 0c-1 1-1 2.5 0 3.5.5.5 1 .7 1.7.7z"/>
    <ellipse cx="275" cy="188" fill="#a11" rx="6" ry="15"/>
    <path fill="#870e0e" d="M269 188.2c0-8.5 2.8-15.4 6.2-15.4 3.4 0 6.2 6.9 6.2 15.4"/>
    <path d="M255.6 296.2V256l-34.8 20.1zm-40.8-9.8v40.3l34.8-20.2zm52.7-30.4v40.2l34.8-20zm0 101l34.8-20-34.8-20.1zm-11.9 0v-40l-34.8 20zm17.9-50.5l34.8 20.2v-40.3z" fill="#0dceae"/>
</svg>
