<svg xmlns="http://www.w3.org/2000/svg" viewBox="0 0 504 504">
    <path d="M228.2 362c0 19.4-15.8 124.6-35.3 124.6-19.5 0-35.3-105.2-35.3-124.7a35.3 35.3 0 0 1 70.6 0zm118.4 0c0 19.4-15.8 124.6-35.4 124.6-19.5 0-35.3-105.2-35.3-124.7a35.3 35.3 0 0 1 70.7 0z" fill="#593f0b"/>
    <path fill="#a81333" d="M351.7 315.2c0 126.4-44.6 84.3-99.6 84.3-55 0-99.7 42-99.7-84.3 0-72.2 44.6-130.7 99.7-130.7 55 0 99.6 58.5 99.6 130.7z"/>
    <path fill="#3d3c39" d="M232.6 487.2c0 15-17.8 17-39.7 17s-39.7-2-39.7-17 17.8-35.5 39.7-35.5 39.7 20.6 39.7 35.5z"/>
    <path fill="#1c1b1a" d="M232.6 487.2c0 15-17.8 17-39.7 17s-39.7-2-39.7-17"/>
    <path fill="#3d3c39" d="M351 487.2c0 15-17.8 17-39.8 17s-39.7-2-39.7-17 17.8-35.5 39.7-35.5 39.8 20.6 39.8 35.5z"/>
    <path fill="#1c1b1a" d="M351 487.2c0 15-17.8 17-39.8 17s-39.7-2-39.7-17"/>
    <path fill="#f9bd82" d="M381 124.3c0 63-57.7 94.6-129 94.6-71.1 0-128.9-31.6-128.9-94.6C123.1 61.3 181 0 252.1 0s129 61.2 129 124.3z"/>
    <path fill="#eda366" d="M381 124.3c0 63-57.7 94.6-129 94.6-71.1 0-128.9-31.6-128.9-94.6"/>
    <circle cx="191" cy="101" r="12" fill="#113e49"/>
    <path d="M202.3 101a11.5 11.5 0 1 1-23 0"/>
    <path fill="#ffd3c5" d="M213.5 125c-.6 0-1.2-.2-1.7-.7a29.5 29.5 0 0 0-42 0c-1 1-2.6 1-3.5 0-1-.9-1-2.4 0-3.4a34.4 34.4 0 0 1 49 0c.9 1 .9 2.5 0 3.4-.5.5-1.2.7-1.8.7z"/>
    <circle cx="313" cy="101" r="12" fill="#113e49"/>
    <path d="M301.9 101a11.5 11.5 0 1 0 23 0"/>
    <path fill="#ffd3c5" d="M290.6 125c.6 0 1.3-.2 1.8-.7a29.5 29.5 0 0 1 42 0c1 1 2.5 1 3.5 0 1-.9 1-2.4 0-3.4a34.4 34.4 0 0 0-49 0c-1 1-1 2.5 0 3.4.5.5 1.1.7 1.7.7z"/>
    <path fill="#a11" d="M223.6 128c0-3.6 12.8-16 28.5-16s28.4 12.4 28.4 16c0 3.7-12.7 1.5-28.4 1.5s-28.5 2.2-28.5-1.5z"/>
    <path fill="#eda366" d="M345.3 291.6c4.8-14.3-9.9-32-32.6-39.5-22.7-7.5-138.4-32.7-143.1-18.4-4.8 14.3 103.3 62.8 126 70.3 22.7 7.5 45 2 49.7-12.4z"/>
    <path fill="#f9bd82" d="M158.8 291.6c-4.7-14.3 9.9-32 32.6-39.5 22.7-7.5 138.4-32.7 143.2-18.4 4.7 14.3-103.4 62.8-126.1 70.3-22.7 7.5-45 2-49.7-12.4z"/>
    <path fill="#5f7277" d="M296.4 240.6c-.9-3.3-1.5-6.4-2-9.5l-6.7.9a85.3 85.3 0 0 0 9 31.6l7.2-4a76 76 0 0 1-7.5-19z"/>
    <circle cx="291" cy="241" r="14" fill="#0698bf"/>
    <circle cx="290" cy="239" r="8" fill="#a3e1ef"/>
    <path fill="#ffce00" d="M135 74.8h234.2C348.7 32.7 304 0 252 0s-96.6 32.7-117 74.8z"/>
    <path fill="#0fb2ae" d="M252 0c-43.9 0-82.6 23.4-105.8 56.1H358A131.2 131.2 0 0 0 252 0z"/>
    <path fill="#ffce00" d="M304.9 11.8a125 125 0 0 0-105.6 0h105.6z"/>
</svg>
