<svg xmlns="http://www.w3.org/2000/svg" viewBox="0 0 504 504">
    <path d="M263 280.6c-10-11.2-3.6-33.3 14.3-49.2 17.8-15.9 114-85 124-73.8 10 11.3-69.9 98.8-87.7 114.6-18 16-40.5 19.7-50.6 8.4zm-22 0c10.1-11.2 3.7-33.3-14.1-49.2-18-15.9-114-85-124.1-73.8-10 11.3 69.9 98.8 87.8 114.6 17.8 16 40.4 19.7 50.5 8.4z" fill="#26bc30"/>
    <path d="M168.6 188.7c-29.8-19.7-60.4-37.1-65.8-31-5.3 5.9 14.5 33.1 37 59.8l28.8-28.8zm198.3 25.7c21.4-25.7 39.5-51 34.4-56.8-5.2-5.8-33.7 10-62.4 28.9l28 28z" fill="#d39959"/>
    <path d="M228.2 362c0 19.4-15.8 124.6-35.3 124.6-19.5 0-35.3-105.2-35.3-124.7a35.3 35.3 0 0 1 70.6 0zm118.4 0c0 19.4-15.8 124.6-35.4 124.6-19.5 0-35.3-105.2-35.3-124.7a35.3 35.3 0 0 1 70.7 0z" fill="#9b4308"/>
    <path fill="#0ea012" d="M351.7 315.2c0 126.4-44.6 84.3-99.6 84.3-55 0-99.7 42-99.7-84.3 0-72.2 44.6-130.7 99.7-130.7 55 0 99.6 58.5 99.6 130.7z"/>
    <path fill="#26bc30" d="M252 184.5c-52.3 0-95.2 53.1-99.2 120.6 4.4 103.5 47.1 65.8 99.3 65.8 52.1 0 94.9 37.7 99.2-65.8-4-67.5-46.8-120.6-99.2-120.6z"/>
    <path fill="#262626" d="M232.6 487.2c0 15-17.8 17-39.7 17s-39.7-2-39.7-17 17.8-35.5 39.7-35.5 39.7 20.6 39.7 35.5z"/>
    <path d="M232.6 487.2c0 15-17.8 17-39.7 17s-39.7-2-39.7-17"/>
    <path fill="#262626" d="M351 487.2c0 15-17.8 17-39.8 17s-39.7-2-39.7-17 17.8-35.5 39.7-35.5 39.8 20.6 39.8 35.5z"/>
    <path d="M351 487.2c0 15-17.8 17-39.8 17s-39.7-2-39.7-17"/>
    <path fill="#efc286" d="M381 124.3c0 63-57.7 94.6-129 94.6-71.1 0-128.9-31.6-128.9-94.6C123.1 61.3 181 0 252.1 0s129 61.2 129 124.3z"/>
    <path fill="#e8b374" d="M381 124.3c0 63-57.7 94.6-129 94.6-71.1 0-128.9-31.6-128.9-94.6"/>
    <path d="M235.7 92.8c-.6 0-1.2-.2-1.7-.7a29.5 29.5 0 0 0-42 0c-1 1-2.6 1-3.5 0-1-1-1-2.5 0-3.4a34.4 34.4 0 0 1 49 0 2.4 2.4 0 0 1-1.8 4.1zm77.2 0c.6 0 1.2-.2 1.7-.7a29.5 29.5 0 0 1 42 0c1 1 2.5 1 3.5 0s1-2.5 0-3.4a34.4 34.4 0 0 0-49 0c-.9.9-.9 2.5 0 3.4.5.5 1.1.7 1.8.7z" fill="#232728"/>
    <path fill="#840909" d="M302.5 112.9c0 8.7-7 15.8-15.8 15.8H271c-8.7 0-15.8-7.1-15.8-15.8v-3c0-8.7 7-15.7 15.8-15.7h15.7c8.7 0 15.8 7 15.8 15.7v3z"/>
    <path fill="#a11" d="M271 107.3c-7 0-12.7 4.5-14.9 10.7 2.2 6.2 8 10.7 14.9 10.7h15.7c7 0 12.7-4.5 14.9-10.7-2.2-6.2-8-10.7-14.9-10.7H271z"/>
    <path fill="#840909" d="M252 0c-52.4 0-97.6 33.3-117.7 76.1l.2 1.4H164V44h103V20.4L289.8 43h57.7A130.2 130.2 0 0 0 252 0z"/>
    <path d="M318.9 307.3l-29.2-29.1-8.6 8.6-10.7-10.8-14.1 14.1L228 262l-45.4 45.4h126.2zm-5 6H187.6a1 1 0 0 0-1 1.1c0 .6.4 1 1 1H314c.6 0 1-.4 1-1s-.4-1-1-1zm-21.3 7.1h-83.7a1 1 0 0 0 0 2.1h83.7c.6 0 1-.4 1-1s-.4-1-1-1zm-10.6 7.1h-62.5a1 1 0 0 0-1 1c0 .7.5 1.1 1 1.1H282c.6 0 1-.4 1-1s-.4-1-1-1zm-10.7 7.1h-41.1a1 1 0 0 0 0 2.1h41.1c.6 0 1-.4 1-1s-.4-1-1-1z" fill="#00ff06"/>
</svg>
