<svg xmlns="http://www.w3.org/2000/svg" viewBox="0 0 504 504">
    <path d="M268.699 361.913c0 19.503-15.817 124.668-35.336 124.668-19.495 0-35.304-105.173-35.304-124.668 0-19.495 15.817-35.32 35.304-35.32 19.519 0 35.336 15.825 35.336 35.32zm118.358 0c0 19.503-15.817 124.668-35.336 124.668-19.495 0-35.304-105.173-35.304-124.668 0-19.495 15.817-35.32 35.304-35.32 19.519 0 35.336 15.825 35.336 35.32z" fill="#094168"/>
    <path d="M392.193 315.242c0 126.33-44.599 84.259-99.643 84.259-55.028 0-99.643 42.071-99.643-84.259 0-72.231 44.631-130.781 99.643-130.781 55.028.009 99.643 58.558 99.643 130.781z" fill="#0f4f84"/>
    <path d="M273.118 487.219c0 14.935-17.802 16.904-39.739 16.904s-39.739-1.961-39.739-16.904 17.802-35.509 39.739-35.509 39.739 20.567 39.739 35.509z" fill="#9b5013"/>
    <path d="M273.118 487.219c0 14.935-17.802 16.904-39.739 16.904s-39.739-1.961-39.739-16.904" fill="#7c4412"/>
    <path d="M391.468 487.219c0 14.935-17.802 16.904-39.739 16.904s-39.739-1.961-39.739-16.904 17.802-35.509 39.739-35.509 39.739 20.567 39.739 35.509z" fill="#9b5013"/>
    <path d="M391.468 487.219c0 14.935-17.802 16.904-39.739 16.904s-39.739-1.961-39.739-16.904" fill="#7c4412"/>
    <path d="M281.562 203.768c10.027 11.28 3.663 33.304-14.218 49.223-17.881 15.896-114.018 85.024-124.062 73.767-10.012-11.296 69.892-98.714 87.773-114.609 17.865-15.895 40.479-19.653 50.507-8.381zm21.968 0c-10.027 11.28-3.663 33.304 14.218 49.223 17.881 15.896 114.018 85.024 124.062 73.767 10.012-11.296-69.892-98.714-87.773-114.609-17.857-15.895-40.471-19.653-50.507-8.381z" fill="#0f4f84"/>
    <path fill="#e2ded3" d="M271.912 199.546h41.354v141.131h-41.354z"/>
    <path d="M271.873 233.669c6.75.622 13.627 1.024 20.693 1.024 7.05 0 13.926-.402 20.661-1.024v-34.123h-41.354v34.123z" fill="#c6bfaf"/>
    <path fill="#9b5013" d="M298.67 218.577l10.248 103.888-16.368 11.895-16.368-11.895 10.248-103.888z"/>
    <path fill="#7c4412" d="M286.43 218.577h12.24l10.248 103.888-16.368 11.895"/>
    <path d="M421.503 124.258c0 63.008-57.738 94.681-128.937 94.681-71.215 0-128.969-31.673-128.969-94.681C163.597 61.235 221.35 0 292.566 0c71.199 0 128.937 61.235 128.937 124.258z" fill="#f9c1ac"/>
    <path d="M421.503 124.258c0 63.008-57.738 94.681-128.937 94.681-71.215 0-128.969-31.673-128.969-94.681" fill="#f2b09c"/>
    <circle cx="231" cy="104" r="12" fill="#113e49"/>
    <path d="M242.76 103.936c0 6.388-5.167 11.54-11.54 11.54-6.372 0-11.524-5.152-11.524-11.54"/>
    <path d="M253.977 127.992a2.377 2.377 0 0 1-1.725-.717c-5.632-5.624-13.107-8.72-21.047-8.72h-.016c-7.94 0-15.399 3.104-21 8.712-.953.953-2.489.977-3.434.008a2.402 2.402 0 0 1-.032-3.419c6.538-6.546 15.218-10.161 24.458-10.161h.016c9.263 0 17.952 3.592 24.505 10.145.937.937.937 2.505 0 3.434-.465.498-1.079.718-1.725.718z" fill="#ffd3c5"/>
    <circle cx="354" cy="104" r="12" fill="#113e49"/>
    <path d="M342.348 103.936a11.52 11.52 0 0 0 11.54 11.54c6.372 0 11.524-5.152 11.524-11.54"/>
    <path d="M331.131 127.992c.599 0 1.229-.221 1.709-.717 5.632-5.624 13.107-8.72 21.047-8.72h.016c7.94 0 15.415 3.104 21.016 8.712a2.405 2.405 0 0 0 3.434.008c.953-.922.969-2.458.016-3.419-6.506-6.546-15.218-10.161-24.458-10.161h-.016c-9.247 0-17.936 3.592-24.505 10.145-.922.937-.922 2.505 0 3.434.481.498 1.095.718 1.741.718z" fill="#ffd3c5"/>
    <path d="M313.424 355.454c0 5.254-4.261 9.515-9.523 9.515h-22.307c-5.262 0-9.523-4.261-9.523-9.515a9.52 9.52 0 0 1 9.523-9.523h22.307a9.52 9.52 0 0 1 9.523 9.523z" fill="#8d97a0"/>
    <path d="M303.901 345.931h-22.307c-4.348 0-7.861 2.962-9.003 6.94 1.142 3.97 4.655 6.932 9.003 6.932h22.307c4.348 0 7.861-2.962 9.003-6.932-1.142-3.978-4.655-6.94-9.003-6.94z" fill="#a7b1b7"/>
    <path d="M356.093 266.508a2.617 2.617 0 0 1-2.623 2.623h-25.6a2.61 2.61 0 0 1-2.615-2.623 2.61 2.61 0 0 1 2.615-2.623h25.6a2.617 2.617 0 0 1 2.623 2.623z" fill="#e2ded3"/>
    <circle cx="316" cy="142" r="9" fill="#b20f0f"/>
    <path fill="#e2ded3" d="M327.87 263.885l9.114-9.114 6.238 6.239 3.372-3.364 7.294 7.302h-22.891z"/>
    <path d="M418.628 99.935C406.222 46.371 354.518 0 292.566 0c-64.898 0-118.469 50.885-127.488 107.607 4.104.433 11.965-1.103 15.762-17.684 5.262-22.977 24.292-30.192 24.292-30.192-37.415 22.323-11.815 43.323-11.815 43.323-1.969-9.846-13.123-29.538 74.831-34.792 87.946-5.254 97.154-24.615 97.154-24.615s13.446-1.961 17.384 26.915c2.284 16.769 26.6 26.096 35.942 29.373z" fill="#a7b1b7"/>
    <path d="M193.561 426.921c0 6.995-5.679 12.65-12.666 12.65H74.099c-6.995 0-12.65-5.664-12.65-12.65v-74.358c0-7.003 5.664-12.658 12.65-12.658h106.795c6.995 0 12.666 5.664 12.666 12.658v74.358z" fill="#9b5013"/>
    <path d="M180.895 339.897H74.099c-6.995 0-12.65 5.664-12.65 12.658V381.4c0 6.987 5.664 12.642 12.65 12.642h106.795c6.995 0 12.666-5.664 12.666-12.642v-28.845c.001-6.994-5.671-12.658-12.665-12.658z" fill="#bc601b"/>
    <path d="M136.752 408.371a9.245 9.245 0 0 1-9.255 9.255 9.25 9.25 0 0 1-9.255-9.255v-21.457a9.25 9.25 0 0 1 9.255-9.263 9.246 9.246 0 0 1 9.255 9.263v21.457z" fill="#a7b1b7"/>
    <path d="M127.505 377.651a9.25 9.25 0 0 0-9.255 9.263v4.435a9.25 9.25 0 0 0 9.255 9.255 9.244 9.244 0 0 0 9.255-9.255v-4.435c-.008-5.12-4.135-9.263-9.255-9.263z" fill="#c8d5db"/>
    <path d="M158.311 337.684h-8.885c0-6.12-4.978-11.106-11.106-11.106h-21.638c-6.12 0-11.099 4.986-11.099 11.106H96.69c0-11.012 8.98-19.984 19.992-19.984h21.638c11.028 0 19.991 8.972 19.991 19.984z" fill="#754719"/>
</svg>
