<svg xmlns="http://www.w3.org/2000/svg" viewBox="0 0 504 504">
    <path d="M228.218 361.913c0 19.503-15.817 124.668-35.336 124.668-19.495 0-35.304-105.173-35.304-124.668 0-19.495 15.817-35.32 35.304-35.32 19.519 0 35.336 15.825 35.336 35.32zm118.351 0c0 19.503-15.817 124.668-35.336 124.668-19.495 0-35.304-105.173-35.304-124.668 0-19.495 15.817-35.32 35.304-35.32 19.519 0 35.336 15.825 35.336 35.32z" fill="#7c0909"/>
    <path d="M351.705 315.242c0 126.33-44.599 84.259-99.643 84.259-55.028 0-99.643 42.071-99.643-84.259 0-72.231 44.631-130.781 99.643-130.781 55.028.009 99.643 58.558 99.643 130.781z" fill="#a11"/>
    <path d="M232.629 487.219c0 14.935-17.802 16.904-39.739 16.904s-39.739-1.961-39.739-16.904 17.802-35.509 39.739-35.509 39.739 20.567 39.739 35.509z" fill="#8d97a0"/>
    <path d="M232.629 487.219c0 14.935-17.802 16.904-39.739 16.904s-39.739-1.961-39.739-16.904" fill="#79848c"/>
    <path d="M350.988 487.219c0 14.935-17.802 16.904-39.739 16.904s-39.739-1.961-39.739-16.904 17.802-35.509 39.739-35.509 39.739 20.567 39.739 35.509z" fill="#8d97a0"/>
    <path d="M350.988 487.219c0 14.935-17.802 16.904-39.739 16.904s-39.739-1.961-39.739-16.904" fill="#79848c"/>
    <path d="M241.073 203.768c10.027 11.28 3.663 33.304-14.218 49.223-17.881 15.896-114.018 85.024-124.062 73.767-10.012-11.296 69.892-98.714 87.773-114.609 17.865-15.895 40.48-19.653 50.507-8.381zm21.977 0c-10.027 11.28-3.663 33.304 14.218 49.223 17.881 15.896 114.018 85.024 124.062 73.767 10.012-11.296-69.892-98.714-87.773-114.609-17.865-15.895-40.48-19.653-50.507-8.381z" fill="#a11"/>
    <path fill="#e2ded3" d="M231.385 199.546h41.354v141.131h-41.354z"/>
    <path d="M231.385 233.669c6.751.622 13.627 1.024 20.693 1.024 7.05 0 13.926-.402 20.661-1.024v-34.123h-41.354v34.123z" fill="#c6bfaf"/>
    <path fill="#444849" d="M258.182 218.577l10.248 103.888-16.368 11.895-16.369-11.895 10.256-103.888z"/>
    <path d="M381.015 124.258c0 63.008-57.738 94.681-128.937 94.681-71.215 0-128.969-31.673-128.969-94.681C123.108 61.235 180.862 0 252.077 0c71.2 0 128.938 61.235 128.938 124.258z" fill="#f9c1ac"/>
    <path d="M381.015 124.258c0 63.008-57.738 94.681-128.937 94.681-71.215 0-128.969-31.673-128.969-94.681" fill="#f2b09c"/>
    <circle cx="191" cy="123" r="12" fill="#113e49"/>
    <path d="M202.279 122.533c0 6.388-5.167 11.54-11.54 11.54-6.372 0-11.524-5.152-11.524-11.54"/>
    <path d="M213.496 146.582a2.377 2.377 0 0 1-1.725-.717c-5.632-5.624-13.107-8.72-21.047-8.72h-.016c-7.94 0-15.399 3.104-21 8.712-.953.953-2.489.977-3.434.008a2.4 2.4 0 0 1-.031-3.419c6.538-6.546 15.218-10.161 24.458-10.161h.016c9.263 0 17.951 3.592 24.505 10.145.937.937.937 2.505 0 3.434-.466.497-1.08.718-1.726.718z" fill="#ffd3c5"/>
    <circle cx="313" cy="123" r="12" fill="#113e49"/>
    <path d="M301.859 122.533a11.52 11.52 0 0 0 11.54 11.54c6.372 0 11.524-5.152 11.524-11.54"/>
    <path d="M290.643 146.582c.599 0 1.229-.221 1.709-.717 5.632-5.624 13.107-8.72 21.047-8.72h.016c7.94 0 15.415 3.104 21.016 8.712a2.405 2.405 0 0 0 3.434.008c.953-.922.969-2.458.016-3.419-6.506-6.546-15.218-10.161-24.458-10.161h-.016c-9.248 0-17.936 3.592-24.505 10.145-.922.937-.922 2.505 0 3.434.48.497 1.095.718 1.741.718z" fill="#ffd3c5"/>
    <path d="M252.077 0c-1.788 0-3.505.205-5.27.284-.898 1.182-1.638 2.442-2.087 3.812-6.097 18.81 32.989 48.356 87.308 65.946 13.69 4.435 27.049 7.688 39.463 9.775C352.311 35.281 306.105 0 252.077 0z" fill="#dda507"/>
    <path d="M309.492 14.131C292.187 5.27 272.731 0 252.077 0c-54.351 0-100.769 35.698-119.753 80.605 20.33 4.624 54.185 1.197 90.49-10.563 45.403-14.707 80.069-37.754 86.678-55.911z" fill="#f4bb03"/>
    <path d="M272.935 355.454c0 5.254-4.261 9.515-9.523 9.515h-22.307c-5.262 0-9.523-4.261-9.523-9.515a9.52 9.52 0 0 1 9.523-9.523h22.307a9.52 9.52 0 0 1 9.523 9.523z" fill="#8d97a0"/>
    <path d="M263.412 345.931h-22.307c-4.348 0-7.861 2.962-9.003 6.94 1.142 3.97 4.655 6.932 9.003 6.932h22.307c4.348 0 7.861-2.962 9.003-6.932-1.142-3.978-4.655-6.94-9.003-6.94z" fill="#a7b1b7"/>
    <path d="M223.634 169.472c0-10.264 12.737-18.597 28.428-18.597s28.428 8.342 28.428 18.597c0 10.279-12.737 4.135-28.428 4.135s-28.428 6.137-28.428-4.135z" fill="#a11"/>
</svg>
