<svg xmlns="http://www.w3.org/2000/svg" viewBox="0 0 504 504">
    <path d="M346.569 361.905c0 19.511-15.817 124.676-35.336 124.676-19.495 0-35.304-105.173-35.304-124.676 0-19.495 15.817-35.32 35.304-35.32 19.519 0 35.336 15.833 35.336 35.32zm-118.351 0c0 19.511-15.817 124.676-35.336 124.676-19.495 0-35.304-105.173-35.304-124.676 0-19.495 15.817-35.32 35.304-35.32 19.519 0 35.336 15.833 35.336 35.32z" fill="#6b411c"/>
    <path d="M351.705 315.242c0 126.322-44.599 84.259-99.643 84.259-55.028 0-99.643 42.063-99.643-84.259 0-72.231 44.631-130.788 99.643-130.788 55.028.008 99.643 58.565 99.643 130.788z" fill="#ce1111"/>
    <path d="M351.705 315.242c0 126.322-44.599 84.259-99.643 84.259-55.028 0-99.643 42.063-99.643-84.259 0-72.231 44.631-130.788 99.643-130.788 55.028.008 99.643 58.565 99.643 130.788z" fill="#ce1111"/>
    <path d="M232.629 487.219c0 14.935-17.802 16.904-39.739 16.904s-39.739-1.969-39.739-16.904 17.802-35.509 39.739-35.509 39.739 20.567 39.739 35.509z" fill="#9b4e1b"/>
    <path d="M232.629 487.219c0 14.935-17.802 16.904-39.739 16.904s-39.739-1.969-39.739-16.904" fill="#82370d"/>
    <path d="M350.988 487.219c0 14.935-17.802 16.904-39.739 16.904-21.937 0-39.739-1.969-39.739-16.904s17.802-35.509 39.739-35.509c21.937 0 39.739 20.567 39.739 35.509z" fill="#9b4e1b"/>
    <path d="M350.988 487.219c0 14.935-17.802 16.904-39.739 16.904-21.937 0-39.739-1.969-39.739-16.904" fill="#82370d"/>
    <path d="M241.073 203.768c10.027 11.28 3.663 33.296-14.218 49.215-17.881 15.896-114.018 85.031-124.062 73.767-10.012-11.296 69.892-98.706 87.773-114.601 17.865-15.903 40.48-19.653 50.507-8.381zm21.977 0c-10.027 11.28-3.663 33.296 14.218 49.215 17.881 15.896 114.018 85.031 124.062 73.767 10.012-11.296-69.892-98.706-87.773-114.601-17.865-15.903-40.48-19.653-50.507-8.381z" fill="#ce1111"/>
    <path d="M173.095 235.725c21.827 11.059 49.184 16.691 78.982 16.691 29.783 0 57.139-5.632 78.966-16.691-18.211-31.106-46.773-51.263-78.982-51.263-32.2 0-60.77 20.141-78.966 51.263z" fill="#aa0909"/>
    <path d="M381.015 124.258c0 63-57.738 94.681-128.937 94.681-71.215 0-128.969-31.673-128.969-94.681C123.108 61.227 180.862 0 252.077 0c71.2 0 128.938 61.227 128.938 124.258z" fill="#f9a88f"/>
    <path d="M381.015 124.258c0 63-57.738 94.681-128.937 94.681-71.215 0-128.969-31.673-128.969-94.681" fill="#ed927a"/>
    <g fill="#232628">
        <path d="M156.893 276.338h190.338c-3.033-12.784-7.554-24.678-13.249-35.446h-163.84c-5.68 10.768-10.217 22.662-13.249 35.446zm-4.475 38.904c0 5.049.095 9.736.244 14.265H351.46c.158-4.521.244-9.216.244-14.265 0-7.231-.551-14.273-1.418-21.181H153.844c-.874 6.908-1.426 13.958-1.426 21.181zm8.232 67.435h182.831c3.308-8.609 5.695-20.126 7.018-35.446H153.632c1.339 15.32 3.725 26.836 7.018 35.446zm-49.759-71.105h8.09v8.089l-53.61 45.513z"/>
        <path d="M113.696 321.441l6.364-2.489 2.481 6.365-28.199 52.255zm-4.971-13.737l6.262 2.757-2.757 6.246-56.879 17.015z"/>
        <path d="M113.184 304.246l5.001 4.663-4.663 4.986-59.305-2.717zm280.048 7.326h-8.09v8.089l53.611 45.513z"/>
        <path d="M390.428 321.441l-6.365-2.489-2.481 6.365 28.199 52.255zm4.97-13.737l-6.262 2.757 2.757 6.246 56.895 17.015z"/>
        <path d="M390.955 304.246l-5.017 4.663 4.663 4.986 59.305-2.717z"/>
    </g>
    <circle cx="191" cy="98" r="12" fill="#113e49"/>
    <path d="M202.279 98.462c0 6.38-5.167 11.532-11.54 11.532-6.372 0-11.524-5.152-11.524-11.532"/>
    <path d="M213.496 122.51a2.377 2.377 0 0 1-1.725-.717c-5.632-5.624-13.107-8.72-21.047-8.72h-.016c-7.94 0-15.399 3.104-21 8.712-.953.953-2.489.977-3.434.008a2.4 2.4 0 0 1-.031-3.419c6.538-6.546 15.218-10.161 24.458-10.161h.016c9.263 0 17.951 3.592 24.505 10.145.937.937.937 2.505 0 3.434-.466.489-1.08.718-1.726.718z" fill="#ffd3c5"/>
    <circle cx="313" cy="98" r="12" fill="#113e49"/>
    <path d="M301.859 98.462c0 6.38 5.151 11.532 11.54 11.532 6.372 0 11.524-5.152 11.524-11.532"/>
    <path d="M290.643 122.51c.599 0 1.229-.221 1.709-.717 5.632-5.624 13.107-8.72 21.047-8.72h.016c7.94 0 15.415 3.104 21.016 8.712a2.405 2.405 0 0 0 3.434.008c.953-.922.969-2.458.016-3.419-6.506-6.546-15.218-10.161-24.458-10.161h-.016c-9.248 0-17.936 3.592-24.505 10.145-.922.937-.922 2.505 0 3.434a2.39 2.39 0 0 0 1.741.718z" fill="#ffd3c5"/>
    <g fill="#232628">
        <path d="M363.449 64.323C341.094 27.388 299.646 0 252.077 0s-89.049 27.388-111.403 64.323h222.775z"/>
        <path d="M412.231 68.923c0 5.427-71.712 9.846-160.169 9.846s-160.17-4.419-160.17-9.846c0-5.443 71.712-26.908 160.169-26.908s160.17 21.465 160.17 26.908z"/>
    </g>
    <path d="M300.631 162.785c0 13.044-10.587 23.631-23.631 23.631h-49.877c-13.06 0-23.631-10.587-23.631-23.631v-22.307c0-13.06 10.571-23.631 23.631-23.631H277c13.044 0 23.631 10.571 23.631 23.631v22.307z" fill="#870808"/>
    <path d="M227.123 162.139c-8.862 0-16.494 4.923-20.519 12.138 4.033 7.2 11.658 12.138 20.519 12.138H277c8.862 0 16.479-4.939 20.535-12.138-4.064-7.215-11.674-12.138-20.535-12.138h-49.877z" fill="#aa0909"/>
</svg>
