<svg xmlns="http://www.w3.org/2000/svg" viewBox="0 0 504 504">
    <path d="M294.448 214.646c11.272-10.027 33.296-3.663 49.231 14.218 15.888 17.881 85.016 114.018 73.759 124.062-11.296 10.012-98.721-69.892-114.617-87.773-15.888-17.857-19.637-40.472-8.373-50.507z" fill="#890729"/>
    <path d="M270.557 231.542c-.89-15.061-20.968-26.136-44.859-24.757-23.883 1.402-140.737 20.512-139.91 35.572.922 15.061 119.249 20.385 143.124 18.983 23.859-1.386 42.511-14.737 41.645-29.798z" fill="#a81333"/>
    <path d="M236.245 362.252c0 19.495-15.817 124.66-35.328 124.66-19.503 0-35.312-105.173-35.312-124.66 0-19.511 15.817-35.32 35.312-35.32 19.511-.008 35.328 15.809 35.328 35.32zm118.351 0c0 19.495-15.825 124.66-35.336 124.66-19.503 0-35.296-105.173-35.296-124.66 0-19.511 15.801-35.32 35.296-35.32 19.511-.008 35.336 15.809 35.336 35.32z" fill="#0c44c1"/>
    <path d="M359.731 315.573c0 126.338-44.591 84.259-99.643 84.259-55.028 0-99.643 42.079-99.643-84.259 0-72.231 44.631-130.773 99.643-130.773 55.036 0 99.643 58.542 99.643 130.773z" fill="#a81333"/>
    <path d="M205.935 204.469h13.785v76.154h-13.785zm94.523 0h13.785v76.154h-13.785z" fill="#b1c2c4"/>
    <path d="M240.656 487.558c0 14.935-17.81 16.896-39.731 16.896-21.945 0-39.747-1.953-39.747-16.896 0-14.95 17.802-35.509 39.747-35.509 21.929 0 39.731 20.559 39.731 35.509z" fill="#0a234f"/>
    <path d="M240.656 487.558c0 14.935-17.81 16.896-39.731 16.896-21.945 0-39.747-1.953-39.747-16.896" fill="#031530"/>
    <path d="M359.015 487.558c0 14.935-17.802 16.896-39.739 16.896s-39.739-1.953-39.739-16.896c0-14.95 17.802-35.509 39.739-35.509s39.739 20.559 39.739 35.509z" fill="#0a234f"/>
    <path d="M359.015 487.558c0 14.935-17.802 16.896-39.739 16.896s-39.739-1.953-39.739-16.896" fill="#031530"/>
    <path d="M389.042 124.589c0 63.015-57.746 94.681-128.945 94.681-71.207 0-128.961-31.665-128.961-94.681S188.889.331 260.096.331c71.2 0 128.946 61.243 128.946 124.258z" fill="#b1c2c4"/>
    <path d="M389.042 124.589c0 63.015-57.746 94.681-128.945 94.681-71.207 0-128.961-31.665-128.961-94.681" fill="#bc8158"/>
    <circle cx="199" cy="146" r="12" fill="#113e49"/>
    <path d="M210.629 145.959c0 6.388-5.167 11.54-11.54 11.54s-11.524-5.152-11.524-11.54"/>
    <path d="M221.846 170.008a2.382 2.382 0 0 1-1.725-.709c-5.632-5.632-13.107-8.72-21.055-8.72h-.008c-7.94 0-15.399 3.096-21.008 8.704-.945.953-2.481.985-3.426.016a2.409 2.409 0 0 1-.032-3.419c6.538-6.554 15.218-10.169 24.458-10.169h.008c9.271 0 17.959 3.6 24.513 10.153.937.937.937 2.505 0 3.434-.465.489-1.079.71-1.725.71z" fill="#e5a376"/>
    <circle cx="322" cy="146" r="12" fill="#113e49"/>
    <path d="M310.217 145.959c0 6.388 5.144 11.54 11.532 11.54 6.372 0 11.516-5.152 11.516-11.54"/>
    <path d="M298.993 170.008c.607 0 1.237-.213 1.709-.709 5.64-5.632 13.123-8.72 21.055-8.72h.016c7.932 0 15.415 3.096 21.016 8.704a2.405 2.405 0 0 0 3.434.016c.945-.922.961-2.458.008-3.419-6.498-6.554-15.21-10.169-24.45-10.169h-.016c-9.24 0-17.936 3.6-24.505 10.153-.922.937-.922 2.505 0 3.434.48.489 1.079.71 1.733.71z" fill="#e5a376"/>
    <path d="M260.088 166.4c-31.295 0-57.084 19.062-60.967 43.741 6.341 2.127 13.036 3.828 19.968 5.199 6.609-18.306 22.465-31.216 40.999-31.216 18.534 0 34.399 12.91 41.007 31.232 6.924-1.386 13.619-3.096 19.952-5.199-3.882-24.679-29.664-43.757-60.959-43.757z"/>
    <path d="M180.516 167.479c-15.376-14.108-33.233-21.079-46.411-19.582 8.491 32.059 34.84 53.311 70.073 63.756.142-13.202-8.46-30.216-23.662-44.174zm205.603-19.771c-12.879-.37-29.46 6.554-43.867 19.771-14.903 13.674-23.497 30.326-23.694 43.418 34.021-10.721 59.322-31.784 67.561-63.189z"/>
    <g fill="#b1c2c4">
        <ellipse cx="167" cy="21" rx="37" ry="21"/>
        <ellipse cx="204" cy="21" rx="37" ry="21"/>
        <ellipse cx="241" cy="21" rx="37" ry="21"/>
        <ellipse cx="279" cy="21" rx="37" ry="21"/>
        <ellipse cx="316" cy="21" rx="37" ry="21"/>
        <ellipse cx="354" cy="21" rx="37" ry="21"/>
        <path d="M160.445 315.573c0 126.338 44.615 100.1 99.643 100.1 55.052 0 99.643 26.238 99.643-100.1 0-16.51-2.434-32.232-6.688-46.773H167.117a166.798 166.798 0 0 0-6.672 46.773z"/>
    </g>
</svg>
