<svg xmlns="http://www.w3.org/2000/svg" viewBox="0 0 504 504">
    <path d="M241.073 203.768c10.027 11.28 3.663 33.296-14.218 49.215-17.881 15.896-114.018 85.031-124.062 73.767-10.012-11.296 69.892-98.706 87.773-114.601 17.865-15.903 40.48-19.653 50.507-8.381zm21.977 0c-10.027 11.28-3.663 33.296 14.218 49.215 17.881 15.896 114.018 85.031 124.062 73.767 10.012-11.296-69.892-98.706-87.773-114.601-17.865-15.903-40.48-19.653-50.507-8.381z" fill="#d1b302"/>
    <path d="M348.538 358.951c0 19.511-15.817 124.676-35.336 124.676-19.495 0-35.304-105.173-35.304-124.676 0-19.495 15.817-35.32 35.304-35.32 19.519 0 35.336 15.833 35.336 35.32zm-120.32 2.954c0 19.511-15.817 124.676-35.336 124.676-19.495 0-35.304-105.173-35.304-124.676 0-19.495 15.817-35.32 35.304-35.32 19.519 0 35.336 15.833 35.336 35.32z" fill="#b79904"/>
    <path d="M351.705 315.242c0 126.322-44.599 84.259-99.643 84.259-55.028 0-99.643 42.063-99.643-84.259 0-72.231 44.631-130.788 99.643-130.788 55.028.008 99.643 58.565 99.643 130.788z" fill="#ce1111"/>
    <path d="M351.705 315.242c0 126.322-44.599 84.259-99.643 84.259-55.028 0-99.643 42.063-99.643-84.259 0-72.231 44.631-130.788 99.643-130.788 55.028.008 99.643 58.565 99.643 130.788z" fill="#d1b302"/>
    <path d="M252.062 184.462c-53.28 0-96.681 54.957-99.383 124.014 3.513 107.874 46.655 69.372 99.383 69.372 52.744 0 95.862 38.51 99.383-69.372-2.702-69.057-46.096-124.014-99.383-124.014z" fill="#eace00"/>
    <path d="M232.629 487.219c0 14.935-17.802 16.904-39.739 16.904s-39.739-1.969-39.739-16.904 17.802-35.509 39.739-35.509 39.739 20.567 39.739 35.509z" fill="#232728"/>
    <path d="M232.629 487.219c0 14.935-17.802 16.904-39.739 16.904s-39.739-1.969-39.739-16.904"/>
    <path d="M350.988 487.219c0 14.935-17.802 16.904-39.739 16.904s-39.739-1.969-39.739-16.904 17.802-35.509 39.739-35.509 39.739 20.567 39.739 35.509z" fill="#232728"/>
    <path d="M350.988 487.219c0 14.935-17.802 16.904-39.739 16.904s-39.739-1.969-39.739-16.904"/>
    <path d="M173.088 235.725c21.835 11.059 49.191 16.691 78.99 16.691 29.783 0 57.139-5.632 78.966-16.691-18.211-31.106-46.773-51.263-78.982-51.263-32.201 0-60.771 20.141-78.974 51.263z" fill="#d1b302"/>
    <path fill="#fff" d="M298.016 207.415L252.062 307.2l-45.954-99.785 45.954-45.954z"/>
    <path d="M280.513 189.913c-9.011-3.529-18.558-5.451-28.451-5.451s-19.448 1.914-28.459 5.451l-17.495 17.503 19.999 43.433c8.397 1 17.046 1.568 25.97 1.568 8.901 0 17.558-.567 25.939-1.568l20-43.433-17.503-17.503z" fill="#eae5df"/>
    <path d="M381.015 124.258c0 63-57.738 94.681-128.937 94.681-71.215 0-128.969-31.673-128.969-94.681C123.108 61.227 180.862 0 252.077 0c71.2 0 128.938 61.227 128.938 124.258z" fill="#f7ccb0"/>
    <path d="M381.015 124.258c0 63-57.738 94.681-128.937 94.681-71.215 0-128.969-31.673-128.969-94.681 0-63.031 57.754-105.236 128.969-105.236 71.199.001 128.937 42.205 128.937 105.236z" fill="#f7bc8f"/>
    <path d="M381.015 124.258c0 63-57.738 94.681-128.937 94.681-71.215 0-128.969-31.673-128.969-94.681" fill="#eaaf88"/>
    <circle cx="191" cy="134" r="12" fill="#113e49"/>
    <path d="M202.279 133.569c0 6.388-5.167 11.54-11.54 11.54-6.372 0-11.524-5.152-11.524-11.54"/>
    <path d="M213.496 157.633a2.382 2.382 0 0 1-1.725-.725c-5.632-5.616-13.107-8.72-21.047-8.72h-.016c-7.94 0-15.399 3.111-21 8.72-.953.953-2.489.969-3.434 0a2.4 2.4 0 0 1-.031-3.419c6.538-6.538 15.218-10.153 24.458-10.153h.016c9.263 0 17.951 3.584 24.505 10.138.937.937.937 2.505 0 3.434a2.342 2.342 0 0 1-1.726.725z" fill="#ffd3c5"/>
    <circle cx="313" cy="134" r="12" fill="#113e49"/>
    <path d="M301.859 133.569a11.52 11.52 0 0 0 11.54 11.54c6.372 0 11.524-5.152 11.524-11.54"/>
    <path d="M290.643 157.633c.599 0 1.229-.228 1.709-.725 5.632-5.616 13.107-8.72 21.047-8.72h.016c7.94 0 15.415 3.111 21.016 8.72a2.405 2.405 0 0 0 3.434 0c.953-.922.969-2.458.016-3.419-6.506-6.538-15.218-10.153-24.458-10.153h-.016c-9.248 0-17.936 3.584-24.505 10.138-.922.937-.922 2.505 0 3.434.48.489 1.095.725 1.741.725z" fill="#ffd3c5"/>
    <g fill="#845824">
        <path d="M216.954 168.164h-56.8c-11.24 0-20.385-9.145-20.385-20.385v-30.744c0-11.24 9.145-20.385 20.385-20.385h56.8c11.24 0 20.385 9.145 20.385 20.385v30.744c.001 11.24-9.145 20.385-20.385 20.385zm-56.8-55.76a4.64 4.64 0 0 0-4.632 4.632v30.744a4.64 4.64 0 0 0 4.632 4.632h56.8a4.64 4.64 0 0 0 4.632-4.632v-30.744a4.64 4.64 0 0 0-4.632-4.632h-56.8z"/>
        <path d="M145.676 140.28h-30.523a7.87 7.87 0 0 1-7.877-7.877 7.87 7.87 0 0 1 7.877-7.877h30.523a7.87 7.87 0 0 1 7.877 7.877 7.87 7.87 0 0 1-7.877 7.877zm198.293 27.877h-56.801c-11.24 0-20.385-9.145-20.385-20.385v-30.736c0-11.24 9.145-20.385 20.385-20.385h56.801c11.24 0 20.385 9.145 20.385 20.385v30.736c.001 11.239-9.144 20.385-20.385 20.385zm-56.8-55.753a4.64 4.64 0 0 0-4.632 4.632v30.736a4.64 4.64 0 0 0 4.632 4.632h56.801a4.64 4.64 0 0 0 4.632-4.632v-30.736a4.64 4.64 0 0 0-4.632-4.632h-56.801z"/>
        <path d="M388.97 140.28h-30.523a7.87 7.87 0 0 1-7.877-7.877 7.87 7.87 0 0 1 7.877-7.877h30.523a7.87 7.87 0 0 1 7.877 7.877 7.87 7.87 0 0 1-7.877 7.877zm-114.31-2.276h-43.811a7.87 7.87 0 0 1-7.877-7.877 7.87 7.87 0 0 1 7.877-7.877h43.811a7.87 7.87 0 0 1 7.877 7.877 7.87 7.87 0 0 1-7.877 7.877z"/>
    </g>
    <path d="M257.308 381.369a5.244 5.244 0 0 1-5.246 5.246 5.254 5.254 0 0 1-5.246-5.246V296.03a5.25 5.25 0 0 1 5.246-5.254 5.24 5.24 0 0 1 5.246 5.254v85.339z" fill="#fff"/>
    <path d="M266.398 165.935H237.71c-13.273 0-24.033 10.768-24.033 24.033v18.692c0 13.273 10.76 24.025 24.033 24.025h28.688c13.296 0 24.033-10.752 24.033-24.025v-18.692c-.001-13.257-10.737-24.033-24.033-24.033zm8.255 34.879c0 7.814-6.333 14.147-14.147 14.147H243.61c-7.814 0-14.155-6.333-14.155-14.147v-10.996c0-7.806 6.341-14.155 14.155-14.155h16.896c7.814 0 14.147 6.349 14.147 14.155v10.996z" fill="#513715"/>
    <path d="M128.323 330.831c0 11.973-9.689 21.662-21.662 21.662-11.973 0-21.662-9.689-21.662-21.662 0-11.973 9.689-21.662 21.662-21.662 11.973 0 21.662 9.689 21.662 21.662z" fill="#227fef"/>
    <path d="M106.661 309.169c11.973 0 21.662 9.689 21.662 21.662 0 11.973-9.689 21.662-21.662 21.662" fill="#0a5bdd"/>
    <path d="M375.784 330.831c0-11.981 9.689-21.677 21.662-21.677 11.973 0 21.677 9.689 21.677 21.677 0 11.957-9.704 21.662-21.677 21.662-11.965-.001-21.662-9.705-21.662-21.662z" fill="#227fef"/>
    <path d="M397.446 352.492c-11.973 0-21.662-9.704-21.662-21.662 0-11.981 9.689-21.677 21.662-21.677" fill="#0a5bdd"/>
</svg>
