<svg xmlns="http://www.w3.org/2000/svg" viewBox="0 0 504 504">
    <path d="M241.073 203.768c10.035 11.28 3.663 33.296-14.218 49.215-17.888 15.896-114.018 85.031-124.062 73.767-10.012-11.296 69.892-98.706 87.765-114.601 17.873-15.903 40.48-19.653 50.515-8.381zm21.977 0c-10.027 11.28-3.663 33.296 14.218 49.215 17.881 15.896 114.018 85.031 124.062 73.767 10.012-11.296-69.892-98.706-87.773-114.601-17.865-15.903-40.48-19.653-50.507-8.381z" fill="#d1b302"/>
    <path d="M348.53 358.951c0 19.511-15.809 124.676-35.328 124.676-19.495 0-35.304-105.173-35.304-124.676 0-19.495 15.817-35.32 35.304-35.32 19.519 0 35.328 15.833 35.328 35.32zm-120.312 2.954c0 19.511-15.825 124.676-35.336 124.676-19.503 0-35.296-105.173-35.296-124.676 0-19.495 15.801-35.32 35.296-35.32 19.511 0 35.336 15.833 35.336 35.32z" fill="#b79904"/>
    <path d="M351.705 315.242c0 126.322-44.599 84.259-99.643 84.259-55.028 0-99.643 42.063-99.643-84.259 0-72.231 44.623-130.788 99.643-130.788 55.028.008 99.643 58.565 99.643 130.788z" fill="#ce1111"/>
    <path d="M351.705 315.242c0 126.322-44.599 84.259-99.643 84.259-55.028 0-99.643 42.063-99.643-84.259 0-72.231 44.623-130.788 99.643-130.788 55.028.008 99.643 58.565 99.643 130.788z" fill="#d1b302"/>
    <path d="M252.062 184.462c-53.28 0-96.681 54.957-99.383 124.014 3.513 107.874 46.655 69.372 99.383 69.372 52.744 0 95.87 38.51 99.383-69.372-2.702-69.057-46.096-124.014-99.383-124.014z" fill="#eace00"/>
    <path d="M232.629 487.219c0 14.935-17.802 16.904-39.739 16.904s-39.739-1.969-39.739-16.904 17.802-35.509 39.739-35.509 39.739 20.567 39.739 35.509z" fill="#232728"/>
    <path d="M232.629 487.219c0 14.935-17.802 16.904-39.739 16.904s-39.739-1.969-39.739-16.904"/>
    <path d="M350.988 487.219c0 14.935-17.81 16.904-39.739 16.904-21.945 0-39.739-1.969-39.739-16.904s17.794-35.509 39.739-35.509c21.929 0 39.739 20.567 39.739 35.509z" fill="#232728"/>
    <path d="M350.988 487.219c0 14.935-17.81 16.904-39.739 16.904-21.945 0-39.739-1.969-39.739-16.904"/>
    <path d="M173.088 235.725c21.827 11.059 49.191 16.691 78.99 16.691 29.783 0 57.139-5.632 78.966-16.691-18.219-31.106-46.773-51.263-78.982-51.263-32.201 0-60.771 20.141-78.974 51.263z" fill="#d1b302"/>
    <path fill="#605b58" d="M298.016 207.415L252.062 307.2l-45.954-99.785 45.954-45.954z"/>
    <path d="M280.513 189.913c-9.011-3.529-18.558-5.451-28.451-5.451s-19.456 1.914-28.451 5.451l-17.503 17.503 19.999 43.433c8.397 1 17.054 1.568 25.97 1.568 8.901 0 17.558-.567 25.947-1.568l19.992-43.433-17.503-17.503z"/>
    <path d="M381.015 124.258c0 63-57.738 94.681-128.937 94.681-71.215 0-128.961-31.673-128.961-94.681C123.116 61.227 180.862 0 252.077 0c71.2 0 128.938 61.227 128.938 124.258z" fill="#232728"/>
    <path d="M381.015 124.258c0 63-57.738 94.681-128.937 94.681-71.215 0-128.961-31.673-128.961-94.681 0-63.031 57.746-74.382 128.961-74.382 71.199.001 128.937 11.351 128.937 74.382z" fill="#f7bc8f"/>
    <path d="M381.015 124.258c0 63-57.738 94.681-128.937 94.681-71.215 0-128.961-31.673-128.961-94.681" fill="#eaaf88"/>
    <circle cx="191" cy="140" r="12" fill="#0f83b7"/>
    <path d="M202.272 140.461c0 6.388-5.159 11.54-11.54 11.54-6.365 0-11.516-5.152-11.516-11.54" fill="#186189"/>
    <path d="M213.496 164.525a2.37 2.37 0 0 1-1.725-.725c-5.624-5.616-13.107-8.72-21.039-8.72h-.024c-7.94 0-15.399 3.111-20.992 8.72-.961.953-2.505.969-3.442 0a2.4 2.4 0 0 1-.031-3.419c6.538-6.538 15.218-10.153 24.458-10.153h.024c9.255 0 17.944 3.584 24.497 10.138.937.937.937 2.505 0 3.434a2.353 2.353 0 0 1-1.726.725z" fill="#ffd3c5"/>
    <path d="M301.859 140.461c0 6.388 5.144 11.54 11.54 11.54 6.365 0 11.524-5.152 11.524-11.54 0-6.357-5.159-11.524-11.524-11.524-6.388 0-11.54 5.168-11.54 11.524z" fill="#0f83b7"/>
    <path d="M301.859 140.461c0 6.388 5.144 11.54 11.54 11.54 6.365 0 11.524-5.152 11.524-11.54" fill="#186189"/>
    <path d="M290.635 164.525c.607 0 1.237-.228 1.709-.725 5.632-5.616 13.115-8.72 21.055-8.72h.016c7.948 0 15.407 3.111 21.016 8.72a2.405 2.405 0 0 0 3.434 0c.953-.922.961-2.458.016-3.419-6.506-6.538-15.21-10.153-24.458-10.153h-.016c-9.255 0-17.936 3.584-24.505 10.138-.922.937-.922 2.505 0 3.434.48.489 1.095.725 1.733.725z" fill="#ffd3c5"/>
    <path d="M257.308 381.369a5.244 5.244 0 0 1-5.246 5.246 5.254 5.254 0 0 1-5.246-5.246V296.03a5.25 5.25 0 0 1 5.246-5.254 5.24 5.24 0 0 1 5.246 5.254v85.339z" fill="#605b58"/>
    <path d="M128.323 330.831c0 11.973-9.696 21.662-21.662 21.662-11.973 0-21.662-9.689-21.662-21.662 0-11.973 9.689-21.662 21.662-21.662 11.965 0 21.662 9.689 21.662 21.662z" fill="#227fef"/>
    <path d="M106.661 309.169c11.965 0 21.662 9.689 21.662 21.662 0 11.973-9.696 21.662-21.662 21.662" fill="#0a5bdd"/>
    <path d="M375.784 330.831c0-11.981 9.689-21.677 21.662-21.677 11.965 0 21.677 9.689 21.677 21.677 0 11.957-9.712 21.662-21.677 21.662-11.965-.001-21.662-9.705-21.662-21.662z" fill="#227fef"/>
    <path d="M397.446 352.492c-11.973 0-21.662-9.704-21.662-21.662 0-11.981 9.689-21.677 21.662-21.677" fill="#0a5bdd"/>
    <path d="M171.213 31.909c3.308 3.293 3.308 8.665 0 11.957l-22.764 22.772c-3.308 3.308-8.68 3.3-11.973 0-3.3-3.3-3.3-8.665 0-11.981l22.764-22.749a8.435 8.435 0 0 1 11.973.001z" fill="#232728"/>
    <path d="M168.905 11.051c5.065 5.073 5.065 13.296 0 18.361L134.01 64.299c-5.081 5.088-13.296 5.073-18.377 0-5.057-5.057-5.057-13.288 0-18.345l34.903-34.903c5.081-5.057 13.288-5.057 18.369 0z" fill="#cc1d00"/>
    <path d="M150.536 11.051l-34.903 34.903c-3.45 3.458-4.482 8.397-3.206 12.8 4.395 1.276 9.342.236 12.792-3.23l34.903-34.887c3.458-3.466 4.482-8.405 3.23-12.8-4.411-1.283-9.335-.252-12.816 3.214z" fill="#ff7212"/>
    <path d="M332.902 31.909c-3.308 3.293-3.308 8.665 0 11.957l22.764 22.772c3.308 3.308 8.688 3.3 11.981 0 3.3-3.3 3.3-8.665 0-11.981l-22.764-22.749a8.445 8.445 0 0 0-11.981.001z" fill="#232728"/>
    <path d="M335.218 11.051c-5.073 5.073-5.073 13.296 0 18.361l34.895 34.887c5.073 5.088 13.296 5.073 18.369 0 5.065-5.057 5.065-13.288 0-18.345l-34.895-34.903c-5.08-5.057-13.296-5.057-18.369 0z" fill="#cc1d00"/>
    <path d="M353.587 11.051l34.895 34.903c3.458 3.458 4.49 8.397 3.214 12.8-4.403 1.276-9.342.236-12.8-3.23l-34.895-34.887c-3.466-3.466-4.49-8.405-3.23-12.8 4.412-1.283 9.335-.252 12.816 3.214z" fill="#ff7212"/>
</svg>
