<svg xmlns="http://www.w3.org/2000/svg" viewBox="0 0 496 496">
    <path d="M376.139 171.307c.354-3.356.599-6.751.599-10.311C376.737 97.981 318.992 0 247.8 0c-71.215 0-128.969 97.981-128.969 160.996 0 3.553.244 6.955.599 10.311h256.709z" fill="#f9c1ac"/>
    <path d="M236.804 195.214c10.019 11.28 3.655 33.312-14.226 49.231-17.88 15.895-114.018 85.015-124.061 73.767-10.012-11.295 69.884-98.721 87.773-114.617 17.864-15.888 40.479-19.645 50.514-8.381zm21.969 0c-10.043 11.28-3.663 33.312 14.218 49.231 17.881 15.896 114.011 85.016 124.062 73.767 10.012-11.295-69.892-98.721-87.78-114.617-17.858-15.888-40.473-19.645-50.5-8.381z" fill="#0987c6"/>
    <path d="M223.941 353.367c0 19.495-15.817 124.66-35.336 124.66-19.495 0-35.304-105.173-35.304-124.66 0-19.511 15.817-35.32 35.304-35.32 19.519 0 35.336 15.816 35.336 35.32zm118.351 0c0 19.495-15.825 124.66-35.336 124.66-19.503 0-35.304-105.173-35.304-124.66 0-19.511 15.809-35.32 35.304-35.32 19.511 0 35.336 15.816 35.336 35.32z" fill="#0a6cc4"/>
    <path d="M347.427 306.696c0 126.338-44.615 84.259-99.643 84.259s-99.643 42.079-99.643-84.259c0-72.231 44.631-130.773 99.643-130.773 55.029 0 99.643 58.541 99.643 130.773z" fill="#0987c6"/>
    <path d="M126.401 196.907c17.778 39.077 65.355 58.77 121.399 58.77 56.029 0 103.597-19.692 121.368-58.77H126.401z" fill="#f9c1ac"/>
    <path d="M228.352 478.673c0 14.935-17.81 16.896-39.755 16.896-21.921 0-39.723-1.953-39.723-16.896 0-14.95 17.802-35.509 39.723-35.509 21.945.007 39.755 20.558 39.755 35.509z" fill="#3d3c39"/>
    <path d="M228.352 478.673c0 14.935-17.81 16.896-39.755 16.896-21.921 0-39.723-1.953-39.723-16.896" fill="#1c1b1a"/>
    <path d="M346.711 478.673c0 14.935-17.802 16.896-39.739 16.896-21.937 0-39.739-1.953-39.739-16.896 0-14.95 17.802-35.509 39.739-35.509 21.937 0 39.739 20.558 39.739 35.509z" fill="#3d3c39"/>
    <path d="M346.711 478.673c0 14.935-17.802 16.896-39.739 16.896-21.937 0-39.739-1.953-39.739-16.896" fill="#1c1b1a"/>
    <circle cx="186" cy="134" r="12" fill="#113e49"/>
    <path d="M198.002 134.034c0 6.388-5.175 11.54-11.54 11.54-6.372 0-11.524-5.152-11.524-11.54"/>
    <path d="M209.219 158.074c-.614 0-1.245-.213-1.725-.709-5.64-5.632-13.107-8.72-21.047-8.72h-.016c-7.94 0-15.399 3.096-21 8.704-.961.953-2.489.985-3.434.016a2.38 2.38 0 0 1-.024-3.419c6.53-6.554 15.202-10.169 24.45-10.169h.016c9.263 0 17.951 3.6 24.497 10.153.945.937.945 2.505 0 3.434-.457.497-1.071.71-1.717.71z" fill="#ffd3c5"/>
    <circle cx="309" cy="134" r="12" fill="#113e49"/>
    <path d="M297.582 134.034a11.52 11.52 0 0 0 11.54 11.54c6.372 0 11.524-5.152 11.524-11.54"/>
    <path d="M286.366 158.074c.591 0 1.213-.213 1.709-.709 5.632-5.632 13.107-8.72 21.047-8.72 7.956 0 15.431 3.096 21.023 8.704.945.953 2.489.985 3.442.016.953-.922.969-2.458.016-3.419-6.506-6.554-15.218-10.169-24.474-10.169-9.248 0-17.936 3.6-24.505 10.153-.922.937-.922 2.505 0 3.434.481.497 1.096.71 1.742.71z" fill="#ffd3c5"/>
    <ellipse cx="248" cy="196" rx="122" ry="15"/>
    <ellipse cx="248" cy="171" rx="128" ry="16" fill="#f9c1ac"/>
    <path d="M176.632 33.43l30.247-5.876v17.723l17.723-15.754 22.646 18.708V25.584l18.708 14.769 1.969-16.738 25.6 24.615-11.815-30.523 32.492 11.815-2.41-2.678C292.927 10.524 271.092 0 247.8 0c-26.309 0-50.767 13.383-71.168 33.43z"/>
    <g fill="#1c1b1a">
        <circle cx="248" cy="278" r="5"/>
        <circle cx="248" cy="313" r="5"/>
        <circle cx="248" cy="349" r="5"/>
    </g>
</svg>
