<svg xmlns="http://www.w3.org/2000/svg" viewBox="0 0 504 504">
    <g fill="#5258cc">
        <path d="M263.767 239.159c-.874 15.061-20.953 26.128-44.851 24.757-23.875-1.41-140.745-20.504-139.894-35.564.906-15.069 119.233-20.385 143.108-18.976 23.866 1.387 42.519 14.722 41.637 29.783z"/>
        <path d="M254.582 232.952c.874-15.061 20.953-26.12 44.859-24.757 23.875 1.418 140.737 20.512 139.894 35.572-.906 15.061-119.233 20.385-143.108 18.968-23.874-1.379-42.519-14.722-41.645-29.783z"/>
    </g>
    <path d="M236.528 361.913c0 19.503-15.825 124.668-35.336 124.668-19.488 0-35.304-105.173-35.304-124.668 0-19.495 15.825-35.32 35.304-35.32 19.519 0 35.336 15.825 35.336 35.32zm118.351 0c0 19.503-15.809 124.668-35.32 124.668-19.503 0-35.312-105.173-35.312-124.668 0-19.495 15.817-35.32 35.312-35.32 19.511 0 35.32 15.825 35.32 35.32z" fill="#46a0af"/>
    <path d="M360.023 315.242c0 126.33-44.599 84.259-99.643 84.259-55.02 0-99.651 42.071-99.651-84.259 0-72.231 44.631-130.781 99.651-130.781 55.028.009 99.643 58.558 99.643 130.781z" fill="#5258cc"/>
    <path d="M186.163 228.194c20.992 9.539 46.568 14.375 74.232 14.375 27.656 0 53.209-4.836 74.201-14.367-18.243-26.782-44.702-43.733-74.216-43.733s-55.966 16.944-74.217 43.725z" fill="#404bad"/>
    <path d="M240.947 487.219c0 14.935-17.802 16.904-39.739 16.904s-39.747-1.961-39.747-16.904 17.81-35.509 39.747-35.509 39.739 20.567 39.739 35.509z" fill="#ff860d"/>
    <path d="M240.947 487.219c0 14.935-17.802 16.904-39.739 16.904s-39.747-1.961-39.747-16.904" fill="#e56107"/>
    <path d="M359.298 487.219c0 14.935-17.81 16.904-39.731 16.904-21.945 0-39.747-1.961-39.747-16.904s17.802-35.509 39.747-35.509c21.929.008 39.731 20.567 39.731 35.509z" fill="#ff860d"/>
    <path d="M359.298 487.219c0 14.935-17.81 16.904-39.731 16.904-21.945 0-39.747-1.961-39.747-16.904" fill="#e56107"/>
    <path d="M389.333 124.258c0 63.008-57.738 94.681-128.937 94.681-71.223 0-128.977-31.673-128.977-94.681C131.419 61.235 189.172 0 260.395 0c71.2 0 128.938 61.235 128.938 124.258z" fill="#ce5715"/>
    <path d="M389.333 124.258c0 63.008-57.738 94.681-128.937 94.681-71.223 0-128.977-31.673-128.977-94.681 0-63.023 57.754-72.405 128.977-72.405 71.199.001 128.937 9.382 128.937 72.405z" fill="#f9a9a0"/>
    <path d="M389.333 124.258c0 63.008-57.738 94.681-128.937 94.681-71.223 0-128.977-31.673-128.977-94.681" fill="#ff9997"/>
    <circle cx="223" cy="126" r="12" fill="#113e49"/>
    <path d="M234.551 125.928c0 6.388-5.167 11.54-11.54 11.54-6.372 0-11.524-5.152-11.524-11.54"/>
    <path d="M245.768 149.984a2.377 2.377 0 0 1-1.725-.717c-5.632-5.624-13.107-8.72-21.047-8.72h-.016c-7.94 0-15.399 3.104-21 8.712-.953.953-2.489.977-3.434.008a2.402 2.402 0 0 1-.032-3.419c6.538-6.546 15.218-10.161 24.458-10.161h.016c9.263 0 17.952 3.592 24.505 10.145.937.937.937 2.505 0 3.434-.465.498-1.079.718-1.725.718z" fill="#ffd3c5"/>
    <circle cx="346" cy="126" r="12" fill="#113e49"/>
    <path d="M334.139 125.928a11.52 11.52 0 0 0 11.54 11.54c6.372 0 11.524-5.152 11.524-11.54"/>
    <path d="M322.922 149.984c.599 0 1.229-.221 1.709-.717 5.632-5.624 13.107-8.72 21.047-8.72h.016c7.94 0 15.415 3.104 21.016 8.712a2.405 2.405 0 0 0 3.434.008c.953-.922.969-2.458.016-3.419-6.506-6.546-15.218-10.161-24.458-10.161h-.016c-9.247 0-17.936 3.592-24.505 10.145-.922.937-.922 2.505 0 3.434.481.498 1.095.718 1.741.718z" fill="#ffd3c5"/>
    <path d="M232.314 33.146s-44.308 32.492-18.716 62.031c25.608 29.538 72.869-1.969 63.015-15.754 0 0-23.631 24.615-37.408-1.969-13.792-26.585 46.277-25.6 76.792-23.631 30.531 1.969-37.408-27.569-37.408-27.569l-46.275 6.892z" fill="#ce5715"/>
    <path d="M302.553 150.969c0 11.965-8.231 21.662-18.377 21.662-10.161 0-18.385-9.696-18.385-21.662 0-11.965 8.224-7.877 18.385-7.877 10.145 0 18.377-4.088 18.377 7.877z" fill="#8e0935"/>
    <path d="M268.564 162.288c3.237 6.183 8.995 10.342 15.612 10.342s12.367-4.159 15.604-10.358c-3.237-6.176-8.995-10.335-15.604-10.335-6.625-.007-12.375 4.16-15.612 10.351z" fill="#c11043"/>
    <path d="M55.958 133.207c1.371 1.371 1.371 12.556 0 13.926l-18.542 9.563c-2.087.929-3.568 1.371-4.947 0a3.494 3.494 0 0 1 0-4.939l18.542-18.542a3.482 3.482 0 0 1 4.947-.008z" fill="#668b96"/>
    <path d="M55.958 133.207c1.371 1.371 1.371 12.556 0 13.926l-18.542 9.563c-2.087.929-3.568 1.371-4.947 0a3.494 3.494 0 0 1 0-4.939l21.504-14.824c1.378-1.363.614-5.097 1.985-3.726z" fill="#54737f"/>
    <path d="M25.49 120.47c0 3.623-2.954 6.561-6.569 6.561a6.56 6.56 0 0 1-6.554-6.561v-4.797a6.56 6.56 0 0 1 6.554-6.561c3.616 0 6.569 2.938 6.569 6.561v4.797z" fill="#62d122"/>
    <path d="M25.49 115.673v4.797c0 3.623-2.954 6.561-6.569 6.561a6.56 6.56 0 0 1-6.554-6.561v-4.797" fill="#4db20d"/>
    <path d="M94.972 122.006c0 3.86.654 18.786-17.699 20.976l-51.515-10.421a6.985 6.985 0 0 1-6.987-6.987v-14.572c0-3.86 3.127-6.995 6.987-6.995l54.217-3.497c3.852 0 6.971 3.135 6.971 6.995l8.026 14.501z" fill="#afccd8"/>
    <path d="M79.967 126.299c3.852 0 6.971 1.631 6.971 3.623l-3.482 28.152c0 2.001-3.119 3.623-6.995 3.623H61.889c-3.852 0-6.995-1.623-6.995-3.623l-3.482-28.152c0-1.993 3.119-3.623 6.995-3.623h21.56z" fill="#7fa6b5"/>
    <path d="M79.967 100.517c3.852 0 6.971 3.135 6.971 6.995l8.034 14.501c0 3.86.654 18.786-17.699 20.976l-51.515-10.421a6.985 6.985 0 0 1-6.987-6.987v-9.909" fill="#99b9c9"/>
    <path d="M85.874 165.856a1.956 1.956 0 0 1-1.953 1.969H54.437a1.961 1.961 0 0 1-1.953-1.969v-6.853c0-1.087.874-1.961 1.953-1.961H83.92a1.95 1.95 0 0 1 1.953 1.961l.001 6.853z" fill="#62d122"/>
    <path d="M85.874 159.004v6.853a1.956 1.956 0 0 1-1.953 1.969H54.437a1.961 1.961 0 0 1-1.953-1.969v-6.853" fill="#4db20d"/>
    <path d="M87.977 165.927H50.381c-8.334 0-15.076 6.743-15.076 15.076v13.147L9.523 252.755c0 15.21.079 27.53 15.305 27.53h62.921c15.202 0 15.289-12.319 15.289-27.53v-71.751c.008-8.326-6.735-15.077-15.061-15.077z" fill="#88e2e2"/>
    <path d="M87.977 165.927H55.359c-8.342 0-15.092 6.743-15.092 15.076v13.147L9.523 252.755c0 15.21.079 27.53 15.305 27.53h62.921c15.202 0 15.289-12.319 15.289-27.53v-71.751c.008-8.326-6.735-15.077-15.061-15.077z" fill="#4fc7d3"/>
    <path d="M9.523 252.763c0 15.21.079 27.53 15.305 27.53h62.921c15.202 0 15.289-12.319 15.289-27.53m-34.784-86.836v22.725c0 1.205.985 2.182 2.19 2.182a2.179 2.179 0 0 0 2.166-2.182v-22.725h-4.356z" fill="#41b9bf"/>
    <path d="M441.155 388.955c0 4.498-3.655 8.16-8.16 8.16-4.513 0-8.176-3.655-8.176-8.16V168.338c0-4.513 3.671-8.168 8.176-8.176 4.506.008 8.16 3.663 8.145 8.168l.015 220.625z" fill="#c19a6b"/>
    <path d="M490.835 410.364c-1.221-30.933-26.616-55.658-57.848-55.643-31.24-.008-56.627 24.71-57.864 55.643h115.712z" fill="#c90d59"/>
    <path d="M432.994 354.714c-31.24-.008-56.627 24.71-57.864 55.643" fill="#ea1f5e"/>
    <path d="M494.6 410.687a4.305 4.305 0 0 1-4.309 4.309H375.674a4.298 4.298 0 0 1-4.301-4.309 4.301 4.301 0 0 1 4.301-4.301h114.625c2.371-.008 4.301 1.93 4.301 4.301zm-37.431-58.636c-.016 4.403-3.568 7.956-7.948 7.956h-32.469c-4.395 0-7.956-3.56-7.94-7.956l-.016-6.632c0-4.387 3.56-7.94 7.948-7.948l32.477.008c4.38-.008 7.948 3.552 7.948 7.948v6.624z" fill="#c90d59"/>
    <path d="M408.812 352.051l-.016-6.632c0-4.387 3.56-7.94 7.948-7.948l32.477.008" fill="#ea1f5e"/>
</svg>
