<svg xmlns="http://www.w3.org/2000/svg" viewBox="0 0 504 504">
    <path d="M228.218 361.913c0 19.503-15.817 124.668-35.336 124.668-19.495 0-35.304-105.173-35.304-124.668 0-19.495 15.817-35.32 35.304-35.32 19.519 0 35.336 15.825 35.336 35.32zm118.351 0c0 19.503-15.817 124.668-35.336 124.668-19.495 0-35.304-105.173-35.304-124.668 0-19.495 15.817-35.32 35.304-35.32 19.519 0 35.336 15.825 35.336 35.32z" fill="#0698bf"/>
    <path d="M351.705 315.242c0 126.33-44.599 84.259-99.643 84.259-55.028 0-99.643 42.071-99.643-84.259 0-72.231 44.631-130.788 99.643-130.788 55.028.008 99.643 58.565 99.643 130.788z" fill="#232728"/>
    <path d="M232.629 487.219c0 14.935-17.802 16.904-39.739 16.904s-39.739-1.961-39.739-16.904 17.802-35.509 39.739-35.509 39.739 20.567 39.739 35.509z" fill="#acc1d1"/>
    <path d="M232.629 487.219c0 14.935-17.802 16.904-39.739 16.904s-39.739-1.961-39.739-16.904" fill="#91b4c9"/>
    <path d="M350.988 487.219c0 14.935-17.802 16.904-39.739 16.904s-39.739-1.961-39.739-16.904 17.802-35.509 39.739-35.509 39.739 20.567 39.739 35.509z" fill="#acc1d1"/>
    <path d="M350.988 487.219c0 14.935-17.802 16.904-39.739 16.904s-39.739-1.961-39.739-16.904" fill="#91b4c9"/>
    <path d="M381.015 124.258c0 63.008-57.738 94.681-128.937 94.681-71.215 0-128.969-31.673-128.969-94.681C123.108 61.235 180.862 0 252.077 0c71.2 0 128.938 61.235 128.938 124.258z" fill="#f9bd82"/>
    <path d="M381.015 124.258c0 63.008-57.738 94.681-128.937 94.681-71.215 0-128.969-31.673-128.969-94.681" fill="#eda366"/>
    <circle cx="191" cy="101" r="12" fill="#113e49"/>
    <path d="M202.279 100.982c0 6.388-5.167 11.54-11.54 11.54s-11.524-5.152-11.524-11.54"/>
    <path d="M213.496 125.038a2.377 2.377 0 0 1-1.725-.717c-5.632-5.624-13.107-8.72-21.047-8.72h-.016c-7.94 0-15.399 3.104-21 8.712-.953.953-2.489.977-3.434.008a2.402 2.402 0 0 1-.032-3.419c6.538-6.546 15.218-10.161 24.458-10.161h.016c9.263 0 17.952 3.592 24.505 10.145.937.937.937 2.505 0 3.434-.465.498-1.079.718-1.725.718z" fill="#ffd3c5"/>
    <circle cx="313" cy="101" r="12" fill="#113e49"/>
    <path d="M301.859 100.982c0 6.388 5.152 11.54 11.54 11.54 6.372 0 11.524-5.152 11.524-11.54"/>
    <path d="M290.643 125.038c.599 0 1.229-.221 1.709-.717 5.632-5.624 13.107-8.72 21.047-8.72h.016c7.94 0 15.415 3.104 21.016 8.712a2.405 2.405 0 0 0 3.434.008c.953-.922.969-2.458.016-3.419-6.506-6.546-15.218-10.161-24.458-10.161h-.016c-9.247 0-17.936 3.592-24.505 10.145-.922.937-.922 2.505 0 3.434.48.498 1.095.718 1.741.718z" fill="#ffd3c5"/>
    <path d="M223.642 139.185c0-3.631 12.737-15.943 28.428-15.943s28.436 12.312 28.436 15.943c0 3.639-12.745 1.473-28.436 1.473s-28.428 2.166-28.428-1.473z" fill="#a11"/>
    <path d="M345.309 291.643c4.742-14.344-9.862-32.02-32.603-39.534-22.709-7.491-138.398-32.713-143.155-18.408-4.71 14.336 103.353 62.818 126.078 70.309 22.709 7.507 44.953 1.961 49.68-12.367z" fill="#eda366"/>
    <path d="M158.815 291.643c-4.742-14.344 9.862-32.02 32.603-39.534 22.709-7.491 138.398-32.713 143.155-18.408 4.71 14.336-103.353 62.818-126.078 70.309-22.71 7.507-44.954 1.961-49.68-12.367z" fill="#f9bd82"/>
    <path d="M302.151 35.344l19.456 19.464h35.517C333.753 22.796 295.463 0 252.077 0s-81.692 22.796-105.078 54.808h135.704l19.448-19.464z" fill="#3a230f"/>
    <path d="M252.077 0c-43.386 0-81.692 22.796-105.078 54.808" fill="#723f1c"/>
    <path d="M296.369 240.569c-.859-3.285-1.449-6.412-1.906-9.452a560.38 560.38 0 0 0-6.774.859 85.258 85.258 0 0 0 2.528 14.746c1.709 6.498 3.97 12.304 6.412 16.927a417.285 417.285 0 0 0 7.31-4.072c-2.891-4.877-5.601-11.493-7.57-19.008z" fill="#5f7277"/>
    <circle cx="291" cy="241" r="14" fill="#0698bf"/>
    <circle cx="290" cy="239" r="8" fill="#a3e1ef"/>
</svg>
