<svg xmlns="http://www.w3.org/2000/svg" viewBox="0 0 504 504">
    <path d="M430.906 123.88c0 17.479-14.171 139.571-31.649 139.571-17.479 0-31.65-122.092-31.65-139.571s14.171-25.151 31.65-25.151c17.478 0 31.649 7.672 31.649 25.151z" fill="#ff860d"/>
    <g fill="#e56107">
        <path d="M417.113 123.88c0 17.479-7.995 139.571-17.857 139.571-9.862 0-17.857-122.092-17.857-139.571s7.995-25.151 17.857-25.151c9.862 0 17.857 7.672 17.857 25.151z"/>
        <path d="M387.228 122.927c0 .969-.788 1.764-1.772 1.764h-7.286a1.765 1.765 0 0 1 0-3.528h7.294a1.766 1.766 0 0 1 1.764 1.764z"/>
    </g>
    <path d="M396.689 134.561c0 .977-.788 1.764-1.772 1.764h-7.286a1.761 1.761 0 0 1-1.764-1.764c0-.969.788-1.764 1.764-1.764h7.286c.992 0 1.772.796 1.772 1.764z" fill="#ff860d"/>
    <path d="M387.228 148.496c0 .969-.788 1.757-1.772 1.757h-7.286a1.759 1.759 0 0 1-1.757-1.757c0-.969.788-1.757 1.757-1.757h7.294c.985 0 1.764.788 1.764 1.757z" fill="#e56107"/>
    <path d="M396.689 160.122c0 .969-.788 1.757-1.772 1.757h-7.286a1.76 1.76 0 0 1-1.764-1.757c0-.969.788-1.764 1.764-1.764h7.286c.992 0 1.772.795 1.772 1.764z" fill="#ff860d"/>
    <path d="M387.228 174.056c0 .969-.788 1.757-1.772 1.757h-7.286a1.76 1.76 0 1 1 0-3.521h7.294c.985 0 1.764.788 1.764 1.764z" fill="#e56107"/>
    <path d="M396.689 185.683c0 .969-.788 1.764-1.772 1.764h-7.286a1.766 1.766 0 0 1-1.764-1.764c0-.969.788-1.764 1.764-1.764h7.286a1.767 1.767 0 0 1 1.772 1.764z" fill="#ff860d"/>
    <path d="M390.797 201.57c0 .859-.693 1.552-1.544 1.552h-6.428a1.548 1.548 0 0 1-1.544-1.552c0-.851.693-1.544 1.544-1.544h6.428a1.542 1.542 0 0 1 1.544 1.544z" fill="#e56107"/>
    <path d="M392.033 211.803c0 .851-.693 1.544-1.552 1.544h-6.42a1.546 1.546 0 0 1-1.544-1.544c0-.843.693-1.544 1.544-1.544h6.42a1.543 1.543 0 0 1 1.552 1.544z" fill="#ff860d"/>
    <path d="M391.632 226.643c0 .693-.551 1.245-1.245 1.245h-5.159a1.236 1.236 0 0 1-1.237-1.245 1.24 1.24 0 0 1 1.237-1.237h5.159c.685 0 1.245.567 1.245 1.237z" fill="#e56107"/>
    <path d="M398.319 234.866c0 .685-.551 1.237-1.245 1.237h-5.167a1.24 1.24 0 0 1-1.237-1.237c0-.685.559-1.245 1.237-1.245h5.167c.694.001 1.245.56 1.245 1.245z" fill="#ff860d"/>
    <path d="M411.292 122.927c0 .969.788 1.764 1.772 1.764h7.294a1.765 1.765 0 0 0 0-3.528h-7.294a1.768 1.768 0 0 0-1.772 1.764z" fill="#e56107"/>
    <path d="M401.832 134.561a1.76 1.76 0 0 0 1.757 1.764h7.302c.977 0 1.764-.788 1.764-1.764 0-.969-.788-1.764-1.764-1.764h-7.302a1.76 1.76 0 0 0-1.757 1.764z" fill="#ff860d"/>
    <path d="M411.292 148.496c0 .969.788 1.757 1.772 1.757h7.294c.969 0 1.757-.788 1.757-1.757 0-.969-.788-1.757-1.757-1.757h-7.294c-.992 0-1.772.788-1.772 1.757z" fill="#e56107"/>
    <path d="M401.832 160.122c0 .969.788 1.757 1.757 1.757h7.302a1.76 1.76 0 0 0 1.764-1.757c0-.969-.788-1.764-1.764-1.764h-7.302a1.76 1.76 0 0 0-1.757 1.764z" fill="#ff860d"/>
    <path d="M411.292 174.056c0 .969.788 1.757 1.772 1.757h7.294a1.76 1.76 0 1 0 0-3.521h-7.294c-.992 0-1.772.788-1.772 1.764z" fill="#e56107"/>
    <path d="M401.832 185.683c0 .969.788 1.764 1.757 1.764h7.302c.977 0 1.764-.796 1.764-1.764 0-.969-.788-1.764-1.764-1.764h-7.302a1.764 1.764 0 0 0-1.757 1.764z" fill="#ff860d"/>
    <path d="M407.724 201.57c0 .859.693 1.552 1.544 1.552h6.428a1.548 1.548 0 0 0 0-3.096h-6.428a1.542 1.542 0 0 0-1.544 1.544z" fill="#e56107"/>
    <path d="M405.889 211.803c0 .851.677 1.544 1.536 1.544h6.428c.843 0 1.552-.693 1.552-1.544 0-.843-.709-1.544-1.552-1.544h-6.428a1.53 1.53 0 0 0-1.536 1.544z" fill="#ff860d"/>
    <path d="M406.889 226.643c0 .693.551 1.245 1.245 1.245h5.159c.685 0 1.237-.551 1.237-1.245a1.24 1.24 0 0 0-1.237-1.237h-5.159a1.25 1.25 0 0 0-1.245 1.237z" fill="#e56107"/>
    <path d="M400.202 234.866c0 .685.551 1.237 1.245 1.237h5.167c.677 0 1.229-.551 1.229-1.237a1.24 1.24 0 0 0-1.229-1.245h-5.167a1.243 1.243 0 0 0-1.245 1.245z" fill="#ff860d"/>
    <path d="M426.353 109.34c-5.537-7.27-15.588-10.618-27.089-10.618-11.5 0-21.551 3.348-27.089 10.618 1.599 6.278 13.107 4.348 27.089 4.348s25.49 1.929 27.089-4.348z" fill="#ffaf10"/>
    <path d="M399.264 113.688c6.341 0 12.138.394 16.77.244-2.473-10.461-9.043-15.21-16.77-15.21s-14.289 4.75-16.77 15.21c4.624.142 10.429-.244 16.77-.244z" fill="#ff860d"/>
    <path d="M384.322 75.059c1.552 2.182 17.526 28.373 15.336 29.924-2.182 1.56-21.709-22.087-23.276-24.277a4.862 4.862 0 0 1 1.15-6.782 4.874 4.874 0 0 1 6.79 1.135z" fill="#68ad27"/>
    <path d="M380.951 86.339c1.631 1.26 18.983 16.857 17.723 18.471-1.245 1.623-20.653-11.359-22.26-12.619a3.702 3.702 0 1 1 4.537-5.852z" fill="#5c8729"/>
    <path d="M393.325 72.224c.866 2.536 8.586 32.209 6.049 33.067-2.552.859-14.399-27.42-15.273-29.972a4.893 4.893 0 0 1 3.072-6.168 4.863 4.863 0 0 1 6.152 3.073z" fill="#7fcc2e"/>
    <path d="M414.199 75.059c-1.56 2.182-17.526 28.373-15.336 29.924 2.182 1.56 21.709-22.087 23.268-24.277a4.86 4.86 0 0 0-1.134-6.782c-2.198-1.559-5.246-1.047-6.798 1.135z" fill="#68ad27"/>
    <path d="M417.555 86.339c-1.615 1.26-18.968 16.857-17.707 18.471 1.245 1.623 20.653-11.359 22.26-12.619a3.716 3.716 0 0 0 .662-5.199 3.728 3.728 0 0 0-5.215-.653z" fill="#5c8729"/>
    <path d="M405.196 72.224c-.874 2.536-8.594 32.209-6.049 33.067 2.552.859 14.399-27.42 15.273-29.972a4.893 4.893 0 0 0-3.072-6.168 4.863 4.863 0 0 0-6.152 3.073z" fill="#7fcc2e"/>
    <path d="M404.534 67.206c0 2.914-2.363 38.274-5.278 38.274-2.914 0-5.278-35.36-5.278-38.274a5.279 5.279 0 0 1 10.556 0z" fill="#5c8729"/>
    <g fill="#7fcc2e">
        <circle cx="371" cy="81" r="1"/>
        <circle cx="424" cy="99" r="1"/>
        <circle cx="371" cy="86" r="1"/>
        <circle cx="424" cy="83" r="1"/>
        <circle cx="380" cy="66" r="2"/>
    </g>
    <g fill="#5c8729">
        <circle cx="378" cy="99" r="1"/>
        <circle cx="418" cy="69" r="2"/>
    </g>
    <path d="M253.541 258.095c11.28 10.027 33.304 3.663 49.223-14.218 15.896-17.881 85.016-114.018 73.767-124.062-11.296-10.012-98.714 69.892-114.609 87.773-15.895 17.857-19.645 40.472-8.381 50.507z" fill="#249311"/>
    <path d="M199.498 361.913c0 19.503-15.809 124.668-35.336 124.668-19.495 0-35.304-105.173-35.304-124.668 0-19.495 15.817-35.32 35.304-35.32 19.527 0 35.336 15.825 35.336 35.32zm118.358 0c0 19.503-15.817 124.668-35.336 124.668-19.495 0-35.304-105.173-35.304-124.668 0-19.495 15.817-35.32 35.304-35.32 19.52 0 35.336 15.825 35.336 35.32z" fill="#283526"/>
    <g fill="#32b220">
        <path d="M322.992 315.242c0 126.33-44.607 84.259-99.643 84.259-55.028 0-99.643 42.071-99.643-84.259 0-72.231 44.631-130.781 99.643-130.781 55.028.009 99.643 58.558 99.643 130.781z"/>
        <path d="M212.361 203.768c10.027 11.28 3.663 33.304-14.218 49.223-17.881 15.896-114.026 85.024-124.062 73.767-10.012-11.296 69.9-98.714 87.765-114.609 17.857-15.895 40.487-19.653 50.515-8.381z"/>
    </g>
    <path fill="#dd9f76" d="M258.628 207.407l-35.279 35.279-35.278-35.279 35.278-35.279z"/>
    <path d="M223.341 366.033c-51.617 0-94.074 37.006-99.139-62.661-.339 3.458-.504 7.396-.504 11.878 0 126.33 44.615 84.259 99.643 84.259 55.036 0 99.643 42.071 99.643-84.259 0-4.474-.165-8.413-.504-11.878-5.065 99.667-47.506 62.661-99.139 62.661z" fill="#249311"/>
    <path d="M203.917 487.219c0 14.935-17.802 16.904-39.747 16.904-21.929 0-39.739-1.961-39.739-16.904s17.81-35.509 39.739-35.509c21.945.008 39.747 20.567 39.747 35.509z" fill="#b27029"/>
    <path d="M203.917 487.219c0 14.935-17.802 16.904-39.747 16.904-21.929 0-39.739-1.961-39.739-16.904" fill="#a05810"/>
    <path d="M322.26 487.219c0 14.935-17.786 16.904-39.731 16.904-21.937 0-39.739-1.961-39.739-16.904s17.802-35.509 39.739-35.509c21.944.008 39.731 20.567 39.731 35.509z" fill="#b27029"/>
    <path d="M322.26 487.219c0 14.935-17.786 16.904-39.731 16.904-21.937 0-39.739-1.961-39.739-16.904" fill="#a05810"/>
    <path d="M352.302 124.258c0 63.008-57.746 94.681-128.937 94.681-71.223 0-128.969-31.673-128.969-94.681C94.396 61.235 152.142 0 223.365 0c71.191 0 128.937 61.235 128.937 124.258z" fill="#e8b085"/>
    <path d="M352.302 124.258c0 63.008-57.746 94.681-128.937 94.681-71.223 0-128.969-31.673-128.969-94.681" fill="#dd9f76"/>
    <path d="M265.632 167.771c0 23.355-18.92 42.283-42.283 42.283s-42.283-18.928-42.283-42.283V131.49h-5.971c-3.474 7.097-5.569 14.99-5.569 23.434v64.236c16.4 4.616 34.603 7.01 53.839 7.01 19.22 0 37.415-2.395 53.807-7.01v-64.236c0-8.436-2.095-16.329-5.569-23.434h-5.971v36.281z" fill="#543722"/>
    <circle cx="162" cy="103" r="12" fill="#113e49"/>
    <path d="M173.559 103.448c0 6.388-5.175 11.54-11.532 11.54a11.52 11.52 0 0 1-11.532-11.54"/>
    <path d="M184.776 127.504a2.377 2.377 0 0 1-1.725-.717c-5.632-5.624-13.107-8.72-21.047-8.72h-.024c-7.932 0-15.384 3.104-20.992 8.712-.945.953-2.489.977-3.442.008a2.402 2.402 0 0 1-.024-3.419c6.538-6.546 15.218-10.161 24.45-10.161h.024c9.263 0 17.944 3.592 24.497 10.145.937.937.937 2.505 0 3.434-.457.489-1.071.718-1.717.718z" fill="#f4c3a2"/>
    <path d="M273.147 103.448c0 6.388 5.144 11.54 11.54 11.54 6.372 0 11.524-5.152 11.524-11.54 0-6.365-5.151-11.532-11.524-11.532a11.524 11.524 0 0 0-11.54 11.532z" fill="#113e49"/>
    <path d="M273.147 103.448c0 6.388 5.144 11.54 11.54 11.54 6.372 0 11.524-5.152 11.524-11.54"/>
    <path d="M261.93 127.504a2.38 2.38 0 0 0 1.709-.717c5.632-5.624 13.107-8.72 21.047-8.72h.008c7.948 0 15.423 3.104 21.016 8.712a2.405 2.405 0 0 0 3.434.008 2.395 2.395 0 0 0 .024-3.419c-6.506-6.546-15.218-10.161-24.466-10.161h-.008c-9.247 0-17.944 3.592-24.513 10.145-.922.937-.922 2.505 0 3.434a2.423 2.423 0 0 0 1.749.718z" fill="#f4c3a2"/>
    <path d="M226.988 134.979s-13.477-29.003-49.719-5.175-39.353 16.565-39.353 16.565 38.313 27.987 79.754 10.382l6.215-5.199 3.103-16.573z" fill="#663f24"/>
    <path d="M137.916 146.361s38.313 27.987 79.754 10.382l6.215-5.199 3.111-16.573" fill="#543722"/>
    <path d="M219.718 134.979s13.462-29.003 49.711-5.175 39.353 16.565 39.353 16.565-38.305 27.987-79.746 10.382l-6.223-5.199-3.095-16.573z" fill="#663f24"/>
    <path d="M308.774 146.361s-38.305 27.987-79.746 10.382l-6.223-5.199-3.096-16.573" fill="#543722"/>
    <g fill="#fff">
        <circle cx="223" cy="268" r="7"/>
        <circle cx="223" cy="312" r="7"/>
    </g>
    <path d="M345.835 90.585l.622-1.292C330.105 40.377 281.166 0 223.357 0c-57.824 0-106.764 40.377-123.132 89.293l.63 1.292 19.692 19.692V60.392l68.261-38.069 34.288 34.288v.504l.252-.252.252.252v-.504l34.288-34.288 68.261 38.069v49.885l19.686-19.692z" fill="#663f24"/>
</svg>
