<svg xmlns="http://www.w3.org/2000/svg" viewBox="0 0 504 504">
    <g fill="#139bd1">
        <path d="M255.457 239.159c-.866 15.061-20.96 26.128-44.851 24.757-23.875-1.41-140.745-20.504-139.894-35.564.906-15.069 119.233-20.385 143.108-18.976 23.866 1.387 42.511 14.722 41.637 29.783z"/>
        <path d="M246.272 232.952c.874-15.061 20.953-26.12 44.859-24.757 23.875 1.418 140.737 20.512 139.886 35.572-.906 15.061-119.233 20.385-143.108 18.968-23.874-1.379-42.527-14.722-41.637-29.783z"/>
    </g>
    <path d="M228.218 361.913c0 19.503-15.817 124.668-35.336 124.668-19.495 0-35.304-105.173-35.304-124.668 0-19.495 15.817-35.32 35.304-35.32 19.519 0 35.336 15.825 35.336 35.32zm118.351 0c0 19.503-15.817 124.668-35.336 124.668-19.495 0-35.304-105.173-35.304-124.668 0-19.495 15.817-35.32 35.304-35.32 19.519 0 35.336 15.825 35.336 35.32z" fill="#7c672c"/>
    <path d="M351.705 315.242c0 126.33-44.599 84.259-99.643 84.259-55.028 0-99.643 42.071-99.643-84.259 0-72.231 44.631-130.781 99.643-130.781 55.028.009 99.643 58.558 99.643 130.781z" fill="#139bd1"/>
    <path d="M177.845 228.194c21 9.539 46.568 14.375 74.232 14.375 27.648 0 53.209-4.836 74.201-14.367-18.243-26.782-44.694-43.733-74.216-43.733-29.515.001-55.958 16.944-74.217 43.725z" fill="#0c71bc"/>
    <path d="M232.629 487.219c0 14.935-17.802 16.904-39.739 16.904s-39.739-1.961-39.739-16.904 17.802-35.509 39.739-35.509 39.739 20.567 39.739 35.509z" fill="#8d97a0"/>
    <path d="M232.629 487.219c0 14.935-17.802 16.904-39.739 16.904s-39.739-1.961-39.739-16.904" fill="#79848c"/>
    <path d="M350.988 487.219c0 14.935-17.802 16.904-39.739 16.904s-39.739-1.961-39.739-16.904 17.802-35.509 39.739-35.509 39.739 20.567 39.739 35.509z" fill="#8d97a0"/>
    <path d="M350.988 487.219c0 14.935-17.802 16.904-39.739 16.904s-39.739-1.961-39.739-16.904" fill="#79848c"/>
    <path d="M381.015 124.258c0 63.008-57.738 94.681-128.937 94.681-71.215 0-128.969-31.673-128.969-94.681C123.109 61.235 180.862 0 252.078 0c71.199 0 128.937 61.235 128.937 124.258z" fill="#ce5715"/>
    <path d="M381.015 124.258c0 63.008-57.738 94.681-128.937 94.681-71.215 0-128.969-31.673-128.969-94.681 0-63.023 57.754-72.405 128.969-72.405 71.199.001 128.937 9.382 128.937 72.405z" fill="#f9a9a0"/>
    <path d="M381.015 124.258c0 63.008-57.738 94.681-128.937 94.681-71.215 0-128.969-31.673-128.969-94.681" fill="#ff9997"/>
    <circle cx="191" cy="109" r="12" fill="#113e49"/>
    <path d="M202.28 109.103c0 6.388-5.167 11.54-11.54 11.54-6.372 0-11.524-5.152-11.524-11.54"/>
    <path d="M213.496 133.152a2.377 2.377 0 0 1-1.725-.717c-5.632-5.624-13.107-8.72-21.047-8.72h-.016c-7.94 0-15.399 3.104-21 8.712-.953.953-2.489.977-3.434.008a2.4 2.4 0 0 1-.031-3.419c6.538-6.546 15.218-10.161 24.458-10.161h.016c9.263 0 17.951 3.592 24.505 10.145.937.937.937 2.505 0 3.434-.465.497-1.08.718-1.726.718z" fill="#ffd3c5"/>
    <circle cx="313" cy="109" r="12" fill="#113e49"/>
    <path d="M301.86 109.103c0 6.388 5.152 11.54 11.54 11.54 6.372 0 11.524-5.152 11.524-11.54"/>
    <path d="M290.643 133.152c.599 0 1.229-.221 1.709-.717 5.632-5.624 13.107-8.72 21.047-8.72h.016c7.94 0 15.415 3.104 21.016 8.712a2.405 2.405 0 0 0 3.434.008c.953-.922.969-2.458.016-3.419-6.506-6.546-15.218-10.161-24.458-10.161h-.016c-9.247 0-17.936 3.592-24.505 10.145-.922.937-.922 2.505 0 3.434.481.497 1.095.718 1.741.718z" fill="#ffd3c5"/>
    <path d="M225.942 168.543c0-23.079 11.689-41.858 26.104-41.858 14.383 0 26.104 18.786 26.104 41.858 0 23.135-11.721 9.334-26.104 9.334-14.415 0-26.104 13.8-26.104-9.334z" fill="#870e0e"/>
    <g fill="#ce5715">
        <path d="M214.812 41.96c1.694-1.804 3.521-3.489 5.333-5.207h-20.638c-1.804 1.725-3.663 3.395-5.372 5.207 5.813 18.29 22.93 31.555 43.158 31.555h20.677c-20.221 0-37.337-13.264-43.158-31.555z"/>
        <path d="M256.166 41.96c1.694-1.796 3.45-3.505 5.23-5.207h-14.344l-11.563 5.207c5.813 18.29 22.93 31.555 43.158 31.555h20.677c-20.229 0-37.337-13.264-43.158-31.555z"/>
    </g>
    <path d="M156.507 278.315h191.11c-.677-3.017-1.481-5.939-2.308-8.862H158.823c-.835 2.923-1.639 5.845-2.316 8.862zm-3.584 23.631h198.278c-.228-3.001-.646-5.923-1.032-8.862H153.955c-.386 2.939-.804 5.861-1.032 8.862zm-.386 23.631h199.05a517.9 517.9 0 0 0 .11-8.862H152.434c.016 3.049.04 6.018.103 8.862zm1.3 23.631h196.45c.268-2.812.496-5.774.685-8.862H153.151c.189 3.088.418 6.05.686 8.862z" fill="#05b8c1"/>
    <g fill="#43a52f">
        <path d="M82.472 290.737h-.567l-7.719 2.079-7.735-2.079h-.567s-3.001 2.276-2.284 4.569l2.568-.725 2.001 3.434 1.142-2.001 1.843 1.284.866-1.568 1.953 1.953.087.331.118-.126.118.126.095-.331 1.946-1.953.851 1.568 1.843-1.284 1.15 2.001 2.001-3.434 2.56.725c.731-2.292-2.27-4.569-2.27-4.569zm-8.46-62.204s2.851-14.407-2.135-30.964c0 0 .709 11.981-.425 16.557-1.15 4.569.559 5.419.992 7.845.418 2.427 1.568 6.562 1.568 6.562z"/>
        <path d="M75.209 230.03s-5.427-3.568-5.569-16.557-3.277-24.678-3.277-24.678 4.128 8.554 4.994 14.557c.843 5.986 1.142 16.4 1.142 16.4l2.001 4.001.709 6.277z"/>
        <path d="M74.508 231.463s-3.852-10.059 1.284-22.048c5.136-11.989 12.414-13.06 12.414-13.06s-10.705 4.923-11.13 20.976c0 0-.851 3.852-1.284 7.058-.425 3.215-1.284 7.074-1.284 7.074z"/>
    </g>
    <path d="M57.431 292.809c6.963 0 13.091-3.505 16.746-8.846 3.655 5.341 9.783 8.846 16.746 8.846 11.193 0 20.685-9.082 20.275-20.267-.748-20.787-26.908-21.417-35.801-44.064-.449-1.15-.851-1.615-1.221-1.575-.378-.039-.78.425-1.221 1.575-8.885 22.646-35.052 23.276-35.801 44.064-.408 11.185 9.076 20.267 20.277 20.267z" fill="#d84a81"/>
    <path d="M74.177 263.704c-13.462 0-25.718-.441-34.848.173-1.26 2.473-2.056 5.309-2.174 8.665-.181 5.215 1.796 9.956 5.081 13.556a84.53 84.53 0 0 0 6.152 1.505c.929.087 1.867.134 2.812.134 9.547 0 17.959-4.805 22.977-12.138 5.01 7.333 13.43 12.138 22.977 12.138.937 0 1.883-.047 2.812-.142a88.872 88.872 0 0 0 6.152-1.505c3.285-3.6 5.27-8.342 5.081-13.556-.126-3.356-.914-6.183-2.174-8.665-9.138-.606-21.386-.165-34.848-.165z" fill="#c63c74"/>
    <g fill="#a82d65">
        <path d="M74.177 275.291c-17.573 0-32.311-1.048-36.273 3.198 1.662 5.679 5.939 10.295 11.414 12.635a62.635 62.635 0 0 0 6.065 1.575c.677.071 1.363.102 2.056.102 6.963 0 13.091-3.505 16.746-8.846 3.655 5.341 9.783 8.846 16.746 8.846.693 0 1.378-.032 2.048-.102a66.624 66.624 0 0 0 6.073-1.568c5.467-2.355 9.752-6.971 11.414-12.642-3.986-4.246-18.723-3.198-36.289-3.198z"/>
        <ellipse cx="74" cy="287" rx="16" ry="8"/>
    </g>
    <g fill="#43a52f">
        <path d="M438.233 290.737h-.559l-7.727 2.079-7.712-2.079h-.583s-3.001 2.276-2.284 4.569l2.568-.725 2.001 3.434 1.142-2.001 1.851 1.284.859-1.568 1.953 1.953.087.331.11-.126.134.126.079-.331 1.953-1.953.859 1.568 1.843-1.284 1.15 2.001 2.001-3.434 2.56.725c.716-2.292-2.285-4.569-2.285-4.569zm-8.452-62.204s2.851-14.407-2.135-30.964c0 0 .709 11.981-.425 16.557-1.15 4.569.559 5.419.992 7.845s1.568 6.562 1.568 6.562z"/>
        <path d="M430.978 230.03s-5.427-3.568-5.569-16.557-3.277-24.678-3.277-24.678 4.135 8.554 4.994 14.557c.851 5.986 1.142 16.4 1.142 16.4l2.001 4.001.709 6.277z"/>
        <path d="M430.277 231.463s-3.86-10.059 1.276-22.048c5.144-11.981 12.422-13.06 12.422-13.06s-10.713 4.923-11.13 20.976c0 0-.851 3.852-1.292 7.058-.425 3.215-1.276 7.074-1.276 7.074z"/>
    </g>
    <path d="M413.2 292.809c6.963 0 13.091-3.505 16.738-8.846 3.663 5.341 9.791 8.846 16.754 8.846 11.193 0 20.677-9.082 20.275-20.267-.748-20.787-26.908-21.417-35.801-44.064-.449-1.15-.851-1.615-1.229-1.575-.362-.039-.772.425-1.213 1.575-8.893 22.646-35.052 23.276-35.801 44.064-.408 11.185 9.076 20.267 20.277 20.267z" fill="#d84a81"/>
    <path d="M429.938 263.704c-13.454 0-25.695-.441-34.84.173-1.268 2.473-2.056 5.309-2.174 8.665-.181 5.215 1.804 9.956 5.081 13.556a83.522 83.522 0 0 0 6.152 1.505c.929.095 1.867.142 2.812.142 9.547 0 17.959-4.805 22.969-12.138 5.018 7.333 13.43 12.138 22.993 12.138.929 0 1.875-.047 2.804-.142a88.872 88.872 0 0 0 6.152-1.505c3.285-3.6 5.27-8.342 5.081-13.556-.126-3.356-.922-6.183-2.174-8.665-9.137-.614-21.386-.173-34.856-.173z" fill="#c63c74"/>
    <g fill="#a82d65">
        <path d="M429.938 275.291c-17.566 0-32.303-1.048-36.265 3.198 1.662 5.679 5.939 10.295 11.414 12.635a62.034 62.034 0 0 0 6.065 1.575c.677.071 1.363.102 2.056.102 6.963 0 13.091-3.505 16.738-8.846 3.663 5.341 9.791 8.846 16.754 8.846.693 0 1.371-.032 2.056-.102a67.031 67.031 0 0 0 6.065-1.568c5.467-2.355 9.752-6.971 11.414-12.642-3.985-4.246-18.723-3.198-36.297-3.198z"/>
        <ellipse cx="430" cy="287" rx="16" ry="8"/>
    </g>
</svg>
