<svg xmlns="http://www.w3.org/2000/svg" viewBox="0 0 496 496">
    <path d="M139.165 353.387c0 19.503-15.817 124.668-35.336 124.668-19.495 0-35.304-105.173-35.304-124.668s15.817-35.32 35.304-35.32c19.519 0 35.336 15.824 35.336 35.32zm118.351 0c0 19.503-15.817 124.668-35.336 124.668-19.495 0-35.304-105.173-35.304-124.668s15.817-35.32 35.304-35.32c19.527 0 35.336 15.824 35.336 35.32z" fill="#6b8c85"/>
    <path d="M262.66 306.716c0 126.33-44.599 84.259-99.643 84.259-55.028 0-99.643 42.071-99.643-84.259 0-72.231 44.631-130.788 99.643-130.788 55.028.007 99.643 58.565 99.643 130.788z" fill="#1c1c1b"/>
    <path d="M143.584 478.693c0 14.935-17.802 16.904-39.739 16.904s-39.739-1.961-39.739-16.904 17.802-35.509 39.739-35.509 39.739 20.566 39.739 35.509z" fill="#113e49"/>
    <path d="M143.584 478.693c0 14.935-17.802 16.904-39.739 16.904s-39.739-1.961-39.739-16.904" fill="#072328"/>
    <path d="M261.935 478.693c0 14.935-17.802 16.904-39.739 16.904s-39.739-1.961-39.739-16.904 17.802-35.509 39.739-35.509 39.739 20.566 39.739 35.509z" fill="#113e49"/>
    <path d="M261.935 478.693c0 14.935-17.802 16.904-39.739 16.904s-39.739-1.961-39.739-16.904" fill="#072328"/>
    <path d="M256.256 283.117c4.742-14.344-9.862-32.02-32.603-39.534-22.709-7.491-138.398-32.713-143.155-18.408-4.71 14.336 103.353 62.818 126.078 70.309 22.709 7.506 44.961 1.961 49.68-12.367z" fill="#eda366"/>
    <ellipse transform="rotate(-24.292 195.275 248.28)" cx="195" cy="248" rx="2" ry="10" fill="#545354"/>
    <path d="M256.004 202.229c-1.056.488-2.308-.008-2.781-1.056l-15.785-34.997a2.1 2.1 0 0 1 1.063-2.765c1.048-.488 2.292-.008 2.773 1.04l15.777 35.013c.481 1.047.008 2.276-1.047 2.765zm31.515 69.915a2.107 2.107 0 0 1-2.773-1.063l-15.785-34.989c-.473-1.056 0-2.3 1.048-2.781 1.063-.48 2.308 0 2.781 1.048l15.785 35.013a2.107 2.107 0 0 1-1.056 2.772z" fill="#ef296b"/>
    <path d="M256.004 202.229c-.347.158-1.016-.575-1.481-1.638l-15.777-34.981c-.473-1.056-.575-2.048-.236-2.19.339-.165 1 .575 1.481 1.623l15.777 34.989c.456 1.054.582 2.039.236 2.197zm31.515 69.915c-.339.142-1-.583-1.489-1.638l-15.77-35.005c-.48-1.048-.567-2.032-.244-2.182.354-.165 1.008.575 1.489 1.631l15.77 34.997c.473 1.039.583 2.024.244 2.197z" fill="#c40033"/>
    <path d="M273.215 220.078c-2.536 1.15-5.522.016-6.68-2.521l-1.032-2.3a5.032 5.032 0 0 1 2.521-6.656l156.058-70.372c2.521-1.142 5.514-.008 6.648 2.521l1.048 2.308c1.142 2.528.016 5.506-2.528 6.656l-156.035 70.364z" fill="#ef296b"/>
    <path d="M272.073 217.589c-2.536 1.142-5.12.906-5.758-.52l-.575-1.308c-.646-1.434.882-3.513 3.419-4.663l156.058-70.372c2.528-1.142 5.112-.89 5.758.528l.591 1.3c.638 1.449-.898 3.521-3.426 4.679l-156.067 70.356z" fill="#c40033"/>
    <path d="M273.672 241.432c-1.575.725-2.402 2.308-3.119.725l-20.819-46.198c-.725-1.567 1.024-1.142 2.599-1.851 1.583-.709 2.402-2.3 3.127-.717l20.819 46.182c.732 1.583-1.024 1.142-2.607 1.859z" fill="#545354"/>
    <path d="M276.279 239.573l-20.819-46.182c-.134-.291-.268-.449-.425-.544-.126.087-.26.165-.41.221a7.372 7.372 0 0 1-1.205.386 6.604 6.604 0 0 1-1.095.654c-.15.071-.291.118-.457.165-.008.165.008.386.15.662l20.819 46.19c.134.291.26.441.417.544.142-.087.268-.165.418-.228a6.89 6.89 0 0 1 1.213-.378 5.524 5.524 0 0 1 1.079-.654c.165-.079.323-.126.465-.173.015-.167 0-.387-.15-.663z" fill="#686768"/>
    <path d="M275.964 240.408c.165-.079.323-.126.465-.173.016-.165 0-.378-.15-.654l-20.819-46.182c-.134-.291-.268-.449-.425-.544-.126.087-.26.165-.41.221-.165.079-.339.11-.496.165-.165.095-.291.189-.449.268a5.569 5.569 0 0 1-.465.181c-.016.165.016.362.142.646l20.827 46.19c.118.276.268.449.41.528.126-.071.276-.15.425-.205.165-.087.331-.118.488-.165.165-.103.291-.213.457-.276zm-40.031-2.662c-2.521 1.142-5.506.016-6.648-2.521l-1.694-3.726a5.039 5.039 0 0 1 2.521-6.664l25.537-11.508c2.536-1.15 5.506-.016 6.656 2.513l1.678 3.734a5.01 5.01 0 0 1-2.513 6.648l-25.537 11.524z" fill="#7c7c7c"/>
    <path d="M235.933 237.746c-2.521 1.142-5.506.016-6.648-2.521l-1.694-3.726a5.039 5.039 0 0 1 2.521-6.664l25.537-11.508c2.536-1.15 5.506-.016 6.656 2.513l1.678 3.734a5.01 5.01 0 0 1-2.513 6.648l-25.537 11.524z" fill="#7c7c7c"/>
    <path d="M230.916 226.6l25.521-11.5a5.025 5.025 0 0 1 6.664 2.505l.898 1.985c0-.016-.016-.016-.016-.016l-1.678-3.734a5.027 5.027 0 0 0-6.656-2.513l-25.537 11.508a5.037 5.037 0 0 0-2.521 6.664l.803 1.757c-1.133-2.544-.015-5.514 2.522-6.656z" fill="#939393"/>
    <path d="M255.657 213.327c2.536-1.15 5.506-.016 6.656 2.513l1.678 3.734a5.01 5.01 0 0 1-2.513 6.648l-25.537 11.524c-2.521 1.142-5.506.016-6.648-2.521" fill="#686768"/>
    <path d="M255.657 213.327c2.536-1.15 5.506-.016 6.656 2.513l1.678 3.734a5.01 5.01 0 0 1-2.513 6.648l-11.768 5.309" fill="#545354"/>
    <path d="M205.536 254.516c-2.544 1.126-5.537.008-6.68-2.528l-3.962-8.791a5.049 5.049 0 0 1 2.513-6.664l15.691-7.066c2.528-1.142 4.482-2.308 10.216-1.851l6.042 13.383c-3.45 4.616-5.608 5.301-8.145 6.443l-15.675 7.074z" fill="#7c7c7c"/>
    <path d="M213.106 229.459c2.528-1.142 4.482-2.308 10.216-1.851l6.042 13.383c-3.45 4.616-5.608 5.301-8.145 6.443l-15.675 7.073c-2.544 1.126-5.537.008-6.68-2.528" fill="#686768"/>
    <path d="M213.106 229.459c2.528-1.142 4.482-2.308 10.216-1.851l6.042 13.383c-3.45 4.616-5.608 5.301-8.145 6.443l-8.806 3.954" fill="#545354"/>
    <path d="M200.928 258.627a1.802 1.802 0 0 1-2.41-.906l-8.153-18.085a1.81 1.81 0 0 1 .906-2.402l3.293-1.481c.922-.417 1.993 0 2.387.906l8.168 18.093a1.799 1.799 0 0 1-.89 2.387l-3.301 1.488z" fill="#7c7c7c"/>
    <path d="M204.229 257.147l-3.3 1.481a1.802 1.802 0 0 1-2.41-.906l-8.153-18.085a1.81 1.81 0 0 1 .906-2.402l3.293-1.481m35.327 5.678a.893.893 0 0 1-1.142-.457l-5.837-12.934a.866.866 0 0 1 .449-1.119l2.135-.961a.846.846 0 0 1 1.126.425l5.821 12.934a.832.832 0 0 1-.433 1.126l-2.119.986z" fill="#686768"/>
    <path d="M233.042 239.998a.844.844 0 0 1-1.126-.425l-5.837-12.942a.843.843 0 0 1 .433-1.126l2.135-.969a.89.89 0 0 1 1.142.433l5.813 12.942a.84.84 0 0 1-.417 1.126l-2.143.961z" fill="#545354"/>
    <path d="M265.086 227.356c-2.529 1.15-5.514.016-6.664-2.505l-3.742-8.326a5.037 5.037 0 0 1 2.505-6.672l3.726-1.686a5.052 5.052 0 0 1 6.672 2.528l3.749 8.31a5.044 5.044 0 0 1-2.505 6.672l-3.741 1.679z" fill="#494948"/>
    <path d="M272.845 222.646a1.458 1.458 0 0 1-1.922-.717l-5.782-12.847c-.331-.725 0-1.583.725-1.89l.441-.197a1.419 1.419 0 0 1 1.883.717l5.805 12.847a1.47 1.47 0 0 1-.733 1.914l-.417.173z" fill="#686768"/>
    <path d="M272.411 217.053l-4.23-9.35a1.419 1.419 0 0 0-1.883-.717l-.441.197c-.725.307-1.055 1.166-.725 1.89l4.214 9.35c.323.733 1.166 1.056 1.906.733l.433-.197a1.44 1.44 0 0 0 .726-1.906z" fill="#7c7c7c"/>
    <path d="M248.19 196.345a1.435 1.435 0 0 1 .717-1.906l5.963-2.678c.717-.323 1.575 0 1.898.717l.189.441a1.414 1.414 0 0 1-.709 1.898l-5.963 2.702a1.44 1.44 0 0 1-1.906-.725l-.189-.449z" fill="#686768"/>
    <path d="M249.655 196.085l5.955-2.694c.536-.236.843-.803.827-1.363a1.426 1.426 0 0 0-1.575-.268l-5.963 2.678a1.5 1.5 0 0 0-.843 1.386c.417.379 1.04.505 1.599.261z" fill="#7c7c7c"/>
    <path d="M269.056 242.622a1.446 1.446 0 0 1 .725-1.906l5.955-2.678c.709-.323 1.568 0 1.906.733l.197.425c.323.74 0 1.575-.74 1.906l-5.955 2.694a1.43 1.43 0 0 1-1.89-.725l-.198-.449z" fill="#686768"/>
    <path d="M270.521 242.369l5.955-2.686c.536-.244.851-.811.835-1.371a1.416 1.416 0 0 0-1.575-.276l-5.955 2.678a1.464 1.464 0 0 0-.851 1.371 1.467 1.467 0 0 0 1.591.284z" fill="#7c7c7c"/>
    <path d="M223.236 238.919c-1.426.638-5.971 1.315-6.624-.126-.63-1.426 2.883-4.403 4.293-5.049 1.434-.63 3.111 0 3.757 1.41a2.85 2.85 0 0 1-1.426 3.765z" fill="#424042"/>
    <circle cx="222" cy="236" r="3" fill="#ef296b"/>
    <path d="M223.07 233.697c1.465.536 2.19 2.182 1.662 3.647a2.846 2.846 0 0 1-3.663 1.646" fill="#dd1b65"/>
    <path d="M263.692 210.87a.418.418 0 0 1-.228.559l-5.49 2.473c-.228.11-.488.016-.567-.197a.426.426 0 0 1 .213-.567l5.506-2.481c.195-.102.455-.008.566.213zm1.236 2.733c.087.228-.008.488-.221.567l-5.506 2.481c-.228.102-.48 0-.559-.221a.405.405 0 0 1 .205-.551l5.506-2.473a.433.433 0 0 1 .575.197zm1.221 2.749c.11.221 0 .48-.213.559l-5.506 2.489c-.221.11-.465 0-.567-.213a.425.425 0 0 1 .213-.567l5.522-2.473c.212-.102.472-.023.551.205zm1.245 2.741c.079.197 0 .465-.221.551l-5.514 2.481a.416.416 0 0 1-.551-.205c-.095-.213-.016-.465.213-.551l5.498-2.489a.434.434 0 0 1 .575.213zm1.236 2.741a.438.438 0 0 1-.213.567l-5.506 2.473c-.213.11-.48 0-.567-.197a.432.432 0 0 1 .213-.567l5.506-2.473a.42.42 0 0 1 .567.197z" fill="#686768"/>
    <path d="M69.762 283.117c-4.742-14.344 9.862-32.02 32.603-39.534 22.709-7.491 138.398-32.713 143.155-18.408 4.71 14.336-103.353 62.818-126.078 70.309-22.71 7.506-44.954 1.961-49.68-12.367z" fill="#f9bd82"/>
    <path d="M207.316 232.043c-.859-3.285-1.449-6.412-1.906-9.452-2.213.268-4.474.551-6.774.859.347 4.506 1.15 9.492 2.528 14.746 1.709 6.498 3.97 12.304 6.412 16.927a449.838 449.838 0 0 0 7.318-4.072c-2.891-4.877-5.608-11.494-7.578-19.008z" fill="#7a4e0e"/>
    <circle cx="202" cy="232" r="14" fill="#38494c"/>
    <circle cx="201" cy="230" r="8" fill="#a3e1ef"/>
    <path d="M241.085 122.254c-.417-.803-.772-1.709-1.079-2.678l.228-.15a.792.792 0 0 0 .788-.796v-2.166a.79.79 0 0 0-.788-.788l-1.229-.622c-.441-2.97-.599-6.176-.693-9.145l.906-.457a.792.792 0 0 0 .788-.796v-4.317c0-.291-1.063-1.15-1.906-1.694-.071-1.189-.173-2.158-.354-2.788-1.095-3.852-5.727-5.419-5.727-5.419l-68.151-16.337v-.41l-.859.205-.843-.205v.41L93.999 90.439s-4.632 1.568-5.711 5.419c-.173.63-.291 1.599-.37 2.788-.827.536-1.906 1.402-1.906 1.694v4.324c0 .441.37.796.803.796l.906.457c-.095 2.97-.252 6.176-.709 9.145l-1.213.622a.785.785 0 0 0-.788.788v2.166c0 .441.347.796.788.796l.228.15c-.307.969-.662 1.875-1.087 2.678-3.852 7.192-12.808 25.513-9.657 39.889 3.151 14.383 20.094 45.71 37.234 44.505 16.825-1.15 35.659-10.453 50.491-11.043 14.848.591 33.69 9.893 50.507 11.043 17.14 1.197 34.076-30.121 37.218-44.505 3.168-14.383-5.796-32.705-9.648-39.897z" fill="#f9f9f9"/>
    <path d="M240.014 119.576l.228-.15a.792.792 0 0 0 .788-.796v-2.166a.79.79 0 0 0-.788-.788l-1.229-.622c-.441-2.97-.599-6.176-.693-9.145l.906-.457a.792.792 0 0 0 .788-.796v-4.317c0-.291-1.063-1.15-1.906-1.694-.071-1.189-.173-2.158-.354-2.788-1.095-3.852-5.727-5.419-5.727-5.419l-68.151-16.337v-.41l-.859.205-.032-.008v121.714h.032c14.848.591 33.69 9.893 50.507 11.043 17.14 1.197 34.076-30.121 37.218-44.505 3.167-14.375-5.797-32.697-9.649-39.889-.418-.8-.772-1.706-1.079-2.675z" fill="#e7f2f2"/>
    <path d="M226.906 122.152l-6.089-11.422-33.879-14.769-23.922 25.781-23.906-25.781-33.887 14.769-6.105 11.422-2.458 14.667s17.282 22.583 20.181 24.923c3.805 3.096 3.734 6.105 17.337-6.089 12.052-10.847 21.473-17.337 27.719-17.967v.032c.354-.055.725-.095 1.111-.095s.772.039 1.126.095v-.032c6.231.63 15.659 7.121 27.711 17.967 13.603 12.201 13.525 9.184 17.337 6.089 2.891-2.339 20.189-24.923 20.189-24.923l-2.465-14.667z" fill="#1c1c1b"/>
    <path d="M238.997 57.656l-1.851-6.845c-.134-.41-.559-.662-.977-.544l-1.032-.37c-1.41-4.844-2.71-8.121-2.71-8.121-6.152-12.351-14.368-21.063-23.032-27.199l-.614-1.938a.798.798 0 0 0-.37-1.048l-8.153-3.954a.793.793 0 0 0-1.048.37l-.646.197C181.81.146 166.04-.043 163.008.004c-3.017-.047-18.786.142-35.541 8.2l-.638-.197a.808.808 0 0 0-1.056-.37l-8.168 3.954a.783.783 0 0 0-.354 1.048l-.607 1.938c-8.665 6.136-16.896 14.848-23.04 27.199 0 0-1.292 3.277-2.718 8.121l-1.032.37c-.417-.118-.827.142-.961.544l-1.867 6.845a.798.798 0 0 0 .559.969l.882 1.378c-1.063 5.829-1.599 12.138-.567 17.424 2.757 14.194 21.063-3.537 21.063-3.537l45.71-2.363 8.342-1.489 8.357 1.489 45.71 2.363s18.306 17.731 21.063 3.537c1.032-5.285.488-11.595-.567-17.424l.882-1.378a.792.792 0 0 0 .537-.969z" fill="#f9f9f9"/>
    <path d="M237.138 50.811c-.134-.41-.559-.662-.977-.544l-1.032-.37c-1.41-4.844-2.71-8.121-2.71-8.121-6.152-12.351-14.368-21.063-23.032-27.199l-.614-1.938a.798.798 0 0 0-.37-1.048l-8.153-3.954a.793.793 0 0 0-1.048.37l-.638.197C181.81.146 166.04-.043 163.008.004h-.032v70.049l.032-.016 8.357 1.489 45.71 2.363s18.306 17.731 21.063 3.537c1.032-5.285.488-11.595-.567-17.424l.882-1.378a.782.782 0 0 0 .544-.969l-1.859-6.844z" fill="#e7f2f2"/>
    <path d="M251.396 155.014c-.725 2.339-2.788 7.01-4.726 10.736-3.411 6.632-16.738 30.594-26.994 25.088-9.657-5.207-43.394-31.429-56.667-30.421-13.265-1.008-47.002 25.214-56.667 30.421-10.24 5.506-23.568-18.456-26.994-25.088-1.922-3.734-3.986-8.397-4.71-10.736-.063 2.442.142 4.821.646 7.129 3.151 14.383 20.094 45.71 37.234 44.505 16.825-1.15 35.659-10.453 50.491-11.043 14.848.591 33.69 9.893 50.507 11.043 17.14 1.197 34.076-30.121 37.218-44.505.512-2.308.701-4.695.662-7.129z" fill="#cde0df"/>
    <path d="M246.67 165.751c-3.411 6.632-16.738 30.594-26.994 25.088-9.657-5.207-43.394-31.429-56.667-30.421h-.032v35.194h.032c14.848.591 33.69 9.893 50.507 11.043 17.14 1.197 34.076-30.121 37.218-44.505.504-2.308.701-4.695.662-7.129-.725 2.333-2.789 6.996-4.726 10.73z" fill="#bad1cf"/>
    <path d="M97.63 89.573c1.946 4.064 4.569 9.799 4.726 11.169.181 1.875.095 2.859-2.371 5.419-2.473 2.568-7.389 7.491-7.389 7.491s-1.575 1.969-1.182 3.647c.394 1.678 2.662 11.815 2.662 11.815s1.969 3.466 2.749 3.371c.796-.095 2.962-1.993 4.829-4.647 1.867-2.662 1.575-12.414 3.647-16.156 2.072-3.749 3.639-4.135 10.547-6.703 6.877-2.56 12.603-5.908 19.692-13.493 7.089-7.593 15.557-14.769 26.293-16.156v-1.15L97.63 89.573z" fill="#ddeded"/>
    <g fill="#cde0df">
        <path d="M228.395 89.573c-1.93 4.064-4.553 9.799-4.695 11.169-.197 1.875-.11 2.859 2.355 5.419 2.458 2.568 7.389 7.491 7.389 7.491s1.575 1.969 1.182 3.647c-.394 1.678-2.67 11.815-2.67 11.815s-1.946 3.466-2.749 3.371c-.796-.095-2.954-1.993-4.821-4.647-1.875-2.662-1.575-12.414-3.655-16.156-2.064-3.749-3.647-4.135-10.539-6.703s-12.603-5.908-19.692-13.493c-7.089-7.593-15.557-14.769-26.309-16.156v-1.15l64.204 15.393z"/>
        <path d="M193.272 64.115c-10.894-1.292-21.228-3.143-30.263-2.584-9.019-.559-19.354 1.292-30.247 2.584-18.306 2.135-34.43 6.648-45.095 12.02.063.441.142.866.228 1.292 2.757 14.194 21.063-3.537 21.063-3.537l45.71-2.363 8.342-1.489 8.357 1.489 45.71 2.363s18.306 17.731 21.063 3.537c.095-.425.165-.851.228-1.292-10.682-5.38-26.79-9.886-45.096-12.02z"/>
    </g>
    <path d="M163.009 61.531h-.032v8.523l.032-.016 8.357 1.489 45.71 2.363s18.306 17.731 21.063 3.537c.095-.425.165-.851.228-1.292-10.673-5.38-26.782-9.886-45.095-12.02-10.894-1.292-21.228-3.151-30.263-2.584z" fill="#bad1cf"/>
    <path d="M163.009 67.974c-4.419-.095-53.303-.819-74.72 10.839 0 0 .189 7.302 1.969 7.302 1.694 0 67.576-6.191 72.751-6.688 5.191.488 71.066 6.688 72.767 6.688 1.772 0 1.969-7.302 1.969-7.302-21.425-11.658-70.317-10.933-74.736-10.839z" fill="#7c7c7c"/>
    <path d="M163.009 67.974h-.032v11.469l.032-.016c5.191.488 71.066 6.688 72.767 6.688 1.772 0 1.969-7.302 1.969-7.302-21.425-11.658-70.317-10.933-74.736-10.839z" fill="#666663"/>
    <path d="M83.058 172.399c-1.52-2.261-2.725-4.23-3.403-5.561a120.525 120.525 0 0 1-2.844-5.939c-.488 7.633 14.927 28.491 15.998 29.412 1.063.89 3.442.134 5.081-.37-5.608-3.435-11.122-11.367-14.832-17.542z" fill="#ddeded"/>
    <path d="M79.348 165.751a129.666 129.666 0 0 1-2.844-5.955c-.48 7.656 14.935 28.514 16.014 29.436 1.229 1.032 2.859.52 4.427.087-7.751-5.451-15.163-18.858-17.597-23.568z" fill="#1c1c1b"/>
    <path d="M95.984 159.386l-1-1.473s4.08-2.418 6.798-2.521l-.197 1.694s-1.725.276-3.056.914c-1.332.646-2.545 1.386-2.545 1.386zm-2.308-3.159l-.985-1.473s4.096-2.426 6.798-2.505l-.197 1.678s-1.725.291-3.064.929c-1.331.639-2.552 1.371-2.552 1.371zm-2.308-3.15l-.969-1.473s4.08-2.418 6.782-2.505l-.197 1.662s-1.725.307-3.056.945c-1.323.63-2.56 1.371-2.56 1.371zm-2.284-3.159l-.985-1.473s4.088-2.41 6.79-2.505l-.197 1.67s-1.725.299-3.056.929c-1.331.646-2.552 1.379-2.552 1.379zm-2.3-3.135l-.985-1.481s4.096-2.418 6.798-2.505l-.197 1.67s-1.741.299-3.048.929c-1.339.647-2.568 1.387-2.568 1.387zm-2.308-3.159l-.985-1.481s4.096-2.418 6.798-2.505l-.189 1.678s-1.717.291-3.064.937a33.368 33.368 0 0 0-2.56 1.371zm-2.308-3.158l-.969-1.481s4.096-2.402 6.798-2.505l-.197 1.686s-1.725.291-3.064.929c-1.316.63-2.568 1.371-2.568 1.371z" fill="#ddeded"/>
    <path d="M224.748 112.203c-2.458-2.56-2.56-3.552-2.371-5.419.197-1.875 5.018-11.934 6.396-14.675 1.371-2.757 4.135-1.583 4.135-1.583-.488-3.048.89-4.624.89-4.624l-1.985-1.473c-16.542-8.704-64.827-9.137-68.679-9.161h-.268c-3.828.032-52.129.457-68.671 9.169l-1.969 1.473s1.378 1.575.882 4.624c0 0 2.765-1.166 4.128 1.583 1.386 2.749 6.207 12.8 6.412 14.675.181 1.859.087 2.851-2.371 5.419-2.473 2.552-7.381 7.475-7.381 7.475s-1.591 1.977-1.189 3.647c.394 1.678 2.662 11.831 2.662 11.831s1.969 3.466 2.741 3.371c.803-.11 2.977-1.993 4.844-4.647 1.859-2.67 1.583-12.414 3.647-16.163 2.064-3.749 3.647-4.135 10.531-6.711 6.9-2.544 12.619-5.9 19.7-13.485 7.073-7.554 15.502-14.706 26.167-16.14 10.673 1.434 19.109 8.586 26.175 16.14 7.089 7.585 12.808 10.941 19.7 13.485 6.892 2.568 8.476 2.962 10.539 6.711 2.064 3.749 1.772 13.493 3.647 16.163 1.867 2.655 4.041 4.537 4.829 4.647.788.102 2.757-3.371 2.757-3.371s2.261-10.153 2.662-11.831c.402-1.67-1.182-3.647-1.182-3.647s-4.912-4.931-7.378-7.483z" fill="#494948"/>
    <path d="M231.829 84.437c-16.542-8.704-64.827-9.137-68.679-9.161h-.174v6.128l.032-.016c10.673 1.434 19.109 8.586 26.175 16.14 7.089 7.585 12.808 10.941 19.7 13.485 6.892 2.568 8.476 2.962 10.539 6.711 2.064 3.749 1.772 13.493 3.647 16.163 1.867 2.655 4.041 4.537 4.829 4.647.788.102 2.757-3.371 2.757-3.371s2.261-10.153 2.662-11.831c.402-1.67-1.182-3.647-1.182-3.647s-4.923-4.923-7.389-7.475c-2.458-2.56-2.56-3.552-2.371-5.419.197-1.875 5.018-11.934 6.396-14.675 1.371-2.757 4.135-1.583 4.135-1.583-.488-3.048.89-4.624.89-4.624l-1.967-1.472z" fill="#383836"/>
    <path d="M92.92 87.265c.725.181 1.481.654 2.016 1.741.181.394.449.906.756 1.512.567.252 1.134.733 1.552 1.591 1.386 2.749 6.207 12.8 6.412 14.675.181 1.859.087 2.851-2.371 5.419-2.473 2.552-7.381 7.475-7.381 7.475s-1.591 1.977-1.189 3.647c.394 1.678 2.662 11.831 2.662 11.831s.032.047.079.142c.142.087.26.142.37.126.788-.102 2.946-1.985 4.813-4.647 1.875-2.662 1.725-10.784 3.797-14.525 2.072-3.757 6.049-3.151 12.942-5.734 6.892-2.552 11.981-5.608 19.078-13.194 7.089-7.585 13.635-17.676 24.379-19.062" fill="#5e5e5e"/>
    <path d="M97.851 122.884c-.315.922-1.252 2.135-1.946 1.89-.685-.228-.89-1.827-.544-2.765.299-.929 1.15-1.481 1.835-1.237.686.246.986 1.183.655 2.112z" fill="#6b6b6b"/>
    <path d="M97.851 122.884c-.315.922-1.134 1.489-1.827 1.237-.701-.236-1.008-1.174-.662-2.111.299-.929 1.15-1.481 1.835-1.237.685.245.985 1.182.654 2.111z" fill="#1c1c1b"/>
    <path d="M99.993 119.576c-.205.614-.835 1.418-1.308 1.26-.449-.165-.567-1.237-.354-1.843.213-.63.772-.985 1.221-.827.457.158.678.788.441 1.41z" fill="#6b6b6b"/>
    <ellipse transform="rotate(-70.616 99.16 119.282)" cx="99" cy="119" rx="1" ry="1" fill="#1c1c1b"/>
    <path d="M242.967 172.399c1.536-2.261 2.741-4.23 3.419-5.561.969-1.89 1.985-4.001 2.844-5.939.488 7.633-14.935 28.491-16.014 29.412-1.048.89-3.434.134-5.065-.37 5.6-3.435 11.122-11.367 14.816-17.542z" fill="#e7f2f2"/>
    <path d="M246.67 165.751a102.882 102.882 0 0 0 2.828-5.955c.504 7.656-14.927 28.514-15.982 29.436-1.237 1.032-2.859.52-4.427.087 7.75-5.451 15.17-18.858 17.581-23.568z" fill="#1c1c1b"/>
    <path d="M230.057 159.386l1-1.481s-4.104-2.418-6.798-2.521l.181 1.694s1.725.276 3.064.914a39.883 39.883 0 0 1 2.553 1.394zm2.308-3.159l.985-1.473s-4.096-2.426-6.798-2.505l.197 1.678s1.725.291 3.048.929a36.071 36.071 0 0 1 2.568 1.371zm2.292-3.15l.985-1.473s-4.096-2.418-6.798-2.505l.197 1.662s1.741.307 3.064.945a33.698 33.698 0 0 1 2.552 1.371zm2.3-3.159l.985-1.473s-4.088-2.41-6.798-2.505l.197 1.67s1.717.299 3.056.929c1.339.646 2.56 1.379 2.56 1.379zm2.3-3.135l.985-1.481s-4.096-2.418-6.798-2.505l.197 1.67s1.725.299 3.048.929c1.34.647 2.568 1.387 2.568 1.387zm2.293-3.159l.985-1.481s-4.088-2.418-6.79-2.505l.205 1.678s1.709.291 3.048.937a34.116 34.116 0 0 1 2.552 1.371zm2.307-3.158l.985-1.481s-4.096-2.402-6.798-2.505l.197 1.686s1.733.291 3.048.929a33.814 33.814 0 0 1 2.568 1.371z" fill="#cde0df"/>
    <path d="M163.009 67.974c-4.419-.095-53.303-.819-74.72 10.839 0 0 .032 1.008.158 2.284 21.079-11.327 68.198-10.878 74.264-10.76v.016s.11 0 .307-.016c.213.016.323.016.323.016v-.016c6.049-.118 53.185-.567 74.264 10.76.126-1.276.158-2.284.158-2.284-21.443-11.658-70.335-10.933-74.754-10.839z" fill="#5e5e5e"/>
    <path d="M163.009 67.974h-.032v2.363h.032c.213.016.323.016.323.016v-.016c6.049-.118 53.185-.567 74.264 10.76.126-1.276.158-2.284.158-2.284-21.434-11.658-70.326-10.933-74.745-10.839z" fill="#494947"/>
    <path d="M233.121 87.265c-.725.181-1.481.654-2.016 1.741-.181.394-.465.906-.756 1.512-.567.252-1.142.733-1.568 1.591-1.386 2.749-6.199 12.8-6.396 14.675-.189 1.859-.087 2.851 2.371 5.419 2.458 2.552 7.389 7.475 7.389 7.475s1.583 1.977 1.182 3.647c-.402 1.678-2.662 11.831-2.662 11.831s-.031.047-.079.142c-.142.087-.26.142-.37.126-.788-.102-2.946-1.985-4.829-4.647-1.859-2.662-1.709-10.784-3.781-14.525-2.072-3.757-6.049-3.151-12.942-5.734-6.892-2.552-11.981-5.608-19.078-13.194-7.097-7.585-13.635-17.676-24.387-19.062" fill="#494948"/>
    <path d="M225.244 83.744c-.693.788-1.678-.102-1.678-.102-30.358-7.869-58.478-6.711-60.558-6.609-2.064-.102-30.2-1.26-60.55 6.609 0 0-.985.882-1.67.102-.693-.788-3.639.583-3.639.583s.764 8.381 4.395 15.699c3.616 7.255 6.829 8.791 14.462 7.68 8.956-1.315 15.321-8.097 22.796-14.706 7.452-6.577 14.226-11.579 24.206-11.626 9.988.047 16.754 5.049 24.198 11.626 7.475 6.609 13.863 13.391 22.812 14.706 7.633 1.119 10.847-.425 14.454-7.68 3.631-7.318 4.403-15.699 4.403-15.699s-2.945-1.371-3.631-.583z" fill="#383836"/>
    <path d="M225.244 83.744c-.693.788-1.678-.102-1.678-.102-30.358-7.869-58.478-6.711-60.558-6.609h-.016l-.016 4.356.032-.016c9.988.047 16.754 5.049 24.198 11.626 7.475 6.609 13.863 13.391 22.812 14.706 7.633 1.119 10.847-.425 14.454-7.68 3.631-7.318 4.403-15.699 4.403-15.699s-2.945-1.37-3.631-.582z" fill="#262624"/>
    <path d="M225.244 83.744c-.693.788-1.678-.102-1.678-.102-30.358-7.869-58.478-6.711-60.558-6.609-2.064-.102-30.2-1.26-60.55 6.609 0 0-.985.882-1.67.102-.063-.079-.126-.11-.213-.158.386 2.71 1.489 8.791 4.222 14.273 3.608 7.255 6.821 8.799 14.446 7.688 3.19-.48 6.042-1.631 8.743-3.23 3.631-2.686 7.073-6.018 10.807-9.318 3.237-2.851 6.365-5.419 9.681-7.404 4.411-3.206 8.988-5.506 14.533-6.183 5.553.677 10.122 2.977 14.541 6.183 3.308 1.985 6.428 4.553 9.665 7.404 3.742 3.3 7.2 6.632 10.831 9.318 2.71 1.599 5.553 2.757 8.743 3.23 7.609 1.119 10.831-.433 14.454-7.688 2.71-5.474 3.812-11.563 4.214-14.273-.093.048-.163.079-.211.158z" fill="#1c1c1b"/>
    <path d="M223.567 83.642c-30.358-7.869-58.478-6.711-60.558-6.609h-.016l-.016 2.387.032-.016c5.553.677 10.122 2.977 14.541 6.183 3.308 1.985 6.428 4.553 9.665 7.404 3.742 3.3 7.2 6.632 10.831 9.318 2.71 1.599 5.553 2.757 8.743 3.23 7.609 1.119 10.831-.433 14.454-7.688 2.71-5.474 3.812-11.563 4.214-14.273-.095.047-.165.079-.213.158-.693.788-1.677-.094-1.677-.094z"/>
    <path d="M216.532 117.82c-.394-3.151-2.631-3.805-2.631-3.805l-5.112-2.371c-11.689-4.734-19.598-14.115-19.598-14.115-14.423-14.911-24.025-15.628-26.175-15.588-2.135-.047-11.737.677-26.167 15.588 0 0-7.916 9.381-19.59 14.115l-5.112 2.371s-2.245.654-2.631 3.805c-.402 3.151-3.552 12.737-.142 17.589 3.411 4.852 11.461 15.344 13.281 16.943 2.473 2.198 5.506 3.143 10.752-2.891 5.167-5.931 21.205-23.513 29.617-23.773 8.42.252 24.458 17.841 29.625 23.773 5.246 6.042 8.287 5.088 10.768 2.891 1.804-1.599 9.846-12.091 13.273-16.943 3.387-4.852.244-14.439-.158-17.589z" fill="#cde0df"/>
    <path d="M213.902 114.015l-5.112-2.371c-11.689-4.734-19.598-14.115-19.598-14.115-14.423-14.911-24.025-15.628-26.175-15.588h-.032v43.756h.032c8.42.252 24.458 17.841 29.625 23.773 5.246 6.042 8.287 5.088 10.768 2.891 1.804-1.599 9.846-12.091 13.273-16.943 3.411-4.852.26-14.438-.142-17.589-.402-3.16-2.639-3.814-2.639-3.814z" fill="#bad1cf"/>
    <path d="M216.532 117.82c-.394-3.151-2.631-3.805-2.631-3.805l-5.112-2.371c-10.335-3.174-19.598-14.115-19.598-14.115-14.423-14.911-24.025-16.289-26.175-16.242-2.135-.047-11.737 1.339-26.167 16.242 0 0-9.263 10.941-19.59 14.115l-5.112 2.371s-2.245.654-2.631 3.805c-.402 3.151-3.552 12.737-.142 17.589 2.229 3.174 6.412 8.728 9.563 12.65.221.228.41.425.551.536 2.481 2.213 5.514 3.151 10.768-2.875 5.057-5.821 24.025-25.836 32.76-26.892 8.751 1.056 27.711 21.071 32.768 26.892 5.262 6.034 8.279 5.088 10.768 2.875.142-.118.339-.307.551-.536 3.151-3.923 7.341-9.476 9.57-12.65 3.404-4.852.261-14.439-.141-17.589z" fill="#f9f9f9"/>
    <path d="M213.902 114.015l-5.112-2.371c-10.335-3.174-19.598-14.115-19.598-14.115-14.423-14.911-24.025-15.628-26.175-15.588h-.032v36.911l.032-.016c8.751 1.056 27.711 21.071 32.768 26.892 5.262 6.034 8.279 5.088 10.768 2.875.142-.118.339-.307.551-.536 3.151-3.923 7.341-9.476 9.57-12.65 3.411-4.852.26-14.438-.142-17.589-.393-3.159-2.63-3.813-2.63-3.813z" fill="#e7f2f2"/>
    <path d="M228.167 122.884c.339.922 1.276 2.135 1.969 1.89.701-.228.859-1.827.544-2.765-.315-.937-1.15-1.481-1.835-1.237-.686.246-.986 1.183-.678 2.112z" fill="#6b6b6b"/>
    <ellipse transform="rotate(70.938 229.406 122.442)" cx="229" cy="122" rx="2" ry="1" fill="#1c1c1b"/>
    <path d="M226.024 119.576c.213.614.843 1.418 1.308 1.26.465-.165.583-1.237.37-1.843-.213-.63-.772-.985-1.229-.827-.465.158-.662.788-.449 1.41z" fill="#6b6b6b"/>
    <ellipse transform="rotate(70.781 226.844 119.27)" cx="227" cy="119" rx="1" ry="1" fill="#1c1c1b"/>
    <path d="M226.197 190.933c-2.032 2.56-11.618.528-17.51-4.112-5.908-4.647-5.892-10.169-3.852-12.737 2.024-2.568 8.436-.874 14.344 3.773 5.892 4.656 9.051 10.508 7.018 13.076z" fill="#6d918c"/>
    <path d="M204.835 174.084c-2.04 2.568-2.056 8.09 3.852 12.737 5.892 4.647 15.478 6.68 17.51 4.112" fill="#50726c"/>
    <path d="M222.267 188.57c-1.347 1.709-7.704.354-11.634-2.741s-3.899-6.751-2.568-8.46c1.347-1.709 5.624-.583 9.531 2.505 3.923 3.103 6.018 6.995 4.671 8.696z" fill="#3a544f"/>
    <path d="M222.267 188.57c-1.347 1.709-7.704.354-11.634-2.741s-3.899-6.751-2.568-8.46" fill="#314c47"/>
    <path d="M208.348 168.996s20.645-31.673 22.229-33.697c0 0-13.123 34.477-17.447 34.627-4.324.15-7.263 2.001-7.263 2.001l2.481-2.931z" fill="#f9f9f9"/>
</svg>
