<svg xmlns="http://www.w3.org/2000/svg" viewBox="0 0 504 504">
    <path d="M282.799 361.913c0 19.503-15.817 124.668-35.336 124.668-19.495 0-35.304-105.173-35.304-124.668 0-19.495 15.817-35.32 35.304-35.32 19.527 0 35.336 15.825 35.336 35.32zm118.359 0c0 19.503-15.817 124.668-35.336 124.668-19.495 0-35.304-105.173-35.304-124.668 0-19.495 15.817-35.32 35.304-35.32 19.519 0 35.336 15.825 35.336 35.32z" fill="#0665c4"/>
    <g fill="#bf1770">
        <path d="M406.293 315.242c0 126.33-44.599 84.259-99.643 84.259-55.028 0-99.643 42.071-99.643-84.259 0-72.231 44.631-130.781 99.643-130.781 55.028.009 99.643 58.558 99.643 130.781z"/>
        <path d="M341.002 214.315c11.28-10.027 33.311-3.663 49.231 14.218 15.896 17.881 85.016 114.018 73.767 124.062-11.296 10.012-98.721-69.892-114.617-87.773-15.888-17.857-19.645-40.479-8.381-50.507z"/>
    </g>
    <path d="M306.65 348.31c-49.554 0-90.64 34.036-98.336-51.389-.843 5.104-1.308 11.138-1.308 18.33 0 126.33 44.615 84.259 99.643 84.259 55.044 0 99.643 42.071 99.643-84.259 0-7.192-.465-13.225-1.308-18.33-7.686 85.425-48.764 51.389-98.334 51.389z" fill="#990b5c"/>
    <path d="M287.218 487.219c0 14.935-17.802 16.904-39.739 16.904s-39.739-1.961-39.739-16.904 17.802-35.509 39.739-35.509 39.739 20.567 39.739 35.509z" fill="#0dceae"/>
    <path d="M287.218 487.219c0 14.935-17.802 16.904-39.739 16.904s-39.739-1.961-39.739-16.904" fill="#08b5b0"/>
    <path d="M405.569 487.219c0 14.935-17.802 16.904-39.739 16.904s-39.739-1.961-39.739-16.904 17.802-35.509 39.739-35.509 39.739 20.567 39.739 35.509z" fill="#0dceae"/>
    <path d="M405.569 487.219c0 14.935-17.802 16.904-39.739 16.904s-39.739-1.961-39.739-16.904" fill="#08b5b0"/>
    <path d="M317.119 231.219c-.89-15.061-20.968-26.136-44.859-24.757-23.883 1.402-140.737 20.512-139.902 35.564.906 15.069 119.241 20.385 143.108 18.983 23.867-1.393 42.511-14.729 41.653-29.79z" fill="#bf1770"/>
    <circle cx="307" cy="211" r="27" fill="#a56b44"/>
    <path d="M435.603 124.258c0 63.008-57.738 94.681-128.937 94.681-71.215 0-128.969-31.673-128.969-94.681C177.697 61.235 235.451 0 306.666 0c71.2 0 128.937 61.235 128.937 124.258z" fill="#c48960"/>
    <path d="M435.603 124.258c0 63.008-57.738 94.681-128.937 94.681-71.215 0-128.969-31.673-128.969-94.681" fill="#bc8158"/>
    <circle cx="220" cy="89" r="12" fill="#113e49"/>
    <path d="M231.473 89.269c0 6.388-5.167 11.54-11.548 11.54-6.365 0-11.516-5.152-11.516-11.54"/>
    <path d="M242.69 113.325a2.39 2.39 0 0 1-1.725-.717c-5.632-5.624-13.107-8.72-21.055-8.72h-.008c-7.94 0-15.399 3.104-21.008 8.712-.945.953-2.481.977-3.426.008a2.4 2.4 0 0 1-.031-3.419c6.538-6.546 15.218-10.161 24.458-10.161h.008c9.271 0 17.959 3.592 24.513 10.145.937.937.937 2.505 0 3.434-.466.49-1.08.718-1.726.718z" fill="#e5a376"/>
    <circle cx="343" cy="89" r="12" fill="#113e49"/>
    <path d="M331.053 89.269c0 6.388 5.152 11.54 11.54 11.54 6.372 0 11.524-5.152 11.524-11.54"/>
    <path d="M319.836 113.325a2.34 2.34 0 0 0 1.709-.717c5.64-5.624 13.123-8.72 21.055-8.72h.016a29.546 29.546 0 0 1 21.016 8.712 2.405 2.405 0 0 0 3.434.008c.945-.922.961-2.458.008-3.419-6.498-6.546-15.21-10.161-24.45-10.161h-.016c-9.24 0-17.944 3.592-24.505 10.145-.922.937-.922 2.505 0 3.434.473.49 1.087.718 1.733.718z" fill="#e5a376"/>
    <path d="M306.666 0c-31.965 0-61.156 12.39-83.692 31.681L269.4 78.108l47.75-47.75 69.411 19.527v46.931l10.335 10.335 9.846-9.846s-.488-19.204 10.335-27.081c1.032-.748 2.245-1.237 3.521-1.591C398.952 29.515 356.078 0 306.666 0z" fill="#604b1d"/>
    <ellipse cx="275" cy="133" rx="30" ry="19" fill="#700909"/>
    <path d="M252.685 144.904c5.498 3.891 13.47 6.396 22.457 6.396 8.988 0 16.951-2.505 22.457-6.396-5.498-3.891-13.47-6.396-22.457-6.396s-16.958 2.497-22.457 6.396z" fill="#a11"/>
    <path d="M302.113 283.144c-15.431 0-27.939 12.036-27.939 26.892 0 14.218 11.477 16.085 25.994 16.219.638.016 1.284.016 1.946.016.662 0 1.308 0 1.953-.016 14.509-.134 25.986-2.001 25.986-16.219-.008-14.848-12.517-26.892-27.94-26.892zm0-5.798c4.183 0 7.57-.701 7.57-8.279 0-7.57-3.387-13.706-7.57-13.706-4.175 0-7.57 6.136-7.57 13.706 0 7.578 3.388 8.279 7.57 8.279zm-18.967 8.137c3.537-1.764 6.112-3.781 2.93-10.201-3.198-6.412-8.649-10.185-12.186-8.428-3.552 1.764-3.828 8.381-.646 14.801 3.198 6.42 6.357 5.585 9.902 3.828zm47.182-18.629c-3.537-1.757-8.995 2.016-12.186 8.428-3.182 6.412-.607 8.436 2.93 10.201 3.545 1.757 6.711 2.591 9.901-3.828 3.183-6.42 2.892-13.036-.645-14.801z" fill="#990b5c"/>
    <path d="M39.434 306.806l21.157-21.173a1.866 1.866 0 0 1 1.922-.433c.677.236 1.15.827 1.229 1.536l1.378 12.39 18.196 13.824 15.659-27.12a9.251 9.251 0 0 1 8.011-4.632h45.655l.614-.354v-25.001l-21.646-12.501-24.434 14.1a5.542 5.542 0 0 1-7.57-2.032 5.534 5.534 0 0 1 2.032-7.578l27.183-15.699a5.553 5.553 0 0 1 5.553 0l27.199 15.699a5.527 5.527 0 0 1 2.781 4.805v31.397c0 .543-.11 1.087-.252 1.591.032.071.11.118.142.189l24.631 42.646a9.275 9.275 0 0 1 0 9.247l-24.631 42.661a9.259 9.259 0 0 1-8.003 4.616h-49.254a9.251 9.251 0 0 1-8.011-4.616l-24.34-42.157-20.338-26.75-13.753-1.536a1.823 1.823 0 0 1-1.536-1.229c-.252-.653-.071-1.394.426-1.89z" fill="#ff9100"/>
    <path d="M39.434 306.806l21.157-21.173a1.866 1.866 0 0 1 1.922-.433c.677.236 1.15.827 1.229 1.536l1.378 12.39 12.012 24.269 21.835-37.573a9.251 9.251 0 0 1 8.011-4.632h45.655l.614-.354v-25.001l-21.646-12.501-24.434 14.1a5.542 5.542 0 0 1-7.57-2.032 5.534 5.534 0 0 1 2.032-7.578l27.183-15.699a5.553 5.553 0 0 1 5.553 0l27.199 15.699a5.527 5.527 0 0 1 2.781 4.805v31.397c0 .543-.11 1.087-.252 1.591.032.071.11.118.142.189l24.631 42.646a9.275 9.275 0 0 1 0 9.247l-24.631 42.661a9.259 9.259 0 0 1-8.003 4.616h-49.254a9.251 9.251 0 0 1-8.011-4.616l-24.34-42.157-20.338-26.75-13.753-1.536A1.823 1.823 0 0 1 39 308.688c-.244-.645-.063-1.386.434-1.882z" fill="#ff6d00"/>
    <path d="M176.744 358.731l-75.508-75.508a9.246 9.246 0 0 1 5.742-2.017h45.655l.614-.354V255.85l-21.646-12.501-24.434 14.1a5.542 5.542 0 0 1-7.57-2.032 5.534 5.534 0 0 1 2.032-7.578l27.183-15.699a5.553 5.553 0 0 1 5.553 0l25.584 14.761 4.135 4.128c.158.52.252 1.055.252 1.615v31.397c0 .543-.11 1.087-.252 1.591.032.071.11.118.142.189l24.631 42.646a9.275 9.275 0 0 1 0 9.247l-12.113 21.017z" fill="#ff9100"/>
    <path d="M153.247 255.85l-21.646-12.501-24.434 14.1a5.542 5.542 0 0 1-7.57-2.032 5.534 5.534 0 0 1 2.032-7.578l27.183-15.699a5.553 5.553 0 0 1 5.553 0l25.584 14.761 4.135 2.143c.158.512.252 3.041.252 3.6v31.397c0 .543-.11 1.087-.252 1.591.032.071.11.118.142.189l24.631 42.646a9.275 9.275 0 0 1 0 9.247l-12.123 21" fill="#fa0"/>
    <path d="M105.726 282.9c0 4.703 12.091 3.277 27.002 3.277 14.927 0 27.002 1.426 27.002-3.277s-12.075-8.507-27.002-8.507c-14.911 0-27.002 3.804-27.002 8.507z" fill="#ff6d00"/>
    <path d="M132.728 282.766c-12.91 0-23.694 1.071-26.356-1.701 2.662-3.812 13.446-6.68 26.356-6.68 12.926 0 23.71 2.859 26.372 6.68-2.671 2.772-13.454 1.701-26.372 1.701z" fill="#ff9100"/>
    <path d="M123.236 271.699c0 2.93 2.387 5.301 5.309 5.301h8.381a5.298 5.298 0 0 0 0-10.594h-8.381c-2.93-.001-5.309 2.37-5.309 5.293z" fill="#082856"/>
    <path d="M128.537 266.405h8.381c2.032 0 3.757 1.142 4.655 2.796-.898 1.662-2.623 2.796-4.655 2.796h-8.381c-2.024 0-3.757-1.142-4.655-2.796.906-1.653 2.639-2.796 4.655-2.796z" fill="#144682"/>
    <path d="M164.235 380.392a9.259 9.259 0 0 1-8.003 4.616h-49.254a9.251 9.251 0 0 1-8.011-4.616l-24.34-42.157-.087-.11 97.39 28.924-7.695 13.343z" fill="#ea5706"/>
</svg>
