<svg xmlns="http://www.w3.org/2000/svg" viewBox="0 0 504 504">
    <path d="M444.384 498.877a5.249 5.249 0 0 1-5.246 5.246 5.239 5.239 0 0 1-5.246-5.246v-168.03a5.243 5.243 0 0 1 5.246-5.262 5.252 5.252 0 0 1 5.246 5.262v168.03zM269.123 361.913c0 19.503-15.817 124.668-35.336 124.668-19.495 0-35.304-105.173-35.304-124.668 0-19.495 15.817-35.32 35.304-35.32 19.519 0 35.336 15.825 35.336 35.32zm118.351 0c0 19.503-15.817 124.668-35.336 124.668-19.495 0-35.304-105.173-35.304-124.668 0-19.495 15.817-35.32 35.304-35.32 19.527 0 35.336 15.825 35.336 35.32z" fill="#4f340e"/>
    <path d="M392.617 315.242c0 126.33-44.599 84.259-99.643 84.259-55.028 0-99.643 42.071-99.643-84.259 0-72.231 44.631-130.788 99.643-130.788 55.028.008 99.643 58.565 99.643 130.788z" fill="#684713"/>
    <path d="M273.542 487.219c0 14.943-17.802 16.904-39.739 16.904s-39.739-1.953-39.739-16.904c0-14.95 17.802-35.509 39.739-35.509s39.739 20.567 39.739 35.509z" fill="#b7530f"/>
    <path d="M273.542 487.219c0 14.943-17.802 16.904-39.739 16.904s-39.739-1.953-39.739-16.904" fill="#9b4308"/>
    <path d="M391.893 487.219c0 14.943-17.802 16.904-39.739 16.904-21.937 0-39.739-1.953-39.739-16.904 0-14.95 17.802-35.509 39.739-35.509 21.937 0 39.739 20.567 39.739 35.509z" fill="#b7530f"/>
    <path d="M391.893 487.219c0 14.943-17.802 16.904-39.739 16.904-21.937 0-39.739-1.953-39.739-16.904" fill="#9b4308"/>
    <path d="M281.986 203.768c10.027 11.28 3.663 33.304-14.218 49.223-17.881 15.896-114.018 85.024-124.062 73.767-10.012-11.296 69.892-98.714 87.773-114.609 17.857-15.895 40.472-19.653 50.507-8.381zm21.969 0c-10.027 11.28-3.663 33.304 14.218 49.223 17.881 15.896 114.018 85.024 124.062 73.767 10.012-11.296-69.892-98.714-87.773-114.609-17.865-15.895-40.48-19.653-50.507-8.381z" fill="#684713"/>
    <path fill="#e2ded3" d="M272.305 199.554h41.354v141.123h-41.354z"/>
    <path d="M272.289 233.669c6.751.622 13.627 1.024 20.693 1.024 7.05 0 13.926-.402 20.661-1.024v-34.115h-41.354v34.115z" fill="#c6bfaf"/>
    <path d="M421.919 124.258c0 63.008-57.738 94.681-128.937 94.681-71.215 0-128.969-31.673-128.969-94.681C164.013 61.235 221.767 0 292.982 0c71.2 0 128.937 61.235 128.937 124.258z" fill="#f9c1ac"/>
    <path d="M421.919 124.258c0 63.008-57.738 94.681-128.937 94.681-71.215 0-128.969-31.673-128.969-94.681" fill="#f2b09c"/>
    <circle cx="232" cy="86" r="12" fill="#113e49"/>
    <path d="M243.184 86c0 6.38-5.167 11.532-11.54 11.532S220.121 92.381 220.121 86"/>
    <path d="M254.401 110.048a2.377 2.377 0 0 1-1.725-.717c-5.632-5.624-13.107-8.72-21.047-8.72h-.016c-7.94 0-15.399 3.104-21 8.712-.953.953-2.489.977-3.434.008a2.402 2.402 0 0 1-.032-3.419c6.538-6.546 15.218-10.161 24.458-10.161h.016c9.263 0 17.952 3.592 24.505 10.145.937.937.937 2.505 0 3.434-.465.49-1.079.718-1.725.718z" fill="#ffd3c5"/>
    <circle cx="354" cy="86" r="12" fill="#113e49"/>
    <path d="M342.772 86c0 6.38 5.151 11.532 11.54 11.532 6.372 0 11.524-5.152 11.524-11.532"/>
    <path d="M331.555 110.048c.599 0 1.229-.221 1.709-.717 5.632-5.624 13.107-8.72 21.047-8.72h.016c7.94 0 15.415 3.104 21.016 8.712a2.405 2.405 0 0 0 3.434.008c.953-.922.969-2.458.016-3.419-6.506-6.546-15.218-10.161-24.458-10.161h-.031c-9.247 0-17.936 3.592-24.505 10.145-.922.937-.922 2.505 0 3.434.496.49 1.111.718 1.756.718z" fill="#ffd3c5"/>
    <path d="M313.848 355.454c0 5.254-4.261 9.515-9.523 9.515h-22.307c-5.262 0-9.523-4.261-9.523-9.515 0-5.254 4.261-9.515 9.523-9.515h22.307c5.262 0 9.523 4.261 9.523 9.515z" fill="#ce910b"/>
    <path d="M304.325 345.939h-22.307c-4.356 0-7.861 2.954-9.003 6.932 1.142 3.97 4.647 6.932 9.003 6.932h22.307c4.34 0 7.861-2.962 9.003-6.932-1.142-3.978-4.663-6.932-9.003-6.932z" fill="#e5aa15"/>
    <path d="M197.955 42.677l140.753-13.139 49.286 13.139C364.418 17.219 330.634 0 292.982 0c-37.659 0-71.444 17.219-95.027 42.677z" fill="#e8efef"/>
    <path d="M197.955 42.677l140.753-13.139 49.286 13.139c-23.576-25.458-55.454-30.539-93.097-30.539-37.668 0-73.359 5.081-96.942 30.539z" fill="#dfe7e8"/>
    <g fill="#845824">
        <path d="M257.859 117.626h-56.8c-11.24 0-20.385-9.145-20.385-20.385V66.489c0-11.24 9.145-20.385 20.385-20.385h56.8c11.24 0 20.385 9.145 20.385 20.385v30.744c0 11.24-9.145 20.393-20.385 20.393zm-56.801-55.761a4.64 4.64 0 0 0-4.632 4.632v30.744a4.64 4.64 0 0 0 4.632 4.632h56.8a4.64 4.64 0 0 0 4.632-4.632V66.489a4.64 4.64 0 0 0-4.632-4.632h-56.8v.008z"/>
        <path d="M186.589 89.742h-30.523c-4.356 0-7.877-3.521-7.877-7.877s3.521-7.877 7.877-7.877h30.523c4.356 0 7.877 3.521 7.877 7.877s-3.529 7.877-7.877 7.877zm198.285 27.876h-56.8c-11.24 0-20.385-9.145-20.385-20.385V66.489c0-11.24 9.145-20.385 20.385-20.385h56.8c11.24 0 20.385 9.145 20.385 20.385v30.736c.001 11.248-9.144 20.393-20.385 20.393zm-56.8-55.753a4.64 4.64 0 0 0-4.632 4.632v30.736a4.64 4.64 0 0 0 4.632 4.632h56.8a4.64 4.64 0 0 0 4.632-4.632V66.489a4.64 4.64 0 0 0-4.632-4.632h-56.8v.008z"/>
        <path d="M429.875 89.742h-30.523c-4.356 0-7.877-3.521-7.877-7.877s3.521-7.877 7.877-7.877h30.523c4.356 0 7.877 3.521 7.877 7.877s-3.521 7.877-7.877 7.877zm-114.31-2.277h-43.811c-4.356 0-7.877-3.521-7.877-7.877s3.521-7.877 7.877-7.877h43.811c4.356 0 7.877 3.521 7.877 7.877s-3.521 7.877-7.877 7.877z"/>
    </g>
    <path d="M311.926 118.642c0 4.435-8.483-1.725-18.952-1.725s-18.952 6.16-18.952 1.725c0-4.443 8.483-8.042 18.952-8.042s18.952 3.6 18.952 8.042z" fill="#ce4121"/>
    <path d="M150.323 115.523c0 25.017-20.275 66.308-45.292 66.308s-45.292-41.291-45.292-66.308 20.275-45.292 45.292-45.292 45.292 20.275 45.292 45.292z" fill="#ef4529"/>
    <path d="M105.031 70.231c25.017 0 45.292 20.275 45.292 45.292s-20.275 66.308-45.292 66.308" fill="#ce4121"/>
    <g fill="#4f340e">
        <path d="M292.636 246.965l-48.191 21.701v-48.175l48.191 21.709zm.669-4.765l48.175-21.709v48.175l-48.175-21.701z"/>
        <path d="M306.554 244.571c0 6.388-5.183 11.54-11.54 11.54h-4.096c-6.357 0-11.54-5.152-11.54-11.54 0-6.365 5.183-11.524 11.54-11.524h4.096c6.357 0 11.54 5.159 11.54 11.524z"/>
    </g>
    <path d="M119.138 193.308c0 7.798-6.325 5.585-14.108 5.585-7.798 0-14.108 2.213-14.108-5.585 0-7.782 6.309-14.108 14.108-14.108 7.783 0 14.108 6.325 14.108 14.108z" fill="#ce4121"/>
    <path d="M149.339 322.292c-.764 0-1.52-.284-2.103-.859l-45.158-45.174V202.83a2.96 2.96 0 0 1 2.954-2.954 2.965 2.965 0 0 1 2.954 2.954v70.987l43.441 43.441a2.967 2.967 0 0 1 0 4.183 3.006 3.006 0 0 1-2.088.851z" fill="#9aa5a5"/>
</svg>
