<svg xmlns="http://www.w3.org/2000/svg" viewBox="0 0 504 504">
    <path d="M295.256 350.523c0 8.696-7.058 15.754-15.754 15.754H123.287c-8.704 0-15.754-7.058-15.754-15.754V224.492c0-8.696 7.05-15.754 15.754-15.754h156.215c8.696 0 15.754 7.058 15.754 15.754v126.031z" fill="#b27029"/>
    <path d="M321.841 350.523c0 8.696-7.058 15.754-15.754 15.754H149.872c-8.704 0-15.754-7.058-15.754-15.754V224.492c0-8.696 7.05-15.754 15.754-15.754h156.215c8.696 0 15.754 7.058 15.754 15.754v126.031z" fill="#935415"/>
    <path d="M280.117 258.095c11.28 10.027 33.304 3.663 49.223-14.218 15.896-17.881 85.016-114.018 73.767-124.062-11.296-10.012-98.714 69.892-114.609 87.773-15.904 17.857-19.653 40.472-8.381 50.507z"/>
    <path d="M343.503 301.946h-7.877v-63.015c0-6.514-5.309-11.815-11.815-11.815h-21.662v-7.877h21.662c10.862 0 19.692 8.83 19.692 19.692v63.015z" fill="#935415"/>
    <path d="M226.065 361.913c0 19.503-15.809 124.668-35.336 124.668-19.495 0-35.304-105.173-35.304-124.668 0-19.495 15.817-35.32 35.304-35.32 19.527 0 35.336 15.825 35.336 35.32zm118.359 0c0 19.503-15.817 124.668-35.336 124.668-19.495 0-35.304-105.173-35.304-124.668 0-19.495 15.817-35.32 35.304-35.32 19.519 0 35.336 15.825 35.336 35.32z" fill="#107889"/>
    <path d="M349.56 315.242c0 126.33-44.607 84.259-99.643 84.259-55.028 0-99.643 42.071-99.643-84.259 0-72.231 44.631-130.781 99.643-130.781 55.028.009 99.643 58.558 99.643 130.781z"/>
    <path d="M238.928 203.768c10.027 11.28 3.663 33.304-14.218 49.223-17.881 15.896-114.026 85.024-124.062 73.767-10.012-11.296 69.9-98.714 87.765-114.609s40.488-19.653 50.515-8.381z"/>
    <path fill="#dd9f76" d="M285.19 207.435l-35.278 35.279-35.278-35.279 35.278-35.279z"/>
    <path d="M230.484 487.219c0 14.935-17.802 16.904-39.747 16.904-21.929 0-39.739-1.961-39.739-16.904s17.81-35.509 39.739-35.509c21.946.008 39.747 20.567 39.747 35.509z" fill="#b27029"/>
    <path d="M230.484 487.219c0 14.935-17.802 16.904-39.747 16.904-21.929 0-39.739-1.961-39.739-16.904" fill="#a05810"/>
    <path d="M348.827 487.219c0 14.935-17.786 16.904-39.731 16.904-21.937 0-39.739-1.961-39.739-16.904s17.802-35.509 39.739-35.509c21.945.008 39.731 20.567 39.731 35.509z" fill="#b27029"/>
    <path d="M348.827 487.219c0 14.935-17.786 16.904-39.731 16.904-21.937 0-39.739-1.961-39.739-16.904" fill="#a05810"/>
    <path d="M378.87 124.258c0 63.008-57.746 94.681-128.937 94.681-71.223 0-128.969-31.673-128.969-94.681C120.964 61.235 178.709 0 249.933 0 321.124 0 378.87 61.235 378.87 124.258z" fill="#e8b085"/>
    <path d="M378.87 124.258c0 63.008-57.746 94.681-128.937 94.681-71.223 0-128.969-31.673-128.969-94.681" fill="#dd9f76"/>
    <path d="M327.646 167.771c0 23.355-18.92 42.283-42.283 42.283s-42.283-18.928-42.283-42.283V131.49h-5.971c-3.474 7.097-5.569 14.99-5.569 23.434v64.236c16.4 4.616 34.603 7.01 53.839 7.01 19.22 0 37.415-2.395 53.807-7.01v-64.236c0-8.436-2.095-16.329-5.569-23.434h-5.971v36.281z" fill="#708c8a"/>
    <circle cx="225" cy="103" r="12" fill="#113e49"/>
    <path d="M236.235 103.448c0 6.388-5.175 11.54-11.532 11.54a11.52 11.52 0 0 1-11.532-11.54"/>
    <path d="M247.451 127.504a2.365 2.365 0 0 1-1.725-.717c-5.632-5.624-13.107-8.72-21.047-8.72h-.024c-7.932 0-15.384 3.104-20.992 8.712-.945.953-2.489.977-3.442.008a2.402 2.402 0 0 1-.024-3.419c6.538-6.546 15.218-10.161 24.45-10.161h.024c9.263 0 17.944 3.592 24.497 10.145.937.937.937 2.505 0 3.434-.456.489-1.071.718-1.717.718z" fill="#f4c3a2"/>
    <path d="M335.822 103.448c0 6.388 5.144 11.54 11.54 11.54 6.372 0 11.524-5.152 11.524-11.54 0-6.365-5.152-11.532-11.524-11.532a11.524 11.524 0 0 0-11.54 11.532z" fill="#113e49"/>
    <path d="M335.822 103.448c0 6.388 5.144 11.54 11.54 11.54 6.372 0 11.524-5.152 11.524-11.54"/>
    <path d="M324.606 127.504c.591 0 1.221-.221 1.709-.717 5.632-5.624 13.107-8.72 21.047-8.72h.008c7.956 0 15.423 3.104 21.016 8.712a2.405 2.405 0 0 0 3.434.008 2.395 2.395 0 0 0 .024-3.419c-6.506-6.546-15.218-10.161-24.466-10.161h-.008c-9.247 0-17.944 3.592-24.513 10.145-.922.937-.922 2.505 0 3.434a2.421 2.421 0 0 0 1.749.718z" fill="#f4c3a2"/>
    <path d="M307.347 14.131C290.026 5.27 270.586 0 249.925 0 195.574 0 149.147 35.698 130.18 80.605c20.322 4.624 54.17 1.197 90.482-10.563 45.41-14.707 80.077-37.754 86.685-55.911zm-11.122 107.717s-13.477-29.003-49.719-5.175-39.353 16.565-39.353 16.565 38.313 27.987 79.754 10.382l6.215-5.199 3.103-16.573z" fill="#90b2b1"/>
    <path d="M207.153 133.23s38.313 27.987 79.754 10.382l6.215-5.199 3.111-16.573" fill="#708c8a"/>
    <path d="M288.955 121.848s13.462-29.003 49.711-5.175 39.353 16.565 39.353 16.565-38.305 27.987-79.754 10.382l-6.215-5.199-3.095-16.573z" fill="#90b2b1"/>
    <path d="M378.011 133.23s-38.305 27.987-79.754 10.382l-6.215-5.199-3.096-16.573" fill="#708c8a"/>
    <g fill="#fff">
        <circle cx="250" cy="258" r="7"/>
        <circle cx="250" cy="301" r="7"/>
        <circle cx="250" cy="345" r="7"/>
    </g>
    <path d="M183.995 321.638h-21.662v-7.877h21.662c6.506 0 11.815-5.301 11.815-11.815v-63.015c0-6.514-5.309-11.815-11.815-11.815h-21.662c-6.514 0-11.815 5.301-11.815 11.815h-7.877c0-10.862 8.83-19.692 19.692-19.692h21.662c10.862 0 19.692 8.83 19.692 19.692v63.015c0 10.862-8.83 19.692-19.692 19.692z" fill="#935415"/>
</svg>
