<svg xmlns="http://www.w3.org/2000/svg" viewBox="0 0 504 504">
    <g fill="#2e4449">
        <path d="M288.013 239.159c-.874 15.061-20.961 26.128-44.851 24.757-23.875-1.41-140.745-20.504-139.894-35.564.906-15.069 119.233-20.385 143.108-18.976 23.875 1.387 42.52 14.722 41.637 29.783z"/>
        <path d="M278.829 232.952c.874-15.061 20.953-26.12 44.859-24.757 23.875 1.418 140.737 20.512 139.886 35.572-.906 15.061-119.233 20.385-143.108 18.968-23.875-1.379-42.519-14.722-41.637-29.783z"/>
    </g>
    <path d="M260.775 361.913c0 19.503-15.817 124.668-35.336 124.668-19.495 0-35.304-105.173-35.304-124.668 0-19.495 15.817-35.32 35.304-35.32 19.527 0 35.336 15.825 35.336 35.32zm118.359 0c0 19.503-15.817 124.668-35.336 124.668-19.495 0-35.304-105.173-35.304-124.668 0-19.495 15.817-35.32 35.304-35.32 19.519 0 35.336 15.825 35.336 35.32z" fill="#107889"/>
    <path d="M384.269 315.242c0 126.33-44.599 84.259-99.643 84.259-55.028 0-99.643 42.071-99.643-84.259 0-72.231 44.631-130.781 99.643-130.781 55.029.009 99.643 58.558 99.643 130.781z" fill="#2e4449"/>
    <path d="M265.194 487.219c0 14.935-17.802 16.904-39.739 16.904s-39.739-1.961-39.739-16.904 17.802-35.509 39.739-35.509 39.739 20.567 39.739 35.509z" fill="#baaeb3"/>
    <path d="M265.194 487.219c0 14.935-17.802 16.904-39.739 16.904s-39.739-1.961-39.739-16.904" fill="#9e9297"/>
    <path d="M383.545 487.219c0 14.935-17.802 16.904-39.739 16.904s-39.739-1.961-39.739-16.904 17.802-35.509 39.739-35.509 39.739 20.567 39.739 35.509z" fill="#baaeb3"/>
    <path d="M383.545 487.219c0 14.935-17.802 16.904-39.739 16.904s-39.739-1.961-39.739-16.904" fill="#9e9297"/>
    <path d="M413.579 124.258c0 63.008-57.738 94.681-128.937 94.681-71.215 0-128.969-31.673-128.969-94.681C155.673 61.235 213.427 0 284.642 0c71.2 0 128.937 61.235 128.937 124.258z" fill="#ce5715"/>
    <path d="M413.579 124.258c0 63.008-57.738 94.681-128.937 94.681-71.215 0-128.969-31.673-128.969-94.681 0-63.023 40.511-94.066 111.726-94.066 71.192 0 146.18 31.043 146.18 94.066z" fill="#f9a9a0"/>
    <path d="M413.579 124.258c0 63.008-57.738 94.681-128.937 94.681-71.215 0-128.969-31.673-128.969-94.681" fill="#ff9997"/>
    <circle cx="205" cy="140" r="12" fill="#113e49"/>
    <path d="M216.129 140.367c0 6.388-5.167 11.54-11.54 11.54s-11.524-5.152-11.524-11.54"/>
    <path d="M227.345 164.423a2.377 2.377 0 0 1-1.725-.717c-5.632-5.624-13.107-8.72-21.047-8.72h-.008c-7.94 0-15.399 3.104-21 8.712-.953.953-2.489.977-3.434.008a2.402 2.402 0 0 1-.032-3.419c6.538-6.546 15.218-10.161 24.458-10.161h.016c9.263 0 17.952 3.592 24.505 10.145.937.937.937 2.505 0 3.434-.472.497-1.087.718-1.733.718z" fill="#ffd3c5"/>
    <circle cx="327" cy="140" r="12" fill="#113e49"/>
    <path d="M315.717 140.367a11.52 11.52 0 0 0 11.54 11.54c6.372 0 11.524-5.152 11.524-11.54"/>
    <path d="M304.5 164.423c.599 0 1.229-.221 1.709-.717 5.632-5.624 13.107-8.72 21.047-8.72h.016c7.94 0 15.415 3.104 21.016 8.712a2.405 2.405 0 0 0 3.434.008c.953-.922.969-2.458.016-3.419-6.506-6.546-15.218-10.161-24.458-10.161h-.016c-9.247 0-17.936 3.592-24.505 10.145-.922.937-.922 2.505 0 3.434.481.497 1.095.718 1.741.718z" fill="#ffd3c5"/>
    <ellipse cx="107" cy="357" rx="66" ry="48" fill="#e87118"/>
    <path d="M106.947 240.317c-28.522 0-51.649 16.675-51.649 37.25 0 4.104.969 8.058 2.678 11.76 1.048 5.112 2.355 10.949 2.355 17.117-.016 6.735-3.277 12.201-6.68 16.502-2.418 2.347-4.521 4.836-6.309 7.475-.228.315-.449.622-.614.914-3.938 6.112-6.183 12.91-6.183 20.086 0 26.451 29.72 47.9 66.402 47.884 36.667 0 66.387-21.433 66.387-47.884 0-7.192-2.261-13.989-6.199-20.11a21.758 21.758 0 0 0-.559-.851c-1.804-2.662-3.931-5.175-6.365-7.522-3.387-4.309-6.656-9.767-6.656-16.494 0-6.168 1.292-11.973 2.347-17.093 1.725-3.71 2.686-7.656 2.686-11.784 0-20.575-23.119-37.25-51.641-37.25z" fill="#f29c11"/>
    <path d="M106.947 240.317c-28.522 0-51.649 16.675-51.649 37.25 0 4.104.969 8.058 2.678 11.76 1.048 5.112 2.355 10.949 2.355 17.117-.016 6.735-3.277 12.201-6.68 16.502-2.418 2.347-4.521 4.836-6.309 7.475-.228.315-.449.622-.614.914-3.938 6.112-6.183 12.91-6.183 20.086 0 26.451 29.72 47.9 66.402 47.884 36.667 0 66.387-21.433 66.387-47.884 0-7.192-2.261-13.989-6.199-20.11a21.758 21.758 0 0 0-.559-.851c-1.804-2.662-3.931-5.175-6.365-7.522-3.387-4.309-6.656-9.767-6.656-16.494 0-6.168 1.292-11.973 2.347-17.093 1.725-3.71 2.686-7.656 2.686-11.784 0-20.575-23.119-37.25-51.641-37.25z" fill="#f29c11"/>
    <path d="M55.306 277.559c0 4.104.969 8.058 2.678 11.76 1.048 5.112 2.355 10.949 2.355 17.117-.016 6.735-3.277 12.201-6.68 16.502-2.418 2.347-4.521 4.836-6.309 7.475-.228.315-.449.622-.614.914-3.938 6.112-6.183 12.91-6.183 20.086 0 11.997 6.152 22.93 16.25 31.334l101.494-101.494c.173-1.213.291-2.45.291-3.694 0-20.567-23.119-37.25-51.641-37.25s-51.641 16.683-51.641 37.25z" fill="#f4b831"/>
    <path d="M122.96 270.887c-.016 5.671-9.712 5.128-15.384 5.128H106.3c-5.671 0-15.368.528-15.368-5.128l5.12-124.282c0-5.671 4.584-10.256 10.248-10.256h1.292c5.656 0 10.24 4.584 10.24 10.256l5.128 124.282z"/>
    <path d="M123.165 139.973c0 5.656-4.584 10.256-10.232 10.256H100.96c-5.664 0-10.248-4.584-10.248-10.256v-25.624a10.243 10.243 0 0 1 10.248-10.248h11.957c5.664 0 10.248 4.592 10.248 10.264v25.608z"/>
    <g fill="#3a382d">
        <path d="M122.96 265.515c0 5.664-9.704 5.136-15.384 5.136H106.3c-5.671 0-15.368.52-15.368-5.136l5.12-124.274c0-5.663 4.584-10.256 10.248-10.256h1.276a10.252 10.252 0 0 1 10.256 10.256l5.128 124.274z"/>
        <path d="M123.165 134.609c0 5.671-4.584 10.256-10.232 10.256H100.96c-5.664 0-10.256-4.584-10.248-10.256v-25.616c-.008-5.671 4.584-10.264 10.248-10.264h11.973c5.648 0 10.232 4.592 10.232 10.248v25.632z"/>
    </g>
    <circle cx="107" cy="305" r="21" fill="#895b19"/>
    <path d="M106.947 290.989c10.618 0 19.385 7.743 21.094 17.881.197-1.166.354-2.347.37-3.568-.016-11.863-9.618-21.465-21.465-21.465-11.863 0-21.472 9.602-21.472 21.465 0 1.221.173 2.402.362 3.576 1.71-10.138 10.485-17.889 21.111-17.889z" fill="#6d450f"/>
    <path d="M130.916 354.485c0 3.608 2.442 6.538-1.166 6.538H84.143c-3.608 0-1.174-2.93-1.174-6.538a6.531 6.531 0 0 1 6.538-6.538h34.879a6.53 6.53 0 0 1 6.53 6.538z" fill="#442909"/>
    <path d="M130.916 351.854c0 3.615 2.442 6.554-1.166 6.554l-45.615-.016c-3.616.016-1.166-2.922-1.166-6.538a6.542 6.542 0 0 1 6.538-6.538h34.879a6.53 6.53 0 0 1 6.53 6.538z" fill="#6d450f"/>
    <path d="M87.821 107.796a2.675 2.675 0 0 1-2.678 2.678 2.684 2.684 0 0 1-2.694-2.678v-1.804a2.679 2.679 0 0 1 2.694-2.678 2.675 2.675 0 0 1 2.678 2.678v1.804zm0 10.728a2.674 2.674 0 0 1-2.678 2.67c-1.489 0-2.694-1.197-2.694-2.67v-1.804c0-1.473 1.213-2.678 2.694-2.678a2.682 2.682 0 0 1 2.678 2.686v1.796zm0 10.721a2.682 2.682 0 0 1-2.678 2.686 2.686 2.686 0 0 1-2.694-2.686v-1.796a2.69 2.69 0 0 1 2.694-2.686c1.481 0 2.678 1.205 2.694 2.686l-.016 1.796zm43.607-21.449a2.684 2.684 0 0 1-2.694 2.678 2.679 2.679 0 0 1-2.678-2.694V106a2.677 2.677 0 0 1 2.678-2.686 2.686 2.686 0 0 1 2.694 2.686v1.796zm0 10.72a2.675 2.675 0 0 1-2.678 2.678 2.684 2.684 0 0 1-2.694-2.678v-1.788a2.682 2.682 0 0 1 2.678-2.686 2.696 2.696 0 0 1 2.694 2.686v1.788zm0 10.721a2.687 2.687 0 0 1-2.694 2.694 2.677 2.677 0 0 1-2.678-2.686v-1.796a2.687 2.687 0 0 1 2.678-2.686c1.481.008 2.694 1.205 2.694 2.686v1.788z" fill="#e87118"/>
    <path d="M114.146 144.282c.008.465-.37.827-.843.827h-12.737a.827.827 0 0 1-.827-.827c0-.465.37-.843.843-.843h12.721c.457 0 .843.386.843.843z" fill="#f29c11"/>
    <g fill="#ddd3c3">
        <circle cx="107" cy="162" r="2"/>
        <circle cx="107" cy="185" r="2"/>
        <path d="M108.609 233.314a1.67 1.67 0 0 1-1.662 1.678 1.698 1.698 0 0 1-1.678-1.694c-.016-.906.756-1.662 1.678-1.67a1.684 1.684 0 0 1 1.662 1.686z"/>
        <circle cx="103" cy="207" r="2"/>
        <circle cx="110" cy="207" r="2"/>
    </g>
    <g fill="#107889">
        <path d="M324.578 288.382a18.11 18.11 0 0 0-10.784 3.553 18.193 18.193 0 0 1 8.822-5.404c7.995-2.135 16.195 1.378 20.315 8.105a18.616 18.616 0 0 0-.63-5.183c-2.607-9.744-12.619-15.525-22.363-12.91-3.915 1.04-7.168 3.293-9.515 6.231a18.052 18.052 0 0 1 7.129-7.515c7.176-4.143 16.006-2.859 21.717 2.576a18.446 18.446 0 0 0-1.938-4.844c-5.049-8.736-16.219-11.729-24.946-6.695a18.146 18.146 0 0 0-7.467 8.223c.74-3.237 2.308-6.317 4.836-8.838 5.868-5.86 14.714-6.908 21.638-3.127a18.617 18.617 0 0 0-3.119-4.183c-7.136-7.129-18.708-7.129-25.828 0a18.06 18.06 0 0 0-5.112 10.138 18.14 18.14 0 0 1 2.426-10.051c4.135-7.176 12.43-10.476 20.094-8.633a18.925 18.925 0 0 0-4.104-3.23c-8.736-5.041-19.897-2.048-24.946 6.695-2.024 3.497-2.733 7.389-2.316 11.13a18.129 18.129 0 0 1-.276-10.358c2.15-8.003 9.295-13.328 17.187-13.525a18.524 18.524 0 0 0-4.797-2.064c-9.752-2.615-19.771 3.167-22.37 12.91-1.063 3.915-.725 7.861.646 11.359a18.166 18.166 0 0 1-2.938-9.941c0-8.287 5.514-15.281 13.076-17.518a18.026 18.026 0 0 0-5.167-.748c-10.09 0-18.259 8.176-18.259 18.259 0 4.049 1.331 7.767 3.552 10.791a18.193 18.193 0 0 1-5.404-8.822c-2.143-8.011 1.386-16.195 8.113-20.307-1.717-.039-3.45.15-5.191.614-9.736 2.607-15.525 12.627-12.918 22.378a18.18 18.18 0 0 0 6.239 9.507 18.133 18.133 0 0 1-7.522-7.136c-4.135-7.176-2.859-15.998 2.584-21.717-1.662.402-3.3 1.04-4.844 1.938-8.736 5.049-11.737 16.219-6.695 24.946a18.124 18.124 0 0 0 8.231 7.467c-3.237-.74-6.325-2.316-8.846-4.836-5.86-5.86-6.908-14.706-3.127-21.638a18.597 18.597 0 0 0-4.191 3.119c-7.121 7.129-7.121 18.7 0 25.836a18.144 18.144 0 0 0 10.169 5.112 18.187 18.187 0 0 1-10.075-2.426c-7.184-4.135-10.476-12.43-8.617-20.094a17.757 17.757 0 0 0-3.245 4.104c-5.049 8.728-2.048 19.897 6.688 24.946 3.497 2.024 7.396 2.733 11.13 2.316a18.137 18.137 0 0 1-10.342.268c-8.011-2.143-13.344-9.295-13.533-17.18a18.524 18.524 0 0 0-2.064 4.797c-2.615 9.736 3.167 19.755 12.91 22.37 3.907 1.048 7.845.725 11.351-.638a18.22 18.22 0 0 1-9.933 2.93c-8.287 0-15.281-5.522-17.518-13.091a18.162 18.162 0 0 0-.756 5.175c0 10.082 8.184 18.259 18.267 18.259 4.057 0 7.775-1.339 10.823-3.568a18.292 18.292 0 0 1-8.854 5.419c-8.011 2.143-16.195-1.386-20.307-8.105-.039 1.709.165 3.45.622 5.183 2.599 9.736 12.619 15.525 22.37 12.918a18.178 18.178 0 0 0 9.492-6.223 18.085 18.085 0 0 1-7.121 7.499c-7.176 4.143-15.998 2.851-21.717-2.576a18.47 18.47 0 0 0 1.946 4.844c5.041 8.736 16.203 11.729 24.946 6.695a18.135 18.135 0 0 0 7.452-8.216c-.74 3.23-2.308 6.309-4.829 8.83-5.86 5.86-14.706 6.9-21.646 3.119a18.071 18.071 0 0 0 3.127 4.183c7.129 7.136 18.7 7.136 25.828 0a18.084 18.084 0 0 0 5.12-10.161c.181 3.411-.591 6.9-2.426 10.082-4.135 7.184-12.422 10.476-20.094 8.625a18.45 18.45 0 0 0 4.104 3.23c8.728 5.049 19.905 2.056 24.938-6.688 2.032-3.497 2.741-7.389 2.332-11.122a18.21 18.21 0 0 1 .26 10.342c-2.143 8.011-9.303 13.336-17.18 13.533a18.406 18.406 0 0 0 4.797 2.064c9.736 2.607 19.763-3.167 22.37-12.918a18.123 18.123 0 0 0-.646-11.351 18.14 18.14 0 0 1 2.938 9.933c0 8.294-5.522 15.289-13.091 17.518 1.646.488 3.379.748 5.167.748 10.09 0 18.259-8.168 18.259-18.259 0-4.049-1.323-7.775-3.552-10.799a18.229 18.229 0 0 1 5.419 8.838c2.135 8.011-1.378 16.195-8.105 20.307 1.709.039 3.45-.158 5.183-.622 9.736-2.607 15.525-12.627 12.926-22.363a18.267 18.267 0 0 0-6.246-9.515 18.11 18.11 0 0 1 7.507 7.136c4.151 7.176 2.867 15.99-2.568 21.709a17.913 17.913 0 0 0 4.844-1.938c8.736-5.041 11.729-16.219 6.695-24.946a18.124 18.124 0 0 0-8.231-7.467c3.245.74 6.325 2.324 8.846 4.836 5.853 5.86 6.9 14.714 3.119 21.646a18.394 18.394 0 0 0 4.183-3.127c7.136-7.136 7.136-18.692 0-25.828a18.085 18.085 0 0 0-10.138-5.112 18.15 18.15 0 0 1 10.059 2.426c7.184 4.135 10.476 12.414 8.617 20.094a18.308 18.308 0 0 0 3.245-4.104c5.041-8.736 2.048-19.905-6.695-24.946-3.505-2.024-7.396-2.733-11.138-2.316a18.131 18.131 0 0 1 10.358-.276c8.003 2.15 13.328 9.295 13.533 17.187a18.524 18.524 0 0 0 2.064-4.797c2.615-9.744-3.167-19.755-12.918-22.37a18.091 18.091 0 0 0-11.359.646 18.172 18.172 0 0 1 9.941-2.946c8.294 0 15.281 5.522 17.518 13.091.488-1.638.748-3.379.748-5.167 0-10.079-8.169-18.255-18.259-18.255zm-18.164 19.692a18.198 18.198 0 0 0-2.788 5.86c-.134.48-.181.937-.268 1.41a18.066 18.066 0 0 0-4.206 4.947c-.236.417-.417.843-.622 1.276a18.022 18.022 0 0 0-5.356 3.694c-.339.339-.622.725-.937 1.079a18.262 18.262 0 0 0-6.105 2.182c-.418.236-.788.52-1.174.803a18.093 18.093 0 0 0-6.467.52c-.473.126-.906.307-1.355.465a18.116 18.116 0 0 0-6.396-1.166c-.48 0-.937.063-1.418.102a18.198 18.198 0 0 0-5.86-2.788c-.473-.126-.937-.173-1.41-.268a18.087 18.087 0 0 0-4.947-4.206c-.417-.236-.851-.425-1.284-.622a18.156 18.156 0 0 0-3.686-5.348c-.347-.347-.725-.622-1.095-.937a18.026 18.026 0 0 0-2.166-6.113c-.244-.417-.52-.788-.803-1.174a18.21 18.21 0 0 0-.52-6.483c-.126-.465-.307-.898-.48-1.347a17.908 17.908 0 0 0 1.182-6.388c0-.488-.071-.945-.11-1.426a18.16 18.16 0 0 0 2.788-5.868c.126-.473.181-.929.268-1.402a17.956 17.956 0 0 0 4.214-4.947c.236-.425.417-.859.622-1.284a18.186 18.186 0 0 0 5.341-3.686c.347-.347.63-.725.937-1.079a18.457 18.457 0 0 0 6.12-2.182c.417-.244.788-.528 1.174-.803 2.119.197 4.301.063 6.483-.52.465-.126.89-.307 1.339-.465a18.286 18.286 0 0 0 6.388 1.166c.488 0 .953-.071 1.434-.11a18.118 18.118 0 0 0 5.86 2.788c.465.134.937.181 1.402.276 1.355 1.638 3.001 3.088 4.955 4.206.417.236.843.417 1.276.622a18.063 18.063 0 0 0 3.694 5.341c.339.347.725.63 1.079.937a18.219 18.219 0 0 0 2.182 6.12c.236.418.52.788.803 1.174a18.144 18.144 0 0 0 .512 6.475c.134.473.315.898.473 1.347a18.116 18.116 0 0 0-1.166 6.396c-.002.489.061.954.093 1.426z"/>
        <path d="M277.285 282.931c-8.83 0-15.982 7.16-15.982 15.99 0 .402.024.796.055 1.182-.032.394-.055.788-.055 1.182 0 8.83 7.152 15.982 15.982 15.982s15.982-7.152 15.982-15.982c0-.402-.016-.796-.047-1.182.032-.394.047-.788.047-1.182 0-8.83-7.152-15.99-15.982-15.99zm0 29.098c-7.412 0-13.643-5.065-15.447-11.926 1.804-6.861 8.034-11.926 15.447-11.926 7.42 0 13.643 5.065 15.447 11.926-1.796 6.869-8.019 11.926-15.447 11.926z"/>
    </g>
</svg>
