<svg xmlns="http://www.w3.org/2000/svg" viewBox="0 0 504 504">
    <path d="M216.541 361.913c0 19.503-15.817 124.668-35.336 124.668-19.495 0-35.304-105.173-35.304-124.668 0-19.495 15.817-35.32 35.304-35.32 19.519 0 35.336 15.825 35.336 35.32zm118.359 0c0 19.503-15.817 124.668-35.336 124.668-19.495 0-35.304-105.173-35.304-124.668 0-19.495 15.817-35.32 35.304-35.32 19.519 0 35.336 15.825 35.336 35.32z" fill="#0698bf"/>
    <path d="M340.035 315.242c0 126.33-44.599 84.259-99.643 84.259-55.028 0-99.643 42.071-99.643-84.259 0-72.231 44.631-130.781 99.643-130.781 55.029.009 99.643 58.558 99.643 130.781z" fill="#0d914f"/>
    <path d="M340.035 315.242c0 126.33-44.599 84.259-99.643 84.259-55.028 0-99.643 42.071-99.643-84.259 0-72.231 44.631-130.781 99.643-130.781 55.029.009 99.643 58.558 99.643 130.781z" fill="#087c3f"/>
    <path d="M240.392 184.47c-51.413 0-93.735 51.153-99.06 116.815 5.356 98.123 47.663 61.464 99.06 61.464 51.413 0 93.704 36.659 99.06-61.464-5.309-65.663-47.631-116.815-99.06-116.815z" fill="#0d914f"/>
    <path d="M220.96 487.219c0 14.935-17.802 16.904-39.739 16.904s-39.739-1.961-39.739-16.904 17.802-35.509 39.739-35.509 39.739 20.567 39.739 35.509z" fill="#0ac4a9"/>
    <path d="M220.96 487.219c0 14.935-17.802 16.904-39.739 16.904s-39.739-1.961-39.739-16.904" fill="#04aa8e"/>
    <path d="M339.311 487.219c0 14.935-17.802 16.904-39.739 16.904s-39.739-1.961-39.739-16.904 17.802-35.509 39.739-35.509 39.739 20.567 39.739 35.509z" fill="#0ac4a9"/>
    <path d="M339.311 487.219c0 14.935-17.802 16.904-39.739 16.904s-39.739-1.961-39.739-16.904" fill="#04aa8e"/>
    <path d="M369.345 124.258c0 63.008-57.738 94.681-128.937 94.681-71.215 0-128.969-31.673-128.969-94.681C111.431 61.235 169.185 0 240.4 0c71.208 0 128.945 61.235 128.945 124.258z" fill="#f9bd82"/>
    <path d="M369.345 124.258c0 63.008-57.738 94.681-128.937 94.681-71.215 0-128.969-31.673-128.969-94.681" fill="#eda366"/>
    <circle cx="179" cy="139" r="12" fill="#113e49"/>
    <path d="M190.602 139.051c0 6.388-5.167 11.54-11.54 11.54s-11.524-5.152-11.524-11.54"/>
    <path d="M201.819 163.107a2.377 2.377 0 0 1-1.725-.717c-5.632-5.624-13.107-8.72-21.047-8.72h-.016c-7.94 0-15.399 3.104-21 8.712-.953.953-2.489.977-3.434.008a2.402 2.402 0 0 1-.032-3.419c6.538-6.546 15.218-10.161 24.458-10.161h.016c9.263 0 17.952 3.592 24.505 10.145.937.937.937 2.505 0 3.434-.465.498-1.079.718-1.725.718z" fill="#ffd3c5"/>
    <circle cx="302" cy="139" r="12" fill="#113e49"/>
    <path d="M290.19 139.051c0 6.388 5.152 11.54 11.54 11.54 6.372 0 11.524-5.152 11.524-11.54"/>
    <path d="M278.973 163.107c.599 0 1.229-.221 1.709-.717 5.632-5.624 13.107-8.72 21.047-8.72h.016c7.94 0 15.415 3.104 21.016 8.712a2.405 2.405 0 0 0 3.434.008c.953-.922.969-2.458.016-3.419-6.506-6.546-15.218-10.161-24.458-10.161h-.016c-9.247 0-17.936 3.592-24.505 10.145-.922.937-.922 2.505 0 3.434.481.498 1.096.718 1.741.718z" fill="#ffd3c5"/>
    <path d="M268.836 164.423c0 3.631-12.737 15.935-28.428 15.935s-28.428-12.304-28.428-15.935c0-3.647 12.737-1.481 28.428-1.481s28.428-2.166 28.428 1.481z" fill="#a11"/>
    <path d="M333.631 291.643c4.742-14.344-9.862-32.02-32.603-39.534-22.709-7.491-138.398-32.713-143.155-18.408-4.71 14.336 103.353 62.818 126.078 70.309 22.718 7.507 44.962 1.961 49.68-12.367z" fill="#eda366"/>
    <path d="M147.145 291.643c-4.742-14.344 9.862-32.02 32.603-39.534 22.709-7.491 138.398-32.713 143.155-18.408 4.71 14.336-103.353 62.818-126.078 70.309-22.717 7.507-44.961 1.961-49.68-12.367z" fill="#f9bd82"/>
    <path d="M284.7 240.569c-.859-3.285-1.449-6.412-1.906-9.452-2.213.268-4.458.551-6.766.859.354 4.506 1.15 9.492 2.521 14.746 1.709 6.498 3.97 12.304 6.412 16.927a390.12 390.12 0 0 0 7.31-4.072c-2.9-4.877-5.602-11.493-7.571-19.008z" fill="#5f7277"/>
    <circle cx="280" cy="241" r="14" fill="#0698bf"/>
    <circle cx="279" cy="239" r="8" fill="#a3e1ef"/>
    <path d="M240.4 0c-62.874 0-115.2 47.75-126.598 102.313l122.526-38.644L224.512 87.3l70.892-21.662-7.877 18.708L330.851 61.7l33.753 31.508C349.59 42.559 299.745 0 240.4 0z" fill="#0ac4a9"/>
    <ellipse transform="rotate(-9.683 225.174 343.467)" cx="225" cy="343" rx="11" ry="21" fill="#cc055f"/>
    <ellipse transform="rotate(-9.689 138.5 362.839)" cx="138" cy="363" rx="49" ry="68" fill="#af095c"/>
    <path d="M191.878 367.939c-20.677 3.521-35.304-29.003-40.204-57.659s9.169.528 29.83-3.009c20.677-3.529 34.958-20.897 39.849 7.759s-8.798 49.372-29.475 52.909z" fill="#f29c11"/>
    <path d="M246.174 371.184c-6.372-10.587-14.249-18.345-22.788-23.56 10.508-11.429 19.188-26.238 22.181-40.897 6.443-31.327-43.386-2.985-64.063.543-6.751 1.15-12.816-1.189-17.723-3.868a48.605 48.605 0 0 0-8.586-5.065 8.268 8.268 0 0 0-1.048-.457c-6.814-2.907-14.013-4.001-21.228-2.781-26.585 4.537-43.032 38.101-36.738 74.949 6.294 36.848 32.941 63.063 59.526 58.51 7.215-1.221 13.643-4.663 19.141-9.665.244-.213.504-.48.788-.756 2.355-2.261 4.506-4.821 6.443-7.664 3.757-4.151 8.68-8.365 15.431-9.523 20.677-3.512 65.111-2.346 48.664-29.766z" fill="#bc005e"/>
    <path d="M246.174 371.184c-6.372-10.587-14.249-18.345-22.788-23.56 10.508-11.429 19.188-26.238 22.181-40.897 6.443-31.327-43.386-2.985-64.063.543-6.751 1.15-12.816-1.189-17.723-3.868a48.605 48.605 0 0 0-8.586-5.065 8.268 8.268 0 0 0-1.048-.457c-6.814-2.907-14.013-4.001-21.228-2.781-11.524 1.969-21.126 9.389-27.813 20.165l116.704 82.66c18.535-2.652 35.565-8.071 24.364-26.74z" fill="#d80579"/>
    <path d="M226.403 364.386c-5.679.985-6.798-8.877-7.767-14.564l-.228-1.284c-.969-5.711-3.167-15.376 2.521-16.345l125.802-16.179c5.679-.969 11.091 2.851 12.044 8.546l.213 1.292c.985 5.687-2.844 11.091-8.539 12.044l-124.046 26.49z"/>
    <g fill="#3a382d">
        <path d="M233.374 363.197c-5.679.969-6.798-8.885-7.767-14.58l-.228-1.276c-.969-5.703-3.167-15.368 2.521-16.345l125.787-16.187c5.695-.953 11.091 2.867 12.06 8.562l.213 1.276c.969 5.703-2.844 11.091-8.539 12.06l-124.047 26.49z"/>
        <path d="M364.99 340.945c-5.679.969-11.075-2.836-12.06-8.539l-2.048-12.012c-.969-5.703 2.844-11.091 8.539-12.06l43.307-.425c6.034.244 11.264.89 12.06 8.546l.095 1.079c1.969 14.013-10.831 6.727-16.542 7.696l-33.351 15.715z"/>
    </g>
    <path d="M145.357 386.458c-3.631.622-6.152 3.568-6.782-.071l-7.814-45.82c-.63-3.639 2.741-1.686 6.372-2.3a6.662 6.662 0 0 1 7.696 5.451l5.971 35.037c.622 3.646-1.827 7.072-5.443 7.703z" fill="#d3d3d3"/>
    <path d="M147.988 386.009c-3.631.614-6.152 3.584-6.766-.055l-7.83-45.836c-.614-3.623 2.757-1.686 6.372-2.308a6.706 6.706 0 0 1 7.712 5.459l5.971 35.044c.622 3.631-1.828 7.073-5.459 7.696z" fill="#e8e3dd"/>
    <path d="M405.374 306.026c-1.213.016-2.229-.985-2.245-2.19a2.241 2.241 0 0 1 2.213-2.261l1.489-.024c1.213-.016 2.245.977 2.245 2.198a2.22 2.22 0 0 1-2.213 2.261l-1.489.016zm-8.908.103a2.248 2.248 0 0 1-2.276-2.213c0-1.229.985-2.245 2.213-2.253l1.489-.024a2.251 2.251 0 0 1 2.261 2.213 2.234 2.234 0 0 1-2.213 2.253l-1.474.024zm-8.941.086a2.197 2.197 0 0 1-2.245-2.19c-.016-1.245.969-2.253 2.182-2.261l1.505-.016a2.233 2.233 0 0 1 2.261 2.198 2.246 2.246 0 0 1-2.213 2.261l-1.49.008zm-8.656-.323c-1.229.008-2.245-.985-2.245-2.206a2.204 2.204 0 0 1 2.198-2.245l1.489-.016a2.192 2.192 0 0 1 2.245 2.19c.032 1.237-.969 2.237-2.198 2.261l-1.489.016zm-8.941.095c-1.213.016-2.229-.977-2.245-2.206-.016-1.221.969-2.229 2.213-2.261l1.481-.016c1.245 0 2.261.977 2.261 2.221a2.232 2.232 0 0 1-2.213 2.245l-1.497.017zm-8.924.087a2.219 2.219 0 0 1-2.245-2.198 2.21 2.21 0 0 1 2.198-2.253l1.489-.016a2.209 2.209 0 0 1 2.245 2.198c.032 1.229-.969 2.245-2.198 2.261l-1.489.008z" fill="#cc055f"/>
    <path d="M353.725 333.548a.85.85 0 0 1-.985-.709l-2.182-12.8a.846.846 0 0 1 .693-.985.85.85 0 0 1 .985.709l2.198 12.8a.877.877 0 0 1-.709.985z" fill="#f29c11"/>
    <g fill="#ddd3c3">
        <circle cx="335" cy="329" r="2"/>
        <circle cx="312" cy="333" r="2"/>
        <circle cx="263" cy="342" r="2"/>
        <path d="M288.985 335.242c-.937.165-1.812-.48-1.985-1.418a1.717 1.717 0 0 1 1.402-1.961 1.715 1.715 0 0 1 .583 3.379z"/>
        <circle cx="290" cy="341" r="2"/>
    </g>
    <path d="M170.185 378.313a2.511 2.511 0 0 1-2.907-2.056l-6.089-35.635a2.535 2.535 0 0 1 2.064-2.914l9.972-1.701a2.541 2.541 0 0 1 2.922 2.064l6.065 35.627a2.51 2.51 0 0 1-2.064 2.907l-9.963 1.708z" fill="#3a382d"/>
    <g fill="#e8e3dd">
        <circle cx="169" cy="343" r="1"/>
        <circle cx="170" cy="349" r="1"/>
        <circle cx="171" cy="354" r="1"/>
        <circle cx="172" cy="360" r="1"/>
        <circle cx="173" cy="365" r="1"/>
        <circle cx="174" cy="371" r="1"/>
    </g>
    <path d="M191.603 374.65a2.522 2.522 0 0 1-2.922-2.064l-6.073-35.619a2.504 2.504 0 0 1 2.064-2.914l9.956-1.694c1.371-.244 2.678.685 2.922 2.056l6.073 35.627a2.536 2.536 0 0 1-2.064 2.914l-9.956 1.694z" fill="#3a382d"/>
    <g fill="#e8e3dd">
        <circle cx="191" cy="340" r="1"/>
        <circle cx="192" cy="345" r="1"/>
        <circle cx="193" cy="351" r="1"/>
        <circle cx="194" cy="356" r="1"/>
        <circle cx="195" cy="362" r="1"/>
        <circle cx="195" cy="367" r="1"/>
    </g>
</svg>
