<svg xmlns="http://www.w3.org/2000/svg" viewBox="0 0 504 504">
    <path d="M228.218 361.913c0 19.503-15.817 124.668-35.336 124.668-19.495 0-35.304-105.173-35.304-124.668 0-19.495 15.817-35.32 35.304-35.32 19.519 0 35.336 15.825 35.336 35.32zm118.351 0c0 19.503-15.817 124.668-35.336 124.668-19.495 0-35.304-105.173-35.304-124.668 0-19.495 15.817-35.32 35.304-35.32 19.519 0 35.336 15.825 35.336 35.32z" fill="#6b8c85"/>
    <path d="M351.705 315.242c0 126.33-44.599 84.259-99.643 84.259-55.028 0-99.643 42.071-99.643-84.259 0-72.231 44.631-130.781 99.643-130.781 55.028.009 99.643 58.558 99.643 130.781z" fill="#5b2f1b"/>
    <path d="M252.062 184.47c-50.121 0-91.506 48.64-98.493 111.892 7.326 87.465 48.632 52.933 98.493 52.933 49.869 0 91.168 34.532 98.493-52.933-6.987-63.252-48.365-111.892-98.493-111.892z" fill="#824323"/>
    <path d="M232.629 487.219c0 14.935-17.802 16.904-39.739 16.904s-39.739-1.961-39.739-16.904 17.802-35.509 39.739-35.509 39.739 20.567 39.739 35.509z" fill="#113e49"/>
    <path d="M232.629 487.219c0 14.935-17.802 16.904-39.739 16.904s-39.739-1.961-39.739-16.904" fill="#072328"/>
    <path d="M350.988 487.219c0 14.935-17.802 16.904-39.739 16.904s-39.739-1.961-39.739-16.904 17.802-35.509 39.739-35.509 39.739 20.567 39.739 35.509z" fill="#113e49"/>
    <path d="M350.988 487.219c0 14.935-17.802 16.904-39.739 16.904s-39.739-1.961-39.739-16.904" fill="#072328"/>
    <path d="M381.015 124.258c0 63.008-57.738 94.681-128.937 94.681-71.215 0-128.969-31.673-128.969-94.681C123.108 61.235 180.862 0 252.077 0c71.2 0 128.938 61.235 128.938 124.258z" fill="#f9bd82"/>
    <path d="M381.015 124.258c0 63.008-57.738 94.681-128.937 94.681-71.215 0-128.969-31.673-128.969-94.681" fill="#eda366"/>
    <circle cx="191" cy="103" r="12" fill="#113e49"/>
    <path d="M202.279 103.054c0 6.388-5.167 11.54-11.54 11.54-6.372 0-11.524-5.152-11.524-11.54"/>
    <path d="M213.496 127.11a2.377 2.377 0 0 1-1.725-.717c-5.632-5.624-13.107-8.72-21.047-8.72h-.016c-7.94 0-15.399 3.104-21 8.712-.953.953-2.489.977-3.434.008a2.4 2.4 0 0 1-.031-3.419c6.538-6.546 15.218-10.161 24.458-10.161h.016c9.263 0 17.951 3.592 24.505 10.145.937.937.937 2.505 0 3.434-.466.489-1.08.718-1.726.718z" fill="#ffd3c5"/>
    <circle cx="313" cy="103" r="12" fill="#113e49"/>
    <path d="M301.859 103.054a11.52 11.52 0 0 0 11.54 11.54c6.372 0 11.524-5.152 11.524-11.54"/>
    <path d="M290.643 127.11c.599 0 1.229-.221 1.709-.717 5.632-5.624 13.107-8.72 21.047-8.72h.016c7.94 0 15.415 3.104 21.016 8.712a2.405 2.405 0 0 0 3.434.008c.953-.922.969-2.458.016-3.419-6.506-6.546-15.218-10.161-24.458-10.161h-.016c-9.248 0-17.936 3.592-24.505 10.145-.922.937-.922 2.505 0 3.434a2.39 2.39 0 0 0 1.741.718z" fill="#ffd3c5"/>
    <path d="M345.309 291.643c4.742-14.344-9.862-32.02-32.603-39.534-22.709-7.491-138.398-32.713-143.155-18.408-4.71 14.336 103.353 62.818 126.078 70.309 22.709 7.507 44.953 1.961 49.68-12.367z" fill="#eda366"/>
    <path d="M158.815 291.643c-4.742-14.344 9.862-32.02 32.603-39.534 22.709-7.491 138.398-32.713 143.155-18.408 4.71 14.336-103.353 62.818-126.078 70.309-22.71 7.507-44.954 1.961-49.68-12.367z" fill="#f9bd82"/>
    <path d="M296.369 240.569c-.859-3.285-1.449-6.412-1.906-9.452a560.38 560.38 0 0 0-6.774.859 85.17 85.17 0 0 0 2.529 14.746c1.709 6.498 3.97 12.304 6.412 16.927a417.285 417.285 0 0 0 7.31-4.072c-2.892-4.877-5.602-11.493-7.571-19.008z" fill="#7a4e0e"/>
    <circle cx="291" cy="241" r="14" fill="#38494c"/>
    <circle cx="290" cy="239" r="8" fill="#a3e1ef"/>
    <path d="M291.903 24.804V6.632C279.355 2.402 265.988 0 252.077 0c-13.926 0-27.301 2.41-39.865 6.64v18.172c0 22.016 17.833 39.849 39.849 39.849 22.009-.007 39.842-17.841 39.842-39.857z" fill="#05d3c8"/>
    <path d="M212.212 6.64v3.403c0 22.016 17.833 39.849 39.849 39.849 22.008 0 39.841-17.833 39.841-39.849V6.632C279.355 2.402 265.988 0 252.077 0c-13.926 0-27.301 2.41-39.865 6.64z" fill="#0af2eb"/>
    <g fill="#824323">
        <path d="M191.173 155.238c-26.049 0-47.262-21.197-47.262-47.262s21.213-47.262 47.262-47.262c26.081 0 47.262 21.197 47.262 47.262s-21.189 47.262-47.262 47.262zm0-78.769c-17.369 0-31.508 14.131-31.508 31.508s14.139 31.508 31.508 31.508c17.384 0 31.508-14.131 31.508-31.508s-14.124-31.508-31.508-31.508z"/>
        <path d="M148.842 115.854h-22.969c-4.356 0-7.877-3.521-7.877-7.877s3.521-7.877 7.877-7.877h22.969c4.356 0 7.877 3.521 7.877 7.877s-3.521 7.877-7.877 7.877zm164.108 39.384c-26.081 0-47.262-21.197-47.262-47.262s21.181-47.262 47.262-47.262c26.049 0 47.262 21.197 47.262 47.262s-21.213 47.262-47.262 47.262zm0-78.769c-17.384 0-31.508 14.131-31.508 31.508s14.123 31.508 31.508 31.508c17.369 0 31.508-14.131 31.508-31.508s-14.131-31.508-31.508-31.508z"/>
        <path d="M378.25 115.854h-22.969c-4.356 0-7.877-3.521-7.877-7.877s3.521-7.877 7.877-7.877h22.969c4.372 0 7.877 3.521 7.877 7.877s-3.513 7.877-7.877 7.877zM231.259 82.377h47.262v15.754h-47.262z"/>
    </g>
</svg>
