<svg xmlns="http://www.w3.org/2000/svg" viewBox="0 0 504 504">
    <g fill="#232728">
        <path d="M308.445 315.242c0 126.322-44.599 84.259-99.643 84.259-55.036 0-99.643 42.063-99.643-84.259 0-72.231 44.631-130.788 99.643-130.788 55.028.008 99.643 58.565 99.643 130.788z"/>
        <path d="M184.951 361.905c0 19.511-15.817 124.676-35.336 124.676-19.495 0-35.304-105.173-35.304-124.676 0-19.495 15.817-35.32 35.304-35.32 19.519 0 35.336 15.833 35.336 35.32zm118.35 0c0 19.511-15.817 124.676-35.336 124.676-19.495 0-35.304-105.173-35.304-124.676 0-19.495 15.817-35.32 35.304-35.32 19.527 0 35.336 15.833 35.336 35.32z"/>
    </g>
    <path d="M189.37 487.219c0 14.935-17.802 16.904-39.739 16.904s-39.747-1.969-39.747-16.904 17.81-35.509 39.747-35.509 39.739 20.567 39.739 35.509z" fill="#383e3f"/>
    <path d="M189.37 487.219c0 14.935-17.802 16.904-39.739 16.904s-39.747-1.969-39.747-16.904" fill="#232728"/>
    <path d="M307.72 487.219c0 14.935-17.802 16.904-39.747 16.904-21.921 0-39.731-1.969-39.731-16.904s17.81-35.509 39.731-35.509c21.946 0 39.747 20.567 39.747 35.509z" fill="#383e3f"/>
    <path d="M307.72 487.219c0 14.935-17.802 16.904-39.747 16.904-21.921 0-39.731-1.969-39.731-16.904m-30.428-283.451c10.027 11.28 3.663 33.296-14.218 49.215-17.881 15.896-114.018 85.031-124.062 73.767-10.019-11.296 69.892-98.706 87.773-114.601 17.849-15.903 40.471-19.653 50.507-8.381zm21.976 0c-10.035 11.28-3.679 33.296 14.21 49.215 17.881 15.896 114.018 85.031 124.062 73.767 10.012-11.296-69.9-98.706-87.773-114.601-17.865-15.903-40.479-19.653-50.499-8.381z" fill="#232728"/>
    <path fill="#e2ded3" d="M188.117 199.538h41.354v178.215h-41.354z"/>
    <path d="M188.117 233.661c6.751.63 13.627 1.032 20.693 1.032 7.042 0 13.934-.402 20.661-1.032v-34.123h-41.354v34.123z" fill="#c6bfaf"/>
    <path fill="#444849" d="M214.922 218.569l10.24 103.896-16.368 11.887-16.368-11.887 10.256-103.896z"/>
    <path fill="#232728" d="M202.682 218.569h12.24l10.24 103.896-16.368 11.887"/>
    <path d="M337.747 124.258c0 63-57.738 94.681-128.937 94.681-71.223 0-128.977-31.673-128.977-94.681C79.833 61.227 137.587 0 208.81 0c71.199 0 128.937 61.227 128.937 124.258z" fill="#422816"/>
    <path d="M337.747 124.258c0 63-57.738 94.681-128.937 94.681-71.223 0-128.977-31.673-128.977-94.681 0-63.031 57.754-74.382 128.977-74.382 71.199.001 128.937 11.351 128.937 74.382z" fill="#cc8f62"/>
    <path d="M337.747 124.258c0 63-57.738 94.681-128.937 94.681-71.223 0-128.977-31.673-128.977-94.681" fill="#af734a"/>
    <circle cx="147" cy="136" r="12" fill="#113e49"/>
    <path d="M159.004 136.428c0 6.388-5.159 11.54-11.532 11.54-6.372 0-11.524-5.152-11.524-11.54"/>
    <path d="M170.237 160.477c-.622 0-1.252-.213-1.733-.709-5.632-5.632-13.107-8.72-21.055-8.72h-.008c-7.94 0-15.399 3.096-21.008 8.704-.945.953-2.473.985-3.426.016a2.402 2.402 0 0 1-.032-3.419c6.538-6.554 15.218-10.169 24.458-10.169h.008c9.271 0 17.952 3.6 24.513 10.153.929.937.929 2.505 0 3.434-.473.497-1.079.71-1.717.71z" fill="#cc8f62"/>
    <circle cx="270" cy="136" r="12" fill="#113e49"/>
    <path d="M258.6 136.428a11.52 11.52 0 0 0 11.54 11.54c6.372 0 11.524-5.152 11.524-11.54"/>
    <path d="M247.383 160.477c.599 0 1.229-.213 1.709-.709 5.624-5.632 13.099-8.72 21.047-8.72h.016c7.932 0 15.415 3.096 21.016 8.704a2.405 2.405 0 0 0 3.434.016 2.416 2.416 0 0 0 .024-3.419c-6.514-6.554-15.226-10.169-24.466-10.169h-.016c-9.255 0-17.944 3.6-24.505 10.153-.922.937-.922 2.505 0 3.434.481.497 1.095.71 1.741.71z" fill="#cc8f62"/>
    <path d="M237.23 168.629c0 10.264-12.745 18.597-28.428 18.597-15.691 0-28.428-8.342-28.428-18.597 0-10.279 12.737-4.135 28.428-4.135 15.683 0 28.428-6.136 28.428 4.135z" fill="#a11"/>
    <path d="M185.471 179.232c5.136 4.829 13.659 8.003 23.324 8.003s18.188-3.167 23.316-8.003c-5.128-4.829-13.651-8.003-23.316-8.003s-18.181 3.174-23.324 8.003z" fill="#d62b2b"/>
    <path d="M199.94 135.326c0 13.06-10.594 23.678-23.654 23.678h-32.587c-13.084 0-23.686-10.618-23.686-23.678V122.51c0-13.091 10.602-23.694 23.686-23.694h32.587c13.06 0 23.654 10.602 23.654 23.694v12.816z"/>
    <path d="M148.638 108.678c0 5.459-4.395 9.878-9.862 9.878H83.551c-5.459 0-9.886-4.419-9.886-9.878 0-5.443 4.427-9.862 9.886-9.862h55.225a9.846 9.846 0 0 1 9.862 9.862zm69.018 26.648c0 13.06 10.571 23.678 23.654 23.678h32.555c13.099 0 23.686-10.618 23.686-23.678V122.51c0-13.091-10.587-23.694-23.686-23.694H241.31c-13.084 0-23.654 10.602-23.654 23.694v12.816z"/>
    <path d="M268.95 108.678a9.868 9.868 0 0 0 9.878 9.878h55.233c5.427 0 9.862-4.419 9.862-9.878 0-5.443-4.427-9.862-9.862-9.862h-55.233c-5.467 0-9.878 4.411-9.878 9.862zm-96.658 0c0 5.459 4.427 9.878 9.878 9.878h55.249c5.443 0 9.878-4.419 9.878-9.878 0-5.443-4.427-9.862-9.878-9.862H182.17c-5.451 0-9.878 4.411-9.878 9.862z"/>
    <g fill="#8d97a0">
        <path d="M425.543 379.92a7.668 7.668 0 0 1-10.854 0l-23.528-23.52a7.692 7.692 0 0 1 0-10.862l9.5-9.492a7.678 7.678 0 0 1 10.862 0l23.52 23.52a7.663 7.663 0 0 1 0 10.862l-9.5 9.492z"/>
        <path d="M429.049 365.796a2.72 2.72 0 0 1 0-3.86l8.365-8.357a2.687 2.687 0 0 1 3.844 0l3.387 3.371a2.706 2.706 0 0 1 0 3.86l-8.365 8.365a2.725 2.725 0 0 1-3.852 0l-3.379-3.379zm-73.862-21.842c-3.001 3.001-7.861 3.001-10.854 0l-3.395-3.387a7.678 7.678 0 0 1 0-10.862l12.217-12.217c2.993-3.001 7.853-3.001 10.854 0l3.403 3.403c2.993 3.001 2.993 7.861 0 10.847l-12.225 12.216z"/>
        <path d="M353.154 317.495c-3.001 3.001-3.009 7.861 0 10.862l39.361 39.353a7.668 7.668 0 0 0 10.854 0l21.039-21.031a7.678 7.678 0 0 0 0-10.862l-39.361-39.369c-3.001-2.985-7.853-2.985-10.862 0l-21.031 21.047z"/>
    </g>
    <path d="M424.409 335.817l-39.361-39.369c-3.001-2.985-7.853-2.985-10.862 0l-8.814 8.83a7.678 7.678 0 0 0 0 10.862l39.361 39.353a7.668 7.668 0 0 0 10.854 0l8.822-8.814a7.678 7.678 0 0 0 0-10.862z" fill="#b4bcc1"/>
</svg>
