<svg xmlns="http://www.w3.org/2000/svg" viewBox="0 0 504 504">
    <g fill="#232728">
        <path d="M379.075 315.242c0 126.322-44.599 84.259-99.643 84.259-55.028 0-99.643 42.063-99.643-84.259 0-72.231 44.631-130.788 99.643-130.788 55.028.008 99.643 58.565 99.643 130.788z"/>
        <path d="M255.58 361.905c0 19.511-15.817 124.676-35.336 124.676-19.495 0-35.304-105.173-35.304-124.676 0-19.495 15.817-35.32 35.304-35.32 19.519 0 35.336 15.833 35.336 35.32zm118.359 0c0 19.511-15.817 124.676-35.336 124.676-19.495 0-35.304-105.173-35.304-124.676 0-19.495 15.817-35.32 35.304-35.32 19.519 0 35.336 15.833 35.336 35.32z"/>
    </g>
    <path d="M259.999 487.219c0 14.935-17.802 16.904-39.739 16.904s-39.739-1.969-39.739-16.904 17.802-35.509 39.739-35.509 39.739 20.567 39.739 35.509z" fill="#383e3f"/>
    <path d="M259.999 487.219c0 14.935-17.802 16.904-39.739 16.904s-39.739-1.969-39.739-16.904" fill="#232728"/>
    <path d="M378.35 487.219c0 14.935-17.802 16.904-39.739 16.904s-39.739-1.969-39.739-16.904 17.802-35.509 39.739-35.509 39.739 20.567 39.739 35.509z" fill="#383e3f"/>
    <path d="M378.35 487.219c0 14.935-17.802 16.904-39.739 16.904s-39.739-1.969-39.739-16.904m-30.429-283.451c10.027 11.28 3.663 33.296-14.218 49.215-17.881 15.896-114.018 85.031-124.062 73.767-10.012-11.296 69.892-98.706 87.773-114.601 17.865-15.903 40.48-19.653 50.507-8.381zm21.969 0c-10.027 11.28-3.663 33.296 14.218 49.215 17.881 15.896 114.018 85.031 124.062 73.767 10.012-11.296-69.892-98.706-87.773-114.601-17.857-15.903-40.472-19.653-50.507-8.381z" fill="#232728"/>
    <path fill="#e2ded3" d="M258.755 199.538h41.354v178.215h-41.354z"/>
    <path d="M258.755 233.661c6.75.63 13.627 1.032 20.693 1.032 7.05 0 13.926-.402 20.661-1.032v-34.123h-41.354v34.123z" fill="#c6bfaf"/>
    <path fill="#444849" d="M285.552 218.569L295.8 322.465l-16.369 11.887-16.376-11.887 10.256-103.896z"/>
    <path fill="#232728" d="M273.311 218.569h12.241L295.8 322.465l-16.369 11.887"/>
    <path d="M408.385 124.258c0 63-57.738 94.681-128.937 94.681-71.215 0-128.969-31.673-128.969-94.681C150.478 61.227 208.232 0 279.447 0c71.2 0 128.938 61.227 128.938 124.258z" fill="#7a4a2a"/>
    <path d="M408.385 124.258c0 63-57.738 94.681-128.937 94.681-71.215 0-128.969-31.673-128.969-94.681 0-63.031 57.754-74.382 128.969-74.382 71.199.001 128.937 11.351 128.937 74.382z" fill="#f9c1ac"/>
    <path d="M408.385 124.258c0 63-57.738 94.681-128.937 94.681-71.215 0-128.969-31.673-128.969-94.681" fill="#f2b09c"/>
    <circle cx="218" cy="136" r="12" fill="#113e49"/>
    <path d="M229.641 136.428c0 6.388-5.167 11.54-11.54 11.54s-11.524-5.152-11.524-11.54"/>
    <path d="M240.858 160.477c-.614 0-1.245-.213-1.725-.709-5.632-5.632-13.107-8.72-21.047-8.72h-.016c-7.94 0-15.399 3.096-21 8.704-.953.953-2.489.985-3.434.016a2.402 2.402 0 0 1-.032-3.419c6.538-6.554 15.218-10.169 24.458-10.169h.016c9.263 0 17.952 3.6 24.505 10.153.937.937.937 2.505 0 3.434-.465.497-1.079.71-1.725.71z" fill="#ffd3c5"/>
    <circle cx="341" cy="136" r="12" fill="#113e49"/>
    <path d="M329.229 136.428a11.52 11.52 0 0 0 11.54 11.54c6.372 0 11.524-5.152 11.524-11.54"/>
    <path d="M318.013 160.477c.599 0 1.229-.213 1.709-.709 5.632-5.632 13.107-8.72 21.047-8.72h.016c7.94 0 15.415 3.096 21.016 8.704a2.405 2.405 0 0 0 3.434.016c.953-.922.969-2.458.016-3.419-6.506-6.554-15.218-10.169-24.458-10.169h-.016c-9.247 0-17.936 3.6-24.505 10.153-.922.937-.922 2.505 0 3.434.48.497 1.095.71 1.741.71z" fill="#ffd3c5"/>
    <path d="M250.996 173.828c0-6.152 12.737-11.154 28.428-11.154s28.428 5.002 28.428 11.154-12.737 2.473-28.428 2.473-28.428 3.687-28.428-2.473z" fill="#a11"/>
    <path d="M270.586 135.326c0 13.06-10.602 23.678-23.662 23.678h-32.587c-13.076 0-23.678-10.618-23.678-23.678V122.51c0-13.091 10.602-23.694 23.678-23.694h32.587c13.06 0 23.662 10.602 23.662 23.694v12.816z"/>
    <path d="M219.275 108.678c0 5.459-4.403 9.878-9.862 9.878H154.18a9.873 9.873 0 0 1-9.878-9.878c0-5.443 4.419-9.862 9.878-9.862h55.233a9.851 9.851 0 0 1 9.862 9.862zm69.018 26.648c0 13.06 10.571 23.678 23.662 23.678h32.555c13.091 0 23.678-10.618 23.678-23.678V122.51c0-13.091-10.587-23.694-23.678-23.694h-32.555c-13.091 0-23.662 10.602-23.662 23.694v12.816z"/>
    <path d="M339.58 108.678a9.873 9.873 0 0 0 9.878 9.878h55.233c5.427 0 9.862-4.419 9.862-9.878 0-5.443-4.427-9.862-9.862-9.862h-55.233c-5.459 0-9.878 4.411-9.878 9.862zm-96.658 0c0 5.459 4.427 9.878 9.878 9.878h55.249c5.443 0 9.878-4.419 9.878-9.878 0-5.443-4.427-9.862-9.878-9.862H252.8c-5.451 0-9.878 4.411-9.878 9.862z"/>
    <path d="M155.472 318.692c5.758 5.766 5.758 15.124 0 20.89-5.766 5.766-15.124 5.766-20.89 0l-55.69-55.706c-5.766-5.75-5.766-15.108-.008-20.874 5.766-5.766 15.124-5.766 20.882 0l55.706 55.69z" fill="#8d97a0"/>
    <path d="M78.885 263.003c5.766-5.766 15.124-5.766 20.882 0l55.706 55.69c5.758 5.766 5.758 15.124 0 20.89" fill="#6b777f"/>
    <circle cx="92" cy="276" r="6" fill="#0aefd3"/>
</svg>
