<svg xmlns="http://www.w3.org/2000/svg" viewBox="0 0 504 504">
    <path d="M168.213 119.784s10.831 110.277 0 110.277c0 0 19.692 4.923 33.477 3.938 13.785-.985 39.385-16.738 39.385-16.738l-59.077-88.615-13.785-8.862zm252.715 0s-10.831 110.277 0 110.277c0 0-19.692 4.923-33.477 3.938-13.785-.985-39.385-16.738-39.385-16.738l59.077-88.615 13.785-8.862z" fill="#5e3417"/>
    <g fill="#232728">
        <path d="M394.217 315.242c0 126.322-44.599 84.259-99.643 84.259-55.028 0-99.643 42.063-99.643-84.259 0-72.231 44.631-130.788 99.643-130.788 55.029.008 99.643 58.565 99.643 130.788z"/>
        <path d="M270.723 361.905c0 19.511-15.817 124.676-35.336 124.676-19.495 0-35.304-105.173-35.304-124.676 0-19.495 15.817-35.32 35.304-35.32 19.519 0 35.336 15.833 35.336 35.32zm118.359 0c0 19.511-15.817 124.676-35.336 124.676-19.495 0-35.304-105.173-35.304-124.676 0-19.495 15.817-35.32 35.304-35.32 19.519 0 35.336 15.833 35.336 35.32z"/>
    </g>
    <path d="M275.142 487.219c0 14.935-17.802 16.904-39.739 16.904-21.937 0-39.739-1.969-39.739-16.904s17.802-35.509 39.739-35.509c21.937 0 39.739 20.567 39.739 35.509z" fill="#383e3f"/>
    <path d="M275.142 487.219c0 14.935-17.802 16.904-39.739 16.904-21.937 0-39.739-1.969-39.739-16.904" fill="#232728"/>
    <path d="M393.493 487.219c0 14.935-17.802 16.904-39.739 16.904s-39.739-1.969-39.739-16.904 17.802-35.509 39.739-35.509 39.739 20.567 39.739 35.509z" fill="#383e3f"/>
    <path d="M393.493 487.219c0 14.935-17.802 16.904-39.739 16.904s-39.739-1.969-39.739-16.904m-30.429-283.451c10.027 11.28 3.663 33.296-14.218 49.215-17.881 15.896-114.018 85.031-124.062 73.767-10.012-11.296 69.892-98.706 87.773-114.601 17.857-15.903 40.48-19.653 50.507-8.381zm21.969 0c-10.027 11.28-3.663 33.296 14.218 49.215 17.881 15.896 114.018 85.031 124.062 73.767 10.012-11.296-69.892-98.706-87.773-114.601-17.857-15.903-40.48-19.653-50.507-8.381z" fill="#232728"/>
    <path fill="#e2ded3" d="M273.882 199.538h41.354v178.215h-41.354z"/>
    <path d="M273.89 233.661c6.751.63 13.627 1.032 20.693 1.032 7.05 0 13.926-.402 20.661-1.032v-34.123H273.89v34.123z" fill="#c6bfaf"/>
    <path fill="#444849" d="M300.695 218.569l10.248 103.896-16.377 11.887-16.368-11.887 10.256-103.896z"/>
    <path fill="#232728" d="M288.454 218.569h12.241l10.248 103.896-16.377 11.887"/>
    <path d="M423.527 124.258c0 63-57.738 94.681-128.937 94.681-71.215 0-128.969-31.673-128.969-94.681C165.621 61.227 223.375 0 294.59 0c71.2 0 128.937 61.227 128.937 124.258z" fill="#7a4a2a"/>
    <path d="M423.527 124.258c0 63-57.738 94.681-128.937 94.681-71.215 0-128.969-31.673-128.969-94.681 0-63.031 57.754-74.382 128.969-74.382 71.2.001 128.937 11.351 128.937 74.382z" fill="#f9c1ac"/>
    <path d="M423.527 124.258c0 63-57.738 94.681-128.937 94.681-71.215 0-128.969-31.673-128.969-94.681" fill="#f2b09c"/>
    <circle cx="233" cy="151" r="12" fill="#113e49"/>
    <path d="M244.784 151.198c0 6.388-5.167 11.54-11.54 11.54-6.372 0-11.524-5.152-11.524-11.54"/>
    <path d="M256.001 175.246c-.614 0-1.245-.213-1.725-.709-5.632-5.632-13.107-8.72-21.047-8.72h-.016c-7.94 0-15.399 3.096-21 8.704-.953.953-2.489.985-3.434.016a2.402 2.402 0 0 1-.032-3.419c6.538-6.554 15.218-10.169 24.458-10.169h.016c9.263 0 17.952 3.6 24.505 10.153.937.937.937 2.505 0 3.434-.465.497-1.079.71-1.725.71z" fill="#ffd3c5"/>
    <circle cx="356" cy="151" r="12" fill="#113e49"/>
    <path d="M344.372 151.198a11.52 11.52 0 0 0 11.54 11.54c6.372 0 11.524-5.152 11.524-11.54"/>
    <path d="M333.156 175.246c.599 0 1.229-.213 1.709-.709 5.632-5.632 13.107-8.72 21.047-8.72h.016c7.94 0 15.415 3.096 21.016 8.704a2.405 2.405 0 0 0 3.434.016c.953-.922.969-2.458.016-3.419-6.506-6.554-15.218-10.169-24.458-10.169h-.016c-9.248 0-17.936 3.6-24.505 10.153-.922.937-.922 2.505 0 3.434.48.497 1.095.71 1.741.71z" fill="#ffd3c5"/>
    <path d="M266.139 198.443c0-6.152 12.737-11.154 28.428-11.154s28.428 5.002 28.428 11.154-12.737 2.473-28.428 2.473c-15.691.001-28.428 3.687-28.428-2.473z" fill="#a11"/>
    <g fill="#232728">
        <path d="M79.337 373.027a7.668 7.668 0 0 0 10.854 0l23.528-23.521a7.692 7.692 0 0 0 0-10.862l-9.5-9.492a7.678 7.678 0 0 0-10.862 0l-23.52 23.52a7.678 7.678 0 0 0 0 10.862l9.5 9.493z"/>
        <path d="M75.832 358.904a2.72 2.72 0 0 0 0-3.86l-8.365-8.357a2.706 2.706 0 0 0-3.86 0l-3.379 3.371a2.72 2.72 0 0 0 0 3.86l8.365 8.365a2.753 2.753 0 0 0 3.875 0l3.364-3.379zm73.862-21.843c3.001 3.001 7.861 3.001 10.854 0l3.395-3.387a7.678 7.678 0 0 0 0-10.862l-12.217-12.217c-2.993-3.001-7.853-3.001-10.854 0l-3.403 3.403c-2.993 3.001-2.993 7.861 0 10.847l12.225 12.216z"/>
        <path d="M151.726 310.603c3.001 3.001 3.009 7.861 0 10.862l-39.361 39.353a7.668 7.668 0 0 1-10.854 0l-21.039-21.031a7.678 7.678 0 0 1 0-10.862l39.361-39.369c2.985-2.985 7.845-2.985 10.862 0l21.031 21.047z"/>
    </g>
    <path d="M80.472 328.925l39.361-39.369c2.985-2.985 7.845-2.985 10.862 0l8.814 8.83a7.678 7.678 0 0 1 0 10.862l-39.361 39.353a7.668 7.668 0 0 1-10.854 0l-8.822-8.814a7.678 7.678 0 0 1 0-10.862z" fill="#3d4344"/>
    <path fill="#7a4a2a" d="M339.117 50.54l-44.552 44.552-44.553-44.553 44.553-44.552z"/>
</svg>
