<svg xmlns="http://www.w3.org/2000/svg" viewBox="0 0 504 504">
    <g fill="#232728">
        <path d="M394.34 315.242c0 126.322-44.599 84.259-99.643 84.259-55.036 0-99.643 42.063-99.643-84.259 0-72.231 44.631-130.788 99.643-130.788 55.028.008 99.643 58.565 99.643 130.788z"/>
        <path d="M270.853 361.905c0 19.511-15.825 124.676-35.336 124.676-19.495 0-35.304-105.173-35.304-124.676 0-19.495 15.817-35.32 35.304-35.32 19.511 0 35.336 15.833 35.336 35.32zm118.343 0c0 19.511-15.809 124.676-35.328 124.676-19.495 0-35.304-105.173-35.304-124.676 0-19.495 15.817-35.32 35.304-35.32 19.519 0 35.328 15.833 35.328 35.32z"/>
    </g>
    <path d="M275.264 487.219c0 14.935-17.802 16.904-39.739 16.904-21.937 0-39.747-1.969-39.747-16.904s17.81-35.509 39.747-35.509 39.739 20.567 39.739 35.509z" fill="#383e3f"/>
    <path d="M275.264 487.219c0 14.935-17.802 16.904-39.739 16.904-21.937 0-39.747-1.969-39.747-16.904" fill="#232728"/>
    <path d="M393.623 487.219c0 14.935-17.802 16.904-39.747 16.904-21.922 0-39.731-1.969-39.731-16.904s17.81-35.509 39.731-35.509c21.945 0 39.747 20.567 39.747 35.509z" fill="#383e3f"/>
    <path d="M393.623 487.219c0 14.935-17.802 16.904-39.747 16.904-21.922 0-39.731-1.969-39.731-16.904m-30.429-283.451c10.027 11.28 3.663 33.296-14.218 49.215-17.888 15.896-114.018 85.031-124.062 73.767-10.019-11.296 69.892-98.706 87.773-114.601 17.849-15.903 40.472-19.653 50.507-8.381zm21.977 0c-10.035 11.28-3.678 33.296 14.21 49.215 17.881 15.896 114.018 85.031 124.062 73.767 10.012-11.296-69.9-98.706-87.773-114.601-17.865-15.903-40.48-19.653-50.499-8.381z" fill="#232728"/>
    <path fill="#e2ded3" d="M274.035 199.538h41.354v178.215h-41.354z"/>
    <path d="M274.02 233.661c6.751.63 13.627 1.032 20.693 1.032 7.042 0 13.934-.402 20.661-1.032v-34.123H274.02v34.123z" fill="#c6bfaf"/>
    <path fill="#444849" d="M300.817 218.569l10.248 103.896-16.369 11.887-16.368-11.887 10.256-103.896z"/>
    <path fill="#232728" d="M288.584 218.569h12.233l10.248 103.896-16.369 11.887"/>
    <path d="M423.65 124.258c0 63-57.738 94.681-128.937 94.681-71.223 0-128.977-31.673-128.977-94.681C165.736 61.227 223.489 0 294.712 0c71.2 0 128.938 61.227 128.938 124.258z" fill="#422816"/>
    <path d="M407.896 124.258c0 62.984-62.992 94.681-113.184 94.681-71.223 0-113.223-31.673-113.223-94.681 0-63.031 42-27.12 113.223-27.12 71.2 0 113.184-35.911 113.184 27.12z" fill="#cc8f62"/>
    <path d="M407.896 124.258c0 63-41.984 94.681-113.184 94.681-71.223 0-113.223-31.673-113.223-94.681" fill="#af734a"/>
    <circle cx="233" cy="136" r="12" fill="#113e49"/>
    <path d="M244.906 136.428c0 6.388-5.159 11.54-11.54 11.54-6.365 0-11.516-5.152-11.516-11.54"/>
    <path d="M256.139 160.477c-.622 0-1.252-.213-1.733-.709-5.632-5.632-13.107-8.72-21.055-8.72h-.008c-7.94 0-15.399 3.096-21.008 8.704-.945.953-2.473.985-3.426.016a2.4 2.4 0 0 1-.031-3.419c6.546-6.554 15.218-10.169 24.458-10.169h.008c9.271 0 17.951 3.6 24.513 10.153.929.937.929 2.505 0 3.434-.473.497-1.072.71-1.718.71z" fill="#cc8f62"/>
    <circle cx="356" cy="136" r="12" fill="#113e49"/>
    <path d="M344.494 136.428a11.52 11.52 0 0 0 11.54 11.54c6.372 0 11.524-5.152 11.524-11.54"/>
    <path d="M333.286 160.477c.599 0 1.229-.213 1.709-.709 5.624-5.632 13.099-8.72 21.047-8.72h.016c7.932 0 15.415 3.096 21.016 8.704a2.405 2.405 0 0 0 3.434.016 2.416 2.416 0 0 0 .024-3.419c-6.514-6.554-15.226-10.169-24.466-10.169h-.031c-9.255 0-17.944 3.6-24.505 10.153-.922.937-.922 2.505 0 3.434.487.497 1.102.71 1.756.71z" fill="#cc8f62"/>
    <path d="M266.261 202.295c0-10.264 12.737-18.597 28.428-18.597s28.428 8.342 28.428 18.597c0 10.279-12.737 4.135-28.428 4.135-15.691.001-28.428 6.137-28.428-4.135z" fill="#a11"/>
    <g fill="#232728">
        <path d="M79.215 373.027a7.668 7.668 0 0 0 10.854 0l23.528-23.521a7.692 7.692 0 0 0 0-10.862l-9.5-9.492a7.678 7.678 0 0 0-10.862 0l-23.52 23.52a7.678 7.678 0 0 0 0 10.862l9.5 9.493z"/>
        <path d="M75.702 358.904a2.72 2.72 0 0 0 0-3.86l-8.365-8.357a2.706 2.706 0 0 0-3.86 0l-3.379 3.371a2.72 2.72 0 0 0 0 3.86l8.365 8.365a2.753 2.753 0 0 0 3.875 0l3.364-3.379zm73.862-21.843c3.001 3.001 7.861 3.001 10.854 0l3.395-3.387a7.678 7.678 0 0 0 0-10.862l-12.217-12.217c-2.993-3.001-7.853-3.001-10.854 0l-3.403 3.403c-2.993 3.001-2.993 7.861 0 10.847l12.225 12.216z"/>
        <path d="M151.596 310.603a7.678 7.678 0 0 1 0 10.862l-39.361 39.353a7.668 7.668 0 0 1-10.854 0l-21.039-21.031a7.678 7.678 0 0 1 0-10.862l39.361-39.369c2.985-2.985 7.845-2.985 10.862 0l21.031 21.047z"/>
    </g>
    <path d="M80.342 328.925l39.361-39.369c2.985-2.985 7.845-2.985 10.862 0l8.814 8.83a7.678 7.678 0 0 1 0 10.862l-39.361 39.353a7.668 7.668 0 0 1-10.854 0l-8.822-8.814a7.678 7.678 0 0 1 0-10.862z" fill="#3d4344"/>
</svg>
