<svg xmlns="http://www.w3.org/2000/svg" viewBox="0 0 504 504">
    <path d="M280.113 258.095c11.28 10.027 33.304 3.663 49.223-14.218 15.896-17.881 85.016-114.018 73.767-124.062-11.296-10.012-98.714 69.892-114.609 87.773-15.896 17.857-19.653 40.472-8.381 50.507z" fill="#8f9e9c"/>
    <path d="M226.069 361.913c0 19.503-15.817 124.668-35.336 124.668-19.495 0-35.304-105.173-35.304-124.668 0-19.495 15.817-35.32 35.304-35.32 19.52 0 35.336 15.825 35.336 35.32zm118.351 0c0 19.503-15.817 124.668-35.336 124.668-19.495 0-35.304-105.173-35.304-124.668 0-19.495 15.817-35.32 35.304-35.32 19.519 0 35.336 15.825 35.336 35.32z" fill="#232728"/>
    <path d="M349.556 315.242c0 126.33-44.607 84.259-99.643 84.259-55.028 0-99.643 42.071-99.643-84.259 0-72.231 44.631-130.781 99.643-130.781 55.028.009 99.643 58.558 99.643 130.781z" fill="#a5b7b5"/>
    <path d="M249.913 366.033c-51.617 0-94.074 37.006-99.139-62.661-.339 3.458-.504 7.396-.504 11.878 0 126.33 44.615 84.259 99.643 84.259 55.036 0 99.643 42.071 99.643-84.259 0-4.474-.165-8.413-.504-11.878-5.073 99.667-47.506 62.661-99.139 62.661z" fill="#8f9e9c"/>
    <path d="M230.48 487.219c0 14.935-17.802 16.904-39.747 16.904-21.929 0-39.739-1.961-39.739-16.904s17.81-35.509 39.739-35.509c21.946.008 39.747 20.567 39.747 35.509z" fill="#11d3c0"/>
    <path d="M230.48 487.219c0 14.935-17.802 16.904-39.747 16.904-21.929 0-39.739-1.961-39.739-16.904" fill="#13a9d1"/>
    <path d="M348.831 487.219c0 14.935-17.786 16.904-39.731 16.904-21.937 0-39.739-1.961-39.739-16.904s17.802-35.509 39.739-35.509c21.945.008 39.731 20.567 39.731 35.509z" fill="#11d3c0"/>
    <path d="M348.831 487.219c0 14.935-17.786 16.904-39.731 16.904-21.937 0-39.739-1.961-39.739-16.904" fill="#13a9d1"/>
    <path d="M238.932 203.768c10.027 11.28 3.663 33.304-14.218 49.223-17.881 15.896-114.026 85.024-124.062 73.767-10.012-11.296 69.9-98.714 87.765-114.609s40.48-19.653 50.515-8.381z" fill="#a5b7b5"/>
    <path fill="#ce8c67" d="M231.26 202.5l41.354 65.969 21.788-68.757z"/>
    <path d="M378.866 124.258c0 63.008-57.746 94.681-128.937 94.681-71.215 0-128.969-31.673-128.969-94.681C120.96 61.235 178.713 0 249.929 0c71.191 0 128.937 61.235 128.937 124.258z" fill="#e8b085"/>
    <path d="M378.866 124.258c0 63.008-57.746 94.681-128.937 94.681-71.215 0-128.969-31.673-128.969-94.681" fill="#dd9f76"/>
    <circle cx="226" cy="136" r="12" fill="#113e49"/>
    <path d="M237.318 135.877c0 6.388-5.167 11.54-11.54 11.54-6.372 0-11.524-5.151-11.524-11.54"/>
    <path d="M248.534 159.933a2.377 2.377 0 0 1-1.725-.717c-5.632-5.624-13.107-8.72-21.047-8.72h-.008c-7.94 0-15.399 3.104-21 8.712-.953.953-2.489.977-3.434.008a2.4 2.4 0 0 1-.031-3.419c6.538-6.546 15.218-10.161 24.458-10.161h.016c9.263 0 17.951 3.592 24.505 10.145.937.937.937 2.505 0 3.434-.473.49-1.088.718-1.734.718z" fill="#f4c3a2"/>
    <circle cx="348" cy="136" r="12" fill="#113e49"/>
    <path d="M336.906 135.877a11.52 11.52 0 0 0 11.54 11.54c6.372 0 11.524-5.151 11.524-11.54"/>
    <path d="M325.689 159.933c.599 0 1.229-.221 1.709-.717 5.632-5.624 13.107-8.72 21.047-8.72h.016c7.94 0 15.415 3.104 21.016 8.712a2.405 2.405 0 0 0 3.434.008c.953-.922.969-2.458.016-3.419-6.506-6.546-15.218-10.161-24.458-10.161h-.016c-9.248 0-17.936 3.592-24.505 10.145-.922.937-.922 2.505 0 3.434.481.49 1.095.718 1.741.718z" fill="#f4c3a2"/>
    <path d="M296.891 162.887s-13.477-29.003-49.719-5.175-39.353 16.565-39.353 16.565 38.313 27.987 79.754 10.382l6.215-5.199 3.103-16.573z" fill="#663f24"/>
    <path d="M207.811 174.269s38.313 27.987 79.754 10.382l6.215-5.199 3.111-16.573" fill="#543722"/>
    <path d="M289.613 162.887s13.462-29.003 49.711-5.175 39.353 16.565 39.353 16.565-38.305 27.987-79.738 10.382l-6.231-5.199-3.095-16.573z" fill="#663f24"/>
    <path d="M378.677 174.269s-38.305 27.987-79.738 10.382l-6.231-5.199-3.096-16.573" fill="#543722"/>
    <path d="M122.622 107.654s17.723-37.415 33.477 0v32.823h13.131v-35.446l29.216-29.208s-19.527-67.048-48.412-39.479-30.035 47.679-29.373 59.494c.661 11.816 1.961 11.816 1.961 11.816z" fill="#663f24"/>
    <g fill="#6a7775">
        <circle cx="273" cy="293" r="6"/>
        <circle cx="273" cy="325" r="6"/>
        <circle cx="273" cy="356" r="6"/>
    </g>
</svg>
