<svg xmlns="http://www.w3.org/2000/svg" viewBox="0 0 504 504">
    <path d="M280.117 258.095c11.28 10.027 33.304 3.663 49.223-14.218 15.896-17.881 85.016-114.018 73.767-124.062-11.296-10.012-98.714 69.9-114.609 87.773-15.904 17.857-19.653 40.472-8.381 50.507z" fill="#0969c9"/>
    <path d="M226.065 361.913c0 19.503-15.809 124.668-35.336 124.668-19.495 0-35.304-105.173-35.304-124.668 0-19.495 15.817-35.32 35.304-35.32 19.527 0 35.336 15.825 35.336 35.32zm118.359 0c0 19.503-15.817 124.668-35.336 124.668-19.495 0-35.304-105.173-35.304-124.668 0-19.495 15.817-35.32 35.304-35.32 19.519 0 35.336 15.825 35.336 35.32z" fill="#383838"/>
    <g fill="#0c87e2">
        <path d="M349.56 315.242c0 126.33-44.607 84.259-99.643 84.259-55.028 0-99.643 42.071-99.643-84.259 0-72.231 44.631-130.781 99.643-130.781 55.028.009 99.643 58.558 99.643 130.781z"/>
        <path d="M238.928 203.768c10.027 11.28 3.663 33.304-14.218 49.223-17.881 15.896-114.026 85.024-124.062 73.767-10.012-11.296 69.9-98.714 87.765-114.609s40.488-19.653 50.515-8.381z"/>
    </g>
    <path fill="#b76d44" d="M285.187 207.459l-35.278 35.268-35.268-35.278 35.278-35.268z"/>
    <path d="M249.917 366.033c-51.617 0-94.074 37.006-99.139-62.661-.339 3.458-.504 7.396-.504 11.878 0 126.33 44.615 84.259 99.643 84.259 55.036 0 99.643 42.071 99.643-84.259 0-4.474-.165-8.413-.504-11.878-5.073 99.667-47.514 62.661-99.139 62.661z" fill="#0969c9"/>
    <path d="M230.484 487.219c0 14.935-17.802 16.904-39.747 16.904-21.929 0-39.739-1.961-39.739-16.904s17.81-35.509 39.739-35.509c21.946.008 39.747 20.567 39.747 35.509z" fill="#232221"/>
    <path d="M230.484 487.219c0 14.935-17.802 16.904-39.747 16.904-21.929 0-39.739-1.961-39.739-16.904" fill="#0f0e0d"/>
    <path d="M348.827 487.219c0 14.935-17.786 16.904-39.731 16.904-21.937 0-39.739-1.961-39.739-16.904s17.802-35.509 39.739-35.509c21.945.008 39.731 20.567 39.731 35.509z" fill="#232221"/>
    <path d="M348.827 487.219c0 14.935-17.786 16.904-39.731 16.904-21.937 0-39.739-1.961-39.739-16.904" fill="#0f0e0d"/>
    <path d="M378.87 124.258c0 63.008-57.746 94.681-128.937 94.681-71.223 0-128.969-31.673-128.969-94.681C120.964 61.235 178.709 0 249.933 0 321.124 0 378.87 61.235 378.87 124.258z" fill="#e8b085"/>
    <path d="M378.87 124.258c0 63.008-57.746 94.681-128.937 94.681-71.223 0-128.969-31.673-128.969-94.681" fill="#dd9f76"/>
    <circle cx="189" cy="129" r="12" fill="#113e49"/>
    <path d="M200.127 128.654c0 6.388-5.175 11.54-11.532 11.54a11.52 11.52 0 0 1-11.532-11.54"/>
    <path d="M211.343 152.71a2.377 2.377 0 0 1-1.725-.717c-5.632-5.624-13.107-8.72-21.047-8.72h-.024c-7.932 0-15.384 3.104-20.992 8.712-.945.953-2.489.977-3.442.008a2.402 2.402 0 0 1-.024-3.419c6.538-6.546 15.218-10.161 24.45-10.161h.024c9.263 0 17.944 3.592 24.497 10.145.937.937.937 2.505 0 3.434-.456.489-1.071.718-1.717.718z" fill="#f4c3a2"/>
    <path d="M299.715 128.654c0 6.388 5.144 11.54 11.54 11.54 6.372 0 11.524-5.152 11.524-11.54 0-6.365-5.151-11.532-11.524-11.532a11.523 11.523 0 0 0-11.54 11.532z" fill="#113e49"/>
    <path d="M299.715 128.654c0 6.388 5.144 11.54 11.54 11.54 6.372 0 11.524-5.152 11.524-11.54"/>
    <path d="M288.498 152.71a2.38 2.38 0 0 0 1.709-.717c5.632-5.624 13.107-8.72 21.047-8.72h.008c7.948 0 15.423 3.104 21.016 8.712a2.405 2.405 0 0 0 3.434.008 2.395 2.395 0 0 0 .024-3.419c-6.506-6.546-15.218-10.161-24.466-10.161h-.008c-9.247 0-17.944 3.592-24.513 10.145-.922.937-.922 2.505 0 3.434a2.423 2.423 0 0 0 1.749.718z" fill="#f4c3a2"/>
    <g fill="#fff">
        <circle cx="250" cy="258" r="7"/>
        <circle cx="250" cy="301" r="7"/>
        <circle cx="250" cy="345" r="7"/>
    </g>
    <g fill="#0f0e0d">
        <path d="M371.151 84.488C353.278 37.778 305.811 0 249.925 0c-55.682 0-102.991 37.471-121.037 83.913 5.766 1.308 15.092 1.701 19.661-7.444 0 0 8.862 11.815 17.723 0 0 0 24.615 3.938 28.554-2.954 0 0 8.862 16.738 32.492 15.754 23.631-.985 18.708-40.369 18.708-40.369s6.892 37.415 17.723 41.354c10.831 3.938 31.508 4.923 37.415-8.862 0 0 16.738 9.846 21.662 0 0 0 10.831 11.815 28.554 4.923-.001 0 13.445 4.01 19.771-1.827zm-115.602 84.535c0 7.255-5.884 13.131-13.139 13.131h-34.123c-7.255 0-13.123-5.876-13.123-13.131 0-7.247 5.868-13.123 13.123-13.123h34.123c7.255 0 13.139 5.876 13.139 13.123z"/>
        <path d="M305.764 169.023c0 7.255-5.892 13.131-13.139 13.131h-34.123c-7.255 0-13.123-5.876-13.123-13.131 0-7.247 5.868-13.123 13.123-13.123h34.123c7.247 0 13.139 5.876 13.139 13.123z"/>
    </g>
</svg>
