<svg xmlns="http://www.w3.org/2000/svg" viewBox="0 0 504 504">
    <path d="M261.666 361.913c0 19.503-15.817 124.668-35.336 124.668-19.495 0-35.304-105.173-35.304-124.668 0-19.495 15.817-35.32 35.304-35.32 19.519 0 35.336 15.825 35.336 35.32zm118.351 0c0 19.503-15.817 124.668-35.336 124.668-19.495 0-35.304-105.173-35.304-124.668 0-19.495 15.817-35.32 35.304-35.32 19.519 0 35.336 15.825 35.336 35.32z" fill="#1c828c"/>
    <g fill="#ef0f0f">
        <path d="M385.153 315.242c0 126.33-44.599 84.259-99.643 84.259-55.028 0-99.643 42.071-99.643-84.259 0-72.231 44.631-130.781 99.643-130.781 55.028.009 99.643 58.558 99.643 130.781z"/>
        <path d="M319.861 214.315c11.28-10.027 33.312-3.663 49.231 14.218 15.896 17.881 85.016 114.018 73.767 124.062-11.296 10.012-98.721-69.892-114.617-87.773-15.888-17.857-19.637-40.479-8.381-50.507z"/>
    </g>
    <path d="M285.51 348.31c-49.554 0-90.632 34.036-98.336-51.389-.843 5.104-1.308 11.138-1.308 18.33 0 126.33 44.615 84.259 99.643 84.259 55.044 0 99.643 42.071 99.643-84.259 0-7.192-.465-13.225-1.308-18.33-7.687 85.425-48.765 51.389-98.334 51.389z" fill="#bf0c0c"/>
    <path d="M266.077 487.219c0 14.935-17.802 16.904-39.739 16.904s-39.739-1.961-39.739-16.904 17.802-35.509 39.739-35.509 39.739 20.567 39.739 35.509z" fill="#ef0f0f"/>
    <path d="M266.077 487.219c0 14.935-17.802 16.904-39.739 16.904s-39.739-1.961-39.739-16.904" fill="#bf0c0c"/>
    <path d="M384.436 487.219c0 14.935-17.802 16.904-39.739 16.904s-39.739-1.961-39.739-16.904 17.802-35.509 39.739-35.509 39.739 20.567 39.739 35.509z" fill="#ef0f0f"/>
    <path d="M384.436 487.219c0 14.935-17.802 16.904-39.739 16.904s-39.739-1.961-39.739-16.904" fill="#bf0c0c"/>
    <path d="M295.986 231.219c-.89-15.061-20.968-26.136-44.859-24.757-23.891 1.402-140.737 20.512-139.91 35.564.906 15.069 119.249 20.385 143.124 18.983 23.859-1.393 42.512-14.729 41.645-29.79z" fill="#ef0f0f"/>
    <circle cx="286" cy="211" r="27" fill="#a56b44"/>
    <path d="M414.463 124.258c0 63.008-57.738 94.681-128.937 94.681-71.215 0-128.969-31.673-128.969-94.681C156.557 61.235 214.31 0 285.526 0c71.199 0 128.937 61.235 128.937 124.258z" fill="#c48960"/>
    <path d="M414.463 124.258c0 63.008-57.738 94.681-128.937 94.681-71.215 0-128.969-31.673-128.969-94.681" fill="#bc8158"/>
    <circle cx="208" cy="89" r="12" fill="#113e49"/>
    <path d="M219.974 89.167c0 6.388-5.167 11.54-11.54 11.54-6.372 0-11.524-5.152-11.524-11.54"/>
    <path d="M231.191 113.223a2.377 2.377 0 0 1-1.725-.717c-5.632-5.624-13.107-8.72-21.047-8.72h-.016c-7.94 0-15.399 3.104-21 8.712-.953.953-2.489.977-3.434.008a2.4 2.4 0 0 1-.031-3.419c6.538-6.546 15.218-10.161 24.458-10.161h.016c9.263 0 17.951 3.592 24.505 10.145.937.937.937 2.505 0 3.434-.466.497-1.081.718-1.726.718z" fill="#e5a376"/>
    <circle cx="331" cy="89" r="12" fill="#113e49"/>
    <path d="M319.554 89.167c0 6.388 5.152 11.54 11.54 11.54 6.372 0 11.524-5.152 11.524-11.54"/>
    <path d="M308.345 113.223c.599 0 1.229-.221 1.709-.717 5.632-5.624 13.107-8.72 21.047-8.72h.016c7.94 0 15.415 3.104 21.016 8.712a2.405 2.405 0 0 0 3.434.008c.953-.922.969-2.458.016-3.419-6.506-6.546-15.218-10.161-24.458-10.161h-.016c-9.247 0-17.936 3.592-24.505 10.145-.922.937-.922 2.505 0 3.434.473.497 1.087.718 1.741.718z" fill="#e5a376"/>
    <path d="M288.708 175.262c0 8.696-7.058 15.754-15.754 15.754h-18.385c-8.696 0-15.754-7.058-15.754-15.754v-61.046c0-8.696 7.058-15.754 15.754-15.754h18.385c8.696 0 15.754 7.058 15.754 15.754v61.046z" fill="#841212"/>
    <path d="M272.954 131.938h-18.385c-8.696 0-15.754 7.058-15.754 15.754v27.569c0 8.696 7.058 15.754 15.754 15.754h18.385c8.696 0 15.754-7.058 15.754-15.754v-27.569c0-8.696-7.058-15.754-15.754-15.754z" fill="#a11"/>
    <path d="M264.604 298.086c12.201-12.186 31.106-13.556 44.804-4.096l10.169-10.153c-19.369-14.935-47.262-13.556-65.016 4.198-17.739 17.747-19.141 45.647-4.198 65l10.153-10.153c-9.452-13.697-8.097-32.61 4.088-44.796zm63.969-5.238l-10.153 10.153c9.46 13.698 8.09 32.61-4.096 44.804s-31.106 13.548-44.804 4.096l-10.153 10.161c19.354 14.935 47.246 13.54 65-4.206 17.754-17.746 19.141-45.654 4.206-65.008z" fill="#a50707"/>
    <path d="M76.543 188.416c12.446-2.182 9.799 4.506 8.633 46.694-.11 4.112-7.31 7.459-11.429 7.467-4.135-.008-8.058-.189-8.058-4.324-.008-4.119 6.789-49.12 10.854-49.837zm60.936-.008c-12.43-2.166-9.799 4.521-8.633 46.702.126 4.112 7.326 7.459 11.429 7.459 4.135.008 8.058-.189 8.058-4.324.008-4.119-6.774-49.112-10.854-49.837z" fill="#900"/>
    <path d="M138.495 169.59l-13.863-13.871 7.231-7.231-10.973-10.98 7.231-7.231-10.988-10.973 7.247-7.247-10.973-10.973 7.231-7.239-10.973-10.98 7.247-7.231-10.988-10.98 7.247-7.239-10.988-10.98 7.247-7.239-10.974-10.973 5.994-5.931c-3.356-3.552-7.814-5.711-13.265-5.711-10.847 0-19.614 8.775-19.614 19.614v151.048c0 10.831 8.767 11.13 19.598 11.13 10.847 0 51.365 1.481 51.358-9.342l-4.032-19.441z" fill="#8eb2b2"/>
    <path d="M71.573 36.202V187.25c0 3.978 1.182 6.53 3.214 8.168l19.803-.008.016-178.483c-1.111-.197-2.229-.347-3.419-.347-10.847.001-19.614 8.784-19.614 19.622z" fill="#76999b"/>
    <path d="M140.756 184.808c1.969.008 3.568 1.615 3.568 3.568v8.145a3.575 3.575 0 0 1-3.584 3.576l-67.474-.016a3.558 3.558 0 0 1-3.568-3.56v-8.145a3.57 3.57 0 0 1 3.568-3.568h67.49z" fill="#bf0c0c"/>
    <path d="M69.698 188.377v8.145a3.558 3.558 0 0 0 3.568 3.56l21.031.008c1.969.008 3.584-1.599 3.568-3.568v-8.145c0-1.961-1.599-3.552-3.584-3.568H73.266a3.569 3.569 0 0 0-3.568 3.568z" fill="#ef0f0f"/>
    <circle cx="85" cy="38" r="5" fill="#ebf0f2"/>
    <path d="M147.278 228.573c5.923-.008 6.711 4.805 6.711 10.728s-4.813 10.736-10.736 10.728H70.769c-5.939.008-10.736-4.797-10.736-10.728s.788-10.728 6.711-10.736l80.534.008z" fill="#bf0c0c"/>
    <path d="M60.033 239.301c0 5.931 4.797 10.736 10.736 10.728l18.936.008c5.923 0 10.752-4.813 10.752-10.736 0-5.923-.803-10.736-6.727-10.736H66.744c-5.923.008-6.711 4.805-6.711 10.736z" fill="#ef0f0f"/>
    <path d="M285.526 0c-46.167 0-86.567 25.805-109.355 61.101 23.032 1.276 106.646 3.781 126.968-25.001 0 0 11.815 24.615 62.031 22.646l16.738 38.4s3.938-36.431 21.662-19.692c.197.181.386.26.567.433C384.483 34.257 338.774 0 285.526 0z" fill="#7c480b"/>
</svg>
