<svg xmlns="http://www.w3.org/2000/svg" viewBox="0 0 504 504">
    <path d="M280.113 258.095c11.28 10.027 33.304 3.663 49.223-14.218 15.896-17.881 85.016-114.018 73.767-124.062-11.296-10.012-98.714 69.892-114.609 87.773-15.896 17.857-19.653 40.472-8.381 50.507z" fill="#13a9d1"/>
    <path d="M226.069 361.913c0 19.503-15.817 124.668-35.336 124.668-19.495 0-35.304-105.173-35.304-124.668 0-19.495 15.817-35.32 35.304-35.32 19.52 0 35.336 15.825 35.336 35.32zm118.351 0c0 19.503-15.817 124.668-35.336 124.668-19.495 0-35.304-105.173-35.304-124.668 0-19.495 15.817-35.32 35.304-35.32 19.519 0 35.336 15.825 35.336 35.32z" fill="#232728"/>
    <path d="M349.556 315.242c0 126.33-44.607 84.259-99.643 84.259-55.028 0-99.643 42.071-99.643-84.259 0-72.231 44.631-130.788 99.643-130.788 55.028.008 99.643 58.565 99.643 130.788z" fill="#11d3c0"/>
    <path d="M249.913 366.033c-51.617 0-94.074 37.006-99.139-62.661-.339 3.458-.504 7.396-.504 11.878 0 126.33 44.615 84.259 99.643 84.259 55.036 0 99.643 42.071 99.643-84.259 0-4.474-.165-8.413-.504-11.878-5.073 99.667-47.506 62.661-99.139 62.661z" fill="#13a9d1"/>
    <path d="M230.48 487.219c0 14.935-17.802 16.904-39.747 16.904-21.929 0-39.739-1.961-39.739-16.904s17.81-35.509 39.739-35.509c21.946.008 39.747 20.567 39.747 35.509z" fill="#11d3c0"/>
    <path d="M230.48 487.219c0 14.935-17.802 16.904-39.747 16.904-21.929 0-39.739-1.961-39.739-16.904" fill="#13a9d1"/>
    <path d="M348.831 487.219c0 14.935-17.786 16.904-39.731 16.904-21.937 0-39.739-1.961-39.739-16.904s17.802-35.509 39.739-35.509c21.945.008 39.731 20.567 39.731 35.509z" fill="#11d3c0"/>
    <path d="M348.831 487.219c0 14.935-17.786 16.904-39.731 16.904-21.937 0-39.739-1.961-39.739-16.904" fill="#13a9d1"/>
    <path d="M238.932 203.768c10.027 11.28 3.663 33.304-14.218 49.223-17.881 15.896-114.026 85.024-124.062 73.767-10.012-11.296 69.9-98.714 87.765-114.609s40.48-19.653 50.515-8.381z" fill="#11d3c0"/>
    <path d="M378.866 124.258c0 63.008-57.746 94.681-128.937 94.681-71.215 0-128.969-31.673-128.969-94.681C120.96 61.235 178.713 0 249.929 0c71.191 0 128.937 61.235 128.937 124.258z" fill="#e8b085"/>
    <path d="M378.866 124.258c0 63.008-57.746 94.681-128.937 94.681-71.215 0-128.969-31.673-128.969-94.681" fill="#dd9f76"/>
    <circle cx="189" cy="136" r="12" fill="#113e49"/>
    <path d="M200.131 136.428c0 6.388-5.175 11.54-11.54 11.54-6.372 0-11.524-5.152-11.524-11.54"/>
    <path d="M211.347 160.484a2.377 2.377 0 0 1-1.725-.717c-5.632-5.624-13.107-8.72-21.047-8.72h-.016c-7.94 0-15.399 3.104-21 8.712-.945.953-2.489.977-3.442.008a2.402 2.402 0 0 1-.024-3.419c6.538-6.546 15.218-10.161 24.458-10.161h.016c9.263 0 17.944 3.592 24.497 10.145.937.937.937 2.505 0 3.434-.456.498-1.071.718-1.717.718z" fill="#f4c3a2"/>
    <path d="M299.711 136.428c0 6.388 5.144 11.54 11.54 11.54 6.372 0 11.524-5.152 11.524-11.54 0-6.365-5.151-11.532-11.524-11.532-6.389 0-11.54 5.176-11.54 11.532z" fill="#113e49"/>
    <path d="M299.711 136.428c0 6.388 5.144 11.54 11.54 11.54 6.372 0 11.524-5.152 11.524-11.54"/>
    <path d="M288.494 160.484a2.38 2.38 0 0 0 1.709-.717c5.632-5.624 13.107-8.72 21.047-8.72h.008c7.948 0 15.423 3.104 21.016 8.712a2.405 2.405 0 0 0 3.434.008 2.395 2.395 0 0 0 .024-3.419c-6.506-6.546-15.218-10.161-24.466-10.161h-.008c-9.247 0-17.944 3.592-24.513 10.145-.922.937-.922 2.505 0 3.434.489.498 1.103.718 1.749.718z" fill="#f4c3a2"/>
    <path d="M209.756 6.758c-35.289 11.997-63.882 38.904-78.399 70.971 24.363 10.689 68.261 14.824 118.556 14.824s94.192-4.128 118.556-14.824c-14.517-32.059-43.095-58.967-78.368-70.971-12.721-1.402-26.207-2.166-40.188-2.166s-27.435.772-40.157 2.166z" fill="#918f77"/>
    <path d="M192.616 14.131C209.922 5.27 229.37 0 250.031 0 304.382 0 350.8 35.698 369.784 80.605c-20.33 4.624-54.185 1.197-90.49-10.563-45.411-14.707-80.069-37.754-86.678-55.911z" fill="#a8a78e"/>
    <path d="M307.344 14.131C290.03 5.27 270.582 0 249.929 0c-54.351 0-100.777 35.698-119.745 80.605 20.322 4.624 54.177 1.197 90.482-10.563 45.41-14.707 80.069-37.754 86.678-55.911z" fill="#babaa2"/>
    <path d="M253.56 167.471s-13.477-29.003-49.719-5.175-39.353 16.565-39.353 16.565 38.313 27.987 79.754 10.382l6.215-5.199 3.103-16.573z" fill="#663f24"/>
    <path d="M164.48 178.853s38.313 27.987 79.754 10.382l6.215-5.199 3.111-16.573" fill="#543722"/>
    <path d="M246.282 167.471s13.462-29.003 49.711-5.175 39.353 16.565 39.353 16.565-38.305 27.987-79.746 10.382l-6.223-5.199-3.095-16.573z" fill="#663f24"/>
    <path d="M335.346 178.853s-38.305 27.987-79.746 10.382l-6.223-5.199-3.096-16.573" fill="#543722"/>
    <path d="M273.977 58.423c0 18.849-10.768 23.623-24.064 23.623s-24.064-4.773-24.064-23.623c0-18.857 10.768-34.131 24.064-34.131s24.064 15.274 24.064 34.131z" fill="#11d3c0"/>
    <path d="M249.913 24.292c13.296 0 24.064 15.273 24.064 34.131 0 18.849-10.768 23.623-24.064 23.623" fill="#13a9d1"/>
    <g fill="#ddd9b8">
        <path d="M249.913 85.984c-18.574 0-28.002-9.271-28.002-27.561 0-20.992 12.564-38.069 28.002-38.069 15.439 0 28.002 17.077 28.002 38.069 0 18.29-9.428 27.561-28.002 27.561zm0-57.753c-11.083 0-20.126 13.548-20.126 30.192 0 13.982 5.829 19.684 20.126 19.684s20.126-5.703 20.126-19.684c-.001-16.644-9.043-30.192-20.126-30.192z"/>
        <circle cx="250" cy="236" r="7"/>
        <circle cx="250" cy="258" r="7"/>
        <circle cx="250" cy="280" r="7"/>
        <circle cx="250" cy="301" r="7"/>
        <circle cx="250" cy="323" r="7"/>
        <circle cx="250" cy="345" r="7"/>
    </g>
    <path d="M223.785 305.333c-4.955-6.396-11.894-10.587-19.661-12.304a5.664 5.664 0 0 0-1.843-.622h-.031c-6.325-.803-11.981-4.049-15.88-9.082-3.923-5.073-5.632-11.359-4.813-17.715.599-4.797 3.064-9.074 6.892-12.044a17.948 17.948 0 0 1 13.367-3.647h.032c7.357.945 12.619 7.712 11.658 15.108-.677 5.341-5.585 9.129-10.941 8.444-1.788-.213-3.403-1.142-4.506-2.584s-1.583-3.214-1.371-5.002c.37-2.812-1.615-5.404-4.427-5.75-2.796-.354-5.388 1.631-5.727 4.427a16.798 16.798 0 0 0 3.403 12.587c2.796 3.616 6.814 5.908 11.335 6.491 10.957 1.402 21-6.372 22.402-17.321 1.662-12.997-7.57-24.899-20.535-26.569h-.032c-7.507-.969-14.95 1.079-20.937 5.703-6.002 4.655-9.846 11.343-10.799 18.873-1.15 9.058 1.292 18.03 6.877 25.253 4.955 6.412 11.894 10.602 19.677 12.312.551.299 1.166.536 1.812.607l.016.016c6.357.803 12.012 4.033 15.911 9.09 3.923 5.065 5.648 11.351 4.829 17.684a18.074 18.074 0 0 1-6.908 12.06c-3.812 2.97-8.586 4.254-13.399 3.655-7.389-.953-12.603-7.711-11.658-15.108.677-5.333 5.585-9.137 10.941-8.46 1.804.244 3.403 1.15 4.49 2.615a6.677 6.677 0 0 1 1.371 4.986c-.37 2.804 1.615 5.404 4.443 5.742 2.788.362 5.372-1.631 5.727-4.435.599-4.506-.63-8.98-3.419-12.587-2.773-3.6-6.798-5.908-11.327-6.491-10.957-1.386-21 6.388-22.402 17.337-1.662 12.981 7.57 24.899 20.551 26.553h.016c7.507.953 14.935-1.056 20.937-5.695 6.002-4.647 9.83-11.351 10.799-18.873 1.157-9.051-1.285-18.007-6.87-25.254zm52.256 0c4.955-6.396 11.894-10.587 19.661-12.304a5.664 5.664 0 0 1 1.843-.622h.032c6.325-.803 11.981-4.049 15.88-9.082 3.923-5.073 5.632-11.359 4.813-17.715-.599-4.797-3.064-9.074-6.892-12.044a17.948 17.948 0 0 0-13.367-3.647h-.024c-7.357.945-12.619 7.712-11.658 15.108.677 5.341 5.585 9.129 10.941 8.444 1.788-.213 3.403-1.142 4.506-2.584s1.583-3.214 1.371-5.002c-.37-2.812 1.615-5.404 4.427-5.75 2.796-.354 5.388 1.631 5.727 4.427a16.798 16.798 0 0 1-3.403 12.587c-2.796 3.616-6.814 5.908-11.335 6.491-10.957 1.402-21-6.372-22.402-17.321-1.662-12.997 7.57-24.899 20.535-26.569h.032c7.507-.969 14.95 1.079 20.937 5.703 6.002 4.655 9.846 11.343 10.799 18.873 1.15 9.058-1.292 18.03-6.877 25.253-4.955 6.412-11.894 10.602-19.677 12.312-.551.299-1.166.536-1.812.607l-.016.016c-6.357.803-12.012 4.033-15.911 9.09-3.923 5.065-5.648 11.351-4.829 17.684a18.074 18.074 0 0 0 6.908 12.06c3.812 2.97 8.586 4.254 13.399 3.655 7.389-.953 12.603-7.711 11.658-15.108-.677-5.333-5.585-9.137-10.941-8.46-1.804.244-3.403 1.15-4.49 2.615a6.677 6.677 0 0 0-1.371 4.986c.37 2.804-1.615 5.404-4.443 5.742-2.788.362-5.372-1.631-5.727-4.435-.599-4.506.63-8.98 3.419-12.587 2.773-3.6 6.798-5.908 11.327-6.491 10.957-1.386 21 6.388 22.402 17.337 1.662 12.981-7.57 24.899-20.551 26.553h-.016c-7.507.953-14.935-1.056-20.937-5.695-6.002-4.647-9.83-11.351-10.799-18.873-1.166-9.051 1.276-18.007 6.861-25.254z" fill="#13a9d1"/>
</svg>
