<svg xmlns="http://www.w3.org/2000/svg" viewBox="0 0 504 504">
    <path d="M244.153 203.768c10.027 11.28 3.663 33.296-14.218 49.215-17.881 15.896-114.018 85.031-124.062 73.767-10.012-11.296 69.892-98.706 87.773-114.601 17.865-15.903 40.48-19.653 50.507-8.381z" fill="#d1b302"/>
    <path fill="#353426" d="M200.355 237.461l-91.432 91.432-8.354-8.354L192 229.107z"/>
    <path d="M266.122 203.768c-10.027 11.28-3.663 33.296 14.218 49.215 17.881 15.896 114.018 85.031 124.062 73.767 10.012-11.296-69.892-98.706-87.773-114.601-17.857-15.903-40.472-19.653-50.507-8.381z" fill="#d1b302"/>
    <path fill="#353426" d="M318.308 229.069L409.74 320.5l-8.354 8.354-91.433-91.432z"/>
    <path d="M351.618 358.951c0 19.511-15.817 124.676-35.336 124.676-19.495 0-35.304-105.173-35.304-124.676 0-19.495 15.817-35.32 35.304-35.32 19.519 0 35.336 15.833 35.336 35.32zm-120.328 2.954c0 19.511-15.817 124.676-35.336 124.676-19.495 0-35.304-105.173-35.304-124.676 0-19.495 15.817-35.32 35.304-35.32 19.519 0 35.336 15.833 35.336 35.32z" fill="#b79904"/>
    <path d="M354.785 315.242c0 126.322-44.599 84.259-99.643 84.259-55.028 0-99.643 42.063-99.643-84.259 0-72.231 44.631-130.788 99.643-130.788 55.028.008 99.643 58.565 99.643 130.788z" fill="#ce1111"/>
    <path d="M354.785 315.242c0 126.322-44.599 84.259-99.643 84.259-55.028 0-99.643 42.063-99.643-84.259 0-72.231 44.631-130.788 99.643-130.788 55.028.008 99.643 58.565 99.643 130.788z" fill="#d1b302"/>
    <path d="M255.141 184.462c-53.28 0-96.681 54.957-99.383 124.014 3.513 107.874 46.655 69.372 99.383 69.372 52.744 0 95.862 38.51 99.383-69.372-2.701-69.057-46.103-124.014-99.383-124.014z" fill="#eace00"/>
    <path d="M235.709 487.219c0 14.935-17.802 16.904-39.739 16.904s-39.739-1.969-39.739-16.904 17.802-35.509 39.739-35.509 39.739 20.567 39.739 35.509z" fill="#e87400"/>
    <path d="M235.709 487.219c0 14.935-17.802 16.904-39.739 16.904s-39.739-1.969-39.739-16.904" fill="#d36400"/>
    <path d="M354.06 487.219c0 14.935-17.802 16.904-39.739 16.904s-39.739-1.969-39.739-16.904 17.802-35.509 39.739-35.509 39.739 20.567 39.739 35.509z" fill="#e87400"/>
    <path d="M354.06 487.219c0 14.935-17.802 16.904-39.739 16.904s-39.739-1.969-39.739-16.904" fill="#d36400"/>
    <path d="M176.16 235.725c21.835 11.059 49.191 16.691 78.99 16.691 29.783 0 57.139-5.632 78.966-16.691-18.211-31.106-46.773-51.263-78.982-51.263-32.193 0-60.763 20.141-78.974 51.263z" fill="#d1b302"/>
    <path d="M384.095 124.258c0 63-57.738 94.681-128.937 94.681-71.215 0-128.969-31.673-128.969-94.681C126.188 61.227 183.942 0 255.157 0c71.2 0 128.938 61.227 128.938 124.258z" fill="#f7c88f"/>
    <path d="M384.095 124.258c0 63-57.738 94.681-128.937 94.681-71.215 0-128.969-31.673-128.969-94.681" fill="#efbb81"/>
    <circle cx="194" cy="109" r="12" fill="#113e49"/>
    <path d="M205.351 108.954c0 6.388-5.167 11.54-11.54 11.54-6.372 0-11.524-5.152-11.524-11.54"/>
    <path d="M216.568 133.018a2.382 2.382 0 0 1-1.725-.725c-5.632-5.616-13.107-8.72-21.047-8.72h-.016c-7.94 0-15.399 3.111-21 8.72-.953.953-2.489.969-3.434 0a2.402 2.402 0 0 1-.032-3.419c6.538-6.538 15.218-10.153 24.458-10.153h.016c9.263 0 17.952 3.584 24.505 10.138.937.937.937 2.505 0 3.434a2.342 2.342 0 0 1-1.725.725z" fill="#f7c88f"/>
    <circle cx="316" cy="109" r="12" fill="#113e49"/>
    <path d="M304.939 108.954c0 6.388 5.152 11.54 11.54 11.54 6.372 0 11.524-5.152 11.524-11.54"/>
    <path d="M293.723 133.018c.599 0 1.229-.228 1.709-.725 5.632-5.616 13.107-8.72 21.047-8.72h.016c7.94 0 15.415 3.111 21.016 8.72a2.405 2.405 0 0 0 3.434 0c.953-.922.969-2.458.016-3.419-6.506-6.538-15.218-10.153-24.458-10.153h-.016c-9.247 0-17.936 3.584-24.505 10.138-.922.937-.922 2.505 0 3.434.48.488 1.095.725 1.741.725z" fill="#f7c88f"/>
    <path d="M143.234 65.166c19.007 5.309 40.818 8.342 64.032 8.342 40.889 0 77.43-9.381 101.912-24.135 15.848 9.555 36.809 16.801 60.684 20.764C348.475 30.279 305.184 0 255.157 0c-47.947 0-89.71 27.798-111.923 65.166z"/>
    <path d="M132.632 330.319c5.002 5.002 5.002 13.107 0 18.109-4.994 4.994-13.091 4.994-18.093-.008l-52.216-52.216c-5.002-5.002-5.002-13.099 0-18.101 4.994-4.994 13.091-5.002 18.093 0l52.216 52.216zm238.859 0c-5.002 5.002-5.002 13.107 0 18.109 4.994 4.994 13.091 4.994 18.093-.008l52.216-52.216c5.002-5.002 5.002-13.099 0-18.101-4.994-4.994-13.091-5.002-18.093 0l-52.216 52.216z" fill="#592f0e"/>
    <ellipse cx="255" cy="164" rx="8" ry="32" fill="#870e0e"/>
    <g fill="#5e5d57">
        <circle cx="136" cy="352" r="6"/>
        <circle cx="146" cy="352" r="6"/>
        <circle cx="156" cy="352" r="6"/>
        <circle cx="165" cy="352" r="6"/>
        <circle cx="175" cy="352" r="6"/>
        <circle cx="185" cy="352" r="6"/>
        <circle cx="195" cy="352" r="6"/>
        <circle cx="205" cy="352" r="6"/>
        <circle cx="215" cy="352" r="6"/>
        <circle cx="224" cy="352" r="6"/>
        <circle cx="234" cy="352" r="6"/>
        <circle cx="244" cy="352" r="6"/>
        <circle cx="254" cy="352" r="6"/>
        <circle cx="264" cy="352" r="6"/>
        <circle cx="274" cy="352" r="6"/>
        <circle cx="284" cy="352" r="6"/>
        <circle cx="293" cy="352" r="6"/>
        <circle cx="303" cy="352" r="6"/>
        <circle cx="313" cy="352" r="6"/>
        <circle cx="323" cy="352" r="6"/>
        <circle cx="333" cy="352" r="6"/>
        <circle cx="343" cy="352" r="6"/>
        <circle cx="352" cy="352" r="6"/>
        <circle cx="362" cy="352" r="6"/>
        <circle cx="372" cy="352" r="6"/>
    </g>
</svg>
