<svg xmlns="http://www.w3.org/2000/svg" viewBox="0 0 504 504">
    <path d="M228.218 361.913c0 19.503-15.817 124.668-35.336 124.668-19.495 0-35.304-105.173-35.304-124.668 0-19.495 15.817-35.32 35.304-35.32 19.519 0 35.336 15.825 35.336 35.32zm118.359 0c0 19.503-15.817 124.668-35.336 124.668-19.495 0-35.304-105.173-35.304-124.668 0-19.495 15.817-35.32 35.304-35.32 19.519 0 35.336 15.825 35.336 35.32z" fill="#1a2021"/>
    <path d="M351.712 315.242c0 126.33-44.599 84.259-99.643 84.259-55.028 0-99.643 42.071-99.643-84.259 0-72.231 44.631-130.781 99.643-130.781 55.029.009 99.643 58.558 99.643 130.781z" fill="#7f0e0e"/>
    <path d="M232.637 487.219c0 14.935-17.802 16.904-39.739 16.904s-39.739-1.961-39.739-16.904 17.802-35.509 39.739-35.509 39.739 20.567 39.739 35.509z" fill="#acc1d1"/>
    <path d="M232.637 487.219c0 14.935-17.802 16.904-39.739 16.904s-39.739-1.961-39.739-16.904" fill="#91b4c9"/>
    <path d="M350.988 487.219c0 14.935-17.802 16.904-39.739 16.904s-39.739-1.961-39.739-16.904 17.802-35.509 39.739-35.509 39.739 20.567 39.739 35.509z" fill="#acc1d1"/>
    <path d="M350.988 487.219c0 14.935-17.802 16.904-39.739 16.904s-39.739-1.961-39.739-16.904" fill="#91b4c9"/>
    <path d="M381.023 124.258c0 63.008-57.738 94.681-128.937 94.681-71.215 0-128.969-31.673-128.969-94.681C123.116 61.235 180.87 0 252.085 0c71.2 0 128.938 61.235 128.938 124.258z" fill="#f9bd82"/>
    <path d="M381.023 124.258c0 63.008-57.738 94.681-128.937 94.681-71.215 0-128.969-31.673-128.969-94.681" fill="#eda366"/>
    <circle cx="191" cy="101" r="12" fill="#113e49"/>
    <path d="M202.279 100.982c0 6.388-5.167 11.54-11.54 11.54-6.372 0-11.524-5.152-11.524-11.54"/>
    <path d="M213.496 125.038a2.377 2.377 0 0 1-1.725-.717c-5.632-5.624-13.107-8.72-21.047-8.72h-.016c-7.94 0-15.399 3.104-21 8.712-.953.953-2.489.977-3.434.008a2.4 2.4 0 0 1-.031-3.419c6.538-6.546 15.218-10.161 24.458-10.161h.016c9.263 0 17.951 3.592 24.505 10.145.937.937.937 2.505 0 3.434-.466.498-1.08.718-1.726.718z" fill="#ffd3c5"/>
    <circle cx="313" cy="101" r="12" fill="#113e49"/>
    <path d="M301.867 100.982a11.52 11.52 0 0 0 11.54 11.54c6.372 0 11.524-5.152 11.524-11.54"/>
    <path d="M290.651 125.038c.599 0 1.229-.221 1.709-.717 5.632-5.624 13.107-8.72 21.047-8.72h.016c7.94 0 15.415 3.104 21.016 8.712a2.405 2.405 0 0 0 3.434.008c.953-.922.969-2.458.016-3.419-6.506-6.546-15.218-10.161-24.458-10.161h-.016c-9.248 0-17.936 3.592-24.505 10.145-.922.937-.922 2.505 0 3.434.48.498 1.095.718 1.741.718z" fill="#ffd3c5"/>
    <path d="M345.309 291.643c4.742-14.344-9.862-32.02-32.603-39.534-22.709-7.491-138.398-32.713-143.155-18.408-4.71 14.336 103.353 62.818 126.078 70.309 22.717 7.507 44.961 1.961 49.68-12.367z" fill="#eda366"/>
    <path d="M158.822 291.643c-4.742-14.344 9.862-32.02 32.603-39.534 22.709-7.491 138.398-32.713 143.155-18.408 4.71 14.336-103.353 62.818-126.078 70.309-22.717 7.507-44.961 1.961-49.68-12.367z" fill="#f9bd82"/>
    <path d="M296.369 240.569c-.859-3.285-1.449-6.412-1.906-9.452a560.38 560.38 0 0 0-6.774.859 85.17 85.17 0 0 0 2.529 14.746c1.709 6.498 3.97 12.304 6.412 16.927a417.285 417.285 0 0 0 7.31-4.072c-2.892-4.877-5.602-11.493-7.571-19.008z" fill="#5f7277"/>
    <circle cx="291" cy="241" r="14" fill="#0698bf"/>
    <circle cx="290" cy="239" r="8" fill="#a3e1ef"/>
    <path d="M267.815 182.485c0 8.696-7.058 15.754-15.754 15.754s-15.754-7.058-15.754-15.754v-40.046c0-8.696 7.058-15.754 15.754-15.754s15.754 7.058 15.754 15.754v40.046z" fill="#7f0e0e"/>
    <path d="M252.062 158.192c-8.696 0-15.754 7.058-15.754 15.754v8.539c0 8.696 7.058 15.754 15.754 15.754s15.754-7.058 15.754-15.754v-8.539c-.001-8.696-7.058-15.754-15.754-15.754z" fill="#a11"/>
    <path d="M252.077 0c-48.813 0-91.301 28.782-113.199 67.19 12.477 1.095 71.751 4.427 94.035-27.806l-.646 20.346 24.277-21.662 1.323 27.569 17.723-25.6 7.877 17.069L290.02 36.1l15.754 14.438 2.631-21.662 22.969 26.915V40.038l32.106 24.34C341.142 27.412 299.67 0 252.077 0z" fill="#7f0e0e"/>
    <g fill="#473d38">
        <path d="M217.765 132.592H173.45c-10.854 0-19.692-8.83-19.692-19.692V96.161c0-10.862 8.838-19.692 19.692-19.692h44.316c10.862 0 19.692 8.83 19.692 19.692V112.9c0 10.862-8.83 19.692-19.693 19.692zM173.45 84.346c-6.506 0-11.815 5.301-11.815 11.815V112.9c0 6.514 5.309 11.815 11.815 11.815h44.316c6.514 0 11.815-5.301 11.815-11.815V96.161c0-6.514-5.301-11.815-11.815-11.815H173.45z"/>
        <path d="M120.942 100.596h36.754v7.877h-36.754zm209.731 31.996h-44.316c-10.854 0-19.692-8.83-19.692-19.692V96.161c0-10.862 8.838-19.692 19.692-19.692h44.316c10.862 0 19.692 8.83 19.692 19.692V112.9c.001 10.862-8.829 19.692-19.692 19.692zm-44.315-48.246c-6.506 0-11.815 5.301-11.815 11.815V112.9c0 6.514 5.309 11.815 11.815 11.815h44.316c6.514 0 11.815-5.301 11.815-11.815V96.161c0-6.514-5.301-11.815-11.815-11.815h-44.316z"/>
        <path d="M346.427 100.596h36.754v7.877h-36.754zm-112.876-8.373h37.085v7.877h-37.085z"/>
    </g>
</svg>
