<svg xmlns="http://www.w3.org/2000/svg" viewBox="0 0 504 504">
    <g fill="#824323">
        <path d="M256.654 239.159c-.866 15.061-20.96 26.128-44.851 24.757-23.875-1.41-140.745-20.504-139.894-35.564.906-15.069 119.233-20.385 143.108-18.976 23.866 1.387 42.511 14.722 41.637 29.783z"/>
        <path d="M247.469 232.952c.874-15.061 20.953-26.12 44.859-24.757 23.875 1.418 140.737 20.512 139.886 35.572-.906 15.061-119.233 20.385-143.108 18.968-23.874-1.379-42.519-14.722-41.637-29.783z"/>
    </g>
    <path d="M229.415 361.913c0 19.503-15.817 124.668-35.336 124.668-19.495 0-35.304-105.173-35.304-124.668 0-19.495 15.817-35.32 35.304-35.32 19.52 0 35.336 15.825 35.336 35.32zm118.351 0c0 19.503-15.817 124.668-35.336 124.668-19.495 0-35.304-105.173-35.304-124.668 0-19.495 15.817-35.32 35.304-35.32 19.527 0 35.336 15.825 35.336 35.32z" fill="#70683a"/>
    <path d="M352.91 315.242c0 126.33-44.599 84.259-99.643 84.259-55.028 0-99.643 42.071-99.643-84.259 0-72.231 44.631-130.781 99.643-130.781 55.028.009 99.643 58.558 99.643 130.781z" fill="#824323"/>
    <path d="M179.042 228.194c21 9.539 46.568 14.375 74.232 14.375 27.648 0 53.209-4.836 74.201-14.367-18.243-26.782-44.694-43.733-74.216-43.733-29.515.001-55.958 16.944-74.217 43.725z" fill="#60311d"/>
    <path d="M233.834 487.219c0 14.935-17.802 16.904-39.739 16.904s-39.739-1.961-39.739-16.904 17.802-35.509 39.739-35.509 39.739 20.567 39.739 35.509z" fill="#a1c11e"/>
    <path d="M233.834 487.219c0 14.935-17.802 16.904-39.739 16.904s-39.739-1.961-39.739-16.904" fill="#93aa0f"/>
    <path d="M352.185 487.219c0 14.935-17.802 16.904-39.739 16.904-21.937 0-39.739-1.961-39.739-16.904s17.802-35.509 39.739-35.509c21.937 0 39.739 20.567 39.739 35.509z" fill="#a1c11e"/>
    <path d="M352.185 487.219c0 14.935-17.802 16.904-39.739 16.904-21.937 0-39.739-1.961-39.739-16.904" fill="#93aa0f"/>
    <path d="M382.212 124.258c0 63.008-57.738 94.681-128.937 94.681-71.215 0-128.969-31.673-128.969-94.681C124.306 61.235 182.059 0 253.275 0c71.199 0 128.937 61.235 128.937 124.258z" fill="#ce5715"/>
    <path d="M382.212 124.258c0 63.008-57.738 94.681-128.937 94.681-71.215 0-128.969-31.673-128.969-94.681 0-63.023 57.754-72.405 128.969-72.405 71.199.001 128.937 9.382 128.937 72.405z" fill="#f9a9a0"/>
    <path d="M382.212 124.258c0 63.008-57.738 94.681-128.937 94.681-71.215 0-128.969-31.673-128.969-94.681" fill="#ff9997"/>
    <circle cx="192" cy="154" r="12" fill="#113e49"/>
    <path d="M203.477 154.151c0 6.388-5.167 11.54-11.54 11.54s-11.524-5.152-11.524-11.54"/>
    <path d="M214.693 178.208a2.377 2.377 0 0 1-1.725-.717c-5.632-5.624-13.107-8.72-21.047-8.72h-.016c-7.94 0-15.399 3.104-21 8.712-.953.953-2.489.977-3.434.008a2.402 2.402 0 0 1-.032-3.419c6.538-6.546 15.218-10.161 24.458-10.161h.016c9.263 0 17.952 3.592 24.505 10.145.937.937.937 2.505 0 3.434-.464.497-1.079.718-1.725.718z" fill="#ffd3c5"/>
    <circle cx="315" cy="154" r="12" fill="#113e49"/>
    <path d="M303.065 154.151a11.52 11.52 0 0 0 11.54 11.54c6.372 0 11.524-5.152 11.524-11.54"/>
    <path d="M291.848 178.208c.599 0 1.229-.221 1.709-.717 5.632-5.624 13.107-8.72 21.047-8.72h.016c7.94 0 15.415 3.104 21.016 8.712a2.405 2.405 0 0 0 3.434.008c.953-.922.969-2.458.016-3.419-6.506-6.546-15.218-10.161-24.458-10.161h-.016c-9.247 0-17.936 3.592-24.505 10.145-.922.937-.922 2.505 0 3.434.481.497 1.095.718 1.741.718z" fill="#ffd3c5"/>
    <path d="M268.895 170.685c0 13.816-7.003 25.064-15.628 25.064-8.617 0-15.628-11.248-15.628-25.064 0-13.848 7.018-5.585 15.628-5.585 8.625 0 15.628-8.263 15.628 5.585z" fill="#870e0e"/>
    <path d="M253.243 173.158c-5.443 0-10.232 4.49-13.028 11.264 2.796 6.806 7.601 11.327 13.044 11.327s10.232-4.49 13.028-11.264c-2.796-6.805-7.593-11.327-13.044-11.327z" fill="#a11"/>
    <path fill="#ce5715" d="M348.751 54.8l-18.212-18.212-15.446 15.447-15.463-15.447-15.462 15.447-15.447-15.447-15.462 15.447-15.447-15.447-15.454 15.447-15.463-15.447-15.446 15.447-15.463-15.447L157.767 54.8l18.219 18.219 15.463-15.454 15.446 15.454 15.463-15.454 15.454 15.454 15.447-15.454 15.462 15.454 15.447-15.454 15.462 15.454 15.463-15.454 15.446 15.454z"/>
    <g fill="#824323">
        <path d="M192.37 191.669c-26.057 0-47.262-21.197-47.262-47.262s21.205-47.262 47.262-47.262c26.073 0 47.262 21.197 47.262 47.262s-21.197 47.262-47.262 47.262zm0-78.769c-17.369 0-31.508 14.131-31.508 31.508s14.139 31.508 31.508 31.508c17.384 0 31.508-14.131 31.508-31.508S209.755 112.9 192.37 112.9z"/>
        <path d="M150.048 152.285h-22.977a7.87 7.87 0 0 1-7.877-7.877 7.87 7.87 0 0 1 7.877-7.877h22.977a7.87 7.87 0 0 1 7.877 7.877 7.871 7.871 0 0 1-7.877 7.877zm164.099 39.384c-26.073 0-47.262-21.197-47.262-47.262s21.189-47.262 47.262-47.262c26.057 0 47.262 21.197 47.262 47.262s-21.213 47.262-47.262 47.262zm0-78.769c-17.376 0-31.508 14.131-31.508 31.508s14.131 31.508 31.508 31.508 31.508-14.131 31.508-31.508-14.131-31.508-31.508-31.508z"/>
        <path d="M379.447 152.285H356.47a7.87 7.87 0 0 1-7.877-7.877 7.87 7.87 0 0 1 7.877-7.877h22.977a7.865 7.865 0 0 1 7.877 7.877 7.865 7.865 0 0 1-7.877 7.877zm-146.999-33.477h47.262v15.754h-47.262z"/>
    </g>
    <g fill="#a1c11e">
        <circle cx="203" cy="316" r="1"/>
        <circle cx="206" cy="320" r="1"/>
        <circle cx="205" cy="311" r="1"/>
        <circle cx="201" cy="327" r="2"/>
        <circle cx="198" cy="301" r="3"/>
        <path d="M288.831 318.291a61.31 61.31 0 0 0-3.742-3.332c2.536-1.678 5.159-3.805 7.861-6.593 23.064-23.796 19.385-46.364 19.346-46.56l.016-.008h-.016v-.016l-.008.016c-.197-.039-22.772-3.718-46.568 19.346-5.081 4.931-8.121 9.633-9.838 13.918-.914-1.363-2.143-2.387-3.513-2.387-1.355 0-2.591 1.024-3.489 2.395-1.733-4.293-4.781-8.995-9.846-13.926-23.828-23.103-46.434-19.377-46.568-19.346l-.016-.016v.016c-.016.158-3.757 22.749 19.354 46.568 2.71 2.788 5.325 4.915 7.861 6.593a66.836 66.836 0 0 0-3.742 3.332c-15.013 14.564-6.325 26.553-6.27 26.624h.008v.008c.063.047 12.06 8.728 26.624-6.278a59.164 59.164 0 0 0 6.806-8.428c.047.221.095.488.158.709.008-.039.032-.071.032-.071.339 1.26.693 2.465 1.111 3.584 0 0-.032.039-.047.071.173.457.37.819.536 1.237.299.685.567 1.355.866 1.961.087.165.15.362.228.52 0 0 .024-.024.032-.039.803 1.536 1.615 2.844 2.418 3.923l-.032.016c.142.181.252.315.394.488.276.37.536.693.803 1 .291.339.544.622.803.898.236.236.433.457.63.646.276.268.488.457.685.63.118.102.213.197.299.268.221.189.37.291.37.291l.016.016v-.008s.15-.11.37-.299c.095-.071.181-.165.307-.268.197-.173.402-.362.677-.63.197-.189.402-.41.614-.638.26-.276.528-.575.827-.929.26-.291.488-.591.764-.945.15-.181.276-.323.425-.52l-.032-.016c.803-1.079 1.599-2.387 2.402-3.923l.039.039c.071-.142.118-.315.189-.457.339-.67.638-1.41.953-2.166.158-.386.339-.693.488-1.103l-.039-.063a33.87 33.87 0 0 0 1.095-3.623l.055.102c.055-.221.095-.488.15-.709a58.306 58.306 0 0 0 6.814 8.428c14.557 15.006 26.553 6.325 26.624 6.278l.008-.008c.033-.063 8.706-12.052-6.292-26.616zm-34.926-13.462c-.142-.047-.268-.102-.386-.142.134-.032.276-.039.402-.087-.016.072-.016.158-.016.229zm-3.041-.008a2.06 2.06 0 0 1-.016-.213c.126.047.26.055.386.087-.118.04-.252.079-.37.126z"/>
        <circle cx="301" cy="316" r="1"/>
        <circle cx="299" cy="320" r="1"/>
        <circle cx="300" cy="311" r="1"/>
        <circle cx="303" cy="327" r="2"/>
        <circle cx="306" cy="301" r="3"/>
    </g>
</svg>
