<svg xmlns="http://www.w3.org/2000/svg" viewBox="0 0 504 504">
    <g fill="#a11">
        <path d="M246.542 239.159c-.859 15.061-20.953 26.128-44.843 24.757-23.875-1.41-140.753-20.504-139.894-35.564.906-15.069 119.233-20.385 143.108-18.976 23.866 1.387 42.511 14.722 41.629 29.783z"/>
        <path d="M237.365 232.952c.874-15.061 20.953-26.12 44.859-24.757 23.883 1.418 140.737 20.512 139.886 35.572-.906 15.061-119.233 20.385-143.108 18.968-23.874-1.379-42.527-14.722-41.637-29.783z"/>
    </g>
    <path d="M219.311 361.913c0 19.503-15.817 124.668-35.336 124.668-19.495 0-35.304-105.173-35.304-124.668 0-19.495 15.817-35.32 35.304-35.32 19.52 0 35.336 15.825 35.336 35.32zm118.351 0c0 19.503-15.817 124.668-35.336 124.668-19.495 0-35.304-105.173-35.304-124.668 0-19.495 15.817-35.32 35.304-35.32 19.519 0 35.336 15.825 35.336 35.32z" fill="#232728"/>
    <path d="M342.806 315.242c0 126.33-44.599 84.259-99.643 84.259-55.028 0-99.643 42.071-99.643-84.259 0-72.231 44.631-130.781 99.643-130.781 55.02.009 99.643 58.558 99.643 130.781z" fill="#a11"/>
    <path d="M168.938 228.194c21 9.539 46.568 14.375 74.232 14.375 27.648 0 53.209-4.836 74.201-14.367-18.243-26.782-44.694-43.733-74.216-43.733-29.515.001-55.958 16.944-74.217 43.725z" fill="#8e1010"/>
    <path d="M223.722 487.219c0 14.935-17.802 16.904-39.739 16.904s-39.739-1.961-39.739-16.904 17.802-35.509 39.739-35.509 39.739 20.567 39.739 35.509z" fill="#8d97a0"/>
    <path d="M223.722 487.219c0 14.935-17.802 16.904-39.739 16.904s-39.739-1.961-39.739-16.904" fill="#79848c"/>
    <path d="M342.081 487.219c0 14.935-17.802 16.904-39.739 16.904s-39.739-1.961-39.739-16.904 17.802-35.509 39.739-35.509 39.739 20.567 39.739 35.509z" fill="#8d97a0"/>
    <path d="M342.081 487.219c0 14.935-17.802 16.904-39.739 16.904s-39.739-1.961-39.739-16.904" fill="#79848c"/>
    <path d="M372.108 124.258c0 63.008-57.738 94.681-128.937 94.681-71.215 0-128.969-31.673-128.969-94.681C114.202 61.235 171.955 0 243.171 0c71.199 0 128.937 61.235 128.937 124.258z" fill="#ce5715"/>
    <path d="M372.108 124.258c0 63.008-57.738 94.681-128.937 94.681-71.215 0-128.969-31.673-128.969-94.681 0-63.023 57.754-72.405 128.969-72.405 71.199.001 128.937 9.382 128.937 72.405z" fill="#f9a9a0"/>
    <path d="M372.108 124.258c0 63.008-57.738 94.681-128.937 94.681-71.215 0-128.969-31.673-128.969-94.681" fill="#ff9997"/>
    <circle cx="199" cy="147" r="12" fill="#113e49"/>
    <path d="M210.434 146.92c0 6.388-5.159 11.54-11.54 11.54-6.357 0-11.524-5.152-11.524-11.54"/>
    <path d="M221.659 170.976a2.408 2.408 0 0 1-1.733-.717c-5.624-5.624-13.099-8.72-21.039-8.72h-.016c-7.94 0-15.399 3.104-21 8.712-.953.953-2.489.977-3.434.008a2.395 2.395 0 0 1-.032-3.419c6.538-6.546 15.218-10.161 24.458-10.161h.016c9.263 0 17.952 3.592 24.513 10.145.929.937.929 2.505 0 3.434-.481.498-1.087.718-1.733.718z" fill="#ffd3c5"/>
    <circle cx="322" cy="147" r="12" fill="#113e49"/>
    <path d="M310.022 146.92a11.52 11.52 0 0 0 11.54 11.54c6.372 0 11.516-5.152 11.516-11.54"/>
    <path d="M298.813 170.976c.599 0 1.229-.221 1.717-.717 5.616-5.624 13.099-8.72 21.039-8.72h.016c7.94 0 15.415 3.104 21.016 8.712a2.405 2.405 0 0 0 3.434.008c.953-.922.961-2.458.016-3.419-6.514-6.546-15.226-10.161-24.458-10.161h-.016c-9.247 0-17.936 3.592-24.505 10.145-.922.937-.922 2.505 0 3.434.473.498 1.087.718 1.741.718z" fill="#ffd3c5"/>
    <path d="M243.171 0c-37.305 0-70.821 16.896-94.366 41.96 5.813 18.29 22.922 31.555 43.158 31.555h102.4c20.228 0 37.352-13.265 43.158-31.571C313.968 16.888 280.46 0 243.171 0z" fill="#ce5715"/>
    <path d="M214.569 20.496c8.318 11.028-14.352 23.93-42.346 44.993-28.01 21.055-50.759 42.275-59.069 31.24-8.287-11.036 1.15-45.749 29.168-66.788 28.003-21.056 63.969-20.481 72.247-9.445z" fill="#a11"/>
    <path d="M214.569 20.496c8.318 11.028-14.352 23.93-42.346 44.993-28.01 21.055-50.759 42.275-59.069 31.24-8.287-11.036 15.588-31.303 43.599-52.35s49.538-34.919 57.816-23.883z" fill="#8e1010"/>
    <circle cx="142" cy="28" r="11" fill="#dd9412"/>
    <path d="M284.391 164.675c-9.011-8.925-18.243-5.341-24.048-1.268-5.79-4.072-15.037-7.656-24.048 1.268-24.119 23.875-55.383 24.371-56.69 10.587 0 0 3.356 32.902 52.752 5.908 0 0 19.936-12.304 24.371-6.396l.032.032c.922 1.528 2.127 2.678 3.584 2.568 1.465.11 2.662-1.04 3.584-2.568l.032-.032c4.427-5.908 24.371 6.396 24.371 6.396 49.396 26.994 52.752-5.908 52.752-5.908-1.326 13.784-32.573 13.296-56.692-10.587z" fill="#ce5715"/>
    <ellipse cx="57" cy="211" rx="12" ry="65" fill="#8d97a0"/>
    <path d="M46.46 178.546h20.52c-2.032-19.787-5.86-33.154-10.264-33.154s-8.224 13.367-10.256 33.154z" fill="#e5ac0e"/>
    <path d="M70.831 136.208c0 7.782-6.309 14.108-14.108 14.108-7.782 0-14.108-6.325-14.108-14.108 0-7.798 6.325-35.123 14.108-35.123 7.799 0 14.108 27.325 14.108 35.123z"/>
    <g fill="#10e2c8">
        <circle cx="245" cy="298" r="2"/>
        <circle cx="245" cy="292" r="2"/>
        <circle cx="245" cy="287" r="2"/>
        <circle cx="245" cy="332" r="2"/>
        <circle cx="245" cy="338" r="2"/>
        <circle cx="245" cy="343" r="2"/>
        <circle cx="257" cy="303" r="2"/>
        <circle cx="261" cy="299" r="2"/>
        <circle cx="265" cy="295" r="2"/>
        <circle cx="233" cy="327" r="2"/>
        <circle cx="229" cy="331" r="2"/>
        <circle cx="225" cy="335" r="2"/>
        <path d="M286.423 309.61c2.158-1.252 3.332-3.828 2.647-6.372-.677-2.528-2.962-4.183-5.467-4.191 1.764-1.78 2.213-4.553.89-6.829-1.308-2.269-3.938-3.269-6.365-2.631 1.237-2.174.961-4.978-.898-6.837-1.843-1.851-4.663-2.135-6.821-.89.63-2.426-.37-5.065-2.647-6.372-2.269-1.315-5.057-.859-6.829.906-.008-2.505-1.654-4.797-4.191-5.474-2.528-.677-5.104.48-6.372 2.647-.662-2.418-2.836-4.198-5.459-4.198s-4.813 1.78-5.467 4.191c-1.268-2.158-3.836-3.316-6.372-2.639s-4.175 2.97-4.191 5.474a5.657 5.657 0 0 0-6.829-.906c-2.261 1.308-3.277 3.954-2.631 6.372-2.166-1.237-4.986-.961-6.829.898-1.859 1.851-2.135 4.655-.898 6.829-2.426-.638-5.057.362-6.372 2.631-1.308 2.276-.859 5.065.898 6.837-2.497.008-4.781 1.662-5.459 4.191-.693 2.529.48 5.104 2.631 6.372-2.418.654-4.198 2.836-4.198 5.467 0 2.615 1.788 4.797 4.198 5.459-2.158 1.26-3.324 3.828-2.631 6.365.662 2.529 2.962 4.183 5.467 4.198a5.658 5.658 0 0 0-.906 6.829c1.315 2.269 3.946 3.269 6.38 2.631-1.245 2.174-.969 4.978.89 6.837 1.843 1.851 4.663 2.135 6.829.89-.638 2.426.37 5.065 2.631 6.372 2.269 1.315 5.065.859 6.837-.898.008 2.505 1.654 4.789 4.183 5.467s5.112-.48 6.38-2.647c.654 2.418 2.836 4.198 5.459 4.198s4.797-1.788 5.459-4.198c1.26 2.166 3.844 3.324 6.38 2.647s4.175-2.962 4.191-5.467a5.655 5.655 0 0 0 6.829.898c2.269-1.308 3.277-3.946 2.631-6.372 2.166 1.245 4.986.961 6.837-.898 1.851-1.843 2.135-4.655.89-6.829 2.426.638 5.057-.362 6.365-2.631 1.323-2.276.866-5.057-.89-6.837 2.489 0 4.789-1.662 5.467-4.191.685-2.528-.488-5.104-2.639-6.365 2.418-.662 4.198-2.844 4.198-5.467s-1.78-4.805-4.206-5.467zm-4.333 10.358a5.71 5.71 0 0 0-4.009 3.994c-.536 2.032.11 4.08 1.481 5.467-1.961.008-3.86 1-4.907 2.812-1.056 1.82-.961 3.962.008 5.664-1.89-.496-3.986-.024-5.467 1.457s-1.946 3.576-1.457 5.459c-1.701-.961-3.844-1.056-5.664-.008-1.812 1.056-2.804 2.954-2.812 4.907-1.402-1.378-3.442-2.017-5.459-1.473-2.032.536-3.482 2.119-4.001 4.001-.985-1.686-2.796-2.828-4.892-2.828-2.095 0-3.907 1.15-4.892 2.828-.512-1.883-1.969-3.458-4.001-4.001-2.024-.544-4.064.095-5.459 1.473-.016-1.953-1-3.852-2.812-4.899-1.812-1.056-3.962-.961-5.656 0 .488-1.883.024-3.978-1.457-5.459-1.489-1.481-3.584-1.953-5.474-1.457.969-1.701 1.063-3.836.016-5.656-1.056-1.82-2.938-2.812-4.907-2.82 1.378-1.394 2.016-3.442 1.473-5.459a5.677 5.677 0 0 0-4.001-3.994c1.686-.992 2.836-2.796 2.836-4.892 0-2.111-1.15-3.915-2.844-4.899a5.68 5.68 0 0 0 4.009-4.001c.551-2.024-.095-4.072-1.473-5.451 1.953-.016 3.852-1.008 4.899-2.812 1.056-1.82.961-3.962-.008-5.671 1.89.496 3.986.032 5.467-1.457 1.481-1.481 1.946-3.568 1.457-5.459 1.701.961 3.836 1.056 5.656.008 1.82-1.055 2.804-2.954 2.82-4.907 1.394 1.378 3.434 2.016 5.459 1.481 2.032-.544 3.474-2.127 4.001-4.009.985 1.694 2.788 2.828 4.892 2.828 2.095 0 3.907-1.15 4.892-2.836a5.677 5.677 0 0 0 4.001 4.017c2.024.536 4.064-.102 5.459-1.481a5.693 5.693 0 0 0 2.812 4.907c1.812 1.048 3.962.953 5.656-.008-.488 1.89-.024 3.986 1.457 5.459 1.489 1.481 3.584 1.953 5.474 1.457a5.717 5.717 0 0 0-.016 5.664c1.055 1.812 2.954 2.804 4.907 2.82-1.378 1.386-2.016 3.434-1.481 5.451.543 2.024 2.135 3.482 4.017 3.994-1.694.992-2.836 2.796-2.844 4.899.001 2.102 1.159 3.898 2.844 4.89z"/>
        <circle cx="262" cy="315" r="2"/>
        <circle cx="268" cy="315" r="2"/>
        <circle cx="273" cy="315" r="2"/>
        <circle cx="228" cy="315" r="2"/>
        <circle cx="222" cy="315" r="2"/>
        <circle cx="217" cy="315" r="2"/>
        <circle cx="257" cy="327" r="2"/>
        <circle cx="261" cy="331" r="2"/>
        <circle cx="265" cy="335" r="2"/>
        <circle cx="233" cy="303" r="2"/>
        <circle cx="229" cy="299" r="2"/>
        <circle cx="225" cy="295" r="2"/>
        <circle cx="236" cy="300" r="2"/>
        <circle cx="234" cy="296" r="2"/>
        <circle cx="231" cy="291" r="2"/>
        <circle cx="253" cy="330" r="2"/>
        <circle cx="256" cy="335" r="2"/>
        <circle cx="259" cy="340" r="2"/>
        <circle cx="249" cy="299" r="2"/>
        <circle cx="251" cy="293" r="2"/>
        <circle cx="252" cy="288" r="2"/>
        <circle cx="240" cy="332" r="2"/>
        <circle cx="239" cy="337" r="2"/>
        <circle cx="238" cy="342" r="2"/>
        <circle cx="260" cy="307" r="2"/>
        <circle cx="265" cy="304" r="2"/>
        <circle cx="269" cy="301" r="2"/>
        <circle cx="230" cy="324" r="2"/>
        <circle cx="225" cy="326" r="2"/>
        <circle cx="220" cy="329" r="2"/>
        <path d="M308.399 323.434c3.198-1.434 5.427-4.624 5.427-8.357 0-3.734-2.229-6.924-5.427-8.365 2.718-2.213 4.049-5.876 3.08-9.476-.969-3.608-3.946-6.112-7.404-6.672 2.056-2.836 2.395-6.727.52-9.956a9.164 9.164 0 0 0-8.885-4.521c1.252-3.277.567-7.113-2.064-9.752-2.639-2.639-6.475-3.316-9.752-2.072.354-3.482-1.292-7.018-4.521-8.877-3.23-1.875-7.121-1.536-9.956.52-.559-3.458-3.072-6.443-6.672-7.412-3.608-.969-7.27.37-9.484 3.096-1.434-3.198-4.624-5.435-8.357-5.435-3.742 0-6.932 2.237-8.365 5.435-2.213-2.725-5.876-4.064-9.476-3.096-3.608.969-6.112 3.954-6.672 7.412-2.844-2.056-6.727-2.387-9.956-.52-3.23 1.867-4.884 5.396-4.521 8.885-3.277-1.245-7.113-.567-9.752 2.072a9.151 9.151 0 0 0-2.064 9.744c-3.489-.354-7.034 1.3-8.893 4.529-1.859 3.23-1.52 7.105.528 9.956a9.15 9.15 0 0 0-7.404 6.664c-.969 3.6.354 7.27 3.08 9.484-3.198 1.434-5.427 4.624-5.427 8.365 0 3.726 2.229 6.924 5.427 8.357-2.725 2.213-4.049 5.876-3.08 9.476.961 3.6 3.946 6.112 7.404 6.672-2.056 2.836-2.395 6.727-.528 9.964s5.411 4.876 8.893 4.513c-1.252 3.277-.567 7.113 2.064 9.752 2.639 2.639 6.483 3.316 9.76 2.072-.362 3.482 1.292 7.018 4.513 8.885a9.166 9.166 0 0 0 9.956-.528 9.157 9.157 0 0 0 6.672 7.412c3.608.969 7.27-.37 9.484-3.088 1.434 3.198 4.616 5.427 8.357 5.427a9.132 9.132 0 0 0 8.357-5.435c2.213 2.725 5.876 4.057 9.484 3.096 3.6-.969 6.112-3.954 6.672-7.412 2.836 2.056 6.727 2.395 9.956.528 3.23-1.867 4.876-5.404 4.521-8.885 3.277 1.245 7.113.567 9.752-2.072a9.186 9.186 0 0 0 2.072-9.752 9.166 9.166 0 0 0 8.885-4.521c1.859-3.23 1.52-7.113-.528-9.956 3.458-.559 6.435-3.072 7.404-6.672s-.354-7.278-3.08-9.484zm-14.635 4.734c-.74 2.788-.087 5.6 1.489 7.759-2.647.418-5.096 1.938-6.546 4.435-1.441 2.497-1.528 5.388-.559 7.885-2.662-.291-5.419.543-7.467 2.591-2.04 2.04-2.875 4.805-2.599 7.467-2.489-.969-5.372-.874-7.877.567-2.505 1.441-4.025 3.891-4.435 6.538-2.158-1.583-4.97-2.229-7.759-1.489-2.788.756-4.892 2.725-5.979 5.175-1.686-2.087-4.23-3.45-7.113-3.45s-5.427 1.371-7.113 3.45c-1.087-2.458-3.182-4.427-5.971-5.175-2.788-.74-5.608-.095-7.759 1.497-.417-2.655-1.938-5.096-4.435-6.546-2.505-1.449-5.396-1.536-7.893-.567.291-2.662-.544-5.427-2.592-7.467-2.04-2.04-4.797-2.875-7.459-2.591.961-2.497.866-5.388-.567-7.885-1.449-2.497-3.899-4.025-6.546-4.435 1.575-2.158 2.237-4.97 1.497-7.759-.756-2.788-2.733-4.899-5.183-5.979 2.095-1.678 3.45-4.222 3.45-7.105 0-2.891-1.363-5.435-3.45-7.113 2.458-1.087 4.427-3.19 5.175-5.979.748-2.788.087-5.6-1.489-7.767 2.647-.41 5.096-1.938 6.546-4.427 1.441-2.497 1.528-5.396.559-7.885 2.67.284 5.419-.551 7.467-2.591 2.048-2.048 2.883-4.805 2.592-7.467 2.497.969 5.38.866 7.877-.567 2.505-1.449 4.033-3.899 4.443-6.546 2.158 1.583 4.97 2.237 7.759 1.489 2.788-.756 4.892-2.725 5.979-5.167 1.686 2.079 4.222 3.45 7.113 3.45 2.883 0 5.427-1.371 7.105-3.45 1.095 2.458 3.19 4.427 5.986 5.175 2.788.748 5.6.095 7.751-1.489.425 2.647 1.953 5.096 4.443 6.538 2.489 1.449 5.388 1.536 7.877.575-.284 2.662.551 5.419 2.599 7.459 2.04 2.04 4.797 2.875 7.459 2.591-.961 2.497-.866 5.388.567 7.885 1.449 2.497 3.899 4.025 6.546 4.435-1.575 2.158-2.229 4.978-1.489 7.767.756 2.781 2.725 4.884 5.175 5.971-2.095 1.678-3.45 4.222-3.45 7.113 0 2.883 1.355 5.427 3.45 7.113-2.441 1.072-4.418 3.183-5.174 5.971z"/>
        <circle cx="261" cy="319" r="2"/>
        <circle cx="267" cy="321" r="2"/>
        <circle cx="272" cy="322" r="2"/>
        <circle cx="228" cy="311" r="2"/>
        <circle cx="223" cy="309" r="2"/>
        <circle cx="218" cy="308" r="2"/>
        <circle cx="230" cy="307" r="2"/>
        <circle cx="225" cy="304" r="2"/>
        <circle cx="220" cy="301" r="2"/>
        <circle cx="260" cy="324" r="2"/>
        <circle cx="265" cy="326" r="2"/>
        <circle cx="269" cy="329" r="2"/>
        <circle cx="240" cy="299" r="2"/>
        <circle cx="239" cy="293" r="2"/>
        <circle cx="238" cy="288" r="2"/>
        <circle cx="249" cy="332" r="2"/>
        <circle cx="251" cy="337" r="2"/>
        <circle cx="252" cy="342" r="2"/>
        <circle cx="253" cy="300" r="2"/>
        <circle cx="256" cy="296" r="2"/>
        <circle cx="259" cy="291" r="2"/>
        <circle cx="236" cy="330" r="2"/>
        <circle cx="234" cy="335" r="2"/>
        <circle cx="231" cy="340" r="2"/>
        <path d="M260.894 308.996c-.937.244-1.489 1.197-1.237 2.135s1.205 1.481 2.143 1.229a1.762 1.762 0 0 0 1.229-2.135 1.729 1.729 0 0 0-2.135-1.229z"/>
        <circle cx="267" cy="309" r="2"/>
        <circle cx="272" cy="308" r="2"/>
        <circle cx="228" cy="319" r="2"/>
        <circle cx="223" cy="321" r="2"/>
        <circle cx="218" cy="322" r="2"/>
        <path d="M456.809 238.608c0 34.43 17.038 63.015-13.777 63.015s-55.8-27.924-55.8-62.354c0-34.446 24.986-62.362 55.8-62.362s13.777 27.255 13.777 61.701z"/>
    </g>
    <path d="M443.032 176.908c30.815 0 13.777 27.254 13.777 61.7 0 34.43 17.038 63.015-13.777 63.015" fill="#0ac4a9"/>
</svg>
