<svg xmlns="http://www.w3.org/2000/svg" viewBox="0 0 504 504">
    <path d="M241.073 203.768c10.027 11.28 3.663 33.296-14.218 49.215-17.881 15.896-114.018 85.031-124.062 73.767-10.012-11.296 69.892-98.706 87.773-114.601 17.865-15.903 40.48-19.653 50.507-8.381zm21.977 0c-10.027 11.28-3.663 33.296 14.218 49.215 17.881 15.896 114.018 85.031 124.062 73.767 10.012-11.296-69.892-98.706-87.773-114.601-17.865-15.903-40.48-19.653-50.507-8.381z" fill="#a11"/>
    <path d="M228.218 361.905c0 19.511-15.817 124.676-35.336 124.676-19.495 0-35.304-105.173-35.304-124.676 0-19.495 15.817-35.32 35.304-35.32 19.519 0 35.336 15.833 35.336 35.32zm118.351 0c0 19.511-15.817 124.676-35.336 124.676-19.495 0-35.304-105.173-35.304-124.676 0-19.495 15.817-35.32 35.304-35.32 19.519 0 35.336 15.833 35.336 35.32z" fill="#3a83ba"/>
    <path d="M351.705 315.242c0 126.322-44.599 84.259-99.643 84.259-55.028 0-99.643 42.063-99.643-84.259 0-72.231 44.631-130.788 99.643-130.788 55.028.008 99.643 58.565 99.643 130.788z" fill="#ce1313"/>
    <path d="M336.25 256.646c-13.044 0-23.631-10.587-23.631-23.631v-21.417c-5.136-5.167-10.65-9.72-16.494-13.525.079.819.244 1.615.244 2.45v32.492c0 13.044-10.587 23.631-23.631 23.631h-41.354c-13.044 0-23.631-10.587-23.631-23.631v-32.492c0-.827.165-1.631.244-2.45-5.845 3.797-11.351 8.357-16.494 13.525v21.417c0 13.044-10.587 23.631-23.631 23.631h-4.813c-6.774 17.613-10.65 37.494-10.65 58.596 0 126.322 44.615 84.259 99.643 84.259 55.044 0 99.643 42.063 99.643-84.259 0-21.11-3.868-40.984-10.65-58.596h-4.795z" fill="#3997bc"/>
    <path d="M232.629 487.219c0 14.935-17.802 16.904-39.739 16.904s-39.739-1.969-39.739-16.904 17.802-35.509 39.739-35.509 39.739 20.567 39.739 35.509z" fill="#965930"/>
    <path d="M232.629 487.219c0 14.935-17.802 16.904-39.739 16.904s-39.739-1.969-39.739-16.904" fill="#7a4a2a"/>
    <path d="M350.988 487.219c0 14.935-17.802 16.904-39.739 16.904s-39.739-1.969-39.739-16.904 17.802-35.509 39.739-35.509 39.739 20.567 39.739 35.509z" fill="#965930"/>
    <path d="M350.988 487.219c0 14.935-17.802 16.904-39.739 16.904s-39.739-1.969-39.739-16.904" fill="#7a4a2a"/>
    <path d="M381.015 124.258c0 63-57.738 94.681-128.937 94.681-71.215 0-128.969-31.673-128.969-94.681C123.108 61.227 180.862 0 252.077 0c71.2 0 128.938 61.227 128.938 124.258z" fill="#f9c1ac"/>
    <path d="M381.015 124.258c0 63-57.738 94.681-128.937 94.681-71.215 0-128.969-31.673-128.969-94.681" fill="#f2b09c"/>
    <circle cx="191" cy="136" r="12" fill="#113e49"/>
    <path d="M202.279 136.428c0 6.388-5.167 11.54-11.54 11.54-6.372 0-11.524-5.152-11.524-11.54"/>
    <path d="M213.496 160.477c-.614 0-1.245-.213-1.725-.709-5.632-5.632-13.107-8.72-21.047-8.72h-.016c-7.94 0-15.399 3.096-21 8.704-.953.953-2.489.985-3.434.016a2.4 2.4 0 0 1-.031-3.419c6.538-6.554 15.218-10.169 24.458-10.169h.016c9.263 0 17.951 3.6 24.505 10.153.937.937.937 2.505 0 3.434-.466.497-1.08.71-1.726.71z" fill="#ffd3c5"/>
    <circle cx="313" cy="136" r="12" fill="#113e49"/>
    <path d="M301.859 136.428a11.52 11.52 0 0 0 11.54 11.54c6.372 0 11.524-5.152 11.524-11.54"/>
    <path d="M290.643 160.477c.599 0 1.229-.213 1.709-.709 5.632-5.632 13.107-8.72 21.047-8.72h.016c7.94 0 15.415 3.096 21.016 8.704a2.405 2.405 0 0 0 3.434.016c.953-.922.969-2.458.016-3.419-6.506-6.554-15.218-10.169-24.458-10.169h-.016c-9.248 0-17.936 3.6-24.505 10.153-.922.937-.922 2.505 0 3.434.48.497 1.095.71 1.741.71z" fill="#ffd3c5"/>
    <path d="M268.06 188.463c0 8.846-7.16 15.998-15.998 15.998s-15.998-7.152-15.998-15.998v-10.335c0-8.83 7.16-15.998 15.998-15.998s15.998 7.168 15.998 15.998v10.335z" fill="#6d0000"/>
    <path d="M236.686 192.646c1.843 6.798 7.995 11.815 15.376 11.815 7.381 0 13.533-5.018 15.376-11.815-1.843-6.798-7.995-11.815-15.376-11.815-7.381 0-13.533 5.017-15.376 11.815z" fill="#a11"/>
    <circle cx="200" cy="259" r="24" fill="#ffb000"/>
    <path d="M216.261 242.57c9.232 9.232 9.232 24.182 0 33.414-9.232 9.232-24.198 9.232-33.422 0" fill="#f49600"/>
    <circle cx="305" cy="259" r="24" fill="#ffb000"/>
    <path d="M321.276 242.57c9.24 9.232 9.24 24.182 0 33.414-9.224 9.232-24.182 9.232-33.414 0" fill="#f49600"/>
    <path d="M256.095 163.249s-14.895-32.043-54.957-5.727c-40.046 26.34-43.488 18.306-43.488 18.306s42.346 30.925 88.135 11.477l6.877-5.75 3.433-18.306z" fill="#663f24"/>
    <path d="M157.649 175.829s42.346 30.925 88.135 11.477l6.877-5.75 3.434-18.306" fill="#543722"/>
    <path d="M248.044 163.249s14.88-32.043 54.942-5.727c40.054 26.34 43.488 18.306 43.488 18.306s-42.338 30.925-88.135 11.477l-6.877-5.75-3.418-18.306z" fill="#663f24"/>
    <path d="M346.474 175.829s-42.338 30.925-88.135 11.477l-6.877-5.75-3.419-18.306" fill="#543722"/>
    <path d="M125.023 105.031h254.078C368.892 49.357 315.983 0 252.077 0c-63.921 0-116.846 49.357-127.054 105.031z" fill="#ce1313"/>
    <circle cx="252" cy="63" r="44" fill="#ebf0f2"/>
    <path d="M252.062 19.354c24.198 0 43.811 19.614 43.811 43.811s-19.614 43.811-43.811 43.811" fill="#c8d3d6"/>
    <path d="M386.505 104.495c0 2.473-60.195 4.458-134.443 4.458s-134.443-1.985-134.443-4.458c0-2.45 60.195-16.219 134.443-16.219s134.443 13.77 134.443 16.219z" fill="#a11"/>
    <g fill="#ce1313">
        <path d="M219.9 42.661h33.469v13.785H219.9z"/>
        <path d="M219.9 42.661h13.777v33.477H219.9zm30.822 0h33.469v13.785h-33.469z"/>
        <path d="M270.438 42.661h13.777v33.477h-13.777zm-24.615 0h13.785v33.477h-13.785z"/>
    </g>
</svg>
