<svg xmlns="http://www.w3.org/2000/svg" viewBox="0 0 504 504">
    <path d="M312.42 258.095c11.28 10.027 33.304 3.663 49.223-14.218 15.896-17.881 85.016-114.018 73.767-124.062-11.296-10.012-98.714 69.892-114.609 87.773-15.896 17.857-19.653 40.472-8.381 50.507z" fill="#0d50a0"/>
    <path d="M258.376 361.913c0 19.503-15.817 124.668-35.336 124.668-19.495 0-35.304-105.173-35.304-124.668 0-19.495 15.817-35.32 35.304-35.32 19.519 0 35.336 15.825 35.336 35.32zm118.351 0c0 19.503-15.817 124.668-35.336 124.668-19.495 0-35.304-105.173-35.304-124.668 0-19.495 15.817-35.32 35.304-35.32 19.519 0 35.336 15.825 35.336 35.32z" fill="#0d467f"/>
    <path d="M381.871 315.242c0 126.33-44.607 84.259-99.643 84.259-55.028 0-99.643 42.071-99.643-84.259 0-72.231 44.631-130.781 99.643-130.781 55.02.009 99.643 58.558 99.643 130.781z" fill="#2679a8"/>
    <path d="M282.22 366.033c-51.617 0-94.074 37.006-99.139-62.661-.339 3.458-.504 7.396-.504 11.878 0 126.33 44.615 84.259 99.643 84.259 55.036 0 99.643 42.071 99.643-84.259 0-4.474-.165-8.413-.504-11.878-5.065 99.667-47.506 62.661-99.139 62.661z" fill="#0d50a0"/>
    <path d="M262.787 487.219c0 14.935-17.802 16.904-39.747 16.904-21.929 0-39.739-1.961-39.739-16.904s17.81-35.509 39.739-35.509c21.953.008 39.747 20.567 39.747 35.509z" fill="#404749"/>
    <path d="M262.787 487.219c0 14.935-17.802 16.904-39.747 16.904-21.929 0-39.739-1.961-39.739-16.904" fill="#232728"/>
    <path d="M381.138 487.219c0 14.935-17.786 16.904-39.731 16.904-21.937 0-39.739-1.961-39.739-16.904s17.802-35.509 39.739-35.509c21.945.008 39.731 20.567 39.731 35.509z" fill="#404749"/>
    <path d="M381.138 487.219c0 14.935-17.786 16.904-39.731 16.904-21.937 0-39.739-1.961-39.739-16.904" fill="#232728"/>
    <path d="M271.239 203.768c10.027 11.28 3.663 33.304-14.218 49.223-17.881 15.896-114.026 85.024-124.062 73.767-10.012-11.296 69.9-98.714 87.765-114.609s40.48-19.653 50.515-8.381z" fill="#2679a8"/>
    <path d="M411.173 124.258c0 63.008-57.746 94.681-128.937 94.681-71.215 0-128.969-31.673-128.969-94.681C153.267 61.235 211.02 0 282.235 0c71.192 0 128.938 61.235 128.938 124.258z" fill="#e8b085"/>
    <path d="M411.173 124.258c0 63.008-57.746 94.681-128.937 94.681-71.215 0-128.969-31.673-128.969-94.681" fill="#dd9f76"/>
    <circle cx="221" cy="136" r="12" fill="#113e49"/>
    <path d="M232.438 136.428c0 6.388-5.175 11.54-11.54 11.54-6.372 0-11.524-5.152-11.524-11.54"/>
    <path d="M243.654 160.484a2.377 2.377 0 0 1-1.725-.717c-5.632-5.624-13.107-8.72-21.047-8.72h-.016c-7.94 0-15.399 3.104-21 8.712-.945.953-2.489.977-3.442.008a2.402 2.402 0 0 1-.024-3.419c6.538-6.546 15.218-10.161 24.458-10.161h.016c9.263 0 17.944 3.592 24.497 10.145.937.937.937 2.505 0 3.434-.456.498-1.071.718-1.717.718z" fill="#f4c3a2"/>
    <path d="M332.018 136.428c0 6.388 5.144 11.54 11.54 11.54 6.372 0 11.524-5.152 11.524-11.54 0-6.365-5.151-11.532-11.524-11.532-6.389 0-11.54 5.176-11.54 11.532z" fill="#113e49"/>
    <path d="M332.018 136.428c0 6.388 5.144 11.54 11.54 11.54 6.372 0 11.524-5.152 11.524-11.54"/>
    <path d="M320.809 160.484a2.38 2.38 0 0 0 1.709-.717c5.632-5.624 13.107-8.72 21.047-8.72h.008c7.948 0 15.423 3.104 21.016 8.712a2.405 2.405 0 0 0 3.434.008 2.395 2.395 0 0 0 .024-3.419c-6.506-6.546-15.218-10.161-24.466-10.161h-.008c-9.247 0-17.944 3.592-24.513 10.145-.922.937-.922 2.505 0 3.434.481.498 1.103.718 1.749.718z" fill="#f4c3a2"/>
    <path d="M285.867 167.471s-13.477-29.003-49.719-5.175-39.353 16.565-39.353 16.565 38.313 27.987 79.754 10.382l6.215-5.199 3.103-16.573z" fill="#663f24"/>
    <path d="M196.787 178.853s38.313 27.987 79.754 10.382l6.215-5.199 3.111-16.573" fill="#543722"/>
    <path d="M278.588 167.471s13.462-29.003 49.711-5.175 39.353 16.565 39.353 16.565-38.305 27.987-79.746 10.382l-6.223-5.199-3.095-16.573z" fill="#663f24"/>
    <path d="M367.653 178.853s-38.305 27.987-79.746 10.382l-6.223-5.199-3.096-16.573" fill="#543722"/>
    <g fill="#eaa10f">
        <circle cx="282" cy="236" r="7"/>
        <circle cx="282" cy="258" r="7"/>
        <circle cx="282" cy="280" r="7"/>
        <circle cx="282" cy="301" r="7"/>
        <circle cx="282" cy="323" r="7"/>
        <circle cx="282" cy="345" r="7"/>
    </g>
    <path d="M161.025 84.346h242.381C385.478 37.699 338.059 0 282.235 0c-55.847 0-103.266 37.699-121.21 84.346z" fill="#2679a8"/>
    <path d="M161.025 84.346h242.381c-17.936-46.647-65.355-71.215-121.179-71.215-55.839 0-103.258 24.568-121.202 71.215z" fill="#0d50a0"/>
    <path d="M423.02 95.177c0 8.964-63.039 6.955-140.8 6.955-77.753 0-140.808 2.009-140.808-6.955 0-8.956 63.055-33.477 140.808-33.477 77.761 0 140.8 24.521 140.8 33.477z" fill="#404749"/>
    <path d="M423.02 95.177c0 8.964-63.039 6.955-140.8 6.955-77.753 0-140.808 2.009-140.808-6.955 0-8.956 63.055-16.738 140.808-16.738 77.761-.001 140.8 7.782 140.8 16.738z" fill="#232728"/>
    <path d="M282.212 16.408l5.797 11.728 12.958 1.891-9.382 9.129 2.214 12.895-11.587-6.089-11.571 6.089 2.205-12.895-9.373-9.129 12.957-1.891zm-26.522 230.4a2.955 2.955 0 0 1-2.954 2.954h-34.462a2.955 2.955 0 0 1 0-5.908h34.462a2.955 2.955 0 0 1 2.954 2.954zm0 13.784a2.955 2.955 0 0 1-2.954 2.954h-34.462a2.955 2.955 0 0 1 0-5.908h34.462a2.955 2.955 0 0 1 2.954 2.954zm0 13.785a2.955 2.955 0 0 1-2.954 2.954h-34.462a2.955 2.955 0 0 1 0-5.908h34.462a2.955 2.955 0 0 1 2.954 2.954z" fill="#eaa10f"/>
    <path d="M100.877 256.299c7.648 7.648 68.632 81.014 60.983 88.663-7.633 7.641-80.998-53.35-88.647-60.999-7.641-7.641-7.641-20.015-.008-27.648 7.657-7.656 20.039-7.656 27.672-.016z" fill="#232728"/>
</svg>
