<svg xmlns="http://www.w3.org/2000/svg" viewBox="0 0 504 504">
    <path d="M280.117 258.095c11.28 10.027 33.304 3.663 49.223-14.218 15.896-17.881 85.016-114.018 73.767-124.062-11.296-10.012-98.714 69.892-114.609 87.773-15.904 17.857-19.653 40.472-8.381 50.507zm-41.189-54.327c10.027 11.28 3.663 33.304-14.218 49.223-17.881 15.896-114.026 85.024-124.062 73.767-10.012-11.296 69.9-98.714 87.765-114.609s40.488-19.653 50.515-8.381z" fill="#446068"/>
    <path d="M226.065 361.913c0 19.503-15.809 124.668-35.336 124.668-19.495 0-35.304-105.173-35.304-124.668 0-19.495 15.817-35.32 35.304-35.32 19.527 0 35.336 15.825 35.336 35.32zm118.359 0c0 19.503-15.817 124.668-35.336 124.668-19.495 0-35.304-105.173-35.304-124.668 0-19.495 15.817-35.32 35.304-35.32 19.519 0 35.336 15.825 35.336 35.32z" fill="#2e4449"/>
    <path d="M349.56 315.242c0 126.33-44.607 84.259-99.643 84.259-55.028 0-99.643 42.071-99.643-84.259 0-72.231 44.631-130.781 99.643-130.781 55.028.009 99.643 58.558 99.643 130.781z" fill="#9fd1d1"/>
    <path fill="#dd9f76" d="M285.19 207.435l-35.278 35.279-35.278-35.279 35.278-35.279z"/>
    <path d="M230.484 487.219c0 14.935-17.802 16.904-39.747 16.904-21.929 0-39.739-1.961-39.739-16.904s17.81-35.509 39.739-35.509c21.946.008 39.747 20.567 39.747 35.509z" fill="#9fd1d1"/>
    <path d="M230.484 487.219c0 14.935-17.802 16.904-39.747 16.904-21.929 0-39.739-1.961-39.739-16.904" fill="#7abcbb"/>
    <path d="M348.827 487.219c0 14.935-17.786 16.904-39.731 16.904-21.937 0-39.739-1.961-39.739-16.904s17.802-35.509 39.739-35.509c21.945.008 39.731 20.567 39.731 35.509z" fill="#9fd1d1"/>
    <path d="M348.827 487.219c0 14.935-17.786 16.904-39.731 16.904-21.937 0-39.739-1.961-39.739-16.904" fill="#7abcbb"/>
    <path d="M378.87 124.258c0 63.008-57.746 94.681-128.937 94.681-71.223 0-128.969-31.673-128.969-94.681C120.964 61.235 178.709 0 249.933 0 321.124 0 378.87 61.235 378.87 124.258z" fill="#e8b085"/>
    <path d="M378.87 124.258c0 63.008-57.746 94.681-128.937 94.681-71.223 0-128.969-31.673-128.969-94.681" fill="#dd9f76"/>
    <path d="M292.2 167.771c0 23.355-18.92 42.283-42.283 42.283s-42.283-18.928-42.283-42.283V131.49h-5.971c-3.474 7.097-5.569 14.99-5.569 23.434v64.236c16.4 4.616 34.603 7.01 53.839 7.01 19.22 0 37.415-2.395 53.807-7.01v-64.236c0-8.436-2.095-16.329-5.569-23.434H292.2v36.281z" fill="#543722"/>
    <circle cx="189" cy="103" r="12" fill="#113e49"/>
    <path d="M200.127 103.448c0 6.388-5.175 11.54-11.532 11.54a11.52 11.52 0 0 1-11.532-11.54"/>
    <path d="M211.343 127.504a2.377 2.377 0 0 1-1.725-.717c-5.632-5.624-13.107-8.72-21.047-8.72h-.024c-7.932 0-15.384 3.104-20.992 8.712-.945.953-2.489.977-3.442.008a2.402 2.402 0 0 1-.024-3.419c6.538-6.546 15.218-10.161 24.45-10.161h.024c9.263 0 17.944 3.592 24.497 10.145.937.937.937 2.505 0 3.434-.456.489-1.071.718-1.717.718z" fill="#f4c3a2"/>
    <path d="M299.715 103.448c0 6.388 5.144 11.54 11.54 11.54 6.372 0 11.524-5.152 11.524-11.54 0-6.365-5.151-11.532-11.524-11.532a11.523 11.523 0 0 0-11.54 11.532z" fill="#113e49"/>
    <path d="M299.715 103.448c0 6.388 5.144 11.54 11.54 11.54 6.372 0 11.524-5.152 11.524-11.54"/>
    <path d="M288.498 127.504a2.38 2.38 0 0 0 1.709-.717c5.632-5.624 13.107-8.72 21.047-8.72h.008c7.948 0 15.423 3.104 21.016 8.712a2.405 2.405 0 0 0 3.434.008 2.395 2.395 0 0 0 .024-3.419c-6.506-6.546-15.218-10.161-24.466-10.161h-.008c-9.247 0-17.944 3.592-24.513 10.145-.922.937-.922 2.505 0 3.434a2.423 2.423 0 0 0 1.749.718z" fill="#f4c3a2"/>
    <path d="M253.556 134.979s-13.477-29.003-49.719-5.175-39.353 16.565-39.353 16.565 38.313 27.987 79.754 10.382l6.215-5.199 3.103-16.573z" fill="#663f24"/>
    <path d="M164.484 146.361s38.313 27.987 79.754 10.382l6.215-5.199 3.111-16.573" fill="#543722"/>
    <path d="M246.286 134.979s13.462-29.003 49.711-5.175 39.353 16.565 39.353 16.565-38.305 27.987-79.746 10.382l-6.223-5.199-3.095-16.573z" fill="#663f24"/>
    <path d="M335.342 146.361s-38.305 27.987-79.746 10.382l-6.223-5.199-3.096-16.573" fill="#543722"/>
    <path d="M156.394 270.438h187.038c-4.348-15.62-10.878-29.83-19.141-42.016H175.535c-8.263 12.186-14.785 26.396-19.141 42.016zm-6.128 44.804c0 9.689.291 18.282.811 26.088h197.679c.512-7.798.811-16.392.811-26.088 0-5.411-.331-10.697-.811-15.927H151.077c-.48 5.23-.811 10.524-.811 15.927zm4.545 54.966c12.682 56.958 50.46 29.302 95.098 29.302 44.654 0 82.424 27.664 95.098-29.302H154.811z" fill="#446068"/>
    <g fill="#c6825c">
        <path d="M253.241 93.885a5.097 5.097 0 0 1 0 7.2 5.097 5.097 0 0 1-7.2 0l-49.64-49.64a5.11 5.11 0 0 1 0-7.223c1.977-1.985 5.207-1.985 7.199 0l49.641 49.663z"/>
        <path d="M218.827 41.842a2.829 2.829 0 0 1 0 3.986l-20.834 20.834a2.818 2.818 0 0 1-4.001 0c-1.111-1.111-1.111-2.875 0-4.001l20.834-20.834a2.833 2.833 0 0 1 4.001.015zm12.012 11.997a2.818 2.818 0 0 1 0 4.001l-20.834 20.834a2.828 2.828 0 0 1-4.009 0 2.847 2.847 0 0 1 0-4.001l20.842-20.834a2.818 2.818 0 0 1 4.001 0zm12.004 12.012a2.825 2.825 0 0 1 0 4.001l-20.834 20.834a2.833 2.833 0 0 1-4.001-.016 2.793 2.793 0 0 1 0-3.986l20.834-20.834a2.833 2.833 0 0 1 4.001.001zm12.005 12.012a2.796 2.796 0 0 1 0 3.994l-20.827 20.834c-1.103 1.111-2.883 1.111-4.009 0a2.847 2.847 0 0 1 0-4.001l20.842-20.834a2.803 2.803 0 0 1 3.994.007z"/>
    </g>
</svg>
