<svg xmlns="http://www.w3.org/2000/svg" viewBox="0 0 504 504">
    <path d="M249.304 361.913c0 19.503-15.817 124.668-35.336 124.668-19.495 0-35.304-105.173-35.304-124.668 0-19.495 15.817-35.32 35.304-35.32 19.527 0 35.336 15.825 35.336 35.32zm118.358 0c0 19.503-15.817 124.668-35.336 124.668-19.495 0-35.304-105.173-35.304-124.668 0-19.495 15.817-35.32 35.304-35.32 19.52 0 35.336 15.825 35.336 35.32z" fill="#4f340e"/>
    <path d="M372.798 315.242c0 126.33-44.599 84.259-99.643 84.259-55.028 0-99.643 42.071-99.643-84.259 0-72.231 44.631-130.788 99.643-130.788 55.028.008 99.643 58.565 99.643 130.788z" fill="#684713"/>
    <path d="M253.723 487.219c0 14.935-17.802 16.904-39.739 16.904s-39.739-1.961-39.739-16.904 17.802-35.509 39.739-35.509 39.739 20.567 39.739 35.509z" fill="#b7530f"/>
    <path d="M253.723 487.219c0 14.935-17.802 16.904-39.739 16.904s-39.739-1.961-39.739-16.904" fill="#9b4308"/>
    <path d="M372.073 487.219c0 14.935-17.802 16.904-39.739 16.904s-39.739-1.961-39.739-16.904 17.802-35.509 39.739-35.509 39.739 20.567 39.739 35.509z" fill="#b7530f"/>
    <path d="M372.073 487.219c0 14.935-17.802 16.904-39.739 16.904s-39.739-1.961-39.739-16.904" fill="#9b4308"/>
    <path d="M262.167 203.768c10.027 11.28 3.663 33.304-14.218 49.223-17.881 15.896-114.018 85.024-124.062 73.767-10.012-11.296 69.892-98.714 87.773-114.609 17.865-15.895 40.479-19.653 50.507-8.381zm21.968 0c-10.027 11.28-3.663 33.304 14.218 49.223 17.881 15.896 114.018 85.024 124.062 73.767 10.012-11.296-69.892-98.714-87.773-114.609-17.857-15.895-40.471-19.653-50.507-8.381z" fill="#684713"/>
    <path fill="#e2ded3" d="M252.478 199.546h41.354v141.131h-41.354z"/>
    <path d="M252.478 233.669c6.751.622 13.627 1.024 20.693 1.024 7.05 0 13.926-.402 20.661-1.024v-34.123h-41.354v34.123z" fill="#c6bfaf"/>
    <path fill="#d62b2b" d="M279.275 218.577l10.248 103.888-16.368 11.895-16.368-11.895 10.24-103.888z"/>
    <path fill="#a11" d="M267.027 218.577h12.248l10.248 103.888-16.368 11.895"/>
    <path d="M402.108 124.258c0 63.008-57.738 94.681-128.937 94.681-71.215 0-128.969-31.673-128.969-94.681C144.202 61.235 201.956 0 273.171 0c71.199 0 128.937 61.235 128.937 124.258z" fill="#f9c1ac"/>
    <path d="M402.108 124.258c0 63.008-57.738 94.681-128.937 94.681-71.215 0-128.969-31.673-128.969-94.681" fill="#f2b09c"/>
    <circle cx="212" cy="136" r="12" fill="#113e49"/>
    <path d="M223.365 136.428c0 6.388-5.167 11.54-11.54 11.54-6.372 0-11.524-5.152-11.524-11.54"/>
    <path d="M234.582 160.484a2.377 2.377 0 0 1-1.725-.717c-5.632-5.624-13.107-8.72-21.047-8.72h-.016c-7.94 0-15.399 3.104-21 8.712-.953.953-2.489.977-3.434.008a2.402 2.402 0 0 1-.032-3.419c6.538-6.546 15.218-10.161 24.458-10.161h.016c9.263 0 17.952 3.592 24.505 10.145.937.937.937 2.505 0 3.434-.465.498-1.079.718-1.725.718z" fill="#ffd3c5"/>
    <circle cx="334" cy="136" r="12" fill="#113e49"/>
    <path d="M322.953 136.428a11.52 11.52 0 0 0 11.54 11.54c6.372 0 11.524-5.152 11.524-11.54"/>
    <path d="M311.736 160.484c.599 0 1.229-.221 1.709-.717 5.632-5.624 13.107-8.72 21.047-8.72h.016c7.94 0 15.415 3.104 21.016 8.712a2.405 2.405 0 0 0 3.434.008c.953-.922.969-2.458.016-3.419-6.506-6.546-15.218-10.161-24.458-10.161h-.016c-9.247 0-17.936 3.592-24.505 10.145-.922.937-.922 2.505 0 3.434.481.498 1.095.718 1.741.718z" fill="#ffd3c5"/>
    <path d="M273.171 0c-1.788 0-3.505.205-5.27.284-.898 1.182-1.638 2.442-2.087 3.812-6.097 18.81 32.989 48.356 87.3 65.946 13.698 4.435 27.057 7.688 39.471 9.775C373.397 35.281 327.199 0 273.171 0z" fill="#a54b08"/>
    <path d="M330.586 14.131C313.272 5.27 293.816 0 273.171 0c-54.351 0-100.77 35.698-119.753 80.605 20.33 4.624 54.185 1.197 90.49-10.563 45.403-14.707 80.069-37.754 86.678-55.911z" fill="#bc5806"/>
    <path d="M294.029 355.454c0 5.254-4.261 9.515-9.523 9.515h-22.307c-5.262 0-9.523-4.261-9.523-9.515a9.52 9.52 0 0 1 9.523-9.523h22.307a9.52 9.52 0 0 1 9.523 9.523z" fill="#ce910b"/>
    <path d="M284.506 345.931h-22.307c-4.356 0-7.861 2.962-9.003 6.94 1.142 3.97 4.647 6.932 9.003 6.932h22.307c4.348 0 7.861-2.962 9.003-6.932-1.142-3.978-4.655-6.94-9.003-6.94z" fill="#e5aa15"/>
    <path d="M285.632 165.297c0 4.49-5.6 8.153-12.477 8.153-6.884 0-12.469-3.663-12.469-8.153 0-4.513 5.585-1.812 12.469-1.812 6.877.001 12.477-2.701 12.477 1.812z" fill="#a11"/>
    <path d="M262.923 169.945c2.253 2.119 5.994 3.505 10.232 3.505 4.23 0 7.979-1.394 10.232-3.505-2.253-2.127-6.002-3.513-10.232-3.513-4.238 0-7.979 1.394-10.232 3.513z" fill="#d62b2b"/>
    <path d="M336.698 266.508a2.617 2.617 0 0 1-2.623 2.623h-25.6a2.617 2.617 0 0 1-2.623-2.623 2.617 2.617 0 0 1 2.623-2.623h25.6a2.617 2.617 0 0 1 2.623 2.623zm-201.547 60.991c-2.812 2.812-51.358 46.781-54.177 43.961-2.82-2.82 41.149-51.365 43.961-54.177a7.235 7.235 0 0 1 10.224-.008c2.828 2.82 2.812 7.404-.008 10.224z" fill="#e5aa15"/>
    <path d="M135.159 317.275c2.82 2.82 2.804 7.396-.008 10.224-2.812 2.812-51.358 46.781-54.177 43.961" fill="#c98e0a"/>
    <circle cx="241" cy="146" r="18" fill="#6bcddd"/>
    <path d="M241.214 168.204c-12.028 0-21.811-9.775-21.811-21.803s9.775-21.803 21.811-21.803c12.012 0 21.803 9.775 21.803 21.803s-9.791 21.803-21.803 21.803zm0-35.722c-7.688 0-13.934 6.246-13.934 13.926s6.246 13.926 13.934 13.926c7.68 0 13.926-6.246 13.926-13.926s-6.246-13.926-13.926-13.926z" fill="#426877"/>
    <circle cx="305" cy="146" r="18" fill="#6bcddd"/>
    <path d="M305.088 168.204c-12.012 0-21.803-9.775-21.803-21.803s9.783-21.803 21.803-21.803c12.028 0 21.803 9.775 21.803 21.803s-9.767 21.803-21.803 21.803zm0-35.722c-7.68 0-13.926 6.246-13.926 13.926s6.246 13.926 13.926 13.926c7.688 0 13.926-6.246 13.926-13.926s-6.238-13.926-13.926-13.926z" fill="#426877"/>
    <path fill="#426877" d="M259.079 142.47h29.538v7.877h-29.538z"/>
</svg>
