<svg xmlns="http://www.w3.org/2000/svg" viewBox="0 0 504 504">
    <g fill="#232728">
        <path d="M399.16 315.242c0 126.33-44.599 84.259-99.643 84.259-55.028 0-99.643 42.071-99.643-84.259 0-72.231 44.631-130.781 99.643-130.781 55.028.001 99.643 58.55 99.643 130.781z"/>
        <path d="M275.666 361.905c0 19.503-15.817 124.668-35.336 124.668-19.495 0-35.304-105.173-35.304-124.668 0-19.495 15.817-35.32 35.304-35.32 19.519 0 35.336 15.825 35.336 35.32zm118.351 0c0 19.503-15.817 124.668-35.336 124.668-19.495 0-35.304-105.173-35.304-124.668 0-19.495 15.817-35.32 35.304-35.32 19.527 0 35.336 15.825 35.336 35.32z"/>
    </g>
    <path d="M280.085 487.219c0 14.935-17.802 16.904-39.739 16.904s-39.739-1.969-39.739-16.904c0-14.943 17.802-35.509 39.739-35.509 21.937 0 39.739 20.559 39.739 35.509z" fill="#8d97a0"/>
    <path d="M280.085 487.219c0 14.935-17.802 16.904-39.739 16.904s-39.739-1.969-39.739-16.904" fill="#79848c"/>
    <path d="M398.436 487.219c0 14.935-17.802 16.904-39.739 16.904s-39.739-1.969-39.739-16.904c0-14.943 17.802-35.509 39.739-35.509s39.739 20.559 39.739 35.509z" fill="#8d97a0"/>
    <path d="M398.436 487.219c0 14.935-17.802 16.904-39.739 16.904s-39.739-1.969-39.739-16.904" fill="#79848c"/>
    <g fill="#232728">
        <path d="M288.529 203.76c10.027 11.28 3.663 33.304-14.218 49.223-17.881 15.896-114.018 85.024-124.062 73.767-10.012-11.296 69.892-98.714 87.773-114.609 17.857-15.895 40.472-19.645 50.507-8.381zm21.969 0c-10.027 11.28-3.663 33.304 14.218 49.223 17.881 15.896 114.018 85.024 124.062 73.767 10.012-11.296-69.892-98.714-87.773-114.609-17.865-15.895-40.48-19.645-50.507-8.381z"/>
        <path d="M428.47 216.277c0 63.008-57.738 94.681-128.937 94.681-71.215 0-128.969-31.673-128.969-94.681C170.564 153.253 228.318 0 299.533 0 370.725 0 428.47 153.253 428.47 216.277z"/>
    </g>
    <path d="M375.34 104.732c0-61.07-33.942-80.25-75.831-80.25s-75.831 19.188-75.831 80.25c0 44.284 17.849 82.456 43.615 100.131 6.034 40.196 18.204 77.879 32.217 77.879s26.167-37.683 32.232-77.879c25.757-17.66 43.598-55.847 43.598-100.131z" fill="#fff"/>
    <path d="M299.509 282.742c14.013 0 26.167-37.683 32.232-77.879 25.758-17.66 43.599-55.847 43.599-100.131 0-61.07-33.942-80.25-75.831-80.25" fill="#d3edeb"/>
    <path d="M315.941 193.292c0 35.564-7.357 73.854-16.431 73.854-9.058 0-16.431-38.29-16.431-73.854 0-35.556 7.373-29.342 16.431-29.342 9.081 0 16.431-6.215 16.431 29.342z" fill="#b8d1d1"/>
    <path d="M315.941 187.605c0 35.556-7.357 64.378-16.431 64.378-9.058 0-16.431-28.822-16.431-64.378 0-35.564 7.373-29.349 16.431-29.349 9.081.007 16.431-6.208 16.431 29.349z" fill="#065177"/>
    <path d="M299.509 158.263c9.074 0 16.431-6.215 16.431 29.349 0 35.556-7.357 64.378-16.431 64.378M284.007 70.751c7.601 7.735 3.403 24.198-9.381 36.785-12.768 12.556-29.294 16.479-36.896 8.751-7.601-7.727 9.295-11.28 22.079-23.836 12.777-12.571 16.597-29.412 24.198-21.7z" fill="#102d35"/>
    <path d="M237.731 116.295c-7.601-7.719 9.295-11.28 22.079-23.836 12.784-12.579 16.597-29.412 24.198-21.701" fill="#065177"/>
    <path d="M315.019 70.751c-7.585 7.735-3.403 24.198 9.381 36.785 12.768 12.556 29.31 16.479 36.911 8.751 7.585-7.719-9.311-11.28-22.095-23.836-12.768-12.571-16.58-29.412-24.197-21.7z" fill="#102d35"/>
    <path d="M361.312 116.295c7.585-7.719-9.311-11.28-22.095-23.836-12.768-12.579-16.581-29.412-24.198-21.701" fill="#065177"/>
    <path d="M230.247 149.772c7.396 24.151 20.551 43.733 36.935 55.005-.788-9.358-4.23-19.85-10.35-29.806-7.302-11.903-16.983-20.694-26.585-25.199zm101.605 55.004c16.368-11.28 29.523-30.854 36.911-55.005-9.586 4.506-19.259 13.296-26.553 25.198-6.144 9.965-9.586 20.45-10.358 29.807zm-26.506-74.696c-2.418 0-4.537-1.355-5.293-3.371-.079-.197-.307-.307-.536-.252-.228-.055-.465.055-.536.252-.74 2.016-2.859 3.371-5.293 3.371-3.048 0-5.537-2.182-5.537-4.884 0-.969.323-1.922.937-2.733l.016-.016.031-.032 10.382-17.818 10.366 17.802.063.047v.016a4.42 4.42 0 0 1 .937 2.733c.001 2.695-2.481 4.885-5.537 4.885z" fill="#b8d1d1"/>
    <path d="M305.346 130.97c-2.418 0-4.537-1.355-5.293-3.371a.443.443 0 0 0-.536-.244c-.228-.063-.465.047-.536.244-.74 2.016-2.859 3.371-5.293 3.371-3.048 0-5.537-2.19-5.537-4.884 0-.977.323-1.93.937-2.733l.016-.016c.031-.024.031-.032.031-.032l10.382-12.28 10.366 12.264.063.047v.016c.63.803.937 1.757.937 2.733.001 2.695-2.481 4.885-5.537 4.885z" fill="#102d35"/>
    <path d="M299.509 127.354c-.228-.063-.465.047-.536.244-.74 2.016-2.859 3.371-5.293 3.371-3.048 0-5.537-2.19-5.537-4.884 0-.977.323-1.93.937-2.733l.016-.016c.032-.024.032-.032.032-.032l10.382-12.28" fill="#065177"/>
    <path d="M64.265 225.343c-4.269 4.261-7.499 9.145-9.783 14.344 17.321-7.648 38.29-4.411 52.476 9.783 14.202 14.202 17.432 35.163 9.791 52.484 5.199-2.284 10.082-5.514 14.344-9.775 18.464-18.464 18.464-48.388 0-66.836-18.44-18.448-48.38-18.448-66.828 0z" fill="#90adac"/>
    <path d="M58.483 232.424c-1.536 2.332-2.907 4.758-4.001 7.27 17.321-7.648 38.29-4.411 52.476 9.783 14.202 14.202 17.432 35.163 9.791 52.484 2.513-1.103 4.939-2.458 7.27-4.009 12.249-18.361 10.295-43.41-5.916-59.613s-41.251-18.171-59.62-5.915z" fill="#a5c4c2"/>
    <path d="M171.486 335.124c3.844 3.836 3.844 10.075 0 13.926-3.844 3.844-10.075 3.844-13.926 0l-37.597-37.597c-3.844-3.844-3.844-10.075 0-13.926 3.844-3.844 10.075-3.844 13.926 0l37.597 37.597z" fill="#232728"/>
</svg>
