<svg xmlns="http://www.w3.org/2000/svg" viewBox="0 0 504 504">
    <path d="M241.073 203.768c10.027 11.28 3.663 33.296-14.218 49.215-17.881 15.896-114.018 85.031-124.062 73.767-10.012-11.296 69.892-98.706 87.773-114.601 17.865-15.903 40.48-19.653 50.507-8.381zm21.977 0c-10.027 11.28-3.663 33.296 14.218 49.215 17.881 15.896 114.018 85.031 124.062 73.767 10.012-11.296-69.892-98.706-87.773-114.601-17.865-15.903-40.48-19.653-50.507-8.381z" fill="#ff6700"/>
    <path d="M348.538 358.951c0 19.511-15.817 124.676-35.336 124.676-19.495 0-35.304-105.173-35.304-124.676 0-19.495 15.817-35.32 35.304-35.32 19.519 0 35.336 15.833 35.336 35.32zm-120.32 2.954c0 19.511-15.817 124.676-35.336 124.676-19.495 0-35.304-105.173-35.304-124.676 0-19.495 15.817-35.32 35.304-35.32 19.519 0 35.336 15.833 35.336 35.32z" fill="#ff4800"/>
    <path d="M351.705 315.242c0 126.322-44.599 84.259-99.643 84.259-55.028 0-99.643 42.063-99.643-84.259 0-72.231 44.631-130.788 99.643-130.788 55.028.008 99.643 58.565 99.643 130.788z" fill="#ce1111"/>
    <path d="M351.705 315.242c0 126.322-44.599 84.259-99.643 84.259-55.028 0-99.643 42.063-99.643-84.259 0-72.231 44.631-130.788 99.643-130.788 55.028.008 99.643 58.565 99.643 130.788z" fill="#ff6700"/>
    <path d="M252.062 184.462c-53.28 0-96.681 54.957-99.383 124.014 3.513 107.874 46.655 69.372 99.383 69.372 52.744 0 95.862 38.51 99.383-69.372-2.702-69.057-46.096-124.014-99.383-124.014z" fill="#ff7900"/>
    <path d="M232.629 487.219c0 14.935-17.802 16.904-39.739 16.904s-39.739-1.969-39.739-16.904 17.802-35.509 39.739-35.509 39.739 20.567 39.739 35.509z" fill="#9b4e1b"/>
    <path d="M232.629 487.219c0 14.935-17.802 16.904-39.739 16.904s-39.739-1.969-39.739-16.904" fill="#82370d"/>
    <path d="M350.988 487.219c0 14.935-17.802 16.904-39.739 16.904s-39.739-1.969-39.739-16.904 17.802-35.509 39.739-35.509 39.739 20.567 39.739 35.509z" fill="#9b4e1b"/>
    <path d="M350.988 487.219c0 14.935-17.802 16.904-39.739 16.904s-39.739-1.969-39.739-16.904" fill="#82370d"/>
    <path d="M173.088 235.725c21.835 11.059 49.191 16.691 78.99 16.691 29.783 0 57.139-5.632 78.966-16.691-18.211-31.106-46.773-51.263-78.982-51.263-32.201 0-60.771 20.141-78.974 51.263z" fill="#ff6700"/>
    <path d="M381.015 124.258c0 63-57.738 94.681-128.937 94.681-71.215 0-128.969-31.673-128.969-94.681C123.108 61.227 180.862 0 252.077 0c71.2 0 128.938 61.227 128.938 124.258z" fill="#6d4a27"/>
    <path d="M381.015 124.258c0 63-57.738 94.681-128.937 94.681-71.215 0-128.969-31.673-128.969-94.681 0-63.031 57.754-108.52 128.969-108.52 71.199 0 128.937 45.489 128.937 108.52z" fill="#f9a88f"/>
    <path d="M381.015 124.258c0 63-57.738 94.681-128.937 94.681-71.215 0-128.969-31.673-128.969-94.681" fill="#ed927a"/>
    <path d="M252.077 134.554c-53.429 0-107.15 25.198-126.716-10.295h-2.253c0 63 57.754 94.681 128.969 94.681 71.2 0 128.937-31.673 128.937-94.681h-2.253c-19.573 35.493-73.278 10.295-126.684 10.295z" fill="#777236"/>
    <path d="M252.077 201.862c-64.425 0-117.681-26.017-127.275-77.603h-1.694c0 63 57.754 94.681 128.969 94.681 71.2 0 128.937-31.673 128.937-94.681h-1.694c-9.593 51.585-62.825 77.603-127.243 77.603z" fill="#66602a"/>
    <circle cx="191" cy="109" r="12" fill="#113e49"/>
    <path d="M202.279 108.954c0 6.388-5.167 11.54-11.54 11.54-6.372 0-11.524-5.152-11.524-11.54"/>
    <path d="M213.496 133.018a2.382 2.382 0 0 1-1.725-.725c-5.632-5.616-13.107-8.72-21.047-8.72h-.016c-7.94 0-15.399 3.111-21 8.72-.953.953-2.489.969-3.434 0a2.4 2.4 0 0 1-.031-3.419c6.538-6.538 15.218-10.153 24.458-10.153h.016c9.263 0 17.951 3.584 24.505 10.138.937.937.937 2.505 0 3.434a2.345 2.345 0 0 1-1.726.725z" fill="#ffd3c5"/>
    <circle cx="313" cy="109" r="12" fill="#113e49"/>
    <path d="M301.859 108.954a11.52 11.52 0 0 0 11.54 11.54c6.372 0 11.524-5.152 11.524-11.54"/>
    <path d="M290.643 133.018c.599 0 1.229-.228 1.709-.725 5.632-5.616 13.107-8.72 21.047-8.72h.016c7.94 0 15.415 3.111 21.016 8.72a2.405 2.405 0 0 0 3.434 0c.953-.922.969-2.458.016-3.419-6.506-6.538-15.218-10.153-24.458-10.153h-.016c-9.248 0-17.936 3.584-24.505 10.138-.922.937-.922 2.505 0 3.434.48.488 1.095.725 1.741.725z" fill="#ffd3c5"/>
    <path d="M304.758 169.984c0 13.785-19.511 24.954-33.288 24.954h-38.849c-13.777 0-33.272-11.169-33.272-24.954l8.318-36.061c0-13.8 11.177-24.97 24.954-24.97h38.849c13.777 0 24.962 11.169 24.962 24.97l8.326 36.061z" fill="#777236"/>
    <path d="M289.067 192.52c0 13.383-13.698 24.245-23.371 24.245H238.41c-9.681 0-23.363-10.862-23.363-24.245l5.829-35.029c0-13.383 7.853-24.261 17.534-24.261h27.286c9.673 0 17.526 10.878 17.526 24.261l5.845 35.029z" fill="#66602a"/>
    <path d="M275.984 177.955c0 8.649-8.854 15.675-15.108 15.675H243.24c-6.262 0-15.108-7.034-15.108-15.675l3.773-22.662c0-8.649 5.081-15.675 11.335-15.675h17.636c6.254 0 11.327 7.034 11.327 15.675l3.781 22.662z" fill="#423c14"/>
    <path d="M260.876 139.618H243.24c-6.262 0-11.335 7.034-11.335 15.675l-3.135 18.889c2.048 6.814 9.169 11.894 14.478 11.894h17.636c5.301 0 12.422-5.081 14.486-11.894l-3.151-18.889c-.008-8.648-5.089-15.675-11.343-15.675z" fill="#262109"/>
    <path d="M238.765 180.019a1.632 1.632 0 0 1-1.961 1.197 1.627 1.627 0 0 1-1.182-1.969l7.404-30.2a1.61 1.61 0 0 1 1.961-1.182 1.594 1.594 0 0 1 1.174 1.953l-7.396 30.201zm26.577 0a1.644 1.644 0 0 0 1.969 1.197 1.627 1.627 0 0 0 1.182-1.969l-7.412-30.2a1.602 1.602 0 0 0-1.953-1.182 1.588 1.588 0 0 0-1.174 1.953l7.388 30.201zm-11.8 2.521a1.48 1.48 0 0 1-1.481 1.481 1.48 1.48 0 0 1-1.481-1.481v-31.831a1.48 1.48 0 0 1 1.481-1.481 1.48 1.48 0 0 1 1.481 1.481v31.831z" fill="#777236"/>
</svg>
