<svg xmlns="http://www.w3.org/2000/svg" viewBox="0 0 504 504">
    <path d="M246.805 203.768c10.027 11.28 3.663 33.296-14.218 49.215-17.881 15.896-114.018 85.031-124.062 73.767-10.012-11.296 69.892-98.706 87.773-114.601 17.857-15.903 40.479-19.653 50.507-8.381zm21.968 0c-10.027 11.28-3.663 33.296 14.218 49.215 17.881 15.896 114.018 85.031 124.062 73.767 10.012-11.296-69.892-98.706-87.773-114.601-17.857-15.903-40.471-19.653-50.507-8.381z" fill="#63522f"/>
    <path d="M233.942 361.905c0 19.511-15.817 124.676-35.336 124.676-19.495 0-35.304-105.173-35.304-124.676 0-19.495 15.817-35.32 35.304-35.32 19.519 0 35.336 15.833 35.336 35.32zm118.358 0c0 19.511-15.817 124.676-35.336 124.676-19.495 0-35.304-105.173-35.304-124.676 0-19.495 15.817-35.32 35.304-35.32 19.52 0 35.336 15.833 35.336 35.32z" fill="#5b2f11"/>
    <path d="M357.436 315.242c0 126.322-44.599 84.259-99.643 84.259-55.028 0-99.643 42.063-99.643-84.259 0-72.231 44.631-130.788 99.643-130.788 55.028.008 99.643 58.565 99.643 130.788z" fill="#68552e"/>
    <path d="M257.793 184.462c-53.279 0-96.681 54.957-99.383 124.014 3.521 107.874 46.663 69.372 99.383 69.372 52.736 0 95.862 38.51 99.383-69.372-2.702-69.057-46.096-124.014-99.383-124.014z" fill="#776439"/>
    <path d="M238.361 487.219c0 14.935-17.802 16.904-39.739 16.904s-39.739-1.969-39.739-16.904 17.802-35.509 39.739-35.509 39.739 20.567 39.739 35.509z" fill="#775437"/>
    <path d="M238.361 487.219c0 14.935-17.802 16.904-39.739 16.904s-39.739-1.969-39.739-16.904" fill="#604129"/>
    <path d="M356.711 487.219c0 14.935-17.802 16.904-39.739 16.904-21.937 0-39.739-1.969-39.739-16.904s17.802-35.509 39.739-35.509c21.938 0 39.739 20.567 39.739 35.509z" fill="#775437"/>
    <path d="M356.711 487.219c0 14.935-17.802 16.904-39.739 16.904-21.937 0-39.739-1.969-39.739-16.904" fill="#604129"/>
    <path fill="#0c87e2" d="M237.116 199.538h41.354v178.215h-41.354z"/>
    <path d="M237.116 233.661c6.751.63 13.627 1.032 20.693 1.032 7.05 0 13.926-.402 20.661-1.032v-34.123h-41.354v34.123z" fill="#0c61c6"/>
    <path d="M386.746 124.258c0 63-57.738 94.681-128.937 94.681-71.215 0-128.969-31.673-128.969-94.681C128.84 61.227 186.594 0 257.809 0c71.199 0 128.937 61.227 128.937 124.258z" fill="#232728"/>
    <path d="M370.992 124.258c0 62.984-62.992 94.681-113.184 94.681-71.215 0-113.215-31.673-113.215-94.681 0-63.031 42-27.12 113.215-27.12 71.2 0 113.184-35.911 113.184 27.12z" fill="#e4edef"/>
    <path d="M370.992 124.258c0 63-41.984 94.681-113.184 94.681-71.215 0-113.215-31.673-113.215-94.681" fill="#c3d4d8"/>
    <circle cx="196" cy="136" r="12" fill="#113e49"/>
    <path d="M208.003 136.428c0 6.388-5.167 11.54-11.54 11.54-6.372 0-11.524-5.152-11.524-11.54"/>
    <path d="M219.22 160.477c-.614 0-1.245-.213-1.725-.709-5.632-5.632-13.107-8.72-21.047-8.72h-.016c-7.94 0-15.399 3.096-21 8.704-.953.953-2.489.985-3.434.016a2.4 2.4 0 0 1-.031-3.419c6.538-6.554 15.218-10.169 24.458-10.169h.016c9.263 0 17.951 3.6 24.505 10.153.937.937.937 2.505 0 3.434-.466.497-1.08.71-1.726.71z" fill="#e4edef"/>
    <circle cx="319" cy="136" r="12" fill="#113e49"/>
    <path d="M307.591 136.428a11.52 11.52 0 0 0 11.54 11.54c6.372 0 11.524-5.152 11.524-11.54"/>
    <path d="M296.374 160.477c.599 0 1.229-.213 1.709-.709 5.632-5.632 13.107-8.72 21.047-8.72h.016c7.94 0 15.415 3.096 21.016 8.704a2.405 2.405 0 0 0 3.434.016c.953-.922.969-2.458.016-3.419-6.506-6.554-15.218-10.169-24.458-10.169h-.016c-9.248 0-17.936 3.6-24.505 10.153-.922.937-.922 2.505 0 3.434.481.497 1.095.71 1.741.71z" fill="#e4edef"/>
    <path d="M233.65 164.769a4.407 4.407 0 0 1-4.419 4.419 4.409 4.409 0 0 1-4.427-4.419 4.415 4.415 0 0 1 4.427-4.427 4.4 4.4 0 0 1 4.419 4.427zm0 19.693a4.407 4.407 0 0 1-4.419 4.419 4.409 4.409 0 0 1-4.427-4.419 4.415 4.415 0 0 1 4.427-4.427 4.399 4.399 0 0 1 4.419 4.427zm19.047-39.385a4.409 4.409 0 0 1-4.427 4.419 4.409 4.409 0 0 1-4.427-4.419 4.415 4.415 0 0 1 4.427-4.427 4.411 4.411 0 0 1 4.427 4.427zm0 19.692a4.409 4.409 0 0 1-4.427 4.419 4.409 4.409 0 0 1-4.427-4.419 4.415 4.415 0 0 1 4.427-4.427 4.412 4.412 0 0 1 4.427 4.427zm0 19.693a4.409 4.409 0 0 1-4.427 4.419 4.409 4.409 0 0 1-4.427-4.419 4.415 4.415 0 0 1 4.427-4.427 4.41 4.41 0 0 1 4.427 4.427zm0 19.692a4.409 4.409 0 0 1-4.427 4.419 4.409 4.409 0 0 1-4.427-4.419 4.415 4.415 0 0 1 4.427-4.427 4.411 4.411 0 0 1 4.427 4.427zm19.03-59.077a4.407 4.407 0 0 1-4.419 4.419 4.409 4.409 0 0 1-4.427-4.419 4.415 4.415 0 0 1 4.427-4.427 4.4 4.4 0 0 1 4.419 4.427zm0 19.692a4.407 4.407 0 0 1-4.419 4.419 4.409 4.409 0 0 1-4.427-4.419 4.415 4.415 0 0 1 4.427-4.427 4.4 4.4 0 0 1 4.419 4.427zm0 19.693a4.407 4.407 0 0 1-4.419 4.419 4.409 4.409 0 0 1-4.427-4.419 4.415 4.415 0 0 1 4.427-4.427 4.399 4.399 0 0 1 4.419 4.427zm0 19.692a4.407 4.407 0 0 1-4.419 4.419 4.409 4.409 0 0 1-4.427-4.419 4.415 4.415 0 0 1 4.427-4.427 4.4 4.4 0 0 1 4.419 4.427zm19.047-39.385c0 2.45-1.969 4.419-4.427 4.419s-4.427-1.969-4.427-4.419c0-2.458 1.977-4.427 4.427-4.427s4.427 1.962 4.427 4.427zm0 19.693c0 2.45-1.969 4.419-4.427 4.419s-4.427-1.969-4.427-4.419c0-2.458 1.977-4.427 4.427-4.427s4.427 1.961 4.427 4.427z" fill="#68898c"/>
    <path d="M296.193 102.558c0 7.341-17.187 13.296-38.4 13.296-21.205 0-38.4-5.955-38.4-13.296s18.597.386 39.818.386c21.205-.008 36.982-7.728 36.982-.386z" fill="#ce1111"/>
    <path d="M106.95 283.231c5.931 0 10.744 4.813 10.744 10.752v48.388c0 5.923-4.813 10.736-10.744 10.736-5.947 0-10.744-4.813-10.744-10.736v-48.388c0-5.94 4.797-10.752 10.744-10.752z" fill="#232728"/>
    <path d="M96.206 486.187c1.827.48 3.702.819 5.616.819 21.725 0 39.337-31.941 39.337-71.357 0-39.385-17.613-71.341-39.337-71.341-1.914 0-3.781.339-5.616.819v141.06z" fill="#a1b5b4"/>
    <path d="M126.973 415.649c0-34.06-13.17-62.511-30.767-69.6v139.217c17.597-7.097 30.767-35.541 30.767-69.617z" fill="#859e9d"/>
</svg>
