<svg xmlns="http://www.w3.org/2000/svg" viewBox="0 0 504 504">
    <path d="M250.154 361.913c0 19.503-15.817 124.668-35.336 124.668-19.495 0-35.304-105.173-35.304-124.668 0-19.495 15.817-35.32 35.304-35.32 19.519 0 35.336 15.825 35.336 35.32zm118.351 0c0 19.503-15.817 124.668-35.336 124.668-19.495 0-35.304-105.173-35.304-124.668 0-19.495 15.817-35.32 35.304-35.32 19.519 0 35.336 15.825 35.336 35.32z" fill="#a11"/>
    <g fill="#232728">
        <path d="M373.649 315.242c0 126.33-44.599 84.259-99.643 84.259-55.028 0-99.643 42.071-99.643-84.259 0-72.231 44.631-130.781 99.643-130.781 55.02.009 99.643 58.558 99.643 130.781z"/>
        <path d="M308.349 214.315c11.28-10.027 33.312-3.663 49.231 14.218 15.896 17.881 85.016 114.018 73.767 124.062-11.296 10.012-98.721-69.892-114.617-87.773-15.888-17.857-19.637-40.479-8.381-50.507z"/>
    </g>
    <path d="M254.565 487.219c0 14.935-17.802 16.904-39.739 16.904s-39.739-1.961-39.739-16.904 17.802-35.509 39.739-35.509 39.739 20.567 39.739 35.509z" fill="#424849"/>
    <path d="M254.565 487.219c0 14.935-17.802 16.904-39.739 16.904s-39.739-1.961-39.739-16.904" fill="#232728"/>
    <path d="M372.924 487.219c0 14.935-17.802 16.904-39.739 16.904s-39.739-1.961-39.739-16.904 17.802-35.509 39.739-35.509 39.739 20.567 39.739 35.509z" fill="#424849"/>
    <path d="M372.924 487.219c0 14.935-17.802 16.904-39.739 16.904s-39.739-1.961-39.739-16.904m-8.98-256c-.89-15.061-20.968-26.136-44.867-24.757-23.875 1.402-140.737 20.512-139.886 35.564.906 15.069 119.233 20.385 143.108 18.983 23.859-1.393 42.512-14.729 41.645-29.79z" fill="#232728"/>
    <circle cx="274" cy="211" r="27" fill="#a56b44"/>
    <path d="M402.951 124.258c0 63.008-57.738 94.681-128.937 94.681-71.215 0-128.969-31.673-128.969-94.681C145.045 61.235 202.798 0 274.013 0c71.2 0 128.938 61.235 128.938 124.258z" fill="#d8a17c"/>
    <path d="M402.951 124.258c0 63.008-57.738 94.681-128.937 94.681-71.215 0-128.969-31.673-128.969-94.681 0-63.023 57.754-111.789 128.969-111.789 71.199 0 128.937 48.766 128.937 111.789z" fill="#c48960"/>
    <path d="M402.951 124.258c0 63.008-57.738 94.681-128.937 94.681-71.215 0-128.969-31.673-128.969-94.681" fill="#bc8158"/>
    <path d="M274.013 0c-71.215 0-128.969 61.235-128.969 124.258 0 6.254.725 12.107 1.812 17.747l3.324 3.907 16.778-16.77V94.917h214.087v34.233l16.77 16.77 3.324-3.907c1.095-5.64 1.812-11.492 1.812-17.747C402.951 61.235 345.213 0 274.013 0z" fill="#9e6f4f"/>
    <circle cx="213" cy="138" r="12" fill="#113e49"/>
    <path d="M224.215 138.398c0 6.388-5.167 11.54-11.54 11.54-6.372 0-11.524-5.152-11.524-11.54"/>
    <path d="M235.432 162.454a2.377 2.377 0 0 1-1.725-.717c-5.632-5.624-13.107-8.72-21.047-8.72h-.016c-7.94 0-15.399 3.104-21 8.712-.953.953-2.489.977-3.434.008a2.402 2.402 0 0 1-.032-3.419c6.538-6.546 15.218-10.161 24.458-10.161h.016c9.263 0 17.951 3.592 24.505 10.145.937.937.937 2.505 0 3.434-.464.497-1.079.718-1.725.718z" fill="#e5a376"/>
    <circle cx="335" cy="138" r="12" fill="#113e49"/>
    <path d="M323.796 138.398c0 6.388 5.152 11.54 11.54 11.54 6.372 0 11.524-5.152 11.524-11.54"/>
    <path d="M312.587 162.454c.599 0 1.229-.221 1.709-.717 5.632-5.624 13.107-8.72 21.047-8.72h.016c7.94 0 15.415 3.104 21.016 8.712a2.405 2.405 0 0 0 3.434.008c.953-.922.969-2.458.016-3.419-6.506-6.546-15.218-10.161-24.458-10.161h-.016c-9.247 0-17.936 3.592-24.505 10.145-.922.937-.922 2.505 0 3.434.473.497 1.095.718 1.741.718z" fill="#e5a376"/>
    <path d="M280.638 273.447c-8.279-3.308-9.933-4.899-9.933-6.396 0-2.812 3.623-3.23 5.79-3.23 5.593 0 9.271 1.725 11.705 2.851l.591.276a3.927 3.927 0 0 0 3.285.008 3.981 3.981 0 0 0 2.135-2.481l2.773-9.437a3.93 3.93 0 0 0-2.001-4.632c-3.686-1.843-7.641-3.009-11.981-3.513v-5.868a3.951 3.951 0 0 0-3.938-3.946h-8.405a3.94 3.94 0 0 0-3.938 3.946v6.924c-10.145 2.962-16.526 10.744-16.526 20.543 0 13.028 10.878 18.637 20.33 22.063 8.594 3.127 8.594 5.506 8.594 6.656 0 3.064-3.734 4.151-6.932 4.151-4.616 0-9.712-1.449-13.982-3.97-1.063-.614-2.339-.725-3.466-.26a3.945 3.945 0 0 0-2.332 2.568l-2.773 9.649a3.93 3.93 0 0 0 1.599 4.372c3.647 2.434 9.114 4.198 14.864 4.876v6.294a3.946 3.946 0 0 0 3.938 3.946h8.413a3.94 3.94 0 0 0 3.938-3.946v-7.389c10.634-2.93 17.329-11.051 17.329-21.417.009-13.721-10.247-19.321-19.077-22.638z" fill="#dda507"/>
    <path d="M299.724 296.078c0-13.714-10.256-19.314-19.086-22.63-8.279-3.308-9.933-4.899-9.933-6.396 0-2.812 3.623-3.23 5.79-3.23 5.593 0 9.271 1.725 11.705 2.851l.591.276a3.927 3.927 0 0 0 3.285.008 3.981 3.981 0 0 0 2.135-2.481l2.773-9.437a3.93 3.93 0 0 0-2.001-4.632c-3.686-1.843-7.641-3.009-11.981-3.513v-5.868a3.951 3.951 0 0 0-3.938-3.946h-8.405a3.94 3.94 0 0 0-3.938 3.946v6.924c-7.696 2.245-13.202 7.278-15.431 13.848l45.395 45.387c1.936-3.238 3.039-6.988 3.039-11.107z" fill="#bc8804"/>
    <path d="M104.203 295.054c0 7.971 1.418 14.438-6.569 14.438-7.971 0-6.561-6.467-6.561-14.438l-7.877-74.831c0-7.971 6.467-14.438 14.438-14.438 7.987 0 14.446 6.467 14.446 14.438l-7.877 74.831z" fill="#5b5656"/>
    <circle cx="98" cy="208" r="26" fill="#aaa7a7"/>
    <path d="M123.722 207.919c0 14.415-11.674 26.088-26.088 26.088s-26.088-11.674-26.088-26.088" fill="#8e8e8e"/>
    <ellipse cx="303" cy="199" rx="10" ry="8" fill="#891010"/>
</svg>
