<svg xmlns="http://www.w3.org/2000/svg" viewBox="0 0 504 504">
    <path d="M286.642 203.768c10.027 11.28 3.663 33.304-14.218 49.223-17.881 15.896-114.018 85.024-124.062 73.767-10.012-11.296 69.892-98.714 87.773-114.609 17.857-15.895 40.472-19.653 50.507-8.381zm21.969 0c-10.027 11.28-3.663 33.304 14.218 49.223 17.881 15.896 114.018 85.024 124.062 73.767 10.012-11.296-69.892-98.714-87.773-114.609-17.865-15.895-40.48-19.653-50.507-8.381z" fill="#363b3f"/>
    <path d="M392.13 361.913c0 19.503-15.817 124.668-35.336 124.668-19.495 0-35.304-105.173-35.304-124.668 0-19.495 15.817-35.32 35.304-35.32 19.519 0 35.336 15.825 35.336 35.32zm-118.351 0c0 19.503-15.817 124.668-35.336 124.668-19.495 0-35.304-105.173-35.304-124.668 0-19.495 15.817-35.32 35.304-35.32 19.519 0 35.336 15.825 35.336 35.32z" fill="#799998"/>
    <path d="M397.274 315.242c0 126.33-44.599 84.259-99.643 84.259-55.028 0-99.643 42.071-99.643-84.259 0-72.231 44.631-130.781 99.643-130.781 55.028.009 99.643 58.558 99.643 130.781z" fill="#9dbab8"/>
    <path d="M297.623 184.47c55.028 0 99.643 58.549 99.643 130.781 0 126.33-44.599 84.259-99.643 84.259" fill="#8daaa7"/>
    <path d="M278.19 487.219c0 14.935-17.802 16.904-39.739 16.904s-39.739-1.961-39.739-16.904 17.802-35.509 39.739-35.509 39.739 20.567 39.739 35.509z" fill="#9dbab8"/>
    <path d="M278.19 487.219c0 14.935-17.802 16.904-39.739 16.904s-39.739-1.961-39.739-16.904" fill="#8daaa7"/>
    <path d="M396.549 487.219c0 14.935-17.802 16.904-39.739 16.904s-39.739-1.961-39.739-16.904 17.802-35.509 39.739-35.509 39.739 20.567 39.739 35.509z" fill="#9dbab8"/>
    <path d="M396.549 487.219c0 14.935-17.802 16.904-39.739 16.904s-39.739-1.961-39.739-16.904" fill="#8daaa7"/>
    <path d="M218.649 235.733c21.835 11.059 49.191 16.683 78.99 16.683 29.783 0 57.139-5.624 78.966-16.683-18.211-31.114-46.773-51.263-78.982-51.263-32.201 0-60.771 20.141-78.974 51.263z" fill="#191e21"/>
    <path d="M426.576 124.258c0 63.008-57.738 94.681-128.937 94.681-71.215 0-128.969-31.673-128.969-94.681C168.67 61.235 226.423 0 297.638 0c71.2 0 128.938 61.235 128.938 124.258z" fill="#9dbab8"/>
    <path d="M426.576 124.258c0 63.008-57.738 94.681-128.937 94.681-71.215 0-128.969-31.673-128.969-94.681 0-63.023 57.754-94.058 128.969-94.058 71.199 0 128.937 31.035 128.937 94.058z" fill="#8fa8a8"/>
    <path d="M426.576 124.258c0 63.008-57.738 94.681-128.937 94.681-71.215 0-128.969-31.673-128.969-94.681" fill="#799998"/>
    <path d="M403.961 128.67c0 8.696-7.058 15.754-15.754 15.754H207.038c-8.696 0-15.754-7.058-15.754-15.754v-13.131c0-8.704 7.058-15.754 15.754-15.754h181.169c8.696 0 15.754 7.05 15.754 15.754v13.131z" fill="#363b3f"/>
    <path d="M191.284 124.258v4.411c0 8.696 7.058 15.754 15.754 15.754h181.169c8.696 0 15.754-7.058 15.754-15.754v-4.411H191.284z" fill="#191e21"/>
    <path d="M302.546 128.331a4.927 4.927 0 0 1-4.923 4.931 4.927 4.927 0 0 1-4.923-4.931v-12.469a4.925 4.925 0 0 1 4.923-4.923 4.925 4.925 0 0 1 4.923 4.923v12.469z" fill="#db1f1f"/>
    <path d="M174.695 156.877c16.534 41.307 65.315 69.939 122.943 69.939 57.612 0 106.394-28.633 122.911-69.939H174.695z" fill="#191e21"/>
    <path d="M321.75 165.573h-48.246c-13.044 0-23.631 10.587-23.631 23.631v30.578c14.785 4.513 30.878 7.042 47.766 7.042 16.88 0 32.973-2.521 47.742-7.034v-30.586c0-13.052-10.587-23.631-23.631-23.631z" fill="#e29b86"/>
    <path d="M321.75 176.073h-48.246c-13.044 0-23.631 10.587-23.631 23.631v20.078c14.785 4.513 30.878 7.042 47.766 7.042 16.88 0 32.973-2.521 47.742-7.034v-20.086c0-13.052-10.587-23.631-23.631-23.631z" fill="#f9c1ac"/>
    <path d="M292.7 311.784c0 13.044-10.587 23.631-23.631 23.631H239.53c-13.044 0-23.631-10.587-23.631-23.631v-29.538c0-13.044 10.587-23.631 23.631-23.631h29.538c13.044 0 23.631 10.587 23.631 23.631v29.538zm86.646 0c0 13.044-10.587 23.631-23.631 23.631h-29.538c-13.044 0-23.631-10.587-23.631-23.631v-29.538c0-13.044 10.587-23.631 23.631-23.631h29.538c13.044 0 23.631 10.587 23.631 23.631v29.538z" fill="#aad1ca"/>
    <g fill="#363b3f">
        <path d="M201.256 363.638c11.225 65.56 50.105 35.872 96.366 35.872 46.277 0 85.157 29.696 96.366-35.872H201.256z"/>
        <circle cx="298" cy="367" r="18"/>
    </g>
    <path d="M243.689 278.63a2.3 2.3 0 0 1-2.308 2.3h-13.123a2.286 2.286 0 0 1-2.292-2.3 2.29 2.29 0 0 1 2.292-2.292h13.123a2.302 2.302 0 0 1 2.308 2.292zm0 10.5a2.3 2.3 0 0 1-2.308 2.3h-13.123a2.286 2.286 0 0 1-2.292-2.3 2.29 2.29 0 0 1 2.292-2.292h13.123a2.302 2.302 0 0 1 2.308 2.292zm0 10.5a2.3 2.3 0 0 1-2.308 2.3h-13.123a2.286 2.286 0 0 1-2.292-2.3 2.29 2.29 0 0 1 2.292-2.292h13.123a2.302 2.302 0 0 1 2.308 2.292z" fill="#8daaa7"/>
    <path d="M319.284 223.665c0 9.515-7.719 17.235-17.235 17.235h-8.862c-9.515 0-17.235-7.712-17.235-17.235 0-9.515 7.712-17.235 17.235-17.235h8.862c9.516.001 17.235 7.72 17.235 17.235z" fill="#191e21"/>
    <path d="M316 190.677c0 3.938-8.231-.48-18.377-.48-10.153 0-18.385 4.419-18.385.48s8.231-13.785 18.385-13.785c10.145 0 18.377 9.846 18.377 13.785z" fill="#870e0e"/>
    <path d="M366.546 395.319c0 8.523-30.862 15.431-68.923 15.431s-68.923-6.908-68.923-15.431" fill="#9dbab8"/>
    <g fill="#232728">
        <path d="M76.289 374.012a7.668 7.668 0 0 0 10.854 0l23.528-23.521a7.692 7.692 0 0 0 0-10.862l-9.5-9.5a7.678 7.678 0 0 0-10.862 0l-23.52 23.528c-3.001 2.993-3.001 7.853 0 10.854l9.5 9.501z"/>
        <path d="M72.776 359.889a2.72 2.72 0 0 0 0-3.86l-8.365-8.365a2.72 2.72 0 0 0-3.86 0l-3.379 3.379a2.72 2.72 0 0 0 0 3.86l8.365 8.365a2.746 2.746 0 0 0 3.875 0l3.364-3.379zm73.862-21.843c3.001 3.001 7.861 3.001 10.854 0l3.395-3.395c3.001-2.993 3.001-7.861 0-10.862l-12.217-12.217c-2.993-2.993-7.853-2.993-10.854 0l-3.403 3.403c-2.993 3.001-2.993 7.861 0 10.854l12.225 12.217z"/>
        <path d="M148.67 311.58a7.678 7.678 0 0 1 0 10.862l-39.361 39.361a7.668 7.668 0 0 1-10.854 0l-21.039-21.039c-3.001-3.001-3.001-7.861 0-10.854l39.361-39.369c2.985-2.993 7.845-2.993 10.862 0l21.031 21.039z"/>
    </g>
    <path d="M77.415 329.909l39.361-39.369c2.985-2.993 7.845-2.993 10.862 0l8.814 8.822c3.001 3.001 3.001 7.869 0 10.862l-39.361 39.361a7.668 7.668 0 0 1-10.854 0l-8.822-8.822c-3.001-3.001-3.001-7.861 0-10.854z" fill="#3d4344"/>
</svg>
