<svg xmlns="http://www.w3.org/2000/svg" viewBox="0 0 504 504">
    <path d="M252.598 361.913c0 19.503-15.817 124.668-35.336 124.668-19.495 0-35.304-105.173-35.304-124.668 0-19.495 15.817-35.32 35.304-35.32 19.527 0 35.336 15.825 35.336 35.32zm118.359 0c0 19.503-15.817 124.668-35.336 124.668-19.495 0-35.304-105.173-35.304-124.668 0-19.495 15.817-35.32 35.304-35.32 19.519 0 35.336 15.825 35.336 35.32z" fill="#8fc7c9"/>
    <path d="M376.093 315.242c0 126.33-44.599 84.259-99.643 84.259-55.028 0-99.643 42.071-99.643-84.259 0-72.231 44.631-130.781 99.643-130.781 55.028.009 99.643 58.558 99.643 130.781z" fill="#9edfe5"/>
    <path d="M257.017 487.219c0 14.935-17.802 16.904-39.739 16.904s-39.739-1.961-39.739-16.904 17.802-35.509 39.739-35.509 39.739 20.567 39.739 35.509z"/>
    <path d="M257.017 487.219c0 14.935-17.802 16.904-39.739 16.904s-39.739-1.961-39.739-16.904m197.829 0c0 14.935-17.802 16.904-39.739 16.904-21.937 0-39.739-1.961-39.739-16.904s17.802-35.509 39.739-35.509c21.937 0 39.739 20.567 39.739 35.509z"/>
    <path d="M375.368 487.219c0 14.935-17.802 16.904-39.739 16.904-21.937 0-39.739-1.961-39.739-16.904"/>
    <path d="M265.461 203.768c10.027 11.28 3.663 33.304-14.218 49.223-17.881 15.896-114.018 85.024-124.062 73.767-10.012-11.296 69.892-98.714 87.773-114.609 17.865-15.895 40.48-19.653 50.507-8.381zm21.969 0c-10.027 11.28-3.663 33.304 14.218 49.223 17.881 15.896 114.018 85.024 124.062 73.767 10.012-11.296-69.892-98.714-87.773-114.609-17.857-15.895-40.472-19.653-50.507-8.381z" fill="#9edfe5"/>
    <path d="M255.773 199.546h41.354v141.131h-41.354z"/>
    <path fill="#d62b2b" d="M282.57 218.577l10.248 103.888-16.368 11.895-16.369-11.895 10.256-103.888z"/>
    <path fill="#a11" d="M270.337 218.577h12.233l10.248 103.888-16.368 11.895"/>
    <path d="M405.403 124.258c0 63.008-57.738 94.681-128.937 94.681-71.215 0-128.969-31.673-128.969-94.681C147.496 61.235 205.25 0 276.465 0c71.2 0 128.938 61.235 128.938 124.258z" fill="#f9c1ac"/>
    <path d="M317.307 7.018l-9.846 23.174-1.969 1.969s7.877 29.538 34.462 27.569c26.585-1.969 38.4 5.908 39.385 27.569 0 0 2.458-23.142 14.769-10.831.158.158.276.197.433.339-14.549-31.436-42.615-57.792-77.234-69.789z" fill="#c6911a"/>
    <path d="M405.403 124.258c0 63.008-57.738 94.681-128.937 94.681-71.215 0-128.969-31.673-128.969-94.681" fill="#f2b09c"/>
    <circle cx="215" cy="107" r="12" fill="#113e49"/>
    <path d="M226.66 106.89c0 6.388-5.167 11.54-11.54 11.54-6.372 0-11.524-5.152-11.524-11.54"/>
    <path d="M237.876 130.946a2.377 2.377 0 0 1-1.725-.717c-5.632-5.624-13.107-8.72-21.047-8.72h-.016c-7.94 0-15.399 3.104-21 8.712-.953.953-2.489.977-3.434.008a2.402 2.402 0 0 1-.032-3.419c6.538-6.546 15.218-10.161 24.458-10.161h.016c9.263 0 17.952 3.592 24.505 10.145.937.937.937 2.505 0 3.434-.464.497-1.079.718-1.725.718z" fill="#ffd3c5"/>
    <circle cx="338" cy="107" r="12" fill="#113e49"/>
    <path d="M326.247 106.89a11.52 11.52 0 0 0 11.54 11.54c6.372 0 11.524-5.152 11.524-11.54"/>
    <path d="M315.031 130.946c.599 0 1.229-.221 1.709-.717 5.632-5.624 13.107-8.72 21.047-8.72h.016c7.94 0 15.415 3.104 21.016 8.712a2.405 2.405 0 0 0 3.434.008c.953-.922.969-2.458.016-3.419-6.506-6.546-15.218-10.161-24.458-10.161h-.016c-9.247 0-17.936 3.592-24.505 10.145-.922.937-.922 2.505 0 3.434.48.497 1.095.718 1.741.718z" fill="#ffd3c5"/>
    <path d="M333.88 14.131C316.567 5.27 297.111 0 276.465 0c-54.351 0-100.769 35.698-119.753 80.605 20.33 4.624 54.185 1.197 90.49-10.563 45.403-14.707 80.069-37.754 86.678-55.911z" fill="#e5b12e"/>
    <path d="M297.323 355.454c0 5.254-4.261 9.515-9.523 9.515h-22.307c-5.262 0-9.523-4.261-9.523-9.515a9.52 9.52 0 0 1 9.523-9.523H287.8a9.52 9.52 0 0 1 9.523 9.523z" fill="#84817c"/>
    <path d="M287.8 345.931h-22.307c-4.356 0-7.861 2.962-9.003 6.94 1.142 3.97 4.647 6.932 9.003 6.932H287.8c4.348 0 7.861-2.962 9.003-6.932-1.142-3.978-4.655-6.94-9.003-6.94z" fill="#a5a29d"/>
    <path d="M242.469 196.931c0 5.073-4.112 9.184-9.192 9.184a9.178 9.178 0 0 1-9.184-9.184v-4.844a9.173 9.173 0 0 1 9.184-9.184 9.18 9.18 0 0 1 9.192 9.184v4.844z" fill="#a11"/>
    <path d="M237.876 198.065c1.048 3.466-.929 7.129-4.403 8.16l-47.797 14.32a6.564 6.564 0 0 1-8.16-4.411 6.561 6.561 0 0 1 4.403-8.168l47.789-14.312a6.55 6.55 0 0 1 8.168 4.411z" fill="#d8983d"/>
    <path d="M221.469 202.988a6.573 6.573 0 0 0-8.168-4.411l-31.421 9.413a6.544 6.544 0 0 0-4.364 8.145c1.04 3.466 4.695 5.435 8.16 4.411l31.413-9.413c3.45-1.048 5.419-4.695 4.38-8.145z" fill="#97a5a4"/>
    <path d="M184.03 215.954l31.413-9.413c2.757-.827 4.474-3.316 4.569-6.042-1.646-1.812-4.206-2.678-6.719-1.922l-31.421 9.413c-2.741.827-4.458 3.316-4.553 6.034 1.638 1.812 4.206 2.678 6.711 1.93z" fill="#b0c1bf"/>
    <g fill="#b7cecc">
        <circle cx="101" cy="126" r="23"/>
        <circle cx="94" cy="165" r="14"/>
        <circle cx="126" cy="170" r="14"/>
        <circle cx="115" cy="157" r="14"/>
        <circle cx="103" cy="151" r="14"/>
        <circle cx="111" cy="173" r="14"/>
        <circle cx="156" cy="204" r="9"/>
        <circle cx="147" cy="201" r="9"/>
        <circle cx="156" cy="191" r="9"/>
        <circle cx="115" cy="203" r="9"/>
        <circle cx="129" cy="87" r="7"/>
    </g>
</svg>
