<svg xmlns="http://www.w3.org/2000/svg" viewBox="0 0 504 504">
    <path d="M391.106 417.477c0 8.696-7.058 15.754-15.754 15.754h-44.631c-8.704 0-15.754-7.058-15.754-15.754V294.069c0-8.696 7.05-15.754 15.754-15.754h44.631c8.696 0 15.754 7.058 15.754 15.754v123.408z" fill="#2a5263"/>
    <path d="M353.674 417.477c0 8.696-7.058 15.754-15.754 15.754h-44.63c-8.696 0-15.754-7.058-15.754-15.754V294.069c0-8.696 7.058-15.754 15.754-15.754h44.631c8.696 0 15.754 7.058 15.754 15.754v123.408z" fill="#1a3944"/>
    <path d="M263.05 280.631c-10.027-11.28-3.663-33.312 14.218-49.231 17.881-15.896 114.018-85.016 124.062-73.767 10.012 11.296-69.892 98.721-87.773 114.617-17.865 15.888-40.479 19.645-50.507 8.381zm-21.976 0c10.027-11.28 3.663-33.312-14.218-49.231-17.881-15.896-114.018-85.016-124.062-73.767-10.012 11.296 69.892 98.721 87.773 114.617 17.865 15.888 40.479 19.645 50.507 8.381z" fill="#a3bbc1"/>
    <path d="M168.582 188.731c-29.783-19.779-60.353-37.179-65.788-31.098-5.293 5.963 14.517 33.178 37.006 59.872l28.782-28.774zm198.302 25.695c21.402-25.679 39.526-51.058 34.438-56.793-5.23-5.845-33.713 10.035-62.377 28.853l27.939 27.94z" fill="#d39959"/>
    <path d="M228.219 361.913c0 19.503-15.817 124.668-35.336 124.668-19.495 0-35.304-105.173-35.304-124.668 0-19.495 15.817-35.32 35.304-35.32 19.519 0 35.336 15.825 35.336 35.32zm118.35 0c0 19.503-15.817 124.668-35.336 124.668-19.495 0-35.304-105.173-35.304-124.668 0-19.495 15.817-35.32 35.304-35.32 19.52 0 35.336 15.825 35.336 35.32z" fill="#44748e"/>
    <path d="M351.705 315.242c0 126.33-44.599 84.259-99.643 84.259-55.028 0-99.643 42.071-99.643-84.259 0-72.231 44.631-130.781 99.643-130.781 55.028.009 99.643 58.558 99.643 130.781z" fill="#a3bbc1"/>
    <g fill="#718b91">
        <path d="M248.817 313.99c-.992-2.93-3.757-5.041-7.018-5.041-4.096 0-7.215 3.316-7.396 7.404-.221 4.758 3.111 13.202 14.352 17.495l.063.016V313.99z"/>
        <path d="M248.746 313.99c1-2.93 3.757-5.041 7.018-5.041 4.088 0 7.207 3.316 7.396 7.404.221 4.758-3.111 13.202-14.36 17.495l-.055.016V313.99z"/>
        <path d="M248.691 290.682v-.047l.079.016.095-.016v.047c18.716 7.152 29.924 18.211 35.99 29.003 4.584-8.153 6.239-16.14 5.947-22.134-.551-11.934-9.681-21.638-21.63-21.638-9.429 0-17.432 6.057-20.401 14.478-2.946-8.42-10.957-14.478-20.385-14.478-11.957 0-21.079 9.704-21.638 21.638-.276 5.994 1.378 13.974 5.963 22.134 6.063-10.784 17.272-21.851 35.98-29.003zm.173 57.998v.055l-.095-.032-.079.032v-.055c-18.708-7.152-29.917-18.219-35.982-28.995-4.584 8.145-6.239 16.132-5.963 22.126.559 11.934 9.681 21.63 21.638 21.63 9.429 0 17.432-6.049 20.385-14.478 2.97 8.428 10.973 14.478 20.401 14.478 11.957 0 21.079-9.696 21.63-21.63.291-5.994-1.363-13.974-5.947-22.126-6.063 10.768-17.272 21.835-35.988 28.995z"/>
    </g>
    <circle cx="254" cy="211" r="27" fill="#d39959"/>
    <path d="M363.859 339.621c7.987 7.995 9.893 19.046 4.261 24.694-5.632 5.632-16.691 3.71-24.678-4.277L209.156 225.76c-8.003-8.019-9.909-19.062-4.261-24.694 5.624-5.648 16.675-3.742 24.678 4.261l134.286 134.294z" fill="#44748e"/>
    <path d="M232.63 487.219c0 14.935-17.802 16.904-39.739 16.904s-39.739-1.961-39.739-16.904 17.802-35.509 39.739-35.509 39.739 20.567 39.739 35.509z" fill="#ff7300"/>
    <path d="M232.63 487.219c0 14.935-17.802 16.904-39.739 16.904s-39.739-1.961-39.739-16.904" fill="#ff4800"/>
    <path d="M350.988 487.219c0 14.935-17.802 16.904-39.739 16.904s-39.739-1.961-39.739-16.904 17.802-35.509 39.739-35.509 39.739 20.567 39.739 35.509z" fill="#ff7300"/>
    <path d="M350.988 487.219c0 14.935-17.802 16.904-39.739 16.904s-39.739-1.961-39.739-16.904" fill="#ff4800"/>
    <path d="M381.015 124.258c0 63.008-57.738 94.681-128.937 94.681-71.215 0-128.969-31.673-128.969-94.681C123.109 61.235 180.863 0 252.078 0c71.199 0 128.937 61.235 128.937 124.258z" fill="#efc286"/>
    <path d="M381.015 124.258c0 63.008-57.738 94.681-128.937 94.681-71.215 0-128.969-31.673-128.969-94.681" fill="#e8b374"/>
    <path d="M224.65 161.564a2.377 2.377 0 0 1-1.725-.717c-5.632-5.624-13.107-8.72-21.047-8.72h-.016c-7.94 0-15.399 3.104-21 8.712-.953.953-2.489.977-3.434.008a2.4 2.4 0 0 1-.031-3.419c6.538-6.546 15.218-10.161 24.458-10.161h.016c9.263 0 17.951 3.592 24.505 10.145.937.937.937 2.505 0 3.434-.465.489-1.08.718-1.726.718zm77.147 0c.599 0 1.229-.221 1.709-.717 5.632-5.624 13.107-8.72 21.047-8.72h.016c7.94 0 15.415 3.104 21.016 8.712a2.405 2.405 0 0 0 3.434.008c.953-.922.969-2.458.016-3.419-6.506-6.546-15.218-10.161-24.458-10.161h-.016c-9.247 0-17.936 3.592-24.505 10.145-.922.937-.922 2.505 0 3.434a2.392 2.392 0 0 0 1.741.718z" fill="#232728"/>
    <path d="M142.927 60.77c22.741 17.148 50.42-18.763 95.232-18.763 36.226 0 71.31 11.894 94.523 0 8.814 4.521 28.207 36.305 39.424 39.377C353.328 36.116 306.728 0 252.078 0c-46.041 0-86.331 25.655-109.151 60.77z" fill="#ff8b00"/>
</svg>
