<svg xmlns="http://www.w3.org/2000/svg" viewBox="0 0 487 487">
    <circle cx="243" cy="243" r="228" fill="#d64505"/>
    <path d="M232.302 203.76c10.027 11.28 3.663 33.296-14.218 49.215-17.881 15.896-114.018 85.031-124.062 73.767-10.012-11.295 69.892-98.706 87.773-114.601 17.865-15.903 40.48-19.653 50.507-8.381zm21.977 0c-10.027 11.28-3.663 33.296 14.218 49.215 17.881 15.896 114.018 85.031 124.062 73.767 10.012-11.295-69.892-98.706-87.773-114.601-17.865-15.903-40.48-19.653-50.507-8.381z" fill="#f0f7f7"/>
    <path d="M339.767 358.951c0 19.511-15.817 124.676-35.336 124.676-19.495 0-35.304-105.173-35.304-124.676 0-19.495 15.817-35.32 35.304-35.32 19.519-.008 35.336 15.825 35.336 35.32zm-120.32 2.954c0 19.511-15.817 124.676-35.336 124.676-19.495 0-35.304-105.173-35.304-124.676 0-19.495 15.817-35.32 35.304-35.32 19.519-.008 35.336 15.825 35.336 35.32z" fill="#fff"/>
    <path d="M342.934 315.242c0 126.322-44.599 84.259-99.643 84.259-55.028 0-99.643 42.063-99.643-84.259 0-72.231 44.631-130.788 99.643-130.788 55.028 0 99.643 58.557 99.643 130.788z" fill="#ce1111"/>
    <path d="M350.811 315.242c0 126.322-52.476 123.644-107.52 123.644-55.028 0-107.52 2.678-107.52-123.644 0-72.231 52.508-130.788 107.52-130.788 55.028 0 107.52 58.557 107.52 130.788z" fill="#f0f7f7"/>
    <g fill="#fff">
        <path d="M243.291 184.454c-53.28 0-96.681 54.957-99.383 124.014 3.513 107.874 46.655 69.372 99.383 69.372 52.744 0 95.862 38.51 99.383-69.372-2.702-69.057-46.096-124.014-99.383-124.014z"/>
        <path d="M372.244 124.258c0 63-57.738 94.681-128.937 94.681-71.215 0-128.969-31.673-128.969-94.681C114.337 61.227 172.091 0 243.306 0c71.2-.008 128.938 61.227 128.938 124.258z"/>
    </g>
    <path fill="#113e49" d="M184.088 89.576h126.976v4.6H184.088z"/>
    <path d="M372.244 124.258c0 63-57.738 94.681-128.937 94.681-71.215 0-128.969-31.673-128.969-94.681" fill="#f0f7f7"/>
    <circle cx="182" cy="92" r="12" fill="#113e49"/>
    <path d="M193.508 92.199c0 6.388-5.167 11.54-11.54 11.54-6.372 0-11.524-5.152-11.524-11.54"/>
    <path d="M204.725 116.263a2.355 2.355 0 0 1-1.725-.725c-5.632-5.616-13.107-8.72-21.047-8.72h-.016c-7.94 0-15.399 3.111-21 8.72-.953.953-2.489.969-3.434 0a2.4 2.4 0 0 1-.031-3.419c6.538-6.538 15.218-10.153 24.458-10.153h.016c9.263 0 17.951 3.584 24.505 10.138.937.937.937 2.505 0 3.434-.466.505-1.08.725-1.726.725z" fill="#f0f7f7"/>
    <circle cx="305" cy="92" r="12" fill="#113e49"/>
    <path d="M293.088 92.199a11.52 11.52 0 0 0 11.54 11.54c6.372 0 11.524-5.152 11.524-11.54"/>
    <path d="M281.872 116.263c.599 0 1.229-.221 1.709-.725 5.632-5.616 13.107-8.72 21.047-8.72h.016c7.94 0 15.415 3.111 21.016 8.72a2.405 2.405 0 0 0 3.434 0c.953-.922.969-2.458.016-3.419-6.506-6.538-15.218-10.153-24.458-10.153h-.016c-9.248 0-17.936 3.584-24.505 10.138-.922.937-.922 2.505 0 3.434.48.505 1.095.725 1.741.725z" fill="#f0f7f7"/>
</svg>
