<svg xmlns="http://www.w3.org/2000/svg" viewBox="0 0 504 504">
    <path d="M241.073 203.768c10.027 11.28 3.663 33.304-14.218 49.223-17.881 15.896-114.018 85.024-124.062 73.767-10.012-11.296 69.892-98.714 87.773-114.609 17.865-15.895 40.48-19.653 50.507-8.381zm21.977 0c-10.027 11.28-3.663 33.304 14.218 49.223 17.881 15.896 114.018 85.024 124.062 73.767 10.012-11.296-69.892-98.714-87.773-114.609-17.865-15.895-40.48-19.653-50.507-8.381zm83.519 158.145c0 19.503-15.817 124.668-35.336 124.668-19.495 0-35.304-105.173-35.304-124.668 0-19.495 15.817-35.32 35.304-35.32 19.519 0 35.336 15.825 35.336 35.32zm-118.351 0c0 19.503-15.817 124.668-35.336 124.668-19.495 0-35.304-105.173-35.304-124.668 0-19.495 15.817-35.32 35.304-35.32 19.519 0 35.336 15.825 35.336 35.32z" fill="#ea990a"/>
    <path d="M351.705 315.242c0 126.33-44.599 84.259-99.643 84.259-55.028 0-99.643 42.071-99.643-84.259 0-72.231 44.631-130.781 99.643-130.781 55.028.009 99.643 58.558 99.643 130.781z" fill="#efc206"/>
    <path d="M165.904 422.085c5.506 27.301 13.32 54.705 22.166 62.354h9.602c8.862-7.648 16.691-35.052 22.189-62.354h-53.957zm118.358 0c5.506 27.301 13.32 54.705 22.166 62.354h9.602c8.869-7.648 16.691-35.052 22.181-62.354h-53.949z" fill="#1267cc"/>
    <path d="M232.629 487.219c0 14.935-17.802 16.904-39.739 16.904s-39.739-1.961-39.739-16.904 17.802-35.509 39.739-35.509 39.739 20.567 39.739 35.509z" fill="#2289ef"/>
    <path d="M232.629 487.219c0 14.935-17.802 16.904-39.739 16.904s-39.739-1.961-39.739-16.904" fill="#1267cc"/>
    <path d="M350.988 487.219c0 14.935-17.802 16.904-39.739 16.904s-39.739-1.961-39.739-16.904 17.802-35.509 39.739-35.509 39.739 20.567 39.739 35.509z" fill="#2289ef"/>
    <path d="M350.988 487.219c0 14.935-17.802 16.904-39.739 16.904s-39.739-1.961-39.739-16.904" fill="#1267cc"/>
    <path d="M381.015 124.258c0 63.008-57.738 94.681-128.937 94.681-71.215 0-128.969-31.673-128.969-94.681C123.108 61.235 180.862 0 252.077 0c71.2 0 128.938 61.235 128.938 124.258z" fill="#efc206"/>
    <path d="M381.015 124.258c0 63.008-57.738 100.391-128.937 100.391-71.215 0-128.969-37.384-128.969-100.391" fill="#ea990a"/>
    <g fill="#020200">
        <path d="M253.046 178.538v-87.63L105.354 5.246l5.908 109.292z"/>
        <path d="M251.077 178.538v-87.63L398.769 5.246l-5.907 109.292z"/>
    </g>
    <path d="M122.982 287.744c-14.36 18.723-24.08 34.627-20.181 39.014 3.82 4.285 20.141-3.096 39.849-14.738l2.308-2.308-21.976-21.968zm235.45 22.465c21.063 12.674 38.88 21.063 42.89 16.557 3.907-4.403-5.876-20.378-20.291-39.156l-22.599 22.599z" fill="#1267cc"/>
    <path d="M157.46 372.185h189.204c1.646-6.774 2.907-14.785 3.757-24.292H153.71c.843 9.507 2.103 17.517 3.75 24.292z" fill="#ce1332"/>
    <path d="M197.183 147.85v63.354l1.481.851c16.289 4.537 34.336 6.884 53.413 6.884 19.046 0 37.085-2.347 53.366-6.869l1.489-.866V147.85l-54.871 25.442-54.878-25.442z" fill="#e0b373"/>
    <path d="M197.183 162.619v48.585l1.481.851c16.289 4.537 34.336 6.884 53.413 6.884 19.046 0 37.085-2.347 53.366-6.869l1.489-.866v-48.585l-54.879 25.442-54.87-25.442z" fill="#f4cb89"/>
    <path fill="#ebf0f2" d="M222.192 137.846l-47.261-24.93 23.63-19.693 26.254 24.931z"/>
    <path fill="#adb9bc" d="M222.192 137.846l-47.261-24.93 23.63 5.907 26.254-.669z"/>
    <path fill="#ebf0f2" d="M281.931 137.846l47.261-24.93-23.63-19.693-26.254 24.931z"/>
    <path fill="#adb9bc" d="M281.931 137.846l47.261-24.93-23.63 5.907-26.254-.669z"/>
    <path d="M157.783 273.187a167.156 167.156 0 0 0-5.372 42.063c0 10.949.354 20.543 1 29.097l48.451-16.636-28.672-9.846 28.672-9.846-28.672-9.846 28.672-9.846-44.079-15.14zm192.921 71.161c.646-8.554 1-18.156 1-29.097 0-14.738-1.938-28.845-5.372-42.063l-44.087 15.139 28.664 9.846-28.664 9.846 28.664 9.846-28.664 9.846 48.459 16.637zM61.818 324.545h10.996v10.996l-60.518 49.538zm14.738 14.73h10.996l-.016 10.996-60.518 49.53zm14.722 14.73h10.996v10.996l-60.518 49.538z" fill="#020200"/>
    <circle cx="93" cy="331" r="35" fill="#1267cc"/>
    <path d="M442.305 324.545h-10.996v10.996l60.518 49.538zm-14.738 14.73h-10.996l.016 10.996 60.518 49.53zm-14.722 14.73h-10.996v10.996l60.519 49.538z" fill="#020200"/>
    <circle cx="411" cy="331" r="35" fill="#1267cc"/>
</svg>
