<svg xmlns="http://www.w3.org/2000/svg" viewBox="0 0 504 504">
    <path d="M241.073 203.768c10.027 11.28 3.663 33.304-14.218 49.223-17.881 15.896-114.018 85.024-124.062 73.767-10.012-11.296 69.892-98.714 87.773-114.609 17.865-15.895 40.48-19.653 50.507-8.381zm21.977 0c-10.027 11.28-3.663 33.304 14.218 49.223 17.881 15.896 114.018 85.024 124.062 73.767 10.012-11.296-69.892-98.714-87.773-114.609-17.865-15.895-40.48-19.653-50.507-8.381z" fill="#578c19"/>
    <path d="M346.569 361.913c0 19.503-15.817 124.668-35.336 124.668-19.495 0-35.304-105.173-35.304-124.668 0-19.495 15.817-35.32 35.304-35.32 19.519 0 35.336 15.825 35.336 35.32zm-118.351 0c0 19.503-15.817 124.668-35.336 124.668-19.495 0-35.304-105.173-35.304-124.668 0-19.495 15.817-35.32 35.304-35.32 19.519 0 35.336 15.825 35.336 35.32z" fill="#271654"/>
    <path d="M351.705 315.242c0 126.33-44.599 84.259-99.643 84.259-55.028 0-99.643 42.071-99.643-84.259 0-72.231 44.631-130.781 99.643-130.781 55.028.009 99.643 58.558 99.643 130.781zM165.904 422.085c5.506 27.301 13.32 54.705 22.166 62.354h9.602c8.862-7.648 16.691-35.052 22.189-62.354h-53.957zm118.358 0c5.506 27.301 13.32 54.705 22.166 62.354h9.602c8.869-7.648 16.691-35.052 22.181-62.354h-53.949z" fill="#65a027"/>
    <path d="M232.629 487.219c0 14.935-17.802 16.904-39.739 16.904s-39.739-1.961-39.739-16.904 17.802-35.509 39.739-35.509 39.739 20.567 39.739 35.509z" fill="#578c19"/>
    <path d="M232.629 487.219c0 14.935-17.802 16.904-39.739 16.904s-39.739-1.961-39.739-16.904" fill="#46750a"/>
    <path d="M350.988 487.219c0 14.935-17.802 16.904-39.739 16.904s-39.739-1.961-39.739-16.904 17.802-35.509 39.739-35.509 39.739 20.567 39.739 35.509z" fill="#578c19"/>
    <path d="M350.988 487.219c0 14.935-17.802 16.904-39.739 16.904s-39.739-1.961-39.739-16.904" fill="#46750a"/>
    <path d="M381.015 124.258c0 63.008-57.738 94.681-128.937 94.681-71.215 0-128.969-31.673-128.969-94.681C123.108 61.235 180.862 0 252.077 0c71.2 0 128.938 61.235 128.938 124.258z" fill="#65a027"/>
    <path d="M381.015 124.258c0 63.008-57.738 100.391-128.937 100.391-71.215 0-128.969-37.384-128.969-100.391" fill="#578c19"/>
    <circle cx="191" cy="121" r="12" fill="#113e49"/>
    <path d="M202.279 121.439c0 6.388-5.167 11.54-11.54 11.54-6.372 0-11.524-5.151-11.524-11.54"/>
    <path d="M213.496 145.495a2.377 2.377 0 0 1-1.725-.717c-5.632-5.624-13.107-8.72-21.047-8.72h-.016c-7.94 0-15.399 3.104-21 8.712-.953.953-2.489.977-3.434.008a2.4 2.4 0 0 1-.031-3.419c6.538-6.546 15.218-10.161 24.458-10.161h.016c9.263 0 17.951 3.592 24.505 10.145.937.937.937 2.505 0 3.434-.466.489-1.08.718-1.726.718z" fill="#65a027"/>
    <circle cx="313" cy="121" r="12" fill="#113e49"/>
    <path d="M301.859 121.439a11.52 11.52 0 0 0 11.54 11.54c6.372 0 11.524-5.151 11.524-11.54"/>
    <path d="M290.643 145.495c.599 0 1.229-.221 1.709-.717 5.632-5.624 13.107-8.72 21.047-8.72h.016c7.94 0 15.415 3.104 21.016 8.712a2.405 2.405 0 0 0 3.434.008c.953-.922.969-2.458.016-3.419-6.506-6.546-15.218-10.161-24.458-10.161h-.016c-9.248 0-17.936 3.592-24.505 10.145-.922.937-.922 2.505 0 3.434a2.39 2.39 0 0 0 1.741.718z" fill="#65a027"/>
    <path d="M282.585 196.592c0 8.696-7.058 15.754-15.754 15.754h-29.538c-8.704 0-15.754-7.058-15.754-15.754v-52.185c0-8.696 7.05-15.754 15.754-15.754h29.538c8.696 0 15.754 7.058 15.754 15.754v52.185z" fill="#660a27"/>
    <path d="M266.831 162.131h-29.538c-8.704 0-15.754 7.058-15.754 15.754v18.708c0 8.696 7.05 15.754 15.754 15.754h29.538c8.696 0 15.754-7.058 15.754-15.754v-18.708c0-8.697-7.058-15.754-15.754-15.754z" fill="#890628"/>
    <path d="M252.077 0c-42.677 0-80.4 22.063-103.881 53.256l41.819-10.264 1.969 8.862 19.692-8.862 11.815 14.769 10.831-19.692 32.492 37.415-6.892-41.354 36.431 25.6.985-14.769 38.4 19.692-3.938-20.676 30.074 17.865C339.196 26.167 298.567 0 252.077 0zm-98.658 344.285c6.814 90.254 48.372 55.225 98.643 55.225 50.294 0 91.837 35.029 98.643-55.225H153.419z" fill="#35157c"/>
</svg>
