<svg xmlns="http://www.w3.org/2000/svg" viewBox="0 0 504 504">
    <path d="M346.569 361.913c0 19.503-15.817 124.668-35.336 124.668-19.495 0-35.304-105.173-35.304-124.668 0-19.495 15.817-35.32 35.304-35.32 19.519 0 35.336 15.825 35.336 35.32zm-118.351 0c0 19.503-15.817 124.668-35.336 124.668-19.495 0-35.304-105.173-35.304-124.668 0-19.495 15.817-35.32 35.304-35.32 19.519 0 35.336 15.825 35.336 35.32z" fill="#a0185c"/>
    <path d="M351.705 315.242c0 126.33-44.599 84.259-99.643 84.259-55.028 0-99.643 42.071-99.643-84.259 0-72.231 44.631-130.781 99.643-130.781 55.028.009 99.643 58.558 99.643 130.781z" fill="#bf3674"/>
    <path d="M165.904 421.415c5.506 31.508 13.32 55.138 22.166 63.015h9.602c8.869-7.877 16.691-31.508 22.189-63.015h-53.957zm118.358 0c5.506 31.508 13.32 55.138 22.166 63.015h9.602c8.869-7.877 16.691-31.508 22.189-63.015h-53.957z" fill="#a8b2ba"/>
    <path d="M232.629 487.219c0 14.935-17.802 16.904-39.739 16.904s-39.739-1.961-39.739-16.904 17.802-35.509 39.739-35.509 39.739 20.567 39.739 35.509z" fill="#8d97a0"/>
    <path d="M232.629 487.219c0 14.935-17.802 16.904-39.739 16.904s-39.739-1.961-39.739-16.904" fill="#79848c"/>
    <path d="M350.988 487.219c0 14.935-17.802 16.904-39.739 16.904s-39.739-1.961-39.739-16.904 17.802-35.509 39.739-35.509 39.739 20.567 39.739 35.509z" fill="#8d97a0"/>
    <path d="M350.988 487.219c0 14.935-17.802 16.904-39.739 16.904s-39.739-1.961-39.739-16.904" fill="#79848c"/>
    <path d="M241.073 203.768c10.027 11.28 3.663 33.304-14.218 49.223-17.881 15.896-114.018 85.024-124.062 73.767-10.012-11.296 69.892-98.714 87.773-114.609 17.865-15.895 40.48-19.653 50.507-8.381zm21.977 0c-10.027 11.28-3.663 33.304 14.218 49.223 17.881 15.896 114.018 85.024 124.062 73.767 10.012-11.296-69.892-98.714-87.773-114.609-17.865-15.895-40.48-19.653-50.507-8.381z" fill="#bf3674"/>
    <path d="M173.088 235.733c21.835 11.059 49.191 16.683 78.99 16.683 29.783 0 57.139-5.624 78.966-16.683-18.211-31.114-46.773-51.263-78.982-51.263-32.201 0-60.771 20.141-78.974 51.263z" fill="#a0185c"/>
    <path d="M252.062 184.47c-27.231 0-51.83 14.438-69.797 37.707 20.126 8.294 44.048 12.516 69.813 12.516 25.758 0 49.68-4.222 69.797-12.516-17.968-23.261-42.567-37.707-69.813-37.707z" fill="#8d97a0"/>
    <path d="M381.015 124.258c0 63.008-57.738 94.681-128.937 94.681-71.215 0-128.969-31.673-128.969-94.681C123.108 61.235 180.862 0 252.077 0c71.2 0 128.938 61.235 128.938 124.258z" fill="#bf3674"/>
    <path d="M381.015 124.258c0 63.008-57.738 94.681-128.937 94.681-71.215 0-128.969-31.673-128.969-94.681" fill="#a0185c"/>
    <path d="M279.631 34.146V3.174C270.746 1.15 261.537 0 252.077 0c-9.476 0-18.692 1.15-27.585 3.174v30.972c0 8.688 7.058 17.054 15.754 17.054h23.631c8.696 0 15.754-8.365 15.754-17.054z" fill="#b6c3cc"/>
    <path d="M224.492 34.8c0 8.688 7.058 16.4 15.754 16.4h23.631c8.696 0 15.754-8.365 15.754-17.054V3.174C270.746 1.142 261.538.323 252.078.323" fill="#a8b2ba"/>
    <path d="M122.982 287.744c-14.36 18.723-24.08 34.627-20.181 39.014 3.82 4.285 20.141-3.096 39.849-14.738l2.308-2.308-21.976-21.968zm235.45 22.465c21.063 12.674 38.88 21.063 42.89 16.557 3.907-4.403-5.876-20.378-20.291-39.156l-22.599 22.599z" fill="#b6c3cc"/>
    <ellipse cx="252" cy="119" rx="106" ry="45" fill="#363b3f"/>
    <ellipse cx="252" cy="313" rx="67" ry="28" fill="#a0185c"/>
    <path d="M357.738 119.469c0 24.655-47.309 44.646-105.677 44.646s-105.677-19.992-105.677-44.646" fill="#171a1c"/>
</svg>
