<svg xmlns="http://www.w3.org/2000/svg" viewBox="0 0 504 504">
    <path d="M216.645 204.8S95.86 235 69.599 204.8c-26.246-30.184-43.323 49.892-17.061 59.077 26.262 9.2-3.938 19.7 23.631 30.2 27.569 10.508 31.508-19.692 53.831-9.185 22.307 10.492 7.877 28.877 27.569 49.877 19.692 21.016 10.508 13.139 43.323 14.446 32.815 1.308 21 14.446 34.123 19.692 13.139 5.246 13.139 2.631 40.708-21s66.954 34.131 81.384 9.185c14.446-24.938-9.185-43.323 24.954-51.2 34.123-7.877 56.446-2.623 57.754-27.569 1.323-24.938 34.139-10.508 22.323-42.016-11.815-31.508-105.031-2.615-124.723-18.369-19.693-15.753-120.77-13.138-120.77-13.138z" fill="#510940"/>
    <path d="M260.811 203.768c10.012 11.28 3.655 33.304-14.226 49.223-17.881 15.896-114.018 85.024-124.062 73.767-10.012-11.296 69.892-98.714 87.773-114.609 17.865-15.895 40.472-19.653 50.515-8.381zm21.961 0c-10.027 11.28-3.663 33.304 14.21 49.223 17.888 15.896 114.026 85.024 124.062 73.767 10.019-11.296-69.884-98.714-87.765-114.609-17.857-15.895-40.472-19.653-50.507-8.381zm83.519 158.145c0 19.503-15.809 124.668-35.336 124.668-19.487 0-35.304-105.173-35.304-124.668 0-19.495 15.825-35.32 35.304-35.32 19.527 0 35.336 15.825 35.336 35.32zm-118.343 0c0 19.503-15.817 124.668-35.336 124.668-19.503 0-35.304-105.173-35.304-124.668 0-19.495 15.809-35.32 35.304-35.32 19.519 0 35.336 15.825 35.336 35.32z" fill="#aa0909"/>
    <path d="M371.427 315.242c0 126.33-44.591 84.259-99.643 84.259-55.02 0-99.643 42.071-99.643-84.259 0-72.231 44.631-130.781 99.643-130.781 55.036.009 99.643 58.558 99.643 130.781z" fill="#ce1111"/>
    <path d="M185.641 422.085c5.498 27.301 13.312 54.705 22.158 62.354h9.602c8.877-7.648 16.691-35.052 22.197-62.354h-53.957zm118.351 0c5.506 27.301 13.32 54.705 22.166 62.354h9.602c8.869-7.648 16.691-35.052 22.189-62.354h-53.957z" fill="#77105a"/>
    <path d="M252.351 487.219c0 14.935-17.794 16.904-39.731 16.904s-39.739-1.961-39.739-16.904 17.802-35.509 39.739-35.509 39.731 20.567 39.731 35.509z" fill="#9b197d"/>
    <path d="M252.351 487.219c0 14.935-17.794 16.904-39.731 16.904s-39.739-1.961-39.739-16.904" fill="#77105a"/>
    <path d="M370.71 487.219c0 14.935-17.81 16.904-39.739 16.904s-39.739-1.961-39.739-16.904 17.81-35.509 39.739-35.509 39.739 20.567 39.739 35.509z" fill="#9b197d"/>
    <path d="M370.71 487.219c0 14.935-17.81 16.904-39.739 16.904s-39.739-1.961-39.739-16.904" fill="#77105a"/>
    <path d="M400.744 124.258c0 63.008-57.738 94.681-128.937 94.681-71.215 0-128.969-31.673-128.969-94.681C142.838 61.235 200.592 0 271.807 0c71.2 0 128.937 61.235 128.937 124.258z" fill="#ce1111"/>
    <path d="M400.744 124.258c0 63.008-57.738 100.896-128.937 100.896-71.215 0-128.969-37.888-128.969-100.896" fill="#aa0909"/>
    <path d="M142.704 287.744c-14.352 18.723-24.072 34.627-20.181 39.014 3.82 4.285 20.141-3.096 39.849-14.738l2.308-2.308-21.976-21.968zm235.457 22.465c21.063 12.674 38.88 21.063 42.882 16.557 3.907-4.403-5.868-20.378-20.283-39.156l-22.599 22.599z" fill="#77105a"/>
    <path fill="#f4cb89" d="M360.454 55.769l-8.932 93.727-79.754 29.042-79.707-29.042-8.932-93.727z"/>
    <path fill="#dbae6e" d="M358.658 74.476l1.796-18.707H183.129l1.788 18.707z"/>
    <path d="M225.184 213.795c14.478 3.379 30.161 5.144 46.624 5.144 16.447 0 32.122-1.772 46.592-5.144v-70.703h-93.216v70.703z" fill="#f4cb89"/>
    <circle cx="225" cy="125" r="12" fill="#113e49"/>
    <path d="M236.975 124.723c0 6.38-5.167 11.532-11.548 11.532-6.365 0-11.516-5.152-11.516-11.532"/>
    <path d="M248.192 148.779a2.382 2.382 0 0 1-1.725-.725c-5.632-5.608-13.107-8.72-21.055-8.72h-.008c-7.932 0-15.399 3.119-21.008 8.72a2.39 2.39 0 0 1-3.426 0 2.402 2.402 0 0 1-.032-3.419c6.538-6.538 15.226-10.153 24.458-10.153h.008c9.271 0 17.959 3.584 24.513 10.138.937.937.937 2.505 0 3.434a2.338 2.338 0 0 1-1.725.725z" fill="#ffd3c5"/>
    <circle cx="318" cy="125" r="12" fill="#113e49"/>
    <path d="M306.615 124.723a11.52 11.52 0 0 0 11.54 11.532c6.372 0 11.524-5.152 11.524-11.532"/>
    <path d="M295.398 148.779c.599 0 1.229-.228 1.709-.725 5.632-5.608 13.107-8.72 21.047-8.72h.016c7.94 0 15.415 3.119 21.016 8.72a2.399 2.399 0 0 0 3.434 0c.953-.922.969-2.458.016-3.419-6.506-6.538-15.218-10.153-24.458-10.153h-.016c-9.247 0-17.936 3.584-24.505 10.138-.922.937-.922 2.505 0 3.434a2.4 2.4 0 0 0 1.741.725z" fill="#ffd3c5"/>
    <path d="M299.195 163.501c0 7.365-5.979 13.328-13.336 13.328h-28.136c-7.373 0-13.32-5.971-13.32-13.328v-12.587c0-7.373 5.955-13.328 13.32-13.328h28.136c7.365 0 13.336 5.963 13.336 13.328v12.587z" fill="#870808"/>
    <path d="M257.723 163.139c-5.002 0-9.311 2.781-11.579 6.845 2.269 4.064 6.577 6.845 11.579 6.845h28.136c4.994 0 9.295-2.788 11.587-6.845-2.292-4.072-6.593-6.845-11.587-6.845h-28.136z" fill="#aa0909"/>
</svg>
