<svg xmlns="http://www.w3.org/2000/svg" viewBox="0 0 504 504">
    <path d="M241.073 203.768c10.027 11.28 3.663 33.304-14.218 49.223-17.881 15.896-114.018 85.024-124.062 73.767-10.012-11.296 69.892-98.714 87.773-114.609 17.865-15.895 40.48-19.653 50.507-8.381zm21.977 0c-10.027 11.28-3.663 33.304 14.218 49.223 17.881 15.896 114.018 85.024 124.062 73.767 10.012-11.296-69.892-98.714-87.773-114.609-17.865-15.895-40.48-19.653-50.507-8.381zm83.519 158.145c0 19.503-15.817 124.668-35.336 124.668-19.495 0-35.304-105.173-35.304-124.668 0-19.495 15.817-35.32 35.304-35.32 19.519 0 35.336 15.825 35.336 35.32zm-118.351 0c0 19.503-15.817 124.668-35.336 124.668-19.495 0-35.304-105.173-35.304-124.668 0-19.495 15.817-35.32 35.304-35.32 19.519 0 35.336 15.825 35.336 35.32z" fill="#0058af"/>
    <path d="M351.705 315.242c0 126.33-44.599 84.259-99.643 84.259-55.028 0-99.643 42.071-99.643-84.259 0-72.231 44.631-130.781 99.643-130.781 55.028.009 99.643 58.558 99.643 130.781z" fill="#1267cc"/>
    <g fill="#f9be03">
        <path d="M338.582 356.431c0 8.696-7.058 15.754-15.754 15.754s-15.754-7.058-15.754-15.754V219.908c0-8.704 7.058-14.446 15.754-14.446l9.846 6.892c8.696 0 5.908 13.288 5.908 21.984v122.093z"/>
        <path d="M328.554 313.045c7.326 7.326 8.255 18.243 2.111 24.387-6.152 6.152-17.077 5.215-24.395-2.111l-114.838-114.83c-7.318-7.326-7.16-17.14-1-23.292l12.753-1.166c6.152-6.144 15.36 7.003 22.67 14.32l102.699 102.692z"/>
    </g>
    <path d="M165.904 422.085c5.506 27.301 13.32 54.705 22.166 62.354h9.602c8.862-7.648 16.691-35.052 22.189-62.354h-53.957zm118.358 0c5.506 27.301 13.32 54.705 22.166 62.354h9.602c8.869-7.648 16.691-35.052 22.181-62.354h-53.949z" fill="#f7a006"/>
    <path d="M232.629 487.219c0 14.935-17.802 16.904-39.739 16.904s-39.739-1.961-39.739-16.904 17.802-35.509 39.739-35.509 39.739 20.567 39.739 35.509z" fill="#f9be03"/>
    <path d="M232.629 487.219c0 14.935-17.802 16.904-39.739 16.904s-39.739-1.961-39.739-16.904" fill="#f7a006"/>
    <path d="M350.988 487.219c0 14.935-17.802 16.904-39.739 16.904s-39.739-1.961-39.739-16.904 17.802-35.509 39.739-35.509 39.739 20.567 39.739 35.509z" fill="#f9be03"/>
    <path d="M350.988 487.219c0 14.935-17.802 16.904-39.739 16.904s-39.739-1.961-39.739-16.904" fill="#f7a006"/>
    <path d="M381.015 124.258c0 63.008-57.738 94.681-128.937 94.681-71.215 0-128.969-31.673-128.969-94.681C123.108 61.235 180.862 0 252.077 0c71.2 0 128.938 61.235 128.938 124.258z" fill="#f9a88f"/>
    <path d="M381.015 124.258c0 63.008-57.738 94.681-128.937 94.681-71.215 0-128.969-31.673-128.969-94.681" fill="#0058af"/>
    <path d="M122.982 287.744c-14.36 18.723-24.08 34.627-20.181 39.014 3.82 4.285 20.141-3.096 39.849-14.738l2.308-2.308-21.976-21.968zm235.45 22.465c21.063 12.674 38.88 21.063 42.89 16.557 3.907-4.403-5.876-20.378-20.291-39.156l-22.599 22.599z" fill="#f9be03"/>
    <path d="M310.154 156.231c0 13.036-10.587 23.631-23.631 23.631H217.6c-13.044 0-23.631-10.594-23.631-23.631v-41.354c0-13.052 10.587-23.631 23.631-23.631h68.923c13.044 0 23.631 10.579 23.631 23.631v41.354z" fill="#f9a88f"/>
    <path d="M156.444 43.331h191.244C324.096 17.51 290.052 0 252.077 0c-37.982 0-72.034 17.51-95.633 43.331z" fill="#a53719"/>
    <path d="M358.4 98.469c0 8.696-7.058 15.754-15.754 15.754H161.477c-8.696 0-15.754-7.058-15.754-15.754v-13.13c0-8.704 7.058-15.754 15.754-15.754h181.169c8.696 0 15.754 7.05 15.754 15.754v13.13z" fill="red"/>
    <path d="M145.723 94.058v4.411c0 8.696 7.058 15.754 15.754 15.754h181.169c8.696 0 15.754-7.058 15.754-15.754v-4.411H145.723z" fill="#ce0000"/>
    <path d="M342.646 126.039H161.477c-15.202 0-27.569-12.367-27.569-27.569V85.339c0-15.21 12.367-27.569 27.569-27.569h181.169c15.202 0 27.569 12.359 27.569 27.569V98.47c0 15.202-12.366 27.569-27.569 27.569zM161.477 81.4a3.944 3.944 0 0 0-3.938 3.938v13.131a3.95 3.95 0 0 0 3.938 3.938h181.169a3.95 3.95 0 0 0 3.938-3.938v-13.13a3.944 3.944 0 0 0-3.938-3.938H161.477z" fill="#ffe000"/>
    <path d="M357.085 369.569c0 6.884-5.577 12.461-12.469 12.461H159.508c-6.892 0-12.477-5.577-12.477-12.461 0-6.9 5.585-12.477 12.477-12.477h185.108c6.892 0 12.469 5.577 12.469 12.477z" fill="#f7a006"/>
    <path d="M277.173 147.259c0 13.863-11.248 25.112-25.112 25.112-13.863 0-25.112-11.248-25.112-25.112s11.248-12.304 25.112-12.304 25.112-1.551 25.112 12.304z" fill="#890628"/>
    <path d="M232.629 162.981c4.6 5.679 11.555 9.381 19.432 9.381 7.877 0 14.824-3.71 19.432-9.381-4.608-5.671-11.555-9.381-19.432-9.381-7.876 0-14.832 3.71-19.432 9.381z" fill="#b50b30"/>
    <path d="M277.662 370.215c0 13.052-10.579 23.631-23.631 23.631h-3.938c-13.052 0-23.631-10.579-23.631-23.631v-3.938c0-13.052 10.579-23.631 23.631-23.631h3.938c13.052 0 23.631 10.579 23.631 23.631v3.938z" fill="#ffe000"/>
    <path d="M329.397 274.605a2.4 2.4 0 0 1-2.395 2.395h-8.365a2.387 2.387 0 0 1-2.387-2.395v-8.357a2.379 2.379 0 0 1 2.387-2.379h8.365a2.39 2.39 0 0 1 2.395 2.379v8.357z" fill="red"/>
</svg>
