<svg xmlns="http://www.w3.org/2000/svg" viewBox="0 0 504 504">
    <g fill="#232728">
        <path d="M351.705 315.242c0 126.322-44.599 84.259-99.643 84.259-55.028 0-99.643 42.063-99.643-84.259 0-72.231 44.631-130.788 99.643-130.788 55.028.008 99.643 58.565 99.643 130.788z"/>
        <path d="M228.218 361.905c0 19.511-15.817 124.676-35.336 124.676-19.495 0-35.304-105.173-35.304-124.676 0-19.495 15.817-35.32 35.304-35.32 19.519 0 35.336 15.833 35.336 35.32zm118.351 0c0 19.511-15.817 124.676-35.336 124.676-19.495 0-35.304-105.173-35.304-124.676 0-19.495 15.817-35.32 35.304-35.32 19.519 0 35.336 15.833 35.336 35.32z"/>
    </g>
    <path d="M232.629 487.219c0 14.935-17.802 16.904-39.739 16.904s-39.739-1.969-39.739-16.904 17.802-35.509 39.739-35.509 39.739 20.567 39.739 35.509z" fill="#3e4142"/>
    <path d="M232.629 487.219c0 14.935-17.802 16.904-39.739 16.904s-39.739-1.969-39.739-16.904" fill="#232728"/>
    <path d="M350.988 487.219c0 14.935-17.802 16.904-39.739 16.904s-39.739-1.969-39.739-16.904 17.802-35.509 39.739-35.509 39.739 20.567 39.739 35.509z" fill="#3e4142"/>
    <path d="M350.988 487.219c0 14.935-17.802 16.904-39.739 16.904s-39.739-1.969-39.739-16.904m-30.437-283.451c10.027 11.28 3.663 33.296-14.218 49.215-17.881 15.896-114.018 85.031-124.062 73.767-10.012-11.296 69.892-98.706 87.773-114.601 17.865-15.903 40.48-19.653 50.507-8.381zm21.977 0c-10.027 11.28-3.663 33.296 14.218 49.215 17.881 15.896 114.018 85.031 124.062 73.767 10.012-11.296-69.892-98.706-87.773-114.601-17.865-15.903-40.48-19.653-50.507-8.381z" fill="#232728"/>
    <path fill="#e2ded3" d="M256.985 324.923h-9.847l-15.753-125.385h41.353z"/>
    <path fill="#444849" d="M258.182 218.569l10.248 103.896-16.368 11.887-16.369-11.887 10.256-103.896z"/>
    <path fill="#232728" d="M245.949 218.569h12.233l10.248 103.896-16.368 11.887"/>
    <path d="M381.015 124.258c0 63-57.738 94.681-128.937 94.681-71.215 0-128.969-31.673-128.969-94.681C123.108 61.227 180.862 0 252.077 0c71.2 0 128.938 61.227 128.938 124.258z" fill="#fff"/>
    <path d="M381.015 124.258c0 63-57.738 94.681-128.937 94.681-71.215 0-128.969-31.673-128.969-94.681" fill="#dfefef"/>
    <circle cx="191" cy="136" r="12" fill="#113e49"/>
    <path d="M202.279 136.428c0 6.388-5.167 11.54-11.54 11.54-6.372 0-11.524-5.152-11.524-11.54"/>
    <path d="M213.496 160.477c-.614 0-1.245-.213-1.725-.709-5.632-5.632-13.107-8.72-21.047-8.72h-.016c-7.94 0-15.399 3.096-21 8.704-.953.953-2.489.985-3.434.016a2.4 2.4 0 0 1-.031-3.419c6.538-6.554 15.218-10.169 24.458-10.169h.016c9.263 0 17.951 3.6 24.505 10.153.937.937.937 2.505 0 3.434-.466.497-1.08.71-1.726.71z" fill="#fff"/>
    <circle cx="313" cy="136" r="12" fill="#113e49"/>
    <path d="M301.859 136.428a11.52 11.52 0 0 0 11.54 11.54c6.372 0 11.524-5.152 11.524-11.54"/>
    <path d="M290.643 160.477c.599 0 1.229-.213 1.709-.709 5.632-5.632 13.107-8.72 21.047-8.72h.016c7.94 0 15.415 3.096 21.016 8.704a2.405 2.405 0 0 0 3.434.016c.953-.922.969-2.458.016-3.419-6.506-6.554-15.218-10.169-24.458-10.169h-.016c-9.248 0-17.936 3.6-24.505 10.153-.922.937-.922 2.505 0 3.434.48.497 1.095.71 1.741.71z" fill="#fff"/>
</svg>
