<svg xmlns="http://www.w3.org/2000/svg" viewBox="0 0 504 504">
    <path fill="#a00505" d="M287.188 201.515l75.815-26.584 18.708 26.584 46.277-28.554-21.662 43.324-41.354 23.63-15.754-33.477-39.384 2.954 15.754 20.677 14.769-8.861-13.785 26.584-28.554-1.969-55.138-23.631z"/>
    <path d="M320.775 361.913c0 19.503-15.817 124.668-35.336 124.668-19.495 0-35.304-105.173-35.304-124.668 0-19.495 15.817-35.32 35.304-35.32 19.519 0 35.336 15.825 35.336 35.32zm-118.359 0c0 19.503-15.817 124.668-35.336 124.668-19.495 0-35.304-105.173-35.304-124.668 0-19.495 15.817-35.32 35.304-35.32 19.519 0 35.336 15.825 35.336 35.32z"/>
    <path d="M325.911 315.242c0 126.33-44.599 84.259-99.643 84.259-55.028 0-99.643 42.071-99.643-84.259 0-72.231 44.631-130.781 99.643-130.781 55.028.009 99.643 58.558 99.643 130.781z" fill="#191919"/>
    <path d="M140.11 422.085c5.506 27.301 13.32 54.705 22.166 62.354h9.602c8.869-7.648 16.691-35.052 22.181-62.354H140.11zm118.35 0c5.506 27.301 13.32 54.705 22.166 62.354h9.602c8.862-7.648 16.691-35.052 22.189-62.354H258.46z" fill="#a8b2ba"/>
    <path d="M206.835 487.219c0 14.935-17.802 16.904-39.739 16.904s-39.739-1.961-39.739-16.904 17.802-35.509 39.739-35.509 39.739 20.567 39.739 35.509z" fill="#8d97a0"/>
    <path d="M206.835 487.219c0 14.935-17.802 16.904-39.739 16.904s-39.739-1.961-39.739-16.904" fill="#79848c"/>
    <path d="M325.186 487.219c0 14.935-17.802 16.904-39.739 16.904s-39.739-1.961-39.739-16.904 17.802-35.509 39.739-35.509 39.739 20.567 39.739 35.509z" fill="#8d97a0"/>
    <path d="M325.186 487.219c0 14.935-17.802 16.904-39.739 16.904s-39.739-1.961-39.739-16.904" fill="#79848c"/>
    <path d="M215.279 203.768c10.027 11.28 3.663 33.304-14.218 49.223C183.181 268.887 87.043 338.015 77 326.758c-10.012-11.296 69.892-98.714 87.773-114.609 17.864-15.895 40.479-19.653 50.506-8.381zm21.969 0c-10.027 11.28-3.663 33.304 14.218 49.223 17.881 15.896 114.018 85.024 124.062 73.767 10.012-11.296-69.892-98.714-87.773-114.609-17.857-15.895-40.472-19.653-50.507-8.381z" fill="#191919"/>
    <path d="M226.267 179.547c-27.231 0-51.83 14.438-69.797 37.707 20.126 8.294 44.048 12.516 69.813 12.516 25.758 0 49.68-4.222 69.797-12.516-17.967-23.261-42.566-37.707-69.813-37.707z" fill="#cc0a0a"/>
    <path d="M355.221 124.258c0 63.008-57.738 94.681-128.937 94.681-71.215 0-128.969-31.673-128.969-94.681C97.314 61.235 155.068 0 226.283 0c71.2 0 128.938 61.235 128.938 124.258z" fill="#0fb28b"/>
    <path d="M355.221 124.258c0 63.008-57.738 94.681-128.937 94.681-71.215 0-128.969-31.673-128.969-94.681" fill="#0aa599"/>
    <path d="M236.114 150.331V.52C232.86.268 229.599 0 226.283 0c-3.34 0-6.601.268-9.862.528v149.803c0 5.427 4.403 9.846 9.846 9.846 5.436 0 9.847-4.419 9.847-9.846z" fill="#566866"/>
    <path d="M97.188 287.744c-14.36 18.723-24.08 34.627-20.181 39.014 3.82 4.285 20.141-3.096 39.849-14.738l2.308-2.308-21.976-21.968zm235.449 22.465c21.063 12.674 38.88 21.063 42.89 16.557 3.907-4.403-5.876-20.378-20.291-39.156l-22.599 22.599z" fill="#b6c3cc"/>
    <path d="M332.472 182.595l-61.637-38.581h-89.143l-61.637 38.581c23.268 24.182 62.149 36.344 106.22 36.344 44.064 0 82.944-12.162 106.197-36.344z" fill="#9cacb5"/>
    <path d="M181.692 159.106l-51.68 32.343c23.615 18.274 57.958 27.483 96.264 27.483 38.29 0 72.633-9.208 96.232-27.483l-51.68-32.343h-89.136z" fill="#b6c3cc"/>
    <path d="M191.121 117.106c-21.346 21.331-50.743 42.142-65.591 27.317-14.816-14.84-9.444-59.691 11.894-81.014 21.323-21.339 50.649-26.616 65.473-11.784 14.832 14.833 9.546 44.151-11.776 65.481z" fill="#212020"/>
    <ellipse transform="rotate(-45.001 164.267 90.255)" cx="164" cy="90" rx="55" ry="38" fill="#f40f0f"/>
    <path d="M202.889 51.625c14.84 14.832 9.555 44.15-11.768 65.481-21.346 21.331-50.656 26.608-65.489 11.776" fill="#cc0a0a"/>
    <path d="M261.406 117.106c21.354 21.331 50.751 42.142 65.591 27.317 14.824-14.84 9.452-59.691-11.886-81.014-21.323-21.339-50.649-26.616-65.465-11.784-14.84 14.833-9.562 44.151 11.76 65.481z" fill="#212020"/>
    <ellipse transform="rotate(45.004 288.253 90.238)" cx="288" cy="90" rx="55" ry="38" fill="#f40f0f"/>
    <path d="M249.646 51.625c-14.848 14.832-9.563 44.15 11.752 65.481 21.354 21.331 50.664 26.608 65.497 11.776" fill="#cc0a0a"/>
    <path d="M222.416 43.583a3.152 3.152 0 0 1 0 4.443 3.143 3.143 0 0 1-4.435 0l-28.672-28.672c-1.221-1.213-1.221-3.214 0-4.435 1.229-1.221 3.23-1.221 4.435 0l28.672 28.664zm7.703 0a3.152 3.152 0 0 0 0 4.443 3.143 3.143 0 0 0 4.435 0l28.672-28.672c1.221-1.213 1.221-3.214 0-4.435-1.229-1.221-3.222-1.221-4.435 0l-28.672 28.664z" fill="#b6c3cc"/>
    <path d="M222.329 280.946c0 8.696-7.058 15.754-15.754 15.754h-32.823c-8.696 0-15.754-7.058-15.754-15.754v-17.069c0-8.696 7.058-15.754 15.754-15.754h32.823c8.696 0 15.754 7.058 15.754 15.754v17.069z" fill="#11ce6b"/>
    <path d="M222.329 280.946c0 8.696-7.058 15.754-15.754 15.754h-32.823c-8.696 0-15.754-7.058-15.754-15.754v-17.069c0-8.696 7.058-15.754 15.754-15.754" fill="#08b254"/>
    <path d="M230.206 280.946c0 8.696 7.05 15.754 15.754 15.754h32.823c8.696 0 15.754-7.058 15.754-15.754v-17.069c0-8.696-7.058-15.754-15.754-15.754H245.96c-8.704 0-15.754 7.058-15.754 15.754v17.069z" fill="#11ce6b"/>
    <path d="M230.206 280.946c0 8.696 7.05 15.754 15.754 15.754h32.823c8.696 0 15.754-7.058 15.754-15.754v-17.069c0-8.696-7.058-15.754-15.754-15.754" fill="#08b254"/>
    <path d="M223.55 328.499c0 6.002-4.86 10.862-10.862 10.862h-22.623a10.858 10.858 0 0 1-10.862-10.862v-11.76c0-6.002 4.86-10.862 10.862-10.862h22.623c6.002 0 10.862 4.86 10.862 10.862v11.76z" fill="#11ce6b"/>
    <path d="M223.55 328.499c0 6.002-4.86 10.862-10.862 10.862h-22.623a10.858 10.858 0 0 1-10.862-10.862v-11.76c0-6.002 4.86-10.862 10.862-10.862" fill="#08b254"/>
    <path d="M228.985 328.499c0 6.002 4.844 10.862 10.847 10.862h22.63c6.002 0 10.862-4.86 10.862-10.862v-11.76c0-6.002-4.86-10.862-10.862-10.862h-22.63c-6.002 0-10.847 4.86-10.847 10.862v11.76z" fill="#11ce6b"/>
    <path d="M228.985 328.499c0 6.002 4.844 10.862 10.847 10.862h22.63c6.002 0 10.862-4.86 10.862-10.862v-11.76c0-6.002-4.86-10.862-10.862-10.862" fill="#08b254"/>
    <ellipse cx="226" cy="371" rx="76" ry="24" fill="#cc0a0a"/>
    <ellipse cx="226" cy="371" rx="43" ry="18" fill="#b6c3cc"/>
    <path d="M268.913 370.869c0 10.051-19.094 18.211-42.646 18.211s-42.646-8.16-42.646-18.211" fill="#9cacb5"/>
    <circle cx="226" cy="371" r="9" fill="#cc0a0a"/>
    <path d="M267.621 168.535a2.466 2.466 0 0 1-2.458 2.458h-77.785a2.466 2.466 0 0 1-2.458-2.458 2.466 2.466 0 0 1 2.458-2.458h77.785c1.348-.008 2.458 1.103 2.458 2.458zm0 10.83a2.466 2.466 0 0 1-2.458 2.458h-77.785a2.466 2.466 0 0 1-2.458-2.458 2.466 2.466 0 0 1 2.458-2.458h77.785c1.348-.007 2.458 1.104 2.458 2.458zm0 10.831a2.466 2.466 0 0 1-2.458 2.458h-77.785a2.466 2.466 0 0 1-2.458-2.458 2.466 2.466 0 0 1 2.458-2.458h77.785a2.461 2.461 0 0 1 2.458 2.458z" fill="#9cacb5"/>
</svg>
