<svg xmlns="http://www.w3.org/2000/svg" viewBox="0 0 504 504">
    <path d="M241.073 203.768c10.027 11.28 3.663 33.304-14.218 49.223-17.881 15.896-114.018 85.024-124.062 73.767-10.012-11.296 69.892-98.714 87.773-114.609 17.865-15.895 40.48-19.653 50.507-8.381zm21.977 0c-10.027 11.28-3.663 33.304 14.218 49.223 17.881 15.896 114.018 85.024 124.062 73.767 10.012-11.296-69.892-98.714-87.773-114.609-17.865-15.895-40.48-19.653-50.507-8.381z" fill="#ce1332"/>
    <path d="M346.569 361.913c0 19.503-15.817 124.668-35.336 124.668-19.495 0-35.304-105.173-35.304-124.668 0-19.495 15.817-35.32 35.304-35.32 19.519 0 35.336 15.825 35.336 35.32zm-118.351 0c0 19.503-15.817 124.668-35.336 124.668-19.495 0-35.304-105.173-35.304-124.668 0-19.495 15.817-35.32 35.304-35.32 19.519 0 35.336 15.825 35.336 35.32z" fill="#b50b30"/>
    <path d="M351.705 315.242c0 126.33-44.599 84.259-99.643 84.259-55.028 0-99.643 42.071-99.643-84.259 0-72.231 44.631-130.781 99.643-130.781 55.028.009 99.643 58.558 99.643 130.781z" fill="#ce1332"/>
    <path d="M182.107 222.169c20.173 8.302 44.15 12.524 69.971 12.524 25.797 0 49.782-4.222 69.939-12.516-17.991-23.3-42.685-37.707-69.955-37.707-27.263 0-51.957 14.399-69.955 37.699z" fill="#b50b30"/>
    <g fill="#f2eb03">
        <path d="M165.904 422.085c5.506 27.301 13.32 54.705 22.166 62.354h9.602c8.862-7.648 16.691-35.052 22.189-62.354h-53.957zm118.358 0c5.506 27.301 13.32 54.705 22.166 62.354h9.602c8.869-7.648 16.691-35.052 22.181-62.354h-53.949z"/>
        <path d="M232.629 487.219c0 14.935-17.802 16.904-39.739 16.904s-39.739-1.961-39.739-16.904 17.802-35.509 39.739-35.509 39.739 20.567 39.739 35.509z"/>
    </g>
    <path d="M232.629 487.219c0 14.935-17.802 16.904-39.739 16.904s-39.739-1.961-39.739-16.904" fill="#efc206"/>
    <path d="M350.988 487.219c0 14.935-17.802 16.904-39.739 16.904s-39.739-1.961-39.739-16.904 17.802-35.509 39.739-35.509 39.739 20.567 39.739 35.509z" fill="#f2eb03"/>
    <path d="M350.988 487.219c0 14.935-17.802 16.904-39.739 16.904s-39.739-1.961-39.739-16.904" fill="#efc206"/>
    <path d="M381.015 124.258c0 63.008-57.738 94.681-128.937 94.681-71.215 0-128.969-31.673-128.969-94.681C123.108 61.235 180.862 0 252.077 0c71.2 0 128.938 61.235 128.938 124.258z" fill="#ce1332"/>
    <path d="M381.015 124.258c0 63.008-57.738 100.391-128.937 100.391-71.215 0-128.969-37.384-128.969-100.391m-.127 163.486c-14.36 18.723-24.08 34.627-20.181 39.014 3.82 4.285 20.141-3.096 39.849-14.738l2.308-2.308-21.976-21.968zm235.45 22.465c21.063 12.674 38.88 21.063 42.89 16.557 3.907-4.403-5.876-20.378-20.291-39.156l-22.599 22.599z" fill="#b50b30"/>
    <ellipse cx="252" cy="283" rx="67" ry="39" fill="#dddcca"/>
    <path d="M319.015 282.75c0 21.48-29.98 38.896-66.954 38.896s-66.954-17.424-66.954-38.896" fill="#cccab6"/>
    <path d="M157.46 372.177h189.204c1.646-6.766 2.907-14.777 3.757-24.285H153.71c.843 9.508 2.103 17.518 3.75 24.285z" fill="#efc206"/>
    <path d="M197.183 147.85v63.354l1.481.851c16.289 4.537 34.336 6.884 53.413 6.884 19.046 0 37.085-2.347 53.366-6.869l1.489-.866V147.85l-54.871 25.435-54.878-25.435z" fill="#e0b373"/>
    <path d="M197.183 162.619v48.585l1.481.851c16.289 4.537 34.336 6.884 53.413 6.884 19.046 0 37.085-2.347 53.366-6.869l1.489-.866v-48.585l-54.871 25.435-54.878-25.435z" fill="#f4cb89"/>
    <path fill="#ebf0f2" d="M222.192 137.846l-47.261-24.93 23.63-19.693 26.254 24.931z"/>
    <path fill="#adb9bc" d="M222.192 137.846l-47.261-24.93 23.63 5.907 26.254-.669z"/>
    <path fill="#ebf0f2" d="M281.931 137.846l47.261-24.93-23.63-19.693-26.254 24.931z"/>
    <path fill="#adb9bc" d="M281.931 137.846l47.261-24.93-23.63 5.907-26.254-.669z"/>
    <path d="M133.742 95.831V21l32.823 32.823zm236.639 0V21l-32.823 32.823z" fill="#efc206"/>
    <path fill="#eac00f" d="M249.108 256.945l-25.057 25.065h19.645l-11.508 24.04 45.363-28.105h-23.694l20.992-21z"/>
</svg>
