<svg xmlns="http://www.w3.org/2000/svg" viewBox="0 0 504 504">
    <path d="M224.605 203.485s-7.877 18.708-81.723 31.508-82.708 40.369-56.123 54.154-34.462 5.908 0 44.308 87.631 13.785 82.708 34.462c-4.923 20.677 71.877 45.292 100.431 17.723 28.554-27.569 118.154-20.677 119.138 2.954s48.246-169.354-67.938-180.185c-116.185-10.832-96.493-4.924-96.493-4.924z" fill="#890628"/>
    <path d="M269.929 203.768c10.027 11.28 3.663 33.304-14.218 49.223-17.881 15.896-114.018 85.024-124.062 73.767-10.012-11.296 69.892-98.714 87.773-114.609 17.857-15.895 40.472-19.653 50.507-8.381zm21.969 0c-10.027 11.28-3.663 33.304 14.218 49.223 17.881 15.896 114.018 85.024 124.062 73.767 10.012-11.296-69.892-98.714-87.773-114.609-17.865-15.895-40.48-19.653-50.507-8.381z" fill="#0c87e2"/>
    <path d="M375.417 361.913c0 19.503-15.817 124.668-35.336 124.668-19.495 0-35.304-105.173-35.304-124.668 0-19.495 15.817-35.32 35.304-35.32 19.519 0 35.336 15.825 35.336 35.32zm-118.351 0c0 19.503-15.817 124.668-35.336 124.668-19.495 0-35.304-105.173-35.304-124.668 0-19.495 15.817-35.32 35.304-35.32 19.519 0 35.336 15.825 35.336 35.32z" fill="#0265b7"/>
    <path d="M380.552 315.242c0 126.33-44.599 84.259-99.643 84.259-55.028 0-99.643 42.071-99.643-84.259 0-72.231 44.631-130.781 99.643-130.781 55.028.009 99.643 58.558 99.643 130.781z" fill="#0c87e2"/>
    <path d="M210.954 222.169c20.173 8.302 44.15 12.524 69.971 12.524 25.797 0 49.782-4.222 69.939-12.516-17.999-23.3-42.693-37.707-69.955-37.707s-51.956 14.399-69.955 37.699z" fill="#0265b7"/>
    <path d="M194.759 422.085c5.506 27.301 13.32 54.705 22.166 62.354h9.602c8.869-7.648 16.691-35.052 22.181-62.354h-53.949zm118.351 0c5.506 27.301 13.32 54.705 22.166 62.354h9.602c8.862-7.648 16.691-35.052 22.189-62.354H313.11z" fill="#ce1332"/>
    <path d="M261.477 487.219c0 14.935-17.802 16.904-39.739 16.904s-39.739-1.961-39.739-16.904 17.802-35.509 39.739-35.509 39.739 20.567 39.739 35.509z" fill="#b50b30"/>
    <path d="M261.477 487.219c0 14.935-17.802 16.904-39.739 16.904s-39.739-1.961-39.739-16.904" fill="#99082e"/>
    <path d="M379.836 487.219c0 14.935-17.802 16.904-39.739 16.904s-39.739-1.961-39.739-16.904 17.802-35.509 39.739-35.509 39.739 20.567 39.739 35.509z" fill="#b50b30"/>
    <path d="M379.836 487.219c0 14.935-17.802 16.904-39.739 16.904s-39.739-1.961-39.739-16.904" fill="#99082e"/>
    <path d="M409.862 124.258c0 63.008-57.738 94.681-128.937 94.681-71.215 0-128.969-31.673-128.969-94.681C151.956 61.235 209.71 0 280.925 0c71.199 0 128.937 61.235 128.937 124.258z" fill="#f9d49d"/>
    <path d="M409.862 124.258c0 63.008-57.738 100.391-128.937 100.391-71.215 0-128.969-37.384-128.969-100.391m-.126 163.486c-14.36 18.723-24.08 34.627-20.181 39.014 3.82 4.285 20.141-3.096 39.849-14.738l2.308-2.308-21.976-21.968zm235.449 22.465c21.063 12.674 38.88 21.063 42.89 16.557 3.907-4.403-5.876-20.378-20.291-39.156l-22.599 22.599z" fill="#f4cb89"/>
    <path d="M186.307 372.177h189.204c1.646-6.766 2.907-14.777 3.757-24.285h-196.71c.843 9.508 2.103 17.518 3.749 24.285z" fill="#efc206"/>
    <circle cx="220" cy="121" r="12" fill="#113e49"/>
    <path d="M231.127 121.439c0 6.388-5.167 11.54-11.54 11.54-6.372 0-11.524-5.151-11.524-11.54"/>
    <path d="M242.344 145.495a2.377 2.377 0 0 1-1.725-.717c-5.632-5.624-13.107-8.72-21.047-8.72h-.016c-7.94 0-15.399 3.104-21 8.712-.953.953-2.489.977-3.434.008a2.402 2.402 0 0 1-.032-3.419c6.538-6.546 15.218-10.161 24.458-10.161h.016c9.263 0 17.952 3.592 24.505 10.145.937.937.937 2.505 0 3.434-.465.489-1.079.718-1.725.718z" fill="#f9d49d"/>
    <circle cx="342" cy="121" r="12" fill="#113e49"/>
    <path d="M330.707 121.439a11.52 11.52 0 0 0 11.54 11.54c6.372 0 11.524-5.151 11.524-11.54"/>
    <path d="M319.498 145.495c.599 0 1.229-.221 1.709-.717 5.632-5.624 13.107-8.72 21.047-8.72h.016c7.94 0 15.415 3.104 21.016 8.712a2.405 2.405 0 0 0 3.434.008c.953-.922.969-2.458.016-3.419-6.506-6.546-15.218-10.161-24.458-10.161h-.031c-9.248 0-17.936 3.592-24.505 10.145-.922.937-.922 2.505 0 3.434a2.425 2.425 0 0 0 1.756.718z" fill="#f9d49d"/>
    <path fill="#f41e4c" d="M312.866 240.317l19.873 61.141-52.011 37.793-52.019-37.793 19.865-61.141z"/>
    <path fill="#ce1332" d="M248.574 240.317h64.292l19.873 61.141-52.011 37.793"/>
    <path d="M306.021 149.827c0 13.863-11.248 25.112-25.112 25.112-13.863 0-25.112-11.248-25.112-25.112s11.248-12.304 25.112-12.304c13.864 0 25.112-1.559 25.112 12.304z" fill="#890628"/>
    <path d="M261.477 165.549c4.608 5.679 11.555 9.381 19.432 9.381s14.824-3.71 19.432-9.381c-4.608-5.679-11.555-9.381-19.432-9.381s-14.824 3.702-19.432 9.381z" fill="#b50b30"/>
    <path d="M280.925 0c-38.305 0-72.609 17.794-96.232 43.977h86.189s-19.692 18.708 3.938 25.6c23.631 6.892 19.692-10.831 19.692-10.831s-3.45 6.396-10.335 3.45c-6.884-2.946 6.892-21.662 28.554-15.754 21.662 5.908 29.538-10.335 29.538-10.335s8.365 15.265 25.112 15.265c4.443 0 8.799-1.654 12.832-4.049C356.559 19.267 320.861 0 280.925 0z"/>
    <path d="M183.377 355.777c9.444 75.721 49.514 43.733 97.532 43.733 48.018 0 88.095 31.996 97.532-43.733H183.377z" fill="#ce1332"/>
</svg>
