<svg xmlns="http://www.w3.org/2000/svg" viewBox="0 0 503 503">
    <g fill="#49bf11">
        <path d="M256.02 242.389c-.859 14.816-20.59 25.695-44.119 24.348-23.481-1.394-138.468-20.173-137.618-34.989.89-14.816 117.295-20.047 140.776-18.653 23.49 1.354 41.835 14.469 40.961 29.294z"/>
        <path d="M247.001 236.268c.859-14.816 20.598-25.702 44.134-24.355 23.473 1.394 138.453 20.181 137.61 34.989-.874 14.816-117.28 20.055-140.776 18.66-23.489-1.354-41.843-14.477-40.968-29.294z"/>
    </g>
    <path d="M229.238 363.142c0 19.18-15.565 122.636-34.769 122.636-19.172 0-34.729-103.463-34.729-122.636 0-19.196 15.565-34.745 34.729-34.745 19.204 0 34.769 15.549 34.769 34.745zm116.429 0c0 19.18-15.565 122.636-34.769 122.636-19.172 0-34.729-103.463-34.729-122.636 0-19.196 15.565-34.745 34.729-34.745 19.212 0 34.769 15.549 34.769 34.745z" fill="#21367c"/>
    <path d="M350.724 317.227c0 124.282-43.874 82.889-98.028 82.889-54.13 0-98.02 41.393-98.02-82.889 0-71.058 43.906-128.646 98.02-128.646 54.13 0 98.028 57.581 98.028 128.646z" fill="#49bf11"/>
    <path d="M179.684 231.597c20.661 9.381 45.812 14.131 73.027 14.131 27.199 0 52.342-4.75 73.003-14.131-17.952-26.356-43.969-43.016-73.019-43.016-29.042 0-55.043 16.66-73.011 43.016z" fill="#1aaa0b"/>
    <path d="M233.586 486.416c0 14.69-17.518 16.612-39.101 16.612-21.575 0-39.093-1.922-39.093-16.612 0-14.714 17.518-34.934 39.093-34.934 21.583.007 39.101 20.22 39.101 34.934z" fill="#232221"/>
    <path d="M233.586 486.416c0 14.69-17.518 16.612-39.101 16.612-21.575 0-39.093-1.922-39.093-16.612" fill="#0f0e0d"/>
    <path d="M350.007 486.416c0 14.69-17.51 16.612-39.093 16.612-21.575 0-39.093-1.922-39.093-16.612 0-14.714 17.518-34.934 39.093-34.934 21.583.007 39.093 20.22 39.093 34.934z" fill="#232221"/>
    <path d="M350.007 486.416c0 14.69-17.51 16.612-39.093 16.612-21.575 0-39.093-1.922-39.093-16.612" fill="#0f0e0d"/>
    <g fill="#f9a9a0">
        <path d="M379.554 129.339c0 61.991-56.8 93.137-126.85 93.137-70.057 0-126.866-31.145-126.866-93.137 0-61.984 56.816-122.242 126.866-122.242 70.049.008 126.85 60.259 126.85 122.242z"/>
        <path d="M379.554 129.339c0 61.991-56.8 93.137-126.85 93.137-70.057 0-126.866-31.145-126.866-93.137 0-61.984 56.816-71.223 126.866-71.223 70.049 0 126.85 9.24 126.85 71.223z"/>
    </g>
    <path d="M379.554 129.339c0 61.991-56.8 93.137-126.85 93.137-70.057 0-126.866-31.145-126.866-93.137" fill="#ff9997"/>
    <circle cx="187" cy="118" r="11" fill="#113e49"/>
    <path d="M198.227 118.075c0 6.278-5.088 11.343-11.343 11.343-6.27 0-11.335-5.073-11.335-11.343"/>
    <path d="M209.27 141.737a2.35 2.35 0 0 1-1.701-.717c-5.537-5.522-12.895-8.578-20.701-8.578h-.024c-7.798 0-15.147 3.056-20.653 8.578-.937.937-2.458.953-3.387 0a2.37 2.37 0 0 1-.016-3.363c6.428-6.428 14.958-9.988 24.056-9.988h.024c9.106 0 17.652 3.521 24.103 9.98.922.922.922 2.458 0 3.371a2.301 2.301 0 0 1-1.701.717z" fill="#ffd3c5"/>
    <path d="M296.2 118.075a11.328 11.328 0 0 0 11.351 11.343c6.262 0 11.327-5.073 11.327-11.343 0-6.254-5.073-11.335-11.327-11.335-6.294-.008-11.351 5.081-11.351 11.335z" fill="#113e49"/>
    <path d="M296.2 118.075a11.328 11.328 0 0 0 11.351 11.343c6.262 0 11.327-5.073 11.327-11.343"/>
    <path d="M285.164 141.737c.575 0 1.197-.228 1.678-.717 5.537-5.522 12.895-8.578 20.708-8.578h.024c7.798 0 15.155 3.056 20.669 8.578a2.349 2.349 0 0 0 3.363 0 2.356 2.356 0 0 0 .024-3.363c-6.396-6.428-14.966-9.988-24.056-9.988h-.024c-9.098 0-17.652 3.521-24.119 9.98-.906.922-.906 2.458 0 3.371a2.399 2.399 0 0 0 1.733.717z" fill="#ffd3c5"/>
    <path fill="#232221" d="M257.17 226.981l11.713 118.792-18.716 13.58-18.723-13.58 11.736-118.792z"/>
    <path fill="#0f0e0d" d="M243.18 226.981h13.99l11.713 118.792-18.716 13.58"/>
    <g fill="#824323">
        <path d="M189.034 163.706c-25.624 0-46.49-20.858-46.49-46.497s20.866-46.49 46.49-46.49c25.655 0 46.49 20.85 46.49 46.49s-20.834 46.497-46.49 46.497zm0-77.493c-17.085 0-30.996 13.895-30.996 30.996 0 17.093 13.911 31.004 30.996 31.004 17.101 0 31.004-13.911 31.004-31.004 0-17.109-13.903-30.996-31.004-30.996z"/>
        <path d="M149.335 124.96h-22.591a7.739 7.739 0 0 1-7.743-7.751 7.737 7.737 0 0 1 7.743-7.743h22.591a7.744 7.744 0 0 1 7.751 7.743c.007 4.277-3.466 7.751-7.751 7.751zm159.507 38.746c-25.655 0-46.49-20.858-46.49-46.497s20.842-46.49 46.49-46.49c25.624 0 46.49 20.85 46.49 46.49s-20.866 46.497-46.49 46.497zm0-77.493c-17.101 0-31.004 13.895-31.004 30.996 0 17.093 13.903 31.004 31.004 31.004 17.085 0 30.996-13.911 30.996-31.004 0-17.109-13.911-30.996-30.996-30.996z"/>
        <path d="M376.954 124.96h-22.599a7.739 7.739 0 0 1-7.743-7.751 7.737 7.737 0 0 1 7.743-7.743h22.599a7.732 7.732 0 0 1 7.743 7.743 7.739 7.739 0 0 1-7.743 7.751zm-149.441-18.377h46.49v15.502h-46.49z"/>
    </g>
    <path d="M226.694 40.204a3.384 3.384 0 0 1-3.387 3.395 3.39 3.39 0 0 1-3.395-3.395V11.138a3.39 3.39 0 0 1 3.395-3.395 3.383 3.383 0 0 1 3.387 3.395v29.066zm14.698-3.876a3.39 3.39 0 0 1-3.395 3.395 3.39 3.39 0 0 1-3.395-3.395V7.27a3.39 3.39 0 0 1 3.395-3.395 3.39 3.39 0 0 1 3.395 3.395v29.058zm14.691-3.883a3.39 3.39 0 0 1-3.395 3.395 3.383 3.383 0 0 1-3.387-3.395V3.395A3.384 3.384 0 0 1 252.688 0a3.39 3.39 0 0 1 3.395 3.395v29.05zm14.698 3.883a3.39 3.39 0 0 1-3.395 3.395 3.39 3.39 0 0 1-3.395-3.395V7.27a3.39 3.39 0 0 1 3.395-3.395 3.39 3.39 0 0 1 3.395 3.395v29.058zm14.698 3.876a3.39 3.39 0 0 1-3.395 3.395 3.383 3.383 0 0 1-3.387-3.395V11.138a3.383 3.383 0 0 1 3.387-3.395 3.39 3.39 0 0 1 3.395 3.395v29.066z" fill="#706561"/>
</svg>
