<svg xmlns="http://www.w3.org/2000/svg" viewBox="0 0 504 504">
    <path d="M126.025 241.979a4.18 4.18 0 0 1 4.191 4.191 4.19 4.19 0 0 1-4.191 4.198H53.321c-2.308 0-4.167-1.875-4.167-4.198a4.164 4.164 0 0 1 4.167-4.191h72.704z" fill="#9ab7af"/>
    <path d="M77.566 241.979h19.803v8.389H77.566zm-24.245 8.389l7.16-.008v-8.381h-7.16c-.811 0-1.512.284-2.158.693v7.003c.637.394 1.354.685 2.158.693z" fill="#86a39a"/>
    <path d="M50.532 236.615c2.576 0 4.647 2.095 4.663 4.663v9.783a4.662 4.662 0 0 1-4.663 4.663 4.672 4.672 0 0 1-4.663-4.663v-9.783a4.657 4.657 0 0 1 4.663-4.663z" fill="#b1c9c2"/>
    <path d="M50.532 236.615c2.576 0 4.647 2.095 4.663 4.663v9.783a4.662 4.662 0 0 1-4.663 4.663m75.493-40.077a4.2 4.2 0 0 1 4.198 4.191 4.196 4.196 0 0 1-4.198 4.191H53.321c-2.3 0-4.167-1.875-4.183-4.191.016-2.316 1.875-4.191 4.183-4.191h72.704z" fill="#9ab7af"/>
    <path d="M77.558 215.647h19.818v8.381H77.558zm-24.237 8.381h7.16v-8.381h-7.16c-.811 0-1.512.291-2.158.693v7.003c.637.393 1.346.685 2.158.685z" fill="#86a39a"/>
    <path d="M50.532 210.29a4.652 4.652 0 0 1 4.663 4.663v9.775a4.674 4.674 0 0 1-4.663 4.671 4.664 4.664 0 0 1-4.663-4.671v-9.775a4.647 4.647 0 0 1 4.663-4.663z" fill="#b1c9c2"/>
    <path d="M50.532 210.29a4.652 4.652 0 0 1 4.663 4.663v9.775a4.674 4.674 0 0 1-4.663 4.671m75.493-40.077a4.182 4.182 0 0 1 4.191 4.183 4.185 4.185 0 0 1-4.191 4.198H53.321a4.165 4.165 0 0 1-4.167-4.198c0-2.308 1.867-4.191 4.167-4.191l72.704.008z" fill="#9ab7af"/>
    <path d="M77.558 189.322h19.81v8.381h-19.81zm-24.237 8.389h7.16v-8.381l-7.16-.008c-.803.008-1.52.291-2.158.701v7.003c.637.385 1.346.685 2.158.685z" fill="#86a39a"/>
    <path d="M50.532 183.958a4.632 4.632 0 0 1 4.647 4.655l.016 9.783a4.662 4.662 0 0 1-4.663 4.663 4.666 4.666 0 0 1-4.663-4.655v-9.791a4.666 4.666 0 0 1 4.663-4.655z" fill="#b1c9c2"/>
    <path d="M50.532 183.958a4.632 4.632 0 0 1 4.647 4.655l.016 9.783a4.662 4.662 0 0 1-4.663 4.663" fill="#9ab7af"/>
    <path d="M78.96 172.276a5.086 5.086 0 0 1 5.088-5.088h22.441a5.09 5.09 0 0 1 5.088 5.088l-.008 94.035a5.097 5.097 0 0 1-5.088 5.089l-22.441-.008c-2.812 0-5.096-2.269-5.096-5.081l.016-94.035m-11.185 0v94.035c0 8.972 7.31 16.258 16.274 16.258h22.449c8.972 0 16.258-7.294 16.258-16.258v-94.035c.008-8.98-7.294-16.258-16.258-16.266h-22.45c-8.971 0-16.273 7.294-16.273 16.266z" fill="#d18d05"/>
    <path d="M84.048 167.196h14.234l.433-11.177-14.659-.008c-1.953 0-3.797.402-5.537 1.04l.551 14.218a5.058 5.058 0 0 1 4.978-4.073zm10.201 104.188H84.048c-.394 0-.764-.047-1.119-.126l.433 11.248c.228 0 .449.063.685.063h9.76l.442-11.185z" fill="#ce7406"/>
    <path d="M37.929 112.9l17.022 27.64a6.401 6.401 0 0 0 3.868 5.876l6.459 166.707c0 4.112 3.34 7.452 7.452 7.444h3.742a7.457 7.457 0 0 0 7.452-7.452l6.451-166.699a6.396 6.396 0 0 0 3.883-5.876l17.022-27.632c0-3.521-2.851-6.388-6.38-6.388H44.309c-3.521 0-6.388 2.867-6.38 6.38z" fill="#ffc112"/>
    <path d="M37.929 112.9l19.582 25.931c.008 2.639 2.221 5.86 4.506 6.837l3.261 167.456c0 4.112 3.34 7.452 7.452 7.444h3.742a7.457 7.457 0 0 0 7.452-7.452l6.451-166.699a6.396 6.396 0 0 0 3.883-5.876l17.022-27.632c0-3.521-2.851-6.388-6.38-6.388H44.309c-3.521-.001-6.388 2.866-6.38 6.379z" fill="#eaae1b"/>
    <path d="M48.484 112.908l17.03 27.632c-.008 2.631 1.591 4.892 3.883 5.876l6.451 166.699c-.008 2.883 1.646 5.348 4.041 6.601 2.395-1.252 4.041-3.718 4.041-6.601l6.451-166.699a6.396 6.396 0 0 0 3.883-5.876l17.022-27.632c0-3.521-2.851-6.388-6.38-6.388H54.864a6.385 6.385 0 0 0-6.38 6.388z" fill="#e2a00e"/>
    <path d="M83.93 314.21a4.426 4.426 0 0 1 4.427 4.427 4.42 4.42 0 0 1-4.427 4.427H65.286a4.43 4.43 0 0 1-4.427-4.427 4.426 4.426 0 0 1 4.427-4.427H83.93z" fill="#d18d05"/>
    <g fill="#c11043">
        <path d="M290.629 239.159c-.874 15.061-20.945 26.128-44.851 24.757-23.875-1.41-140.745-20.504-139.894-35.564.906-15.069 119.233-20.385 143.108-18.976 23.866 1.387 42.519 14.722 41.637 29.783z"/>
        <path d="M281.444 232.952c.874-15.061 20.945-26.12 44.859-24.757 23.867 1.418 140.737 20.512 139.886 35.572-.89 15.061-119.225 20.385-143.1 18.968-23.867-1.379-42.527-14.722-41.645-29.783z"/>
    </g>
    <path d="M263.39 361.913c0 19.503-15.817 124.668-35.336 124.668-19.495 0-35.304-105.173-35.304-124.668 0-19.495 15.817-35.32 35.304-35.32 19.527 0 35.336 15.825 35.336 35.32zm118.359 0c0 19.503-15.817 124.668-35.336 124.668-19.495 0-35.304-105.173-35.304-124.668 0-19.495 15.817-35.32 35.304-35.32 19.519 0 35.336 15.825 35.336 35.32z" fill="#104956"/>
    <path d="M386.885 315.242c0 126.33-44.599 84.259-99.643 84.259-55.028 0-99.643 42.071-99.643-84.259 0-72.231 44.631-130.788 99.643-130.788 55.028.008 99.643 58.565 99.643 130.788z" fill="#c11043"/>
    <path d="M213.025 228.194c21 9.539 46.568 14.375 74.232 14.375 27.648 0 53.201-4.836 74.201-14.367-18.243-26.782-44.694-43.741-74.216-43.741-29.515.001-55.958 16.952-74.217 43.733z" fill="#a30a3d"/>
    <path d="M267.809 487.219c0 14.935-17.802 16.904-39.739 16.904s-39.739-1.961-39.739-16.904 17.802-35.509 39.739-35.509c21.937 0 39.739 20.567 39.739 35.509z" fill="#f45188"/>
    <path d="M267.809 487.219c0 14.935-17.802 16.904-39.739 16.904s-39.739-1.961-39.739-16.904" fill="#d83573"/>
    <path d="M386.16 487.219c0 14.935-17.802 16.904-39.739 16.904s-39.739-1.961-39.739-16.904 17.802-35.509 39.739-35.509 39.739 20.567 39.739 35.509z" fill="#f45188"/>
    <path d="M386.16 487.219c0 14.935-17.802 16.904-39.739 16.904s-39.739-1.961-39.739-16.904" fill="#d83573"/>
    <path d="M416.195 124.258c0 63.008-57.738 94.681-128.937 94.681-71.215 0-128.969-31.673-128.969-94.681C158.288 61.235 216.042 0 287.257 0c71.2 0 128.938 61.235 128.938 124.258z" fill="#ce5715"/>
    <path d="M416.195 124.258c0 63.008-57.738 94.681-128.937 94.681-71.215 0-128.969-31.673-128.969-94.681 0-63.023 57.754-72.405 128.969-72.405 71.199.001 128.937 9.382 128.937 72.405z" fill="#f9a9a0"/>
    <path d="M416.195 124.258c0 63.008-57.738 94.681-128.937 94.681-71.215 0-128.969-31.673-128.969-94.681" fill="#ff9997"/>
    <circle cx="207" cy="140" r="12" fill="#113e49"/>
    <path d="M218.752 140.367c0 6.388-5.167 11.54-11.54 11.54-6.372 0-11.524-5.152-11.524-11.54"/>
    <path d="M229.961 164.423a2.377 2.377 0 0 1-1.725-.717c-5.632-5.624-13.107-8.72-21.047-8.72h-.016c-7.94 0-15.399 3.104-21 8.712-.953.953-2.489.977-3.434.008a2.4 2.4 0 0 1-.031-3.419c6.538-6.546 15.218-10.161 24.458-10.161h.016c9.263 0 17.951 3.592 24.505 10.145.937.937.937 2.505 0 3.434-.466.497-1.081.718-1.726.718z" fill="#ffd3c5"/>
    <circle cx="330" cy="140" r="12" fill="#113e49"/>
    <path d="M318.332 140.367a11.52 11.52 0 0 0 11.54 11.54c6.372 0 11.524-5.152 11.524-11.54"/>
    <path d="M307.115 164.423c.599 0 1.229-.221 1.709-.717 5.632-5.624 13.107-8.72 21.047-8.72h.016c7.94 0 15.415 3.104 21.016 8.712a2.405 2.405 0 0 0 3.434.008c.953-.922.969-2.458.016-3.419-6.506-6.546-15.218-10.161-24.458-10.161h-.016c-9.248 0-17.936 3.592-24.505 10.145-.922.937-.922 2.505 0 3.434.481.497 1.095.718 1.741.718z" fill="#ffd3c5"/>
    <g fill="#f45188">
        <path d="M310.518 284.223c-6.215.339-12.335 1.757-18.204 4.017-2.56-5.75-5.892-11.083-10.043-15.714-4.135 4.632-7.467 9.964-10.027 15.714-5.868-2.261-11.997-3.679-18.204-4.017.339 6.207 1.757 12.327 4.017 18.211-5.75 2.552-11.091 5.876-15.714 10.027 4.624 4.151 9.964 7.483 15.714 10.035-2.261 5.876-3.679 11.997-4.017 18.204 6.215-.339 12.335-1.764 18.211-4.017 2.552 5.742 5.884 11.075 10.019 15.707 4.151-4.632 7.483-9.956 10.035-15.707 5.868 2.261 11.997 3.679 18.211 4.017-.339-6.199-1.757-12.319-4.017-18.204 5.75-2.552 11.091-5.884 15.707-10.043-4.616-4.151-9.956-7.475-15.707-10.027 2.262-5.876 3.68-11.996 4.019-18.203zm-12.887 28.239c0 2.103-.165 4.159-.394 6.199-1.276 1.599-2.615 3.167-4.104 4.655-1.489 1.489-3.064 2.828-4.663 4.104-2.032.228-4.096.386-6.199.394-2.095 0-4.151-.165-6.183-.386-1.607-1.284-3.182-2.623-4.679-4.112-1.481-1.481-2.812-3.048-4.096-4.647-.228-2.048-.394-4.104-.394-6.207 0-2.103.165-4.159.394-6.207 1.276-1.599 2.615-3.159 4.096-4.647 1.489-1.481 3.072-2.828 4.671-4.104 2.04-.228 4.104-.394 6.191-.394 2.111 0 4.159.165 6.191.386 1.607 1.284 3.174 2.623 4.671 4.112 1.489 1.481 2.828 3.056 4.104 4.655.237 2.04.394 4.096.394 6.199zm40.527-23.15c.677-1.788 1.252-3.631 1.78-5.49a106.898 106.898 0 0 0-13.091-15.919 107.837 107.837 0 0 0-15.919-13.107 62.535 62.535 0 0 0-5.506 1.796 60.03 60.03 0 0 1 5.104 27.64 59.989 59.989 0 0 1 27.632 5.08z"/>
        <path d="M226.408 335.604c-.693 1.796-1.276 3.631-1.804 5.49a106.667 106.667 0 0 0 13.115 15.919 107.864 107.864 0 0 0 15.919 13.107 63.246 63.246 0 0 0 5.498-1.796 60.127 60.127 0 0 1-5.096-27.64 59.861 59.861 0 0 1-27.632-5.08zm79.013 32.729a60.315 60.315 0 0 0 5.482 1.796 106.522 106.522 0 0 0 15.927-13.099 107.244 107.244 0 0 0 13.091-15.919 56.528 56.528 0 0 0-1.78-5.49 60.101 60.101 0 0 1-27.64 5.088 59.956 59.956 0 0 1-5.08 27.624zm-46.3-111.75a61.99 61.99 0 0 0-5.482-1.788 106.868 106.868 0 0 0-15.919 13.099 107.807 107.807 0 0 0-13.115 15.919 56.652 56.652 0 0 0 1.804 5.49 59.922 59.922 0 0 1 27.632-5.089 60.403 60.403 0 0 1 5.08-27.631zm86.166 55.871c0-7.018-.685-13.879-1.977-20.512a66.362 66.362 0 0 0-5.151-2.623 60.138 60.138 0 0 1-15.943 23.142 60.13 60.13 0 0 1 15.943 23.15 58.57 58.57 0 0 0 5.144-2.623 106.904 106.904 0 0 0 1.984-20.534zm-118.879-23.142a63.756 63.756 0 0 0-5.167 2.623 107.36 107.36 0 0 0-1.985 20.519c0 7.018.693 13.887 1.985 20.527a62.416 62.416 0 0 0 5.167 2.615 60.127 60.127 0 0 1 15.927-23.142 60.135 60.135 0 0 1-15.927-23.142zm32.729 79.029c.772 1.749 1.662 3.458 2.615 5.144a106.68 106.68 0 0 0 41.039 0 61.13 61.13 0 0 0 2.623-5.151 60.044 60.044 0 0 1-23.15-15.935 60.043 60.043 0 0 1-23.127 15.942zm46.269-111.758a57.561 57.561 0 0 0-2.615-5.152 107.297 107.297 0 0 0-20.519-1.985c-7.018 0-13.879.693-20.512 1.985a63.612 63.612 0 0 0-2.631 5.152 60.034 60.034 0 0 1 23.142 15.935 60.422 60.422 0 0 1 23.135-15.935z"/>
    </g>
</svg>
