<svg xmlns="http://www.w3.org/2000/svg" viewBox="0 0 504 504">
    <path d="M157.889 115.358c0 15.494-12.572 28.058-28.058 28.058h-1.694c-15.494 0-28.058-12.572-28.058-28.058 0-15.494 12.572-28.058 28.058-28.058h1.694c15.486-.008 28.058 12.564 28.058 28.058zm246.154 0c0 15.494-12.572 28.058-28.058 28.058h-1.694c-15.494 0-28.058-12.572-28.058-28.058 0-15.494 12.572-28.058 28.058-28.058h1.694c15.486-.008 28.058 12.564 28.058 28.058z" fill="#113e49"/>
    <g fill="#232728">
        <path d="M351.701 315.242c0 126.322-44.599 84.259-99.643 84.259-55.028 0-99.643 42.063-99.643-84.259 0-72.231 44.631-130.788 99.643-130.788 55.028.008 99.643 58.565 99.643 130.788z"/>
        <path d="M228.214 361.905c0 19.511-15.817 124.676-35.336 124.676-19.495 0-35.304-105.173-35.304-124.676 0-19.495 15.817-35.32 35.304-35.32 19.519 0 35.336 15.833 35.336 35.32zm118.351 0c0 19.511-15.817 124.676-35.336 124.676-19.495 0-35.304-105.173-35.304-124.676 0-19.495 15.817-35.32 35.304-35.32 19.519 0 35.336 15.833 35.336 35.32z"/>
    </g>
    <path d="M232.625 487.219c0 14.935-17.802 16.904-39.739 16.904s-39.739-1.969-39.739-16.904 17.802-35.509 39.739-35.509 39.739 20.567 39.739 35.509z" fill="#3e4142"/>
    <path d="M232.625 487.219c0 14.935-17.802 16.904-39.739 16.904s-39.739-1.969-39.739-16.904" fill="#232728"/>
    <path d="M350.984 487.219c0 14.935-17.802 16.904-39.739 16.904s-39.739-1.969-39.739-16.904 17.802-35.509 39.739-35.509 39.739 20.567 39.739 35.509z" fill="#3e4142"/>
    <path d="M350.984 487.219c0 14.935-17.802 16.904-39.739 16.904s-39.739-1.969-39.739-16.904m-30.437-283.451c10.027 11.28 3.663 33.296-14.218 49.215-17.881 15.896-114.018 85.031-124.062 73.767-10.012-11.296 69.892-98.706 87.773-114.601 17.865-15.903 40.48-19.653 50.507-8.381zm21.977 0c-10.027 11.28-3.663 33.296 14.218 49.215 17.881 15.896 114.018 85.031 124.062 73.767 10.012-11.296-69.892-98.706-87.773-114.601-17.865-15.903-40.48-19.653-50.507-8.381z" fill="#232728"/>
    <path fill="#e2ded3" d="M256.981 244.846h-9.846l-15.754-45.308h41.354z"/>
    <path d="M381.011 124.258c0 63-57.738 94.681-128.937 94.681-71.215 0-128.969-31.673-128.969-94.681C123.104 61.227 180.858 0 252.073 0c71.2 0 128.938 61.227 128.938 124.258z" fill="#cce5e4"/>
    <path d="M381.011 124.258c0 63-57.738 94.681-128.937 94.681-71.215 0-128.969-31.673-128.969-94.681" fill="#b4d6d5"/>
    <circle cx="191" cy="69" r="12" fill="#113e49"/>
    <path d="M202.275 68.584c0 6.388-5.167 11.54-11.54 11.54s-11.524-5.152-11.524-11.54"/>
    <path d="M213.492 92.633c-.614 0-1.245-.213-1.725-.709-5.632-5.632-13.107-8.72-21.047-8.72h-.016c-7.94 0-15.399 3.096-21 8.704-.953.953-2.489.985-3.434.016a2.402 2.402 0 0 1-.032-3.419c6.538-6.554 15.218-10.169 24.458-10.169h.016c9.263 0 17.952 3.6 24.505 10.153.937.937.937 2.505 0 3.434-.464.489-1.079.71-1.725.71z" fill="#fff"/>
    <circle cx="313" cy="69" r="12" fill="#113e49"/>
    <path d="M301.855 68.584c0 6.388 5.152 11.54 11.54 11.54 6.372 0 11.524-5.152 11.524-11.54"/>
    <path d="M290.639 92.633c.599 0 1.229-.213 1.709-.709 5.632-5.632 13.107-8.72 21.047-8.72h.016c7.94 0 15.415 3.096 21.016 8.704a2.405 2.405 0 0 0 3.434.016c.953-.922.969-2.458.016-3.419-6.506-6.554-15.218-10.169-24.458-10.169h-.016c-9.247 0-17.936 3.6-24.505 10.153-.922.937-.922 2.505 0 3.434.48.489 1.095.71 1.741.71z" fill="#fff"/>
    <g fill="#ce0d4e">
        <path d="M251.656 239.923l-57.959 26.112v-57.958l57.959 26.112zm.803-5.734l57.959-26.112v57.958l-57.959-26.112z"/>
        <path d="M268.394 237.056c0 7.672-6.231 13.879-13.879 13.879h-4.923c-7.648 0-13.879-6.207-13.879-13.879 0-7.664 6.231-13.871 13.879-13.871h4.923c7.649 0 13.879 6.207 13.879 13.871z"/>
    </g>
    <path d="M203.229 123.03c0 10.516-4.001 21.039-12.012 29.05-6.357 6.365-14.801 9.862-23.796 9.862-8.988-.008-17.447-3.505-23.796-9.87-5.23-5.23-8.105-12.193-8.121-19.59v-.008c0-7.396 2.891-14.36 8.121-19.598 8.972-8.964 23.536-8.964 32.492 0 3.631 3.616 5.616 8.42 5.616 13.548v.008c0 5.112-1.985 9.933-5.616 13.556-3.048 3.048-7.089 4.726-11.398 4.726s-8.357-1.678-11.398-4.726l5.569-5.569c1.552 1.56 3.631 2.418 5.829 2.418s4.277-.859 5.829-2.418a11.217 11.217 0 0 0 3.308-7.987v-.008c0-3.017-1.166-5.845-3.308-7.979-5.876-5.884-15.462-5.884-21.354 0-7.475 7.475-7.491 20.551 0 28.058 4.876 4.876 11.351 7.562 18.227 7.562 6.892 0 13.367-2.686 18.227-7.554 12.942-12.958 12.965-34.005 0-46.962l5.569-5.569c8.01 8.003 12.012 18.526 12.012 29.05zm97.658 0c0 10.516 4.001 21.039 12.012 29.05 6.357 6.365 14.801 9.862 23.796 9.862 8.988-.008 17.447-3.505 23.796-9.87 5.23-5.23 8.105-12.193 8.121-19.59v-.008c0-7.396-2.891-14.36-8.121-19.598-8.972-8.964-23.536-8.964-32.492 0-3.631 3.616-5.616 8.42-5.616 13.548v.008c0 5.112 1.985 9.933 5.616 13.556 3.048 3.048 7.089 4.726 11.398 4.726s8.357-1.678 11.398-4.726l-5.569-5.569c-1.552 1.56-3.631 2.418-5.829 2.418s-4.277-.859-5.829-2.418a11.217 11.217 0 0 1-3.308-7.987v-.008c0-3.017 1.166-5.845 3.308-7.979 5.876-5.884 15.462-5.884 21.354 0 7.475 7.475 7.491 20.551 0 28.058-4.876 4.876-11.351 7.562-18.227 7.562-6.892 0-13.367-2.686-18.227-7.554-12.942-12.958-12.965-34.005 0-46.962l-5.569-5.569c-8.011 8.003-12.012 18.526-12.012 29.05z" fill="#e21454"/>
    <path d="M224.323 213.165a4.433 4.433 0 0 1-4.427 4.435 4.433 4.433 0 0 1-4.427-4.435v-64a4.426 4.426 0 0 1 4.427-4.427 4.42 4.42 0 0 1 4.427 4.427v64zm64.331 0a4.433 4.433 0 0 1-4.427 4.435 4.433 4.433 0 0 1-4.427-4.435v-64a4.426 4.426 0 0 1 4.427-4.427 4.42 4.42 0 0 1 4.427 4.427v64z" fill="#90b2b1"/>
    <path d="M288.985 144.4c0 8.153-6.617 14.769-14.769 14.769h-44.308c-8.153 0-14.769-6.617-14.769-14.769 0-8.153 6.617-14.769 14.769-14.769h44.308c8.152 0 14.769 6.616 14.769 14.769z" fill="#930a3c"/>
    <path d="M274.208 143.659H229.9c-5.6 0-10.413 3.151-12.926 7.751 2.505 4.6 7.326 7.751 12.926 7.751h44.308c5.6 0 10.413-3.151 12.926-7.751-2.505-4.592-7.326-7.751-12.926-7.751z" fill="#e21454"/>
    <g fill="#113e49">
        <path d="M145.609 85.819c0 8.972-7.27 16.242-16.242 16.242h-.992c-8.964 0-16.242-7.278-16.242-16.242 0-8.972 7.286-16.242 16.242-16.242h.992c8.971-.008 16.242 7.27 16.242 16.242z"/>
        <path d="M147.578 71.42c0 6.853-5.561 12.422-12.414 12.422h-.756c-6.853 0-12.43-5.569-12.43-12.422 0-6.861 5.577-12.422 12.43-12.422h.756c6.853 0 12.414 5.561 12.414 12.422z"/>
        <path d="M154.36 58.62c0 5.758-4.687 10.453-10.453 10.453h-.63c-5.766 0-10.453-4.695-10.453-10.453 0-5.774 4.687-10.453 10.453-10.453h.63c5.766 0 10.453 4.679 10.453 10.453zm204.138 27.199c0 8.972 7.27 16.242 16.242 16.242h.985c8.964 0 16.242-7.278 16.242-16.242 0-8.972-7.286-16.242-16.242-16.242h-.985c-8.971-.008-16.242 7.27-16.242 16.242z"/>
        <path d="M356.529 71.42c0 6.853 5.569 12.422 12.422 12.422h.756c6.853 0 12.422-5.569 12.422-12.422 0-6.861-5.569-12.422-12.422-12.422h-.756c-6.853 0-12.422 5.561-12.422 12.422z"/>
        <path d="M349.747 58.62c0 5.758 4.695 10.453 10.453 10.453h.638c5.766 0 10.445-4.695 10.445-10.453 0-5.774-4.679-10.453-10.445-10.453h-.638c-5.758 0-10.453 4.679-10.453 10.453z"/>
    </g>
</svg>
