<svg xmlns="http://www.w3.org/2000/svg" viewBox="0 0 504 504">
    <path d="M143.738 219.727s-43.323 39.385-32.492 136.862c0 0 4.427 23.631 1.969 33.477-2.458 9.846 8.365 22.15 22.15 4.923 13.792-17.235 31.508-45.292 74.342-16.738 42.835 28.554 131.938-38.896 148.677-4.923s27.569 7.877 24.119-17.723c-3.45-25.6-19.692-95.011 28.058-82.708 47.75 12.304 22.646-14.769 1.481-41.354s40.369-6.892 17.723-28.554c-22.654-21.662-73.35 64.985-122.581 11.815s-59.565 12.8-59.565 12.8l-67.442-.985-36.439-6.892z" fill="#6d0000"/>
    <path d="M220.381 203.768c10.019 11.28 3.663 33.296-14.218 49.215-17.888 15.896-114.018 85.031-124.062 73.767-10.012-11.296 69.892-98.706 87.773-114.601 17.857-15.903 40.471-19.653 50.507-8.381zm21.968 0c-10.027 11.28-3.663 33.296 14.21 49.215 17.888 15.896 114.026 85.031 124.062 73.767 10.019-11.296-69.884-98.706-87.765-114.601-17.857-15.903-40.472-19.653-50.507-8.381zm-34.831 158.137c0 19.511-15.825 124.676-35.336 124.676-19.503 0-35.304-105.173-35.304-124.676 0-19.495 15.809-35.32 35.304-35.32 19.511 0 35.336 15.833 35.336 35.32zm118.35 0c0 19.511-15.809 124.676-35.336 124.676-19.487 0-35.289-105.173-35.289-124.676 0-19.495 15.809-35.32 35.289-35.32 19.527 0 35.336 15.833 35.336 35.32z" fill="#f2b09c"/>
    <path d="M331.012 315.242c0 126.322-44.591 84.259-99.643 84.259-55.028 0-99.643 42.063-99.643-84.259 0-72.231 44.623-130.788 99.643-130.788 55.028.008 99.643 58.565 99.643 130.788zM211.936 487.219c0 14.935-17.802 16.904-39.731 16.904-21.945 0-39.747-1.969-39.747-16.904s17.802-35.509 39.747-35.509c21.93 0 39.731 20.567 39.731 35.509z" fill="#f9c1ac"/>
    <path d="M211.936 487.219c0 14.935-17.802 16.904-39.731 16.904-21.945 0-39.747-1.969-39.747-16.904" fill="#7a4a2a"/>
    <path d="M330.287 487.219c0 14.935-17.81 16.904-39.739 16.904-21.945 0-39.739-1.969-39.739-16.904s17.794-35.509 39.739-35.509c21.93 0 39.739 20.567 39.739 35.509z" fill="#f9c1ac"/>
    <path d="M330.287 487.219c0 14.935-17.81 16.904-39.739 16.904-21.945 0-39.739-1.969-39.739-16.904" fill="#7a4a2a"/>
    <path d="M163.43 200.2s-24.285 19.527-23.631 25.435c.654 5.908 26.262 2.135 24.946 12.642S210.691 273.062 263.86 256s53.823-27.569 51.854-32.815c-1.969-5.262-31.5-34.139-48.569-28.893-17.069 5.262-77.462.662-77.462.662L163.43 200.2z" fill="#a11"/>
    <path d="M210.692 233.661c6.743.63 13.627 1.032 20.693 1.032 7.042 0 13.926-.402 20.661-1.032v-34.123h-41.354v34.123z" fill="#c6bfaf"/>
    <path d="M360.322 124.258c0 63-57.738 94.681-128.937 94.681-71.215 0-128.969-31.673-128.969-94.681C102.416 61.227 160.169 0 231.385 0c71.199 0 128.937 61.227 128.937 124.258z" fill="#7a4a2a"/>
    <path d="M360.322 124.258c0 63-57.738 94.681-128.937 94.681-71.215 0-128.969-31.673-128.969-94.681 0-63.031 57.754-74.382 128.969-74.382 71.199.001 128.937 11.351 128.937 74.382z" fill="#f9c1ac"/>
    <path d="M360.322 124.258c0 63-57.738 94.681-128.937 94.681-71.215 0-128.969-31.673-128.969-94.681" fill="#f2b09c"/>
    <circle cx="170" cy="136" r="12" fill="#113e49"/>
    <path d="M181.571 136.428c0 6.388-5.159 11.54-11.54 11.54-6.365 0-11.516-5.152-11.516-11.54"/>
    <path d="M192.796 160.477c-.614 0-1.245-.213-1.725-.709-5.632-5.632-13.107-8.72-21.047-8.72H170c-7.932 0-15.392 3.096-20.992 8.704-.953.953-2.497.985-3.434.016a2.409 2.409 0 0 1-.032-3.419c6.538-6.554 15.218-10.169 24.45-10.169h.024c9.263 0 17.952 3.6 24.505 10.153.937.937.937 2.505 0 3.434-.473.497-1.08.71-1.725.71z" fill="#ffd3c5"/>
    <circle cx="293" cy="136" r="12" fill="#113e49"/>
    <path d="M281.167 136.428a11.52 11.52 0 0 0 11.54 11.54c6.365 0 11.524-5.152 11.524-11.54"/>
    <path d="M269.942 160.477c.607 0 1.237-.213 1.709-.709 5.632-5.632 13.123-8.72 21.055-8.72h.016c7.94 0 15.407 3.096 21.016 8.704a2.405 2.405 0 0 0 3.434.016c.953-.922.961-2.458.016-3.419-6.506-6.554-15.226-10.169-24.458-10.169h-.024c-9.24 0-17.936 3.6-24.505 10.153-.922.937-.922 2.505 0 3.434a2.39 2.39 0 0 0 1.741.71z" fill="#ffd3c5"/>
    <path d="M230.384 148.338c-27.372 0-49.554 19.291-49.554 43.095v14.265c0 23.796 22.181 43.095 49.554 43.095s49.562-19.291 49.562-43.095v-14.265c0-23.804-22.197-43.095-49.562-43.095zm29.491 44.773c0 14.155-13.202 25.632-29.491 25.632-16.274 0-29.475-11.477-29.475-25.632v-8.476c0-14.155 13.202-25.647 29.475-25.647 16.289 0 29.491 11.492 29.491 25.647v8.476zM134.719 362c10.862 67.679 50.018 37.51 96.65 37.51 46.647 0 85.788 30.169 96.65-37.51h-193.3z" fill="#7a4a2a"/>
    <circle cx="180" cy="261" r="20" fill="#b6bfc1"/>
    <path d="M199.861 260.923c0 11.059-8.964 20.015-20.015 20.015-11.059 0-20.023-8.956-20.023-20.015" fill="#9ba8aa"/>
    <path d="M247.359 188.463c0 8.846-7.152 15.998-15.99 15.998-8.838 0-15.998-7.152-15.998-15.998v-10.335c0-8.83 7.16-15.998 15.998-15.998s15.99 7.168 15.99 15.998v10.335z" fill="#6d0000"/>
    <path d="M215.985 192.646c1.843 6.798 7.995 11.815 15.376 11.815 7.381 0 13.533-5.018 15.376-11.815-1.843-6.798-7.995-11.815-15.376-11.815-7.381 0-13.525 5.017-15.376 11.815z" fill="#a11"/>
    <path d="M222.507 341.819c0 8.972-7.278 16.242-16.25 16.242-8.964 0-16.242-7.278-16.242-16.242 0-8.972 7.278-16.242 16.242-16.242 8.972-.008 16.25 7.27 16.25 16.242zm4.671-36.431c0 8.972-7.278 16.242-16.242 16.242-8.972 0-16.25-7.278-16.25-16.242 0-8.972 7.286-16.242 16.25-16.242 8.964-.008 16.242 7.271 16.242 16.242zm40.866 0c0 8.972-7.286 16.242-16.242 16.242-8.972 0-16.25-7.278-16.25-16.242 0-8.972 7.286-16.242 16.25-16.242 8.956-.008 16.242 7.271 16.242 16.242zm0 36.431c0 8.972-7.286 16.242-16.242 16.242-8.972 0-16.25-7.278-16.25-16.242 0-8.972 7.286-16.242 16.25-16.242 8.956-.008 16.242 7.27 16.242 16.242z" fill="#f2b09c"/>
    <path d="M93.531 416.815c0 3.986-3.237 7.215-7.223 7.215a7.216 7.216 0 0 1-7.223-7.215V217.261a7.216 7.216 0 0 1 7.223-7.215c3.986 0 7.223 3.23 7.223 7.215v199.554z" fill="#7a4a2a"/>
    <path fill="#b6bfc1" d="M108.583 207.415l-22.276 22.292-22.283-22.292 22.283-73.507z"/>
    <path fill="#93a2a5" d="M86.307 133.908l22.276 73.507-22.276 22.292"/>
    <circle cx="377" cy="346" r="63" fill="#b0bfc1"/>
    <path d="M421.644 301.694c24.608 24.6 24.608 64.504 0 89.104-24.608 24.615-64.504 24.615-89.112 0" fill="#93a2a5"/>
</svg>
