<svg xmlns="http://www.w3.org/2000/svg" viewBox="0 0 504 504">
    <path d="M241.073 203.768c10.027 11.28 3.663 33.304-14.218 49.223-17.881 15.896-114.018 85.024-124.062 73.767-10.012-11.296 69.892-98.714 87.773-114.609 17.865-15.895 40.48-19.653 50.507-8.381zm21.977 0c-10.027 11.28-3.663 33.304 14.218 49.223 17.881 15.896 114.018 85.024 124.062 73.767 10.012-11.296-69.892-98.714-87.773-114.609-17.865-15.895-40.48-19.653-50.507-8.381zm83.519 158.145c0 19.503-15.817 124.668-35.336 124.668-19.495 0-35.304-105.173-35.304-124.668 0-19.495 15.817-35.32 35.304-35.32 19.519 0 35.336 15.825 35.336 35.32zm-118.351 0c0 19.503-15.817 124.668-35.336 124.668-19.495 0-35.304-105.173-35.304-124.668 0-19.495 15.817-35.32 35.304-35.32 19.519 0 35.336 15.825 35.336 35.32z" fill="#efbba0"/>
    <path d="M351.705 315.242c0 126.33-44.599 84.259-99.643 84.259-55.028 0-99.643 42.071-99.643-84.259 0-72.231 44.631-130.781 99.643-130.781 55.028.009 99.643 58.558 99.643 130.781z"/>
    <path d="M232.629 487.219c0 14.935-17.802 16.904-39.739 16.904s-39.739-1.961-39.739-16.904 17.802-35.509 39.739-35.509 39.739 20.567 39.739 35.509z" fill="#c13a7e"/>
    <path d="M232.629 487.219c0 14.935-17.802 16.904-39.739 16.904s-39.739-1.961-39.739-16.904" fill="#aa2d71"/>
    <path d="M350.988 487.219c0 14.935-17.802 16.904-39.739 16.904s-39.739-1.961-39.739-16.904 17.802-35.509 39.739-35.509 39.739 20.567 39.739 35.509z" fill="#c13a7e"/>
    <path d="M350.988 487.219c0 14.935-17.802 16.904-39.739 16.904s-39.739-1.961-39.739-16.904" fill="#aa2d71"/>
    <path d="M381.015 124.258c0 63.008-57.738 94.681-128.937 94.681-71.215 0-128.969-31.673-128.969-94.681C123.108 61.235 180.862 0 252.077 0c71.2 0 128.938 61.235 128.938 124.258z" fill="#565353"/>
    <path d="M381.015 124.258c0 63.008-57.738 94.681-128.937 94.681-71.215 0-128.969-31.673-128.969-94.681"/>
    <path d="M122.982 287.744c-14.36 18.723-24.08 34.627-20.181 39.014 3.82 4.285 20.141-3.096 39.849-14.738l2.308-2.308-21.976-21.968zm235.45 22.465c21.063 12.674 38.88 21.063 42.89 16.557 3.907-4.403-5.876-20.378-20.291-39.156l-22.599 22.599z" fill="#aa2d71"/>
    <path d="M328.2 171.985c0 17.392-14.1 31.508-31.508 31.508h-89.269c-17.4 0-31.508-14.115-31.508-31.508v-64.339c0-17.4 14.108-31.508 31.508-31.508h89.269c17.408 0 31.508 14.108 31.508 31.508v64.339z" fill="#f7c8ad"/>
    <path d="M175.915 124.258v47.726c0 17.392 14.108 31.508 31.508 31.508h89.269c17.408 0 31.508-14.115 31.508-31.508v-47.726H175.915z" fill="#efbba0"/>
    <circle cx="206" cy="134" r="12" fill="#113e49"/>
    <path d="M217.246 133.908c0 6.388-5.167 11.54-11.54 11.54-6.372 0-11.524-5.152-11.524-11.54"/>
    <path d="M228.462 157.972a2.382 2.382 0 0 1-1.725-.725c-5.632-5.616-13.107-8.72-21.047-8.72h-.016c-7.94 0-15.399 3.111-21 8.72-.953.953-2.489.969-3.434 0a2.402 2.402 0 0 1-.032-3.419c6.538-6.538 15.218-10.153 24.458-10.153h.016c9.263 0 17.952 3.584 24.505 10.138.937.937.937 2.505 0 3.434a2.34 2.34 0 0 1-1.725.725z" fill="#ffd3c5"/>
    <circle cx="298" cy="134" r="12" fill="#113e49"/>
    <path d="M286.878 133.908c0 6.388 5.159 11.54 11.548 11.54 6.372 0 11.524-5.152 11.524-11.54"/>
    <path d="M275.669 157.972c.599 0 1.221-.228 1.709-.725 5.632-5.616 13.107-8.72 21.047-8.72h.008c7.948 0 15.423 3.111 21.023 8.72a2.405 2.405 0 0 0 3.434 0c.953-.922.969-2.458.016-3.419-6.514-6.538-15.218-10.153-24.466-10.153h-.008c-9.247 0-17.928 3.584-24.505 10.138-.922.937-.922 2.505 0 3.434a2.392 2.392 0 0 0 1.742.725z" fill="#ffd3c5"/>
    <g fill="#c13a7e">
        <circle cx="106" cy="330" r="31"/>
        <circle cx="398" cy="330" r="31"/>
        <circle cx="252" cy="23" r="23"/>
    </g>
</svg>
